G04 #@! TF.FileFunction,Copper,L3,Inr,Signal*
%FSLAX46Y46*%
G04 Gerber Fmt 4.6, Leading zero omitted, Abs format (unit mm)*
G04 Created by KiCad (PCBNEW 4.0.6) date 09/14/17 13:16:33*
%MOMM*%
%LPD*%
G01*
G04 APERTURE LIST*
%ADD10C,0.100000*%
%ADD11C,1.506220*%
%ADD12O,1.300000X2.000000*%
%ADD13C,1.500000*%
%ADD14R,2.000000X1.600000*%
%ADD15O,2.000000X1.600000*%
%ADD16R,1.600000X2.000000*%
%ADD17O,1.600000X2.000000*%
%ADD18C,1.200000*%
%ADD19R,1.500000X1.500000*%
%ADD20O,1.500000X1.500000*%
%ADD21C,1.600000*%
%ADD22C,0.600000*%
%ADD23C,0.465000*%
%ADD24C,0.900000*%
%ADD25C,1.400000*%
%ADD26C,0.250000*%
%ADD27C,1.000000*%
%ADD28C,1.500000*%
%ADD29C,0.500000*%
%ADD30C,0.200000*%
G04 APERTURE END LIST*
D10*
D11*
X95885000Y-57023000D03*
X98425000Y-57023000D03*
X100965000Y-57023000D03*
X103505000Y-57023000D03*
X106045000Y-57023000D03*
X108585000Y-57023000D03*
X111125000Y-57023000D03*
X113665000Y-57023000D03*
X102000000Y-86350000D03*
X102000000Y-83810000D03*
X102000000Y-81270000D03*
X102000000Y-78730000D03*
X102000000Y-76190000D03*
X102000000Y-73650000D03*
X102610000Y-104000000D03*
X105150000Y-104000000D03*
X107690000Y-104000000D03*
X110230000Y-104000000D03*
X112770000Y-104000000D03*
X115310000Y-104000000D03*
X117850000Y-104000000D03*
X120390000Y-104000000D03*
D12*
X138430000Y-88068000D03*
X138430000Y-72828000D03*
X135890000Y-88068000D03*
X135890000Y-72828000D03*
X133350000Y-88068000D03*
X133350000Y-72828000D03*
X130810000Y-88068000D03*
X130810000Y-72828000D03*
X128270000Y-88068000D03*
X128270000Y-72828000D03*
X125730000Y-88068000D03*
X125730000Y-72828000D03*
X123190000Y-88068000D03*
X123190000Y-72828000D03*
X120650000Y-88068000D03*
X120650000Y-72828000D03*
X118110000Y-88068000D03*
X118110000Y-72828000D03*
X115570000Y-88068000D03*
X115570000Y-72828000D03*
X113030000Y-88068000D03*
X113030000Y-72828000D03*
X110490000Y-88068000D03*
X110490000Y-72828000D03*
X107950000Y-88068000D03*
X107950000Y-72828000D03*
X105410000Y-88068000D03*
X105410000Y-72828000D03*
D11*
X97500000Y-78960000D03*
X97500000Y-81500000D03*
X97500000Y-84040000D03*
X130190000Y-96500000D03*
X132730000Y-96500000D03*
X135270000Y-96500000D03*
X137810000Y-96500000D03*
X99500000Y-93960000D03*
X99500000Y-96500000D03*
X99500000Y-99040000D03*
X126500000Y-93960000D03*
X126500000Y-96500000D03*
X126500000Y-99040000D03*
X123920000Y-57000000D03*
X126460000Y-57000000D03*
X129000000Y-57000000D03*
X131540000Y-57000000D03*
X134080000Y-57000000D03*
X127420000Y-104000000D03*
X129960000Y-104000000D03*
X132500000Y-104000000D03*
X135040000Y-104000000D03*
X137580000Y-104000000D03*
D13*
X83370000Y-64770000D03*
X83370000Y-62230000D03*
X85910000Y-64770000D03*
X85910000Y-62230000D03*
X88450000Y-64770000D03*
X88450000Y-62230000D03*
X90990000Y-64770000D03*
X90990000Y-62230000D03*
X93530000Y-64770000D03*
X93530000Y-62230000D03*
X96070000Y-64770000D03*
X96070000Y-62230000D03*
X98610000Y-64770000D03*
X98610000Y-62230000D03*
X101150000Y-64770000D03*
X101150000Y-62230000D03*
X103690000Y-64770000D03*
X103690000Y-62230000D03*
X106230000Y-64770000D03*
X106230000Y-62230000D03*
X108770000Y-64770000D03*
X108770000Y-62230000D03*
X111310000Y-64770000D03*
X111310000Y-62230000D03*
X113850000Y-64770000D03*
X113850000Y-62230000D03*
X116390000Y-64770000D03*
X116390000Y-62230000D03*
X118930000Y-64770000D03*
X118930000Y-62230000D03*
X121470000Y-64770000D03*
X121470000Y-62230000D03*
X124010000Y-64770000D03*
X124010000Y-62230000D03*
X126550000Y-64770000D03*
X126550000Y-62230000D03*
X129090000Y-64770000D03*
X129090000Y-62230000D03*
X131630000Y-64770000D03*
X131630000Y-62230000D03*
D14*
X78105000Y-102263000D03*
D15*
X78105000Y-105763000D03*
D16*
X85880000Y-113665000D03*
D17*
X89380000Y-113665000D03*
D18*
X92988000Y-90055000D03*
X92988000Y-91555000D03*
X94488000Y-90055000D03*
X94488000Y-91555000D03*
X95988000Y-91555000D03*
X95988000Y-90055000D03*
D19*
X120660000Y-93960000D03*
D20*
X118120000Y-93960000D03*
X115580000Y-93960000D03*
X113040000Y-93960000D03*
X110500000Y-93960000D03*
X107960000Y-93960000D03*
X105420000Y-93960000D03*
X102880000Y-93960000D03*
X120660000Y-96500000D03*
X118120000Y-96500000D03*
X115580000Y-96500000D03*
X113040000Y-96500000D03*
X110500000Y-96500000D03*
X107960000Y-96500000D03*
X105420000Y-96500000D03*
X102880000Y-96500000D03*
X120660000Y-99040000D03*
X118120000Y-99040000D03*
X115580000Y-99040000D03*
X113040000Y-99040000D03*
X110500000Y-99040000D03*
X107960000Y-99040000D03*
X105420000Y-99040000D03*
X102880000Y-99040000D03*
D21*
X84150000Y-57450000D03*
X84150000Y-52450000D03*
D22*
X89250000Y-55550000D03*
D23*
X98501200Y-91897200D03*
X98094800Y-90373200D03*
X98501200Y-88798400D03*
X90779600Y-88722200D03*
X90779600Y-90805000D03*
X90779600Y-92837000D03*
D22*
X104394000Y-114173000D03*
D24*
X91500000Y-70000000D03*
X89000000Y-70000000D03*
D22*
X76000000Y-98000000D03*
X78000000Y-98000000D03*
D24*
X100000000Y-91000000D03*
D25*
X87000000Y-98000000D03*
D24*
X97500000Y-73500000D03*
X97500000Y-75500000D03*
X79500000Y-75500000D03*
X80250000Y-74000000D03*
D22*
X96750000Y-110250000D03*
D24*
X78500000Y-69500000D03*
X79000000Y-70500000D03*
X81000000Y-85000000D03*
X79500000Y-80000000D03*
D22*
X125400000Y-55000000D03*
X122600000Y-58100000D03*
X121500000Y-74500000D03*
X111480600Y-81280000D03*
X108610400Y-80721200D03*
X116713000Y-83362800D03*
X107950000Y-83362800D03*
X116865400Y-86918800D03*
X117043200Y-95072200D03*
X104902000Y-79451200D03*
X118287800Y-80492600D03*
X105918000Y-89814400D03*
X114808000Y-102489000D03*
X126669800Y-78232000D03*
X123799600Y-86334600D03*
X123952000Y-93319600D03*
X119443500Y-80327500D03*
X122529600Y-82270600D03*
X126746000Y-84150200D03*
X125412500Y-84137500D03*
D23*
X92150000Y-59150000D03*
X120100000Y-75050000D03*
X117000000Y-68500000D03*
D22*
X133540500Y-83502500D03*
X123596400Y-78740000D03*
D23*
X89750000Y-60050000D03*
X121900000Y-66500000D03*
X119150000Y-71700000D03*
X115350000Y-67800000D03*
D22*
X134747000Y-83743800D03*
X122682000Y-78930500D03*
X133477000Y-80899000D03*
X96850000Y-70100000D03*
X133413500Y-78359000D03*
D23*
X95450000Y-69600000D03*
X95400000Y-66050000D03*
D22*
X119700000Y-55450000D03*
X116050000Y-56500000D03*
X128193800Y-108458000D03*
X136677400Y-100380800D03*
X137160000Y-75514200D03*
X134620000Y-71628000D03*
X129590800Y-71805800D03*
X129743200Y-86029800D03*
X116509800Y-101117400D03*
X118033800Y-107137200D03*
X134010400Y-68935600D03*
X136017000Y-70713600D03*
X137718800Y-66624200D03*
X126809500Y-74739500D03*
X127482600Y-76149200D03*
X129730500Y-84899500D03*
X105410000Y-84836000D03*
X127190500Y-85534500D03*
X106172000Y-85534500D03*
X110464600Y-84251800D03*
X124079000Y-84201000D03*
X106743500Y-86233000D03*
X121856500Y-86169500D03*
X106045000Y-106553000D03*
X92456000Y-104394000D03*
X90500000Y-103500000D03*
X135000000Y-70500000D03*
X138500000Y-70500000D03*
X139000000Y-66500000D03*
X94640400Y-109524800D03*
X111000000Y-107000000D03*
X105500000Y-107500000D03*
X89000000Y-109000000D03*
X94183200Y-98766400D03*
X94900000Y-99300000D03*
X119329200Y-93395800D03*
X122364500Y-83185000D03*
D24*
X96500000Y-100500000D03*
X102997000Y-90995500D03*
D22*
X108458000Y-110109000D03*
X100965000Y-114554000D03*
D25*
X90000000Y-98500000D03*
D22*
X95500000Y-84000000D03*
X92000000Y-95500000D03*
X96000000Y-86000000D03*
X91500000Y-84500000D03*
X97500000Y-94000000D03*
X97500000Y-86000000D03*
D24*
X81500000Y-86500000D03*
D22*
X96000000Y-95500000D03*
D23*
X98500000Y-77350000D03*
D22*
X102362000Y-110363000D03*
X130657600Y-69189600D03*
X123266200Y-71069200D03*
X96500000Y-72300000D03*
X98780600Y-105664000D03*
X115950000Y-53250000D03*
X122450000Y-52400000D03*
D26*
X89250000Y-55550000D02*
X89250000Y-53150000D01*
X99500000Y-107500000D02*
X99500000Y-99040000D01*
X96750000Y-110250000D02*
X99500000Y-107500000D01*
X126460000Y-57000000D02*
X126460000Y-56060000D01*
X126460000Y-56060000D02*
X125400000Y-55000000D01*
X125210000Y-58250000D02*
X126460000Y-57000000D01*
X122750000Y-58250000D02*
X125210000Y-58250000D01*
X122600000Y-58100000D02*
X122750000Y-58250000D01*
X105150000Y-104000000D02*
X105150000Y-103384000D01*
X105150000Y-103384000D02*
X109042200Y-99491800D01*
X109042200Y-99491800D02*
X109042200Y-89408000D01*
X109042200Y-89408000D02*
X108966000Y-89331800D01*
X108966000Y-89331800D02*
X108966000Y-81559400D01*
X108966000Y-81559400D02*
X113030000Y-77495400D01*
X113030000Y-77495400D02*
X113030000Y-72828000D01*
X107690000Y-104000000D02*
X107690000Y-103663400D01*
X107690000Y-103663400D02*
X111607600Y-99745800D01*
X111607600Y-99745800D02*
X111607600Y-96062800D01*
X111607600Y-96062800D02*
X112623600Y-95046800D01*
X112623600Y-95046800D02*
X113487200Y-95046800D01*
X113487200Y-95046800D02*
X114147600Y-94386400D01*
X114147600Y-94386400D02*
X114147600Y-91719400D01*
X114147600Y-91719400D02*
X111531400Y-89103200D01*
X111531400Y-89103200D02*
X111531400Y-81330800D01*
X111531400Y-81330800D02*
X111480600Y-81280000D01*
X108610400Y-80721200D02*
X110490000Y-78867000D01*
X110490000Y-78867000D02*
X110490000Y-72828000D01*
X110230000Y-104000000D02*
X110230000Y-103409400D01*
X110230000Y-103409400D02*
X114147600Y-99491800D01*
X114147600Y-99491800D02*
X114147600Y-95707200D01*
X114147600Y-95707200D02*
X114782600Y-95072200D01*
X114782600Y-95072200D02*
X116001800Y-95072200D01*
X116001800Y-95072200D02*
X116687600Y-94386400D01*
X116687600Y-94386400D02*
X116687600Y-92176600D01*
X116687600Y-92176600D02*
X114096800Y-89585800D01*
X114096800Y-89585800D02*
X114096800Y-85979000D01*
X114096800Y-85979000D02*
X116713000Y-83362800D01*
X107950000Y-83362800D02*
X107950000Y-72828000D01*
X105410000Y-78943200D02*
X105410000Y-72828000D01*
X104902000Y-79451200D02*
X105410000Y-78943200D01*
X112770000Y-104000000D02*
X112770000Y-103485600D01*
X112770000Y-103485600D02*
X117017800Y-99237800D01*
X117017800Y-99237800D02*
X117017800Y-95097600D01*
X117017800Y-95097600D02*
X117043200Y-95072200D01*
X116865400Y-86918800D02*
X118287800Y-85496400D01*
X118287800Y-85496400D02*
X118287800Y-80492600D01*
X115310000Y-104000000D02*
X115310000Y-102991000D01*
X105918000Y-89814400D02*
X107664400Y-88068000D01*
X115310000Y-102991000D02*
X114808000Y-102489000D01*
X107664400Y-88068000D02*
X107950000Y-88068000D01*
X126669800Y-78816200D02*
X126669800Y-78232000D01*
X117850000Y-104000000D02*
X117850000Y-102342600D01*
X126669800Y-79806800D02*
X126669800Y-78816200D01*
X126669800Y-78816200D02*
X126669800Y-78841600D01*
X122707400Y-83769200D02*
X126669800Y-79806800D01*
X122707400Y-85242400D02*
X122707400Y-83769200D01*
X123799600Y-86334600D02*
X122707400Y-85242400D01*
X122097800Y-95173800D02*
X123952000Y-93319600D01*
X120294400Y-95173800D02*
X122097800Y-95173800D01*
X119303800Y-96164400D02*
X120294400Y-95173800D01*
X119303800Y-100888800D02*
X119303800Y-96164400D01*
X117850000Y-102342600D02*
X119303800Y-100888800D01*
X118110000Y-88068000D02*
X118110000Y-86890000D01*
X119443500Y-82556500D02*
X119443500Y-80327500D01*
X119000000Y-83000000D02*
X119443500Y-82556500D01*
X119000000Y-86000000D02*
X119000000Y-83000000D01*
X118110000Y-86890000D02*
X119000000Y-86000000D01*
X120650000Y-88068000D02*
X120650000Y-86944200D01*
X122326400Y-82270600D02*
X122529600Y-82270600D01*
X120446800Y-84150200D02*
X122326400Y-82270600D01*
X120446800Y-86741000D02*
X120446800Y-84150200D01*
X120650000Y-86944200D02*
X120446800Y-86741000D01*
X135270000Y-96500000D02*
X135270000Y-95328500D01*
X129413000Y-86804500D02*
X126746000Y-84150200D01*
X129413000Y-89471500D02*
X129413000Y-86804500D01*
X135270000Y-95328500D02*
X129413000Y-89471500D01*
X137810000Y-96500000D02*
X137810000Y-96568500D01*
X137810000Y-96568500D02*
X136334500Y-98044000D01*
X136334500Y-98044000D02*
X134747000Y-98044000D01*
X134747000Y-98044000D02*
X133985000Y-97282000D01*
X133985000Y-97282000D02*
X133985000Y-95948500D01*
X133985000Y-95948500D02*
X127000000Y-88963500D01*
X127000000Y-88963500D02*
X127000000Y-86677500D01*
X127000000Y-86677500D02*
X126365000Y-86042500D01*
X126365000Y-86042500D02*
X126365000Y-85090000D01*
X126365000Y-85090000D02*
X125412500Y-84137500D01*
X87150000Y-63650000D02*
X87150000Y-60550000D01*
X87150000Y-60550000D02*
X88550000Y-59150000D01*
X88550000Y-59150000D02*
X92150000Y-59150000D01*
X86030000Y-64770000D02*
X87150000Y-63650000D01*
X85910000Y-64770000D02*
X86030000Y-64770000D01*
X131540000Y-57000000D02*
X131540000Y-58010000D01*
X117550000Y-67950000D02*
X117000000Y-68500000D01*
X117550000Y-60150000D02*
X117550000Y-67950000D01*
X118900000Y-58800000D02*
X117550000Y-60150000D01*
X130750000Y-58800000D02*
X118900000Y-58800000D01*
X131540000Y-58010000D02*
X130750000Y-58800000D01*
X120100000Y-75050000D02*
X119600000Y-74550000D01*
X119600000Y-74550000D02*
X119600000Y-72050000D01*
X119600000Y-72050000D02*
X119800000Y-71850000D01*
X119800000Y-71850000D02*
X119850000Y-71300000D01*
X119850000Y-71300000D02*
X117000000Y-68500000D01*
X89800000Y-63420000D02*
X88450000Y-64770000D01*
X89800000Y-60100000D02*
X89800000Y-63420000D01*
X89750000Y-60050000D02*
X89800000Y-60100000D01*
X134080000Y-58370000D02*
X134080000Y-57000000D01*
X133000000Y-59450000D02*
X134080000Y-58370000D01*
X124350000Y-59450000D02*
X133000000Y-59450000D01*
X122750000Y-61050000D02*
X124350000Y-59450000D01*
X122750000Y-65650000D02*
X122750000Y-61050000D01*
X121900000Y-66500000D02*
X122750000Y-65650000D01*
X119150000Y-71700000D02*
X119150000Y-71650000D01*
X119150000Y-71650000D02*
X115350000Y-67800000D01*
X96850000Y-70100000D02*
X97002400Y-69896800D01*
X97002400Y-69896800D02*
X97400000Y-69550000D01*
X97400000Y-69550000D02*
X97400000Y-63650000D01*
X97400000Y-63650000D02*
X94950000Y-63650000D01*
X94950000Y-63650000D02*
X93530000Y-62230000D01*
X95400000Y-69550000D02*
X95450000Y-69600000D01*
X95400000Y-66050000D02*
X95400000Y-69550000D01*
X116390000Y-64770000D02*
X115200000Y-63580000D01*
X116050000Y-55450000D02*
X119700000Y-55450000D01*
X115200000Y-56300000D02*
X116050000Y-55450000D01*
X115200000Y-63580000D02*
X115200000Y-56300000D01*
X116390000Y-56840000D02*
X116390000Y-62230000D01*
X116050000Y-56500000D02*
X116390000Y-56840000D01*
X128193800Y-108458000D02*
X130962400Y-105689400D01*
X130962400Y-105689400D02*
X135382000Y-105689400D01*
X135382000Y-105689400D02*
X136398000Y-104673400D01*
X136398000Y-104673400D02*
X136398000Y-100660200D01*
X136398000Y-100660200D02*
X136677400Y-100380800D01*
X137160000Y-75514200D02*
X136855200Y-75209400D01*
X136855200Y-75209400D02*
X135839200Y-75209400D01*
X135839200Y-75209400D02*
X134620000Y-73990200D01*
X134620000Y-73990200D02*
X134620000Y-71628000D01*
X129590800Y-79908400D02*
X129590800Y-71805800D01*
X128625600Y-80873600D02*
X129590800Y-79908400D01*
X128625600Y-84912200D02*
X128625600Y-80873600D01*
X129743200Y-86029800D02*
X128625600Y-84912200D01*
X116509800Y-105613200D02*
X116509800Y-101117400D01*
X118033800Y-107137200D02*
X116509800Y-105613200D01*
X127820000Y-63500000D02*
X126550000Y-62230000D01*
X129641600Y-63500000D02*
X127820000Y-63500000D01*
X130352800Y-64211200D02*
X129641600Y-63500000D01*
X130352800Y-65125600D02*
X130352800Y-64211200D01*
X131368800Y-66141600D02*
X130352800Y-65125600D01*
X132613400Y-66141600D02*
X131368800Y-66141600D01*
X133985000Y-67513200D02*
X132613400Y-66141600D01*
X133985000Y-68910200D02*
X133985000Y-67513200D01*
X134010400Y-68935600D02*
X133985000Y-68910200D01*
X130360000Y-63500000D02*
X129090000Y-62230000D01*
X132461000Y-63500000D02*
X130360000Y-63500000D01*
X133019800Y-64058800D02*
X132461000Y-63500000D01*
X133019800Y-64871600D02*
X133019800Y-64058800D01*
X135915400Y-67767200D02*
X133019800Y-64871600D01*
X136017000Y-67767200D02*
X135915400Y-67767200D01*
X136017000Y-70713600D02*
X136017000Y-67767200D01*
X137718800Y-66624200D02*
X137693400Y-66649600D01*
X132715000Y-62230000D02*
X131630000Y-62230000D01*
X133629400Y-63144400D02*
X132715000Y-62230000D01*
X133629400Y-64439800D02*
X133629400Y-63144400D01*
X135839200Y-66649600D02*
X133629400Y-64439800D01*
X137693400Y-66649600D02*
X135839200Y-66649600D01*
X105410000Y-84899500D02*
X105410000Y-84836000D01*
X129730500Y-84899500D02*
X130810000Y-85979000D01*
X130810000Y-85979000D02*
X130810000Y-88068000D01*
X102880000Y-93960000D02*
X102880000Y-92827000D01*
X103378000Y-86931500D02*
X105410000Y-84899500D01*
X105410000Y-84899500D02*
X105410000Y-84899500D01*
X103378000Y-90043000D02*
X103378000Y-86931500D01*
X103949500Y-90614500D02*
X103378000Y-90043000D01*
X103949500Y-91757500D02*
X103949500Y-90614500D01*
X102880000Y-92827000D02*
X103949500Y-91757500D01*
X105420000Y-93960000D02*
X105420000Y-91380998D01*
X128270000Y-86614000D02*
X128270000Y-88068000D01*
X127190500Y-85534500D02*
X128270000Y-86614000D01*
X105473500Y-85534500D02*
X106172000Y-85534500D01*
X103886000Y-87122000D02*
X105473500Y-85534500D01*
X103886000Y-89852500D02*
X103886000Y-87122000D01*
X105420000Y-91380998D02*
X103886000Y-89852500D01*
X120660000Y-93960000D02*
X120660000Y-93017500D01*
X128270000Y-78867000D02*
X128270000Y-72828000D01*
X123317000Y-83820000D02*
X128270000Y-78867000D01*
X123317000Y-84582000D02*
X123317000Y-83820000D01*
X124650500Y-85915500D02*
X123317000Y-84582000D01*
X124650500Y-89027000D02*
X124650500Y-85915500D01*
X120660000Y-93017500D02*
X124650500Y-89027000D01*
X110500000Y-91186000D02*
X110500000Y-89989500D01*
X124079000Y-84201000D02*
X125730000Y-85852000D01*
X125730000Y-85852000D02*
X125730000Y-88068000D01*
X110464600Y-84315300D02*
X110464600Y-84251800D01*
X109474000Y-85293200D02*
X110464600Y-84315300D01*
X109474000Y-88963500D02*
X109474000Y-85293200D01*
X110500000Y-89989500D02*
X109474000Y-88963500D01*
X110500000Y-93960000D02*
X110500000Y-91186000D01*
X110500000Y-91186000D02*
X110500000Y-91239500D01*
X118120000Y-93960000D02*
X118120000Y-91176000D01*
X125749050Y-78085950D02*
X125730000Y-72828000D01*
X119653050Y-84181950D02*
X125749050Y-78085950D01*
X119634000Y-89662000D02*
X119653050Y-84181950D01*
X118120000Y-91176000D02*
X119634000Y-89662000D01*
X107960000Y-93960000D02*
X107960000Y-93228000D01*
X107960000Y-93228000D02*
X104394000Y-89662000D01*
X104394000Y-89662000D02*
X104394000Y-87312500D01*
X104394000Y-87312500D02*
X105473500Y-86233000D01*
X105473500Y-86233000D02*
X106743500Y-86233000D01*
X121856500Y-86169500D02*
X122682000Y-86169500D01*
X122682000Y-86169500D02*
X123190000Y-86677500D01*
X123190000Y-86677500D02*
X123190000Y-88068000D01*
X115580000Y-93960000D02*
X115580000Y-93355000D01*
X115580000Y-93355000D02*
X115570000Y-93345000D01*
X115570000Y-93345000D02*
X115570000Y-92456000D01*
X115570000Y-92456000D02*
X112014000Y-88900000D01*
X112014000Y-88900000D02*
X112014000Y-85026500D01*
X112014000Y-85026500D02*
X112585500Y-84455000D01*
X112585500Y-84455000D02*
X113157000Y-84455000D01*
X113157000Y-84455000D02*
X123190000Y-74422000D01*
X123190000Y-74422000D02*
X123190000Y-72828000D01*
X113040000Y-93960000D02*
X113040000Y-91767500D01*
X110490000Y-89217500D02*
X110490000Y-88068000D01*
X113040000Y-91767500D02*
X110490000Y-89217500D01*
X137580000Y-104000000D02*
X137580000Y-105244000D01*
X108712000Y-106553000D02*
X106045000Y-106553000D01*
X117475000Y-115316000D02*
X108712000Y-106553000D01*
X126365000Y-115316000D02*
X117475000Y-115316000D01*
X134874000Y-106807000D02*
X126365000Y-115316000D01*
X136017000Y-106807000D02*
X134874000Y-106807000D01*
X137580000Y-105244000D02*
X136017000Y-106807000D01*
X121920000Y-89662000D02*
X119329200Y-92252800D01*
X119329200Y-92252800D02*
X119329200Y-93395800D01*
X121920000Y-87185500D02*
X121920000Y-89662000D01*
X121920000Y-89662000D02*
X121920000Y-89662000D01*
X120967500Y-86233000D02*
X121920000Y-87185500D01*
X120942100Y-84696300D02*
X120967500Y-86233000D01*
X122021600Y-83616800D02*
X120942100Y-84696300D01*
X122364500Y-83185000D02*
X122021600Y-83616800D01*
D27*
X103060500Y-91020900D02*
X103022400Y-91020900D01*
X103022400Y-91020900D02*
X102997000Y-90995500D01*
X103060500Y-91020900D02*
X103098600Y-90982800D01*
X99153000Y-81500000D02*
X99796600Y-82143600D01*
X99796600Y-87680800D02*
X103098600Y-90982800D01*
X99796600Y-82143600D02*
X99796600Y-87680800D01*
D28*
X97500000Y-81500000D02*
X99153000Y-81500000D01*
X100543200Y-73650000D02*
X102000000Y-73650000D01*
X99745800Y-74447400D02*
X100543200Y-73650000D01*
X99745800Y-80907200D02*
X99745800Y-74447400D01*
X99153000Y-81500000D02*
X99745800Y-80907200D01*
D29*
X91500000Y-95000000D02*
X92000000Y-95500000D01*
X91500000Y-89500000D02*
X91500000Y-95000000D01*
X92500000Y-88500000D02*
X91500000Y-89500000D01*
X93500000Y-88500000D02*
X92500000Y-88500000D01*
X96000000Y-86000000D02*
X93500000Y-88500000D01*
D26*
X98423800Y-77426200D02*
X98500000Y-77350000D01*
X96266000Y-84734400D02*
X96250000Y-77450000D01*
X96250000Y-77450000D02*
X98423800Y-77426200D01*
X96824800Y-85293200D02*
X96266000Y-84734400D01*
X97917000Y-85293200D02*
X96824800Y-85293200D01*
X98221800Y-85598000D02*
X97917000Y-85293200D01*
X98221800Y-87604600D02*
X98221800Y-85598000D01*
X101168200Y-90551000D02*
X98221800Y-87604600D01*
X101168200Y-109169200D02*
X101168200Y-90551000D01*
X102362000Y-110363000D02*
X101168200Y-109169200D01*
X130657600Y-69189600D02*
X130251200Y-69596000D01*
X130251200Y-69596000D02*
X125323600Y-69596000D01*
X125323600Y-69596000D02*
X123850400Y-71069200D01*
X123850400Y-71069200D02*
X123266200Y-71069200D01*
X96500000Y-72300000D02*
X96550800Y-72350800D01*
X96550800Y-72350800D02*
X96550000Y-76950000D01*
X96550000Y-76950000D02*
X95700000Y-76950000D01*
X95700000Y-76950000D02*
X95700000Y-82650000D01*
X95700000Y-82650000D02*
X90195400Y-88112600D01*
X90195400Y-88112600D02*
X90195400Y-97078800D01*
X90195400Y-97078800D02*
X98780600Y-105664000D01*
X115950000Y-54300000D02*
X115950000Y-53250000D01*
X116450000Y-54800000D02*
X115950000Y-54300000D01*
X120050000Y-54800000D02*
X116450000Y-54800000D01*
X122450000Y-52400000D02*
X120050000Y-54800000D01*
D30*
G36*
X86849480Y-60249480D02*
X86757351Y-60387359D01*
X86757351Y-60387360D01*
X86725000Y-60550000D01*
X86725000Y-61560202D01*
X86505554Y-61340372D01*
X86119774Y-61180182D01*
X85702058Y-61179818D01*
X85316000Y-61339334D01*
X85020372Y-61634446D01*
X84860182Y-62020226D01*
X84859818Y-62437942D01*
X85019334Y-62824000D01*
X85314446Y-63119628D01*
X85700226Y-63279818D01*
X86117942Y-63280182D01*
X86504000Y-63120666D01*
X86725000Y-62900052D01*
X86725000Y-63473959D01*
X86373444Y-63825515D01*
X86119774Y-63720182D01*
X85702058Y-63719818D01*
X85316000Y-63879334D01*
X85020372Y-64174446D01*
X84860182Y-64560226D01*
X84859818Y-64977942D01*
X85019334Y-65364000D01*
X85314446Y-65659628D01*
X85700226Y-65819818D01*
X86117942Y-65820182D01*
X86504000Y-65660666D01*
X86799628Y-65365554D01*
X86959818Y-64979774D01*
X86960182Y-64562058D01*
X86924745Y-64476295D01*
X87450520Y-63950521D01*
X87521027Y-63845000D01*
X87542649Y-63812640D01*
X87575000Y-63650000D01*
X87575000Y-63032005D01*
X87860127Y-63032005D01*
X87948294Y-63175735D01*
X88348401Y-63295740D01*
X88763976Y-63253495D01*
X88951706Y-63175735D01*
X89039873Y-63032005D01*
X88450000Y-62442132D01*
X87860127Y-63032005D01*
X87575000Y-63032005D01*
X87575000Y-62775096D01*
X87647995Y-62819873D01*
X88237868Y-62230000D01*
X87647995Y-61640127D01*
X87575000Y-61684904D01*
X87575000Y-61427995D01*
X87860127Y-61427995D01*
X88450000Y-62017868D01*
X89039873Y-61427995D01*
X88951706Y-61284265D01*
X88551599Y-61164260D01*
X88136024Y-61206505D01*
X87948294Y-61284265D01*
X87860127Y-61427995D01*
X87575000Y-61427995D01*
X87575000Y-60726040D01*
X88201040Y-60100000D01*
X89217456Y-60100000D01*
X89217408Y-60155456D01*
X89298305Y-60351243D01*
X89375000Y-60428072D01*
X89375000Y-61715575D01*
X89252005Y-61640127D01*
X88662132Y-62230000D01*
X89252005Y-62819873D01*
X89375000Y-62744425D01*
X89375000Y-63243959D01*
X88828653Y-63790307D01*
X88659774Y-63720182D01*
X88242058Y-63719818D01*
X87856000Y-63879334D01*
X87560372Y-64174446D01*
X87400182Y-64560226D01*
X87399818Y-64977942D01*
X87559334Y-65364000D01*
X87854446Y-65659628D01*
X88240226Y-65819818D01*
X88657942Y-65820182D01*
X89044000Y-65660666D01*
X89339628Y-65365554D01*
X89499818Y-64979774D01*
X89499819Y-64977942D01*
X89939818Y-64977942D01*
X90099334Y-65364000D01*
X90394446Y-65659628D01*
X90780226Y-65819818D01*
X91197942Y-65820182D01*
X91584000Y-65660666D01*
X91672816Y-65572005D01*
X92940127Y-65572005D01*
X93028294Y-65715735D01*
X93428401Y-65835740D01*
X93843976Y-65793495D01*
X94031706Y-65715735D01*
X94119873Y-65572005D01*
X93530000Y-64982132D01*
X92940127Y-65572005D01*
X91672816Y-65572005D01*
X91879628Y-65365554D01*
X92039818Y-64979774D01*
X92040089Y-64668401D01*
X92464260Y-64668401D01*
X92506505Y-65083976D01*
X92584265Y-65271706D01*
X92727995Y-65359873D01*
X93317868Y-64770000D01*
X93742132Y-64770000D01*
X94332005Y-65359873D01*
X94475735Y-65271706D01*
X94595740Y-64871599D01*
X94553495Y-64456024D01*
X94475735Y-64268294D01*
X94332005Y-64180127D01*
X93742132Y-64770000D01*
X93317868Y-64770000D01*
X92727995Y-64180127D01*
X92584265Y-64268294D01*
X92464260Y-64668401D01*
X92040089Y-64668401D01*
X92040182Y-64562058D01*
X91880666Y-64176000D01*
X91673025Y-63967995D01*
X92940127Y-63967995D01*
X93530000Y-64557868D01*
X94119873Y-63967995D01*
X94031706Y-63824265D01*
X93631599Y-63704260D01*
X93216024Y-63746505D01*
X93028294Y-63824265D01*
X92940127Y-63967995D01*
X91673025Y-63967995D01*
X91585554Y-63880372D01*
X91199774Y-63720182D01*
X90782058Y-63719818D01*
X90396000Y-63879334D01*
X90100372Y-64174446D01*
X89940182Y-64560226D01*
X89939818Y-64977942D01*
X89499819Y-64977942D01*
X89500182Y-64562058D01*
X89429660Y-64391381D01*
X90100520Y-63720521D01*
X90192648Y-63582641D01*
X90192649Y-63582640D01*
X90225000Y-63420000D01*
X90225000Y-62949886D01*
X90394446Y-63119628D01*
X90780226Y-63279818D01*
X91197942Y-63280182D01*
X91584000Y-63120666D01*
X91879628Y-62825554D01*
X92039818Y-62439774D01*
X92040182Y-62022058D01*
X91880666Y-61636000D01*
X91585554Y-61340372D01*
X91199774Y-61180182D01*
X90782058Y-61179818D01*
X90396000Y-61339334D01*
X90225000Y-61510036D01*
X90225000Y-60294637D01*
X90282407Y-60156385D01*
X90282456Y-60100000D01*
X94900000Y-60100000D01*
X94900000Y-62998959D01*
X94509693Y-62608653D01*
X94579818Y-62439774D01*
X94580182Y-62022058D01*
X94420666Y-61636000D01*
X94125554Y-61340372D01*
X93739774Y-61180182D01*
X93322058Y-61179818D01*
X92936000Y-61339334D01*
X92640372Y-61634446D01*
X92480182Y-62020226D01*
X92479818Y-62437942D01*
X92639334Y-62824000D01*
X92934446Y-63119628D01*
X93320226Y-63279818D01*
X93737942Y-63280182D01*
X93908619Y-63209660D01*
X94649479Y-63950520D01*
X94741608Y-64012078D01*
X94787360Y-64042649D01*
X94900000Y-64065054D01*
X94900000Y-65865570D01*
X94867593Y-65943615D01*
X94867408Y-66155456D01*
X94900000Y-66234335D01*
X94900000Y-66400000D01*
X90000000Y-66400000D01*
X89961094Y-66407879D01*
X89928319Y-66430273D01*
X89906839Y-66463654D01*
X89900038Y-66502763D01*
X89908989Y-66541436D01*
X89933564Y-66574741D01*
X94400000Y-70544906D01*
X94400000Y-83341328D01*
X89896033Y-87810931D01*
X89895569Y-87811620D01*
X89894880Y-87812080D01*
X89849281Y-87880323D01*
X89803377Y-87948457D01*
X89803212Y-87949270D01*
X89802751Y-87949960D01*
X89786707Y-88030620D01*
X89770404Y-88110972D01*
X89770562Y-88111784D01*
X89770400Y-88112600D01*
X89770400Y-97078800D01*
X89797384Y-97214457D01*
X89802751Y-97241441D01*
X89894880Y-97379320D01*
X90015573Y-97500013D01*
X89801960Y-97499827D01*
X89434286Y-97651747D01*
X89152736Y-97932806D01*
X89000174Y-98300215D01*
X88999827Y-98698040D01*
X89151747Y-99065714D01*
X89432806Y-99347264D01*
X89800215Y-99499826D01*
X90198040Y-99500173D01*
X90565714Y-99348253D01*
X90847264Y-99067194D01*
X90999826Y-98699785D01*
X91000014Y-98484454D01*
X96400000Y-103884441D01*
X96400000Y-109751601D01*
X96241641Y-109909683D01*
X96150104Y-110130129D01*
X96149896Y-110368824D01*
X96241048Y-110589429D01*
X96400000Y-110748659D01*
X96400000Y-116150000D01*
X77034472Y-116150000D01*
X76371196Y-116018066D01*
X75838122Y-115661878D01*
X75481934Y-115128804D01*
X75350000Y-114465527D01*
X75350000Y-113326765D01*
X76849715Y-113326765D01*
X77100383Y-113933429D01*
X77564130Y-114397986D01*
X78170355Y-114649713D01*
X78826765Y-114650285D01*
X79433429Y-114399617D01*
X79897986Y-113935870D01*
X80149713Y-113329645D01*
X80150285Y-112673235D01*
X80146883Y-112665000D01*
X84774123Y-112665000D01*
X84774123Y-114665000D01*
X84795042Y-114776173D01*
X84860745Y-114878279D01*
X84960997Y-114946778D01*
X85080000Y-114970877D01*
X86680000Y-114970877D01*
X86791173Y-114949958D01*
X86893279Y-114884255D01*
X86961778Y-114784003D01*
X86985877Y-114665000D01*
X86985877Y-113988225D01*
X88282364Y-113988225D01*
X88413073Y-114398892D01*
X88690988Y-114728279D01*
X89061376Y-114917844D01*
X89230000Y-114878965D01*
X89230000Y-113815000D01*
X89530000Y-113815000D01*
X89530000Y-114878965D01*
X89698624Y-114917844D01*
X90069012Y-114728279D01*
X90346927Y-114398892D01*
X90477636Y-113988225D01*
X90408399Y-113815000D01*
X89530000Y-113815000D01*
X89230000Y-113815000D01*
X88351601Y-113815000D01*
X88282364Y-113988225D01*
X86985877Y-113988225D01*
X86985877Y-113341775D01*
X88282364Y-113341775D01*
X88351601Y-113515000D01*
X89230000Y-113515000D01*
X89230000Y-112451035D01*
X89530000Y-112451035D01*
X89530000Y-113515000D01*
X90408399Y-113515000D01*
X90477636Y-113341775D01*
X90346927Y-112931108D01*
X90069012Y-112601721D01*
X89698624Y-112412156D01*
X89530000Y-112451035D01*
X89230000Y-112451035D01*
X89061376Y-112412156D01*
X88690988Y-112601721D01*
X88413073Y-112931108D01*
X88282364Y-113341775D01*
X86985877Y-113341775D01*
X86985877Y-112665000D01*
X86964958Y-112553827D01*
X86899255Y-112451721D01*
X86799003Y-112383222D01*
X86680000Y-112359123D01*
X85080000Y-112359123D01*
X84968827Y-112380042D01*
X84866721Y-112445745D01*
X84798222Y-112545997D01*
X84774123Y-112665000D01*
X80146883Y-112665000D01*
X79899617Y-112066571D01*
X79435870Y-111602014D01*
X78829645Y-111350287D01*
X78173235Y-111349715D01*
X77566571Y-111600383D01*
X77102014Y-112064130D01*
X76850287Y-112670355D01*
X76849715Y-113326765D01*
X75350000Y-113326765D01*
X75350000Y-109643624D01*
X94040296Y-109643624D01*
X94131448Y-109864229D01*
X94300083Y-110033159D01*
X94520529Y-110124696D01*
X94759224Y-110124904D01*
X94979829Y-110033752D01*
X95148759Y-109865117D01*
X95240296Y-109644671D01*
X95240504Y-109405976D01*
X95149352Y-109185371D01*
X94980717Y-109016441D01*
X94760271Y-108924904D01*
X94521576Y-108924696D01*
X94300971Y-109015848D01*
X94132041Y-109184483D01*
X94040504Y-109404929D01*
X94040296Y-109643624D01*
X75350000Y-109643624D01*
X75350000Y-109118824D01*
X88399896Y-109118824D01*
X88491048Y-109339429D01*
X88659683Y-109508359D01*
X88880129Y-109599896D01*
X89118824Y-109600104D01*
X89339429Y-109508952D01*
X89508359Y-109340317D01*
X89599896Y-109119871D01*
X89600104Y-108881176D01*
X89508952Y-108660571D01*
X89340317Y-108491641D01*
X89119871Y-108400104D01*
X88881176Y-108399896D01*
X88660571Y-108491048D01*
X88491641Y-108659683D01*
X88400104Y-108880129D01*
X88399896Y-109118824D01*
X75350000Y-109118824D01*
X75350000Y-106081624D01*
X76852156Y-106081624D01*
X77041721Y-106452012D01*
X77371108Y-106729927D01*
X77781775Y-106860636D01*
X77955000Y-106791399D01*
X77955000Y-105913000D01*
X78255000Y-105913000D01*
X78255000Y-106791399D01*
X78428225Y-106860636D01*
X78838892Y-106729927D01*
X79168279Y-106452012D01*
X79357844Y-106081624D01*
X79318965Y-105913000D01*
X78255000Y-105913000D01*
X77955000Y-105913000D01*
X76891035Y-105913000D01*
X76852156Y-106081624D01*
X75350000Y-106081624D01*
X75350000Y-105444376D01*
X76852156Y-105444376D01*
X76891035Y-105613000D01*
X77955000Y-105613000D01*
X77955000Y-104734601D01*
X78255000Y-104734601D01*
X78255000Y-105613000D01*
X79318965Y-105613000D01*
X79357844Y-105444376D01*
X79168279Y-105073988D01*
X78838892Y-104796073D01*
X78428225Y-104665364D01*
X78255000Y-104734601D01*
X77955000Y-104734601D01*
X77781775Y-104665364D01*
X77371108Y-104796073D01*
X77041721Y-105073988D01*
X76852156Y-105444376D01*
X75350000Y-105444376D01*
X75350000Y-104512824D01*
X91855896Y-104512824D01*
X91947048Y-104733429D01*
X92115683Y-104902359D01*
X92336129Y-104993896D01*
X92574824Y-104994104D01*
X92795429Y-104902952D01*
X92964359Y-104734317D01*
X93055896Y-104513871D01*
X93056104Y-104275176D01*
X92964952Y-104054571D01*
X92796317Y-103885641D01*
X92575871Y-103794104D01*
X92337176Y-103793896D01*
X92116571Y-103885048D01*
X91947641Y-104053683D01*
X91856104Y-104274129D01*
X91855896Y-104512824D01*
X75350000Y-104512824D01*
X75350000Y-103618824D01*
X89899896Y-103618824D01*
X89991048Y-103839429D01*
X90159683Y-104008359D01*
X90380129Y-104099896D01*
X90618824Y-104100104D01*
X90839429Y-104008952D01*
X91008359Y-103840317D01*
X91099896Y-103619871D01*
X91100104Y-103381176D01*
X91008952Y-103160571D01*
X90840317Y-102991641D01*
X90619871Y-102900104D01*
X90381176Y-102899896D01*
X90160571Y-102991048D01*
X89991641Y-103159683D01*
X89900104Y-103380129D01*
X89899896Y-103618824D01*
X75350000Y-103618824D01*
X75350000Y-101463000D01*
X76799123Y-101463000D01*
X76799123Y-103063000D01*
X76820042Y-103174173D01*
X76885745Y-103276279D01*
X76985997Y-103344778D01*
X77105000Y-103368877D01*
X79105000Y-103368877D01*
X79216173Y-103347958D01*
X79318279Y-103282255D01*
X79386778Y-103182003D01*
X79410877Y-103063000D01*
X79410877Y-101463000D01*
X79389958Y-101351827D01*
X79324255Y-101249721D01*
X79224003Y-101181222D01*
X79105000Y-101157123D01*
X77105000Y-101157123D01*
X76993827Y-101178042D01*
X76891721Y-101243745D01*
X76823222Y-101343997D01*
X76799123Y-101463000D01*
X75350000Y-101463000D01*
X75350000Y-86648530D01*
X80749870Y-86648530D01*
X80863811Y-86924286D01*
X81074605Y-87135448D01*
X81350161Y-87249869D01*
X81648530Y-87250130D01*
X81924286Y-87136189D01*
X82135448Y-86925395D01*
X82249869Y-86649839D01*
X82250130Y-86351470D01*
X82136189Y-86075714D01*
X81925395Y-85864552D01*
X81649839Y-85750131D01*
X81351470Y-85749870D01*
X81075714Y-85863811D01*
X80864552Y-86074605D01*
X80750131Y-86350161D01*
X80749870Y-86648530D01*
X75350000Y-86648530D01*
X75350000Y-85148530D01*
X80249870Y-85148530D01*
X80363811Y-85424286D01*
X80574605Y-85635448D01*
X80850161Y-85749869D01*
X81148530Y-85750130D01*
X81424286Y-85636189D01*
X81635448Y-85425395D01*
X81749869Y-85149839D01*
X81750130Y-84851470D01*
X81654002Y-84618824D01*
X90899896Y-84618824D01*
X90991048Y-84839429D01*
X91159683Y-85008359D01*
X91380129Y-85099896D01*
X91618824Y-85100104D01*
X91839429Y-85008952D01*
X92008359Y-84840317D01*
X92099896Y-84619871D01*
X92100104Y-84381176D01*
X92008952Y-84160571D01*
X91840317Y-83991641D01*
X91619871Y-83900104D01*
X91381176Y-83899896D01*
X91160571Y-83991048D01*
X90991641Y-84159683D01*
X90900104Y-84380129D01*
X90899896Y-84618824D01*
X81654002Y-84618824D01*
X81636189Y-84575714D01*
X81425395Y-84364552D01*
X81149839Y-84250131D01*
X80851470Y-84249870D01*
X80575714Y-84363811D01*
X80364552Y-84574605D01*
X80250131Y-84850161D01*
X80249870Y-85148530D01*
X75350000Y-85148530D01*
X75350000Y-80148530D01*
X78749870Y-80148530D01*
X78863811Y-80424286D01*
X79074605Y-80635448D01*
X79350161Y-80749869D01*
X79648530Y-80750130D01*
X79924286Y-80636189D01*
X80135448Y-80425395D01*
X80249869Y-80149839D01*
X80250130Y-79851470D01*
X80136189Y-79575714D01*
X79925395Y-79364552D01*
X79649839Y-79250131D01*
X79351470Y-79249870D01*
X79075714Y-79363811D01*
X78864552Y-79574605D01*
X78750131Y-79850161D01*
X78749870Y-80148530D01*
X75350000Y-80148530D01*
X75350000Y-75648530D01*
X78749870Y-75648530D01*
X78863811Y-75924286D01*
X79074605Y-76135448D01*
X79350161Y-76249869D01*
X79648530Y-76250130D01*
X79924286Y-76136189D01*
X80135448Y-75925395D01*
X80249869Y-75649839D01*
X80250130Y-75351470D01*
X80136189Y-75075714D01*
X79925395Y-74864552D01*
X79649839Y-74750131D01*
X79351470Y-74749870D01*
X79075714Y-74863811D01*
X78864552Y-75074605D01*
X78750131Y-75350161D01*
X78749870Y-75648530D01*
X75350000Y-75648530D01*
X75350000Y-74148530D01*
X79499870Y-74148530D01*
X79613811Y-74424286D01*
X79824605Y-74635448D01*
X80100161Y-74749869D01*
X80398530Y-74750130D01*
X80674286Y-74636189D01*
X80885448Y-74425395D01*
X80999869Y-74149839D01*
X81000130Y-73851470D01*
X80886189Y-73575714D01*
X80675395Y-73364552D01*
X80399839Y-73250131D01*
X80101470Y-73249870D01*
X79825714Y-73363811D01*
X79614552Y-73574605D01*
X79500131Y-73850161D01*
X79499870Y-74148530D01*
X75350000Y-74148530D01*
X75350000Y-69648530D01*
X77749870Y-69648530D01*
X77863811Y-69924286D01*
X78074605Y-70135448D01*
X78300362Y-70229191D01*
X78250131Y-70350161D01*
X78249870Y-70648530D01*
X78363811Y-70924286D01*
X78574605Y-71135448D01*
X78850161Y-71249869D01*
X79148530Y-71250130D01*
X79424286Y-71136189D01*
X79635448Y-70925395D01*
X79749869Y-70649839D01*
X79750130Y-70351470D01*
X79636189Y-70075714D01*
X79425395Y-69864552D01*
X79199638Y-69770809D01*
X79249869Y-69649839D01*
X79250130Y-69351470D01*
X79136189Y-69075714D01*
X78925395Y-68864552D01*
X78649839Y-68750131D01*
X78351470Y-68749870D01*
X78075714Y-68863811D01*
X77864552Y-69074605D01*
X77750131Y-69350161D01*
X77749870Y-69648530D01*
X75350000Y-69648530D01*
X75350000Y-63826765D01*
X76849715Y-63826765D01*
X77100383Y-64433429D01*
X77564130Y-64897986D01*
X78170355Y-65149713D01*
X78826765Y-65150285D01*
X79243867Y-64977942D01*
X82319818Y-64977942D01*
X82479334Y-65364000D01*
X82774446Y-65659628D01*
X83160226Y-65819818D01*
X83577942Y-65820182D01*
X83964000Y-65660666D01*
X84259628Y-65365554D01*
X84419818Y-64979774D01*
X84420182Y-64562058D01*
X84260666Y-64176000D01*
X83965554Y-63880372D01*
X83579774Y-63720182D01*
X83162058Y-63719818D01*
X82776000Y-63879334D01*
X82480372Y-64174446D01*
X82320182Y-64560226D01*
X82319818Y-64977942D01*
X79243867Y-64977942D01*
X79433429Y-64899617D01*
X79897986Y-64435870D01*
X80149713Y-63829645D01*
X80150285Y-63173235D01*
X79899617Y-62566571D01*
X79771213Y-62437942D01*
X82319818Y-62437942D01*
X82479334Y-62824000D01*
X82774446Y-63119628D01*
X83160226Y-63279818D01*
X83577942Y-63280182D01*
X83964000Y-63120666D01*
X84259628Y-62825554D01*
X84419818Y-62439774D01*
X84420182Y-62022058D01*
X84260666Y-61636000D01*
X83965554Y-61340372D01*
X83579774Y-61180182D01*
X83162058Y-61179818D01*
X82776000Y-61339334D01*
X82480372Y-61634446D01*
X82320182Y-62020226D01*
X82319818Y-62437942D01*
X79771213Y-62437942D01*
X79435870Y-62102014D01*
X78829645Y-61850287D01*
X78173235Y-61849715D01*
X77566571Y-62100383D01*
X77102014Y-62564130D01*
X76850287Y-63170355D01*
X76849715Y-63826765D01*
X75350000Y-63826765D01*
X75350000Y-60100000D01*
X86998960Y-60100000D01*
X86849480Y-60249480D01*
X86849480Y-60249480D01*
G37*
X86849480Y-60249480D02*
X86757351Y-60387359D01*
X86757351Y-60387360D01*
X86725000Y-60550000D01*
X86725000Y-61560202D01*
X86505554Y-61340372D01*
X86119774Y-61180182D01*
X85702058Y-61179818D01*
X85316000Y-61339334D01*
X85020372Y-61634446D01*
X84860182Y-62020226D01*
X84859818Y-62437942D01*
X85019334Y-62824000D01*
X85314446Y-63119628D01*
X85700226Y-63279818D01*
X86117942Y-63280182D01*
X86504000Y-63120666D01*
X86725000Y-62900052D01*
X86725000Y-63473959D01*
X86373444Y-63825515D01*
X86119774Y-63720182D01*
X85702058Y-63719818D01*
X85316000Y-63879334D01*
X85020372Y-64174446D01*
X84860182Y-64560226D01*
X84859818Y-64977942D01*
X85019334Y-65364000D01*
X85314446Y-65659628D01*
X85700226Y-65819818D01*
X86117942Y-65820182D01*
X86504000Y-65660666D01*
X86799628Y-65365554D01*
X86959818Y-64979774D01*
X86960182Y-64562058D01*
X86924745Y-64476295D01*
X87450520Y-63950521D01*
X87521027Y-63845000D01*
X87542649Y-63812640D01*
X87575000Y-63650000D01*
X87575000Y-63032005D01*
X87860127Y-63032005D01*
X87948294Y-63175735D01*
X88348401Y-63295740D01*
X88763976Y-63253495D01*
X88951706Y-63175735D01*
X89039873Y-63032005D01*
X88450000Y-62442132D01*
X87860127Y-63032005D01*
X87575000Y-63032005D01*
X87575000Y-62775096D01*
X87647995Y-62819873D01*
X88237868Y-62230000D01*
X87647995Y-61640127D01*
X87575000Y-61684904D01*
X87575000Y-61427995D01*
X87860127Y-61427995D01*
X88450000Y-62017868D01*
X89039873Y-61427995D01*
X88951706Y-61284265D01*
X88551599Y-61164260D01*
X88136024Y-61206505D01*
X87948294Y-61284265D01*
X87860127Y-61427995D01*
X87575000Y-61427995D01*
X87575000Y-60726040D01*
X88201040Y-60100000D01*
X89217456Y-60100000D01*
X89217408Y-60155456D01*
X89298305Y-60351243D01*
X89375000Y-60428072D01*
X89375000Y-61715575D01*
X89252005Y-61640127D01*
X88662132Y-62230000D01*
X89252005Y-62819873D01*
X89375000Y-62744425D01*
X89375000Y-63243959D01*
X88828653Y-63790307D01*
X88659774Y-63720182D01*
X88242058Y-63719818D01*
X87856000Y-63879334D01*
X87560372Y-64174446D01*
X87400182Y-64560226D01*
X87399818Y-64977942D01*
X87559334Y-65364000D01*
X87854446Y-65659628D01*
X88240226Y-65819818D01*
X88657942Y-65820182D01*
X89044000Y-65660666D01*
X89339628Y-65365554D01*
X89499818Y-64979774D01*
X89499819Y-64977942D01*
X89939818Y-64977942D01*
X90099334Y-65364000D01*
X90394446Y-65659628D01*
X90780226Y-65819818D01*
X91197942Y-65820182D01*
X91584000Y-65660666D01*
X91672816Y-65572005D01*
X92940127Y-65572005D01*
X93028294Y-65715735D01*
X93428401Y-65835740D01*
X93843976Y-65793495D01*
X94031706Y-65715735D01*
X94119873Y-65572005D01*
X93530000Y-64982132D01*
X92940127Y-65572005D01*
X91672816Y-65572005D01*
X91879628Y-65365554D01*
X92039818Y-64979774D01*
X92040089Y-64668401D01*
X92464260Y-64668401D01*
X92506505Y-65083976D01*
X92584265Y-65271706D01*
X92727995Y-65359873D01*
X93317868Y-64770000D01*
X93742132Y-64770000D01*
X94332005Y-65359873D01*
X94475735Y-65271706D01*
X94595740Y-64871599D01*
X94553495Y-64456024D01*
X94475735Y-64268294D01*
X94332005Y-64180127D01*
X93742132Y-64770000D01*
X93317868Y-64770000D01*
X92727995Y-64180127D01*
X92584265Y-64268294D01*
X92464260Y-64668401D01*
X92040089Y-64668401D01*
X92040182Y-64562058D01*
X91880666Y-64176000D01*
X91673025Y-63967995D01*
X92940127Y-63967995D01*
X93530000Y-64557868D01*
X94119873Y-63967995D01*
X94031706Y-63824265D01*
X93631599Y-63704260D01*
X93216024Y-63746505D01*
X93028294Y-63824265D01*
X92940127Y-63967995D01*
X91673025Y-63967995D01*
X91585554Y-63880372D01*
X91199774Y-63720182D01*
X90782058Y-63719818D01*
X90396000Y-63879334D01*
X90100372Y-64174446D01*
X89940182Y-64560226D01*
X89939818Y-64977942D01*
X89499819Y-64977942D01*
X89500182Y-64562058D01*
X89429660Y-64391381D01*
X90100520Y-63720521D01*
X90192648Y-63582641D01*
X90192649Y-63582640D01*
X90225000Y-63420000D01*
X90225000Y-62949886D01*
X90394446Y-63119628D01*
X90780226Y-63279818D01*
X91197942Y-63280182D01*
X91584000Y-63120666D01*
X91879628Y-62825554D01*
X92039818Y-62439774D01*
X92040182Y-62022058D01*
X91880666Y-61636000D01*
X91585554Y-61340372D01*
X91199774Y-61180182D01*
X90782058Y-61179818D01*
X90396000Y-61339334D01*
X90225000Y-61510036D01*
X90225000Y-60294637D01*
X90282407Y-60156385D01*
X90282456Y-60100000D01*
X94900000Y-60100000D01*
X94900000Y-62998959D01*
X94509693Y-62608653D01*
X94579818Y-62439774D01*
X94580182Y-62022058D01*
X94420666Y-61636000D01*
X94125554Y-61340372D01*
X93739774Y-61180182D01*
X93322058Y-61179818D01*
X92936000Y-61339334D01*
X92640372Y-61634446D01*
X92480182Y-62020226D01*
X92479818Y-62437942D01*
X92639334Y-62824000D01*
X92934446Y-63119628D01*
X93320226Y-63279818D01*
X93737942Y-63280182D01*
X93908619Y-63209660D01*
X94649479Y-63950520D01*
X94741608Y-64012078D01*
X94787360Y-64042649D01*
X94900000Y-64065054D01*
X94900000Y-65865570D01*
X94867593Y-65943615D01*
X94867408Y-66155456D01*
X94900000Y-66234335D01*
X94900000Y-66400000D01*
X90000000Y-66400000D01*
X89961094Y-66407879D01*
X89928319Y-66430273D01*
X89906839Y-66463654D01*
X89900038Y-66502763D01*
X89908989Y-66541436D01*
X89933564Y-66574741D01*
X94400000Y-70544906D01*
X94400000Y-83341328D01*
X89896033Y-87810931D01*
X89895569Y-87811620D01*
X89894880Y-87812080D01*
X89849281Y-87880323D01*
X89803377Y-87948457D01*
X89803212Y-87949270D01*
X89802751Y-87949960D01*
X89786707Y-88030620D01*
X89770404Y-88110972D01*
X89770562Y-88111784D01*
X89770400Y-88112600D01*
X89770400Y-97078800D01*
X89797384Y-97214457D01*
X89802751Y-97241441D01*
X89894880Y-97379320D01*
X90015573Y-97500013D01*
X89801960Y-97499827D01*
X89434286Y-97651747D01*
X89152736Y-97932806D01*
X89000174Y-98300215D01*
X88999827Y-98698040D01*
X89151747Y-99065714D01*
X89432806Y-99347264D01*
X89800215Y-99499826D01*
X90198040Y-99500173D01*
X90565714Y-99348253D01*
X90847264Y-99067194D01*
X90999826Y-98699785D01*
X91000014Y-98484454D01*
X96400000Y-103884441D01*
X96400000Y-109751601D01*
X96241641Y-109909683D01*
X96150104Y-110130129D01*
X96149896Y-110368824D01*
X96241048Y-110589429D01*
X96400000Y-110748659D01*
X96400000Y-116150000D01*
X77034472Y-116150000D01*
X76371196Y-116018066D01*
X75838122Y-115661878D01*
X75481934Y-115128804D01*
X75350000Y-114465527D01*
X75350000Y-113326765D01*
X76849715Y-113326765D01*
X77100383Y-113933429D01*
X77564130Y-114397986D01*
X78170355Y-114649713D01*
X78826765Y-114650285D01*
X79433429Y-114399617D01*
X79897986Y-113935870D01*
X80149713Y-113329645D01*
X80150285Y-112673235D01*
X80146883Y-112665000D01*
X84774123Y-112665000D01*
X84774123Y-114665000D01*
X84795042Y-114776173D01*
X84860745Y-114878279D01*
X84960997Y-114946778D01*
X85080000Y-114970877D01*
X86680000Y-114970877D01*
X86791173Y-114949958D01*
X86893279Y-114884255D01*
X86961778Y-114784003D01*
X86985877Y-114665000D01*
X86985877Y-113988225D01*
X88282364Y-113988225D01*
X88413073Y-114398892D01*
X88690988Y-114728279D01*
X89061376Y-114917844D01*
X89230000Y-114878965D01*
X89230000Y-113815000D01*
X89530000Y-113815000D01*
X89530000Y-114878965D01*
X89698624Y-114917844D01*
X90069012Y-114728279D01*
X90346927Y-114398892D01*
X90477636Y-113988225D01*
X90408399Y-113815000D01*
X89530000Y-113815000D01*
X89230000Y-113815000D01*
X88351601Y-113815000D01*
X88282364Y-113988225D01*
X86985877Y-113988225D01*
X86985877Y-113341775D01*
X88282364Y-113341775D01*
X88351601Y-113515000D01*
X89230000Y-113515000D01*
X89230000Y-112451035D01*
X89530000Y-112451035D01*
X89530000Y-113515000D01*
X90408399Y-113515000D01*
X90477636Y-113341775D01*
X90346927Y-112931108D01*
X90069012Y-112601721D01*
X89698624Y-112412156D01*
X89530000Y-112451035D01*
X89230000Y-112451035D01*
X89061376Y-112412156D01*
X88690988Y-112601721D01*
X88413073Y-112931108D01*
X88282364Y-113341775D01*
X86985877Y-113341775D01*
X86985877Y-112665000D01*
X86964958Y-112553827D01*
X86899255Y-112451721D01*
X86799003Y-112383222D01*
X86680000Y-112359123D01*
X85080000Y-112359123D01*
X84968827Y-112380042D01*
X84866721Y-112445745D01*
X84798222Y-112545997D01*
X84774123Y-112665000D01*
X80146883Y-112665000D01*
X79899617Y-112066571D01*
X79435870Y-111602014D01*
X78829645Y-111350287D01*
X78173235Y-111349715D01*
X77566571Y-111600383D01*
X77102014Y-112064130D01*
X76850287Y-112670355D01*
X76849715Y-113326765D01*
X75350000Y-113326765D01*
X75350000Y-109643624D01*
X94040296Y-109643624D01*
X94131448Y-109864229D01*
X94300083Y-110033159D01*
X94520529Y-110124696D01*
X94759224Y-110124904D01*
X94979829Y-110033752D01*
X95148759Y-109865117D01*
X95240296Y-109644671D01*
X95240504Y-109405976D01*
X95149352Y-109185371D01*
X94980717Y-109016441D01*
X94760271Y-108924904D01*
X94521576Y-108924696D01*
X94300971Y-109015848D01*
X94132041Y-109184483D01*
X94040504Y-109404929D01*
X94040296Y-109643624D01*
X75350000Y-109643624D01*
X75350000Y-109118824D01*
X88399896Y-109118824D01*
X88491048Y-109339429D01*
X88659683Y-109508359D01*
X88880129Y-109599896D01*
X89118824Y-109600104D01*
X89339429Y-109508952D01*
X89508359Y-109340317D01*
X89599896Y-109119871D01*
X89600104Y-108881176D01*
X89508952Y-108660571D01*
X89340317Y-108491641D01*
X89119871Y-108400104D01*
X88881176Y-108399896D01*
X88660571Y-108491048D01*
X88491641Y-108659683D01*
X88400104Y-108880129D01*
X88399896Y-109118824D01*
X75350000Y-109118824D01*
X75350000Y-106081624D01*
X76852156Y-106081624D01*
X77041721Y-106452012D01*
X77371108Y-106729927D01*
X77781775Y-106860636D01*
X77955000Y-106791399D01*
X77955000Y-105913000D01*
X78255000Y-105913000D01*
X78255000Y-106791399D01*
X78428225Y-106860636D01*
X78838892Y-106729927D01*
X79168279Y-106452012D01*
X79357844Y-106081624D01*
X79318965Y-105913000D01*
X78255000Y-105913000D01*
X77955000Y-105913000D01*
X76891035Y-105913000D01*
X76852156Y-106081624D01*
X75350000Y-106081624D01*
X75350000Y-105444376D01*
X76852156Y-105444376D01*
X76891035Y-105613000D01*
X77955000Y-105613000D01*
X77955000Y-104734601D01*
X78255000Y-104734601D01*
X78255000Y-105613000D01*
X79318965Y-105613000D01*
X79357844Y-105444376D01*
X79168279Y-105073988D01*
X78838892Y-104796073D01*
X78428225Y-104665364D01*
X78255000Y-104734601D01*
X77955000Y-104734601D01*
X77781775Y-104665364D01*
X77371108Y-104796073D01*
X77041721Y-105073988D01*
X76852156Y-105444376D01*
X75350000Y-105444376D01*
X75350000Y-104512824D01*
X91855896Y-104512824D01*
X91947048Y-104733429D01*
X92115683Y-104902359D01*
X92336129Y-104993896D01*
X92574824Y-104994104D01*
X92795429Y-104902952D01*
X92964359Y-104734317D01*
X93055896Y-104513871D01*
X93056104Y-104275176D01*
X92964952Y-104054571D01*
X92796317Y-103885641D01*
X92575871Y-103794104D01*
X92337176Y-103793896D01*
X92116571Y-103885048D01*
X91947641Y-104053683D01*
X91856104Y-104274129D01*
X91855896Y-104512824D01*
X75350000Y-104512824D01*
X75350000Y-103618824D01*
X89899896Y-103618824D01*
X89991048Y-103839429D01*
X90159683Y-104008359D01*
X90380129Y-104099896D01*
X90618824Y-104100104D01*
X90839429Y-104008952D01*
X91008359Y-103840317D01*
X91099896Y-103619871D01*
X91100104Y-103381176D01*
X91008952Y-103160571D01*
X90840317Y-102991641D01*
X90619871Y-102900104D01*
X90381176Y-102899896D01*
X90160571Y-102991048D01*
X89991641Y-103159683D01*
X89900104Y-103380129D01*
X89899896Y-103618824D01*
X75350000Y-103618824D01*
X75350000Y-101463000D01*
X76799123Y-101463000D01*
X76799123Y-103063000D01*
X76820042Y-103174173D01*
X76885745Y-103276279D01*
X76985997Y-103344778D01*
X77105000Y-103368877D01*
X79105000Y-103368877D01*
X79216173Y-103347958D01*
X79318279Y-103282255D01*
X79386778Y-103182003D01*
X79410877Y-103063000D01*
X79410877Y-101463000D01*
X79389958Y-101351827D01*
X79324255Y-101249721D01*
X79224003Y-101181222D01*
X79105000Y-101157123D01*
X77105000Y-101157123D01*
X76993827Y-101178042D01*
X76891721Y-101243745D01*
X76823222Y-101343997D01*
X76799123Y-101463000D01*
X75350000Y-101463000D01*
X75350000Y-86648530D01*
X80749870Y-86648530D01*
X80863811Y-86924286D01*
X81074605Y-87135448D01*
X81350161Y-87249869D01*
X81648530Y-87250130D01*
X81924286Y-87136189D01*
X82135448Y-86925395D01*
X82249869Y-86649839D01*
X82250130Y-86351470D01*
X82136189Y-86075714D01*
X81925395Y-85864552D01*
X81649839Y-85750131D01*
X81351470Y-85749870D01*
X81075714Y-85863811D01*
X80864552Y-86074605D01*
X80750131Y-86350161D01*
X80749870Y-86648530D01*
X75350000Y-86648530D01*
X75350000Y-85148530D01*
X80249870Y-85148530D01*
X80363811Y-85424286D01*
X80574605Y-85635448D01*
X80850161Y-85749869D01*
X81148530Y-85750130D01*
X81424286Y-85636189D01*
X81635448Y-85425395D01*
X81749869Y-85149839D01*
X81750130Y-84851470D01*
X81654002Y-84618824D01*
X90899896Y-84618824D01*
X90991048Y-84839429D01*
X91159683Y-85008359D01*
X91380129Y-85099896D01*
X91618824Y-85100104D01*
X91839429Y-85008952D01*
X92008359Y-84840317D01*
X92099896Y-84619871D01*
X92100104Y-84381176D01*
X92008952Y-84160571D01*
X91840317Y-83991641D01*
X91619871Y-83900104D01*
X91381176Y-83899896D01*
X91160571Y-83991048D01*
X90991641Y-84159683D01*
X90900104Y-84380129D01*
X90899896Y-84618824D01*
X81654002Y-84618824D01*
X81636189Y-84575714D01*
X81425395Y-84364552D01*
X81149839Y-84250131D01*
X80851470Y-84249870D01*
X80575714Y-84363811D01*
X80364552Y-84574605D01*
X80250131Y-84850161D01*
X80249870Y-85148530D01*
X75350000Y-85148530D01*
X75350000Y-80148530D01*
X78749870Y-80148530D01*
X78863811Y-80424286D01*
X79074605Y-80635448D01*
X79350161Y-80749869D01*
X79648530Y-80750130D01*
X79924286Y-80636189D01*
X80135448Y-80425395D01*
X80249869Y-80149839D01*
X80250130Y-79851470D01*
X80136189Y-79575714D01*
X79925395Y-79364552D01*
X79649839Y-79250131D01*
X79351470Y-79249870D01*
X79075714Y-79363811D01*
X78864552Y-79574605D01*
X78750131Y-79850161D01*
X78749870Y-80148530D01*
X75350000Y-80148530D01*
X75350000Y-75648530D01*
X78749870Y-75648530D01*
X78863811Y-75924286D01*
X79074605Y-76135448D01*
X79350161Y-76249869D01*
X79648530Y-76250130D01*
X79924286Y-76136189D01*
X80135448Y-75925395D01*
X80249869Y-75649839D01*
X80250130Y-75351470D01*
X80136189Y-75075714D01*
X79925395Y-74864552D01*
X79649839Y-74750131D01*
X79351470Y-74749870D01*
X79075714Y-74863811D01*
X78864552Y-75074605D01*
X78750131Y-75350161D01*
X78749870Y-75648530D01*
X75350000Y-75648530D01*
X75350000Y-74148530D01*
X79499870Y-74148530D01*
X79613811Y-74424286D01*
X79824605Y-74635448D01*
X80100161Y-74749869D01*
X80398530Y-74750130D01*
X80674286Y-74636189D01*
X80885448Y-74425395D01*
X80999869Y-74149839D01*
X81000130Y-73851470D01*
X80886189Y-73575714D01*
X80675395Y-73364552D01*
X80399839Y-73250131D01*
X80101470Y-73249870D01*
X79825714Y-73363811D01*
X79614552Y-73574605D01*
X79500131Y-73850161D01*
X79499870Y-74148530D01*
X75350000Y-74148530D01*
X75350000Y-69648530D01*
X77749870Y-69648530D01*
X77863811Y-69924286D01*
X78074605Y-70135448D01*
X78300362Y-70229191D01*
X78250131Y-70350161D01*
X78249870Y-70648530D01*
X78363811Y-70924286D01*
X78574605Y-71135448D01*
X78850161Y-71249869D01*
X79148530Y-71250130D01*
X79424286Y-71136189D01*
X79635448Y-70925395D01*
X79749869Y-70649839D01*
X79750130Y-70351470D01*
X79636189Y-70075714D01*
X79425395Y-69864552D01*
X79199638Y-69770809D01*
X79249869Y-69649839D01*
X79250130Y-69351470D01*
X79136189Y-69075714D01*
X78925395Y-68864552D01*
X78649839Y-68750131D01*
X78351470Y-68749870D01*
X78075714Y-68863811D01*
X77864552Y-69074605D01*
X77750131Y-69350161D01*
X77749870Y-69648530D01*
X75350000Y-69648530D01*
X75350000Y-63826765D01*
X76849715Y-63826765D01*
X77100383Y-64433429D01*
X77564130Y-64897986D01*
X78170355Y-65149713D01*
X78826765Y-65150285D01*
X79243867Y-64977942D01*
X82319818Y-64977942D01*
X82479334Y-65364000D01*
X82774446Y-65659628D01*
X83160226Y-65819818D01*
X83577942Y-65820182D01*
X83964000Y-65660666D01*
X84259628Y-65365554D01*
X84419818Y-64979774D01*
X84420182Y-64562058D01*
X84260666Y-64176000D01*
X83965554Y-63880372D01*
X83579774Y-63720182D01*
X83162058Y-63719818D01*
X82776000Y-63879334D01*
X82480372Y-64174446D01*
X82320182Y-64560226D01*
X82319818Y-64977942D01*
X79243867Y-64977942D01*
X79433429Y-64899617D01*
X79897986Y-64435870D01*
X80149713Y-63829645D01*
X80150285Y-63173235D01*
X79899617Y-62566571D01*
X79771213Y-62437942D01*
X82319818Y-62437942D01*
X82479334Y-62824000D01*
X82774446Y-63119628D01*
X83160226Y-63279818D01*
X83577942Y-63280182D01*
X83964000Y-63120666D01*
X84259628Y-62825554D01*
X84419818Y-62439774D01*
X84420182Y-62022058D01*
X84260666Y-61636000D01*
X83965554Y-61340372D01*
X83579774Y-61180182D01*
X83162058Y-61179818D01*
X82776000Y-61339334D01*
X82480372Y-61634446D01*
X82320182Y-62020226D01*
X82319818Y-62437942D01*
X79771213Y-62437942D01*
X79435870Y-62102014D01*
X78829645Y-61850287D01*
X78173235Y-61849715D01*
X77566571Y-62100383D01*
X77102014Y-62564130D01*
X76850287Y-63170355D01*
X76849715Y-63826765D01*
X75350000Y-63826765D01*
X75350000Y-60100000D01*
X86998960Y-60100000D01*
X86849480Y-60249480D01*
G36*
X90898628Y-52803404D02*
X89887080Y-53622276D01*
X89861798Y-53652878D01*
X89850000Y-53700000D01*
X89850000Y-56143945D01*
X88349080Y-56055656D01*
X88301475Y-51200000D01*
X90852817Y-51200000D01*
X90898628Y-52803404D01*
X90898628Y-52803404D01*
G37*
X90898628Y-52803404D02*
X89887080Y-53622276D01*
X89861798Y-53652878D01*
X89850000Y-53700000D01*
X89850000Y-56143945D01*
X88349080Y-56055656D01*
X88301475Y-51200000D01*
X90852817Y-51200000D01*
X90898628Y-52803404D01*
M02*
