M48
;DRILL file {KiCad 4.0.6} date 09/14/17 13:15:13
;FORMAT={2:4/ absolute / inch / suppress leading zeros}
FMAT,2
INCH,TZ
T1C0.012
T2C0.016
T3C0.019
T4C0.024
T5C0.031
T6C0.035
T7C0.037
T8C0.039
T9C0.039
T10C0.106
%
G90
G05
M72
T1
X35335Y-23642
X35740Y-34930
X35740Y-35750
X35740Y-36550
X36280Y-23287
X37559Y-26004
X37579Y-27402
X38620Y-35580
X38780Y-30453
X38780Y-34960
X38780Y-36180
X45413Y-26693
X46063Y-26969
X46909Y-28228
X47283Y-29547
X47992Y-26181
T2
X29921Y-38583
X30709Y-38583
X35039Y-42913
X35138Y-21870
X35630Y-40748
X36024Y-33268
X36220Y-37598
X36400Y-41100
X37080Y-38884
X37260Y-43120
X37362Y-39094
X37598Y-33071
X37795Y-33858
X37795Y-37598
X37992Y-28465
X38091Y-43406
X38130Y-27598
X38386Y-33858
X38386Y-37008
X38890Y-41600
X39750Y-45100
X40300Y-43450
X41100Y-44950
X41300Y-31280
X41500Y-33400
X41535Y-42323
X41700Y-35360
X41750Y-41950
X41800Y-33675
X42025Y-33950
X42500Y-32820
X42700Y-43350
X42760Y-31780
X43490Y-33170
X43701Y-42126
X43890Y-32000
X45200Y-40350
X45650Y-20965
X45689Y-22244
X45870Y-39810
X45950Y-32820
X46010Y-34220
X46080Y-37430
X46470Y-42180
X46570Y-31690
X46980Y-36770
X47025Y-31625
X47126Y-21831
X47835Y-29331
X47975Y-33925
X48175Y-32750
X48209Y-20630
X48240Y-32390
X48268Y-22874
X48300Y-31075
X48530Y-27980
X48660Y-31000
X48740Y-33990
X48800Y-36740
X48850Y-33150
X49370Y-21654
X49375Y-33125
X49870Y-30800
X49900Y-33130
X49925Y-29425
X50075Y-33675
X50190Y-29980
X50470Y-42700
X51020Y-28270
X51075Y-33425
X51080Y-33870
X51440Y-27240
X52525Y-30850
X52550Y-31850
X52575Y-32875
X52760Y-27140
X53000Y-28200
X53050Y-32970
X53150Y-27756
X53550Y-27840
X53810Y-39520
X54000Y-29730
X54220Y-26230
X54528Y-27756
X54724Y-26181
T3
X36609Y-35455
X36609Y-36045
X37200Y-35455
X37200Y-36045
X37791Y-35455
X37791Y-36045
T4
X30906Y-27362
X31102Y-27756
X31299Y-29724
X31299Y-31496
X31594Y-29134
X31890Y-33465
X32087Y-34055
X35039Y-27559
X36024Y-27559
X37992Y-39567
X38386Y-28937
X38386Y-29724
X39370Y-35827
X40550Y-35825
T5
X33130Y-20650
X33130Y-22618
T6
X32823Y-24500
X32823Y-25500
X33823Y-24500
X33823Y-25500
X34823Y-24500
X34823Y-25500
X35823Y-24500
X35823Y-25500
X36823Y-24500
X36823Y-25500
X37823Y-24500
X37823Y-25500
X38823Y-24500
X38823Y-25500
X39823Y-24500
X39823Y-25500
X40823Y-24500
X40823Y-25500
X41500Y-28672
X41500Y-34672
X41823Y-24500
X41823Y-25500
X42500Y-28672
X42500Y-34672
X42823Y-24500
X42823Y-25500
X43500Y-28672
X43500Y-34672
X43823Y-24500
X43823Y-25500
X44500Y-28672
X44500Y-34672
X44823Y-24500
X44823Y-25500
X45500Y-28672
X45500Y-34672
X45823Y-24500
X45823Y-25500
X46500Y-28672
X46500Y-34672
X46823Y-24500
X46823Y-25500
X47500Y-28672
X47500Y-34672
X47823Y-24500
X47823Y-25500
X48500Y-28672
X48500Y-34672
X48823Y-24500
X48823Y-25500
X49500Y-28672
X49500Y-34672
X49823Y-24500
X49823Y-25500
X50500Y-28672
X50500Y-34672
X50823Y-24500
X50823Y-25500
X51500Y-28672
X51500Y-34672
X51823Y-24500
X51823Y-25500
X52500Y-28672
X52500Y-34672
X53500Y-28672
X53500Y-34672
X54500Y-28672
X54500Y-34672
T7
X30750Y-40261
X30750Y-41639
X33811Y-44750
X35189Y-44750
T8
X37750Y-22450
X38264Y-20472
X38386Y-31087
X38386Y-32087
X38386Y-33087
X38750Y-22450
X39173Y-36992
X39173Y-37992
X39173Y-38992
X39264Y-20472
X39750Y-22450
X40157Y-28996
X40157Y-29996
X40157Y-30996
X40157Y-31996
X40157Y-32996
X40157Y-33996
X40264Y-20472
X40398Y-40945
X40750Y-22450
X41264Y-20472
X41398Y-40945
X41750Y-22450
X42398Y-40945
X42750Y-22450
X43398Y-40945
X43750Y-22450
X44398Y-40945
X44750Y-22450
X45398Y-40945
X46398Y-40945
X47398Y-40945
X48787Y-22441
X49787Y-22441
X49803Y-36992
X49803Y-37992
X49803Y-38992
X50165Y-40945
X50787Y-22441
X51165Y-40945
X51256Y-37992
X51787Y-22441
X52165Y-40945
X52256Y-37992
X52787Y-22441
X53165Y-40945
X53256Y-37992
X54165Y-40945
X54256Y-37992
T9
X34252Y-38583
X35433Y-38780
X40504Y-36992
X40504Y-37992
X40504Y-38992
X41504Y-36992
X41504Y-37992
X41504Y-38992
X42504Y-36992
X42504Y-37992
X42504Y-38992
X43504Y-36992
X43504Y-37992
X43504Y-38992
X44504Y-36992
X44504Y-37992
X44504Y-38992
X45504Y-36992
X45504Y-37992
X45504Y-38992
X46504Y-36992
X46504Y-37992
X46504Y-38992
X47504Y-36992
X47504Y-37992
X47504Y-38992
T10
X30906Y-25000
X30906Y-44488
X53740Y-25000
X53740Y-44488
T0
M30
