G04 #@! TF.FileFunction,Legend,Bot*
%FSLAX46Y46*%
G04 Gerber Fmt 4.6, Leading zero omitted, Abs format (unit mm)*
G04 Created by KiCad (PCBNEW 4.0.6) date 09/14/17 13:16:33*
%MOMM*%
%LPD*%
G01*
G04 APERTURE LIST*
%ADD10C,0.100000*%
%ADD11C,0.200000*%
%ADD12C,0.400000*%
%ADD13C,0.150000*%
%ADD14C,0.300000*%
%ADD15C,0.250000*%
%ADD16C,0.127000*%
%ADD17C,0.175000*%
%ADD18C,0.500000*%
%ADD19C,1.506220*%
%ADD20O,1.300000X2.000000*%
%ADD21R,0.802640X1.102360*%
%ADD22R,0.701040X0.802640*%
%ADD23R,1.153160X2.753360*%
%ADD24R,0.450000X0.590000*%
%ADD25R,0.600000X1.000000*%
%ADD26R,1.000000X0.600000*%
%ADD27R,0.802640X0.701040*%
%ADD28R,1.102360X0.622300*%
%ADD29R,0.797560X0.899160*%
%ADD30R,0.899160X0.797560*%
%ADD31C,1.500000*%
%ADD32R,2.000000X1.600000*%
%ADD33O,2.000000X1.600000*%
%ADD34R,1.600000X2.000000*%
%ADD35O,1.600000X2.000000*%
%ADD36C,1.200000*%
%ADD37R,1.500000X1.500000*%
%ADD38O,1.500000X1.500000*%
%ADD39C,1.600000*%
%ADD40R,0.450000X1.200000*%
%ADD41R,0.200000X0.600000*%
%ADD42R,0.200000X1.600000*%
%ADD43R,0.700000X1.400000*%
%ADD44R,1.198880X0.848360*%
G04 APERTURE END LIST*
D10*
D11*
X117011905Y-53933334D02*
X117811905Y-54123810D01*
X117240476Y-54276191D01*
X117811905Y-54428572D01*
X117011905Y-54619048D01*
X117811905Y-55380953D02*
X117430952Y-55114286D01*
X117811905Y-54923810D02*
X117011905Y-54923810D01*
X117011905Y-55228572D01*
X117050000Y-55304763D01*
X117088095Y-55342858D01*
X117164286Y-55380953D01*
X117278571Y-55380953D01*
X117354762Y-55342858D01*
X117392857Y-55304763D01*
X117430952Y-55228572D01*
X117430952Y-54923810D01*
X117811905Y-55723810D02*
X117011905Y-55723810D01*
X117011905Y-56028572D01*
X117050000Y-56104763D01*
X117088095Y-56142858D01*
X117164286Y-56180953D01*
X117278571Y-56180953D01*
X117354762Y-56142858D01*
X117392857Y-56104763D01*
X117430952Y-56028572D01*
X117430952Y-55723810D01*
X117811905Y-56980953D02*
X117430952Y-56714286D01*
X117811905Y-56523810D02*
X117011905Y-56523810D01*
X117011905Y-56828572D01*
X117050000Y-56904763D01*
X117088095Y-56942858D01*
X117164286Y-56980953D01*
X117278571Y-56980953D01*
X117354762Y-56942858D01*
X117392857Y-56904763D01*
X117430952Y-56828572D01*
X117430952Y-56523810D01*
X117011905Y-57476191D02*
X117011905Y-57628572D01*
X117050000Y-57704763D01*
X117126190Y-57780953D01*
X117278571Y-57819048D01*
X117545238Y-57819048D01*
X117697619Y-57780953D01*
X117773810Y-57704763D01*
X117811905Y-57628572D01*
X117811905Y-57476191D01*
X117773810Y-57400001D01*
X117697619Y-57323810D01*
X117545238Y-57285715D01*
X117278571Y-57285715D01*
X117126190Y-57323810D01*
X117050000Y-57400001D01*
X117011905Y-57476191D01*
X117011905Y-58047619D02*
X117011905Y-58504762D01*
X117811905Y-58276191D02*
X117011905Y-58276191D01*
X116874000Y-53819048D02*
X116874000Y-58580953D01*
X121704762Y-109613095D02*
X121133333Y-109613095D01*
X121419048Y-110913095D02*
X121419048Y-109613095D01*
X121038095Y-111036905D02*
X120276190Y-111036905D01*
X120085714Y-109736905D02*
X120038095Y-109675000D01*
X119942857Y-109613095D01*
X119704761Y-109613095D01*
X119609523Y-109675000D01*
X119561904Y-109736905D01*
X119514285Y-109860714D01*
X119514285Y-109984524D01*
X119561904Y-110170238D01*
X120133333Y-110913095D01*
X119514285Y-110913095D01*
X118180952Y-110913095D02*
X118276190Y-110851190D01*
X118323809Y-110789286D01*
X118371428Y-110665476D01*
X118371428Y-110294048D01*
X118323809Y-110170238D01*
X118276190Y-110108333D01*
X118180952Y-110046429D01*
X118038094Y-110046429D01*
X117942856Y-110108333D01*
X117895237Y-110170238D01*
X117847618Y-110294048D01*
X117847618Y-110665476D01*
X117895237Y-110789286D01*
X117942856Y-110851190D01*
X118038094Y-110913095D01*
X118180952Y-110913095D01*
X117419047Y-110913095D02*
X117419047Y-110046429D01*
X117419047Y-110294048D02*
X117371428Y-110170238D01*
X117323809Y-110108333D01*
X117228571Y-110046429D01*
X117133332Y-110046429D01*
X115466665Y-110913095D02*
X115799999Y-110294048D01*
X116038094Y-110913095D02*
X116038094Y-109613095D01*
X115657141Y-109613095D01*
X115561903Y-109675000D01*
X115514284Y-109736905D01*
X115466665Y-109860714D01*
X115466665Y-110046429D01*
X115514284Y-110170238D01*
X115561903Y-110232143D01*
X115657141Y-110294048D01*
X116038094Y-110294048D01*
X115276189Y-111036905D02*
X114514284Y-111036905D01*
X113752379Y-110913095D02*
X114323808Y-110913095D01*
X114038094Y-110913095D02*
X114038094Y-109613095D01*
X114133332Y-109798810D01*
X114228570Y-109922619D01*
X114323808Y-109984524D01*
X113419046Y-109613095D02*
X112752379Y-109613095D01*
X113180951Y-110913095D01*
X111609522Y-110913095D02*
X111609522Y-109613095D01*
X111609522Y-110232143D02*
X111038093Y-110232143D01*
X111038093Y-110913095D02*
X111038093Y-109613095D01*
X110561903Y-110913095D02*
X110561903Y-110046429D01*
X110561903Y-109613095D02*
X110609522Y-109675000D01*
X110561903Y-109736905D01*
X110514284Y-109675000D01*
X110561903Y-109613095D01*
X110561903Y-109736905D01*
X109371427Y-109551190D02*
X110228570Y-111222619D01*
X108561903Y-110913095D02*
X109038094Y-110913095D01*
X109038094Y-109613095D01*
X108085713Y-110913095D02*
X108180951Y-110851190D01*
X108228570Y-110789286D01*
X108276189Y-110665476D01*
X108276189Y-110294048D01*
X108228570Y-110170238D01*
X108180951Y-110108333D01*
X108085713Y-110046429D01*
X107942855Y-110046429D01*
X107847617Y-110108333D01*
X107799998Y-110170238D01*
X107752379Y-110294048D01*
X107752379Y-110665476D01*
X107799998Y-110789286D01*
X107847617Y-110851190D01*
X107942855Y-110913095D01*
X108085713Y-110913095D01*
X121561905Y-113063095D02*
X121561905Y-111763095D01*
X121180952Y-111763095D01*
X121085714Y-111825000D01*
X121038095Y-111886905D01*
X120990476Y-112010714D01*
X120990476Y-112196429D01*
X121038095Y-112320238D01*
X121085714Y-112382143D01*
X121180952Y-112444048D01*
X121561905Y-112444048D01*
X120419048Y-113063095D02*
X120514286Y-113001190D01*
X120561905Y-112939286D01*
X120609524Y-112815476D01*
X120609524Y-112444048D01*
X120561905Y-112320238D01*
X120514286Y-112258333D01*
X120419048Y-112196429D01*
X120276190Y-112196429D01*
X120180952Y-112258333D01*
X120133333Y-112320238D01*
X120085714Y-112444048D01*
X120085714Y-112815476D01*
X120133333Y-112939286D01*
X120180952Y-113001190D01*
X120276190Y-113063095D01*
X120419048Y-113063095D01*
X119752381Y-112196429D02*
X119561905Y-113063095D01*
X119371428Y-112444048D01*
X119180952Y-113063095D01*
X118990476Y-112196429D01*
X118228571Y-113001190D02*
X118323809Y-113063095D01*
X118514286Y-113063095D01*
X118609524Y-113001190D01*
X118657143Y-112877381D01*
X118657143Y-112382143D01*
X118609524Y-112258333D01*
X118514286Y-112196429D01*
X118323809Y-112196429D01*
X118228571Y-112258333D01*
X118180952Y-112382143D01*
X118180952Y-112505952D01*
X118657143Y-112629762D01*
X117752381Y-113063095D02*
X117752381Y-112196429D01*
X117752381Y-112444048D02*
X117704762Y-112320238D01*
X117657143Y-112258333D01*
X117561905Y-112196429D01*
X117466666Y-112196429D01*
X116180952Y-111763095D02*
X115990475Y-111763095D01*
X115895237Y-111825000D01*
X115799999Y-111948810D01*
X115752380Y-112196429D01*
X115752380Y-112629762D01*
X115799999Y-112877381D01*
X115895237Y-113001190D01*
X115990475Y-113063095D01*
X116180952Y-113063095D01*
X116276190Y-113001190D01*
X116371428Y-112877381D01*
X116419047Y-112629762D01*
X116419047Y-112196429D01*
X116371428Y-111948810D01*
X116276190Y-111825000D01*
X116180952Y-111763095D01*
X115323809Y-112196429D02*
X115323809Y-113063095D01*
X115323809Y-112320238D02*
X115276190Y-112258333D01*
X115180952Y-112196429D01*
X115038094Y-112196429D01*
X114942856Y-112258333D01*
X114895237Y-112382143D01*
X114895237Y-113063095D01*
X113704761Y-111701190D02*
X114561904Y-113372619D01*
X113180952Y-111763095D02*
X112990475Y-111763095D01*
X112895237Y-111825000D01*
X112799999Y-111948810D01*
X112752380Y-112196429D01*
X112752380Y-112629762D01*
X112799999Y-112877381D01*
X112895237Y-113001190D01*
X112990475Y-113063095D01*
X113180952Y-113063095D01*
X113276190Y-113001190D01*
X113371428Y-112877381D01*
X113419047Y-112629762D01*
X113419047Y-112196429D01*
X113371428Y-111948810D01*
X113276190Y-111825000D01*
X113180952Y-111763095D01*
X112466666Y-112196429D02*
X112085714Y-112196429D01*
X112323809Y-113063095D02*
X112323809Y-111948810D01*
X112276190Y-111825000D01*
X112180952Y-111763095D01*
X112085714Y-111763095D01*
X111895237Y-112196429D02*
X111514285Y-112196429D01*
X111752380Y-113063095D02*
X111752380Y-111948810D01*
X111704761Y-111825000D01*
X111609523Y-111763095D01*
X111514285Y-111763095D01*
X132000000Y-89800000D02*
X132000000Y-86100000D01*
X136414286Y-91351190D02*
X136271429Y-91413095D01*
X136033333Y-91413095D01*
X135938095Y-91351190D01*
X135890476Y-91289286D01*
X135842857Y-91165476D01*
X135842857Y-91041667D01*
X135890476Y-90917857D01*
X135938095Y-90855952D01*
X136033333Y-90794048D01*
X136223810Y-90732143D01*
X136319048Y-90670238D01*
X136366667Y-90608333D01*
X136414286Y-90484524D01*
X136414286Y-90360714D01*
X136366667Y-90236905D01*
X136319048Y-90175000D01*
X136223810Y-90113095D01*
X135985714Y-90113095D01*
X135842857Y-90175000D01*
X135033333Y-91351190D02*
X135128571Y-91413095D01*
X135319048Y-91413095D01*
X135414286Y-91351190D01*
X135461905Y-91227381D01*
X135461905Y-90732143D01*
X135414286Y-90608333D01*
X135319048Y-90546429D01*
X135128571Y-90546429D01*
X135033333Y-90608333D01*
X134985714Y-90732143D01*
X134985714Y-90855952D01*
X135461905Y-90979762D01*
X134557143Y-90546429D02*
X134557143Y-91846429D01*
X134557143Y-90608333D02*
X134461905Y-90546429D01*
X134271428Y-90546429D01*
X134176190Y-90608333D01*
X134128571Y-90670238D01*
X134080952Y-90794048D01*
X134080952Y-91165476D01*
X134128571Y-91289286D01*
X134176190Y-91351190D01*
X134271428Y-91413095D01*
X134461905Y-91413095D01*
X134557143Y-91351190D01*
X133223809Y-91413095D02*
X133223809Y-90732143D01*
X133271428Y-90608333D01*
X133366666Y-90546429D01*
X133557143Y-90546429D01*
X133652381Y-90608333D01*
X133223809Y-91351190D02*
X133319047Y-91413095D01*
X133557143Y-91413095D01*
X133652381Y-91351190D01*
X133700000Y-91227381D01*
X133700000Y-91103571D01*
X133652381Y-90979762D01*
X133557143Y-90917857D01*
X133319047Y-90917857D01*
X133223809Y-90855952D01*
X132747619Y-91413095D02*
X132747619Y-90546429D01*
X132747619Y-90794048D02*
X132700000Y-90670238D01*
X132652381Y-90608333D01*
X132557143Y-90546429D01*
X132461904Y-90546429D01*
X131699999Y-91413095D02*
X131699999Y-90732143D01*
X131747618Y-90608333D01*
X131842856Y-90546429D01*
X132033333Y-90546429D01*
X132128571Y-90608333D01*
X131699999Y-91351190D02*
X131795237Y-91413095D01*
X132033333Y-91413095D01*
X132128571Y-91351190D01*
X132176190Y-91227381D01*
X132176190Y-91103571D01*
X132128571Y-90979762D01*
X132033333Y-90917857D01*
X131795237Y-90917857D01*
X131699999Y-90855952D01*
X131366666Y-90546429D02*
X130985714Y-90546429D01*
X131223809Y-90113095D02*
X131223809Y-91227381D01*
X131176190Y-91351190D01*
X131080952Y-91413095D01*
X130985714Y-91413095D01*
X130271427Y-91351190D02*
X130366665Y-91413095D01*
X130557142Y-91413095D01*
X130652380Y-91351190D01*
X130699999Y-91227381D01*
X130699999Y-90732143D01*
X130652380Y-90608333D01*
X130557142Y-90546429D01*
X130366665Y-90546429D01*
X130271427Y-90608333D01*
X130223808Y-90732143D01*
X130223808Y-90855952D01*
X130699999Y-90979762D01*
X129033332Y-91413095D02*
X129033332Y-90113095D01*
X128652379Y-90113095D01*
X128557141Y-90175000D01*
X128509522Y-90236905D01*
X128461903Y-90360714D01*
X128461903Y-90546429D01*
X128509522Y-90670238D01*
X128557141Y-90732143D01*
X128652379Y-90794048D01*
X129033332Y-90794048D01*
X128033332Y-91413095D02*
X128033332Y-90546429D01*
X128033332Y-90113095D02*
X128080951Y-90175000D01*
X128033332Y-90236905D01*
X127985713Y-90175000D01*
X128033332Y-90113095D01*
X128033332Y-90236905D01*
X135747619Y-93563095D02*
X135747619Y-92882143D01*
X135795238Y-92758333D01*
X135890476Y-92696429D01*
X136080953Y-92696429D01*
X136176191Y-92758333D01*
X135747619Y-93501190D02*
X135842857Y-93563095D01*
X136080953Y-93563095D01*
X136176191Y-93501190D01*
X136223810Y-93377381D01*
X136223810Y-93253571D01*
X136176191Y-93129762D01*
X136080953Y-93067857D01*
X135842857Y-93067857D01*
X135747619Y-93005952D01*
X135271429Y-92696429D02*
X135271429Y-93563095D01*
X135271429Y-92820238D02*
X135223810Y-92758333D01*
X135128572Y-92696429D01*
X134985714Y-92696429D01*
X134890476Y-92758333D01*
X134842857Y-92882143D01*
X134842857Y-93563095D01*
X133938095Y-93563095D02*
X133938095Y-92263095D01*
X133938095Y-93501190D02*
X134033333Y-93563095D01*
X134223810Y-93563095D01*
X134319048Y-93501190D01*
X134366667Y-93439286D01*
X134414286Y-93315476D01*
X134414286Y-92944048D01*
X134366667Y-92820238D01*
X134319048Y-92758333D01*
X134223810Y-92696429D01*
X134033333Y-92696429D01*
X133938095Y-92758333D01*
X132842857Y-92263095D02*
X132271428Y-92263095D01*
X132557143Y-93563095D02*
X132557143Y-92263095D01*
X131557142Y-93501190D02*
X131652380Y-93563095D01*
X131842857Y-93563095D01*
X131938095Y-93501190D01*
X131985714Y-93377381D01*
X131985714Y-92882143D01*
X131938095Y-92758333D01*
X131842857Y-92696429D01*
X131652380Y-92696429D01*
X131557142Y-92758333D01*
X131509523Y-92882143D01*
X131509523Y-93005952D01*
X131985714Y-93129762D01*
X130699999Y-93501190D02*
X130795237Y-93563095D01*
X130985714Y-93563095D01*
X131080952Y-93501190D01*
X131128571Y-93377381D01*
X131128571Y-92882143D01*
X131080952Y-92758333D01*
X130985714Y-92696429D01*
X130795237Y-92696429D01*
X130699999Y-92758333D01*
X130652380Y-92882143D01*
X130652380Y-93005952D01*
X131128571Y-93129762D01*
X130223809Y-92696429D02*
X130223809Y-93563095D01*
X130223809Y-92820238D02*
X130176190Y-92758333D01*
X130080952Y-92696429D01*
X129938094Y-92696429D01*
X129842856Y-92758333D01*
X129795237Y-92882143D01*
X129795237Y-93563095D01*
X129366666Y-93501190D02*
X129271428Y-93563095D01*
X129080952Y-93563095D01*
X128985713Y-93501190D01*
X128938094Y-93377381D01*
X128938094Y-93315476D01*
X128985713Y-93191667D01*
X129080952Y-93129762D01*
X129223809Y-93129762D01*
X129319047Y-93067857D01*
X129366666Y-92944048D01*
X129366666Y-92882143D01*
X129319047Y-92758333D01*
X129223809Y-92696429D01*
X129080952Y-92696429D01*
X128985713Y-92758333D01*
X128604761Y-92696429D02*
X128366666Y-93563095D01*
X128128570Y-92696429D02*
X128366666Y-93563095D01*
X128461904Y-93872619D01*
X128509523Y-93934524D01*
X128604761Y-93996429D01*
X90438095Y-88813095D02*
X90914286Y-88813095D01*
X90961905Y-89432143D01*
X90914286Y-89370238D01*
X90819048Y-89308333D01*
X90580952Y-89308333D01*
X90485714Y-89370238D01*
X90438095Y-89432143D01*
X90390476Y-89555952D01*
X90390476Y-89865476D01*
X90438095Y-89989286D01*
X90485714Y-90051190D01*
X90580952Y-90113095D01*
X90819048Y-90113095D01*
X90914286Y-90051190D01*
X90961905Y-89989286D01*
X90104762Y-88813095D02*
X89771429Y-90113095D01*
X89438095Y-88813095D01*
X88390476Y-88751190D02*
X89247619Y-90422619D01*
X87580952Y-88813095D02*
X88057143Y-88813095D01*
X88104762Y-89432143D01*
X88057143Y-89370238D01*
X87961905Y-89308333D01*
X87723809Y-89308333D01*
X87628571Y-89370238D01*
X87580952Y-89432143D01*
X87533333Y-89555952D01*
X87533333Y-89865476D01*
X87580952Y-89989286D01*
X87628571Y-90051190D01*
X87723809Y-90113095D01*
X87961905Y-90113095D01*
X88057143Y-90051190D01*
X88104762Y-89989286D01*
X87152381Y-89741667D02*
X86676190Y-89741667D01*
X87247619Y-90113095D02*
X86914286Y-88813095D01*
X86580952Y-90113095D01*
X85485714Y-90113095D02*
X85485714Y-88813095D01*
X85485714Y-89308333D02*
X85390476Y-89246429D01*
X85199999Y-89246429D01*
X85104761Y-89308333D01*
X85057142Y-89370238D01*
X85009523Y-89494048D01*
X85009523Y-89865476D01*
X85057142Y-89989286D01*
X85104761Y-90051190D01*
X85199999Y-90113095D01*
X85390476Y-90113095D01*
X85485714Y-90051190D01*
X84152380Y-89246429D02*
X84152380Y-90113095D01*
X84580952Y-89246429D02*
X84580952Y-89927381D01*
X84533333Y-90051190D01*
X84438095Y-90113095D01*
X84295237Y-90113095D01*
X84199999Y-90051190D01*
X84152380Y-89989286D01*
X83247618Y-90051190D02*
X83342856Y-90113095D01*
X83533333Y-90113095D01*
X83628571Y-90051190D01*
X83676190Y-89989286D01*
X83723809Y-89865476D01*
X83723809Y-89494048D01*
X83676190Y-89370238D01*
X83628571Y-89308333D01*
X83533333Y-89246429D01*
X83342856Y-89246429D01*
X83247618Y-89308333D01*
X82819047Y-90113095D02*
X82819047Y-88813095D01*
X82723809Y-89617857D02*
X82438094Y-90113095D01*
X82438094Y-89246429D02*
X82819047Y-89741667D01*
X89866668Y-92263095D02*
X89866668Y-91396429D01*
X89866668Y-91644048D02*
X89819049Y-91520238D01*
X89771430Y-91458333D01*
X89676192Y-91396429D01*
X89580953Y-91396429D01*
X88866667Y-92201190D02*
X88961905Y-92263095D01*
X89152382Y-92263095D01*
X89247620Y-92201190D01*
X89295239Y-92077381D01*
X89295239Y-91582143D01*
X89247620Y-91458333D01*
X89152382Y-91396429D01*
X88961905Y-91396429D01*
X88866667Y-91458333D01*
X88819048Y-91582143D01*
X88819048Y-91705952D01*
X89295239Y-91829762D01*
X87961905Y-91396429D02*
X87961905Y-92448810D01*
X88009524Y-92572619D01*
X88057143Y-92634524D01*
X88152382Y-92696429D01*
X88295239Y-92696429D01*
X88390477Y-92634524D01*
X87961905Y-92201190D02*
X88057143Y-92263095D01*
X88247620Y-92263095D01*
X88342858Y-92201190D01*
X88390477Y-92139286D01*
X88438096Y-92015476D01*
X88438096Y-91644048D01*
X88390477Y-91520238D01*
X88342858Y-91458333D01*
X88247620Y-91396429D01*
X88057143Y-91396429D01*
X87961905Y-91458333D01*
X87057143Y-91396429D02*
X87057143Y-92263095D01*
X87485715Y-91396429D02*
X87485715Y-92077381D01*
X87438096Y-92201190D01*
X87342858Y-92263095D01*
X87200000Y-92263095D01*
X87104762Y-92201190D01*
X87057143Y-92139286D01*
X86438096Y-92263095D02*
X86533334Y-92201190D01*
X86580953Y-92077381D01*
X86580953Y-90963095D01*
X85628571Y-92263095D02*
X85628571Y-91582143D01*
X85676190Y-91458333D01*
X85771428Y-91396429D01*
X85961905Y-91396429D01*
X86057143Y-91458333D01*
X85628571Y-92201190D02*
X85723809Y-92263095D01*
X85961905Y-92263095D01*
X86057143Y-92201190D01*
X86104762Y-92077381D01*
X86104762Y-91953571D01*
X86057143Y-91829762D01*
X85961905Y-91767857D01*
X85723809Y-91767857D01*
X85628571Y-91705952D01*
X85295238Y-91396429D02*
X84914286Y-91396429D01*
X85152381Y-90963095D02*
X85152381Y-92077381D01*
X85104762Y-92201190D01*
X85009524Y-92263095D01*
X84914286Y-92263095D01*
X84438095Y-92263095D02*
X84533333Y-92201190D01*
X84580952Y-92139286D01*
X84628571Y-92015476D01*
X84628571Y-91644048D01*
X84580952Y-91520238D01*
X84533333Y-91458333D01*
X84438095Y-91396429D01*
X84295237Y-91396429D01*
X84199999Y-91458333D01*
X84152380Y-91520238D01*
X84104761Y-91644048D01*
X84104761Y-92015476D01*
X84152380Y-92139286D01*
X84199999Y-92201190D01*
X84295237Y-92263095D01*
X84438095Y-92263095D01*
X83676190Y-92263095D02*
X83676190Y-91396429D01*
X83676190Y-91644048D02*
X83628571Y-91520238D01*
X83580952Y-91458333D01*
X83485714Y-91396429D01*
X83390475Y-91396429D01*
X80273810Y-108838096D02*
X80211905Y-108695239D01*
X80211905Y-108457143D01*
X80273810Y-108361905D01*
X80335714Y-108314286D01*
X80459524Y-108266667D01*
X80583333Y-108266667D01*
X80707143Y-108314286D01*
X80769048Y-108361905D01*
X80830952Y-108457143D01*
X80892857Y-108647620D01*
X80954762Y-108742858D01*
X81016667Y-108790477D01*
X81140476Y-108838096D01*
X81264286Y-108838096D01*
X81388095Y-108790477D01*
X81450000Y-108742858D01*
X81511905Y-108647620D01*
X81511905Y-108409524D01*
X81450000Y-108266667D01*
X81078571Y-107933334D02*
X80211905Y-107742858D01*
X80830952Y-107552381D01*
X80211905Y-107361905D01*
X81078571Y-107171429D01*
X80211905Y-106790477D02*
X81078571Y-106790477D01*
X81511905Y-106790477D02*
X81450000Y-106838096D01*
X81388095Y-106790477D01*
X81450000Y-106742858D01*
X81511905Y-106790477D01*
X81388095Y-106790477D01*
X81078571Y-106457144D02*
X81078571Y-106076192D01*
X81511905Y-106314287D02*
X80397619Y-106314287D01*
X80273810Y-106266668D01*
X80211905Y-106171430D01*
X80211905Y-106076192D01*
X80273810Y-105314286D02*
X80211905Y-105409524D01*
X80211905Y-105600001D01*
X80273810Y-105695239D01*
X80335714Y-105742858D01*
X80459524Y-105790477D01*
X80830952Y-105790477D01*
X80954762Y-105742858D01*
X81016667Y-105695239D01*
X81078571Y-105600001D01*
X81078571Y-105409524D01*
X81016667Y-105314286D01*
X80211905Y-104885715D02*
X81511905Y-104885715D01*
X80211905Y-104457143D02*
X80892857Y-104457143D01*
X81016667Y-104504762D01*
X81078571Y-104600000D01*
X81078571Y-104742858D01*
X81016667Y-104838096D01*
X80954762Y-104885715D01*
X80273810Y-103600000D02*
X80211905Y-103695238D01*
X80211905Y-103885715D01*
X80273810Y-103980953D01*
X80397619Y-104028572D01*
X80892857Y-104028572D01*
X81016667Y-103980953D01*
X81078571Y-103885715D01*
X81078571Y-103695238D01*
X81016667Y-103600000D01*
X80892857Y-103552381D01*
X80769048Y-103552381D01*
X80645238Y-104028572D01*
X80211905Y-102695238D02*
X81511905Y-102695238D01*
X80273810Y-102695238D02*
X80211905Y-102790476D01*
X80211905Y-102980953D01*
X80273810Y-103076191D01*
X80335714Y-103123810D01*
X80459524Y-103171429D01*
X80830952Y-103171429D01*
X80954762Y-103123810D01*
X81016667Y-103076191D01*
X81078571Y-102980953D01*
X81078571Y-102790476D01*
X81016667Y-102695238D01*
X81511905Y-101266667D02*
X81511905Y-101076190D01*
X81450000Y-100980952D01*
X81326190Y-100885714D01*
X81078571Y-100838095D01*
X80645238Y-100838095D01*
X80397619Y-100885714D01*
X80273810Y-100980952D01*
X80211905Y-101076190D01*
X80211905Y-101266667D01*
X80273810Y-101361905D01*
X80397619Y-101457143D01*
X80645238Y-101504762D01*
X81078571Y-101504762D01*
X81326190Y-101457143D01*
X81450000Y-101361905D01*
X81511905Y-101266667D01*
X81078571Y-99980952D02*
X80211905Y-99980952D01*
X81078571Y-100409524D02*
X80397619Y-100409524D01*
X80273810Y-100361905D01*
X80211905Y-100266667D01*
X80211905Y-100123809D01*
X80273810Y-100028571D01*
X80335714Y-99980952D01*
X81078571Y-99647619D02*
X81078571Y-99266667D01*
X81511905Y-99504762D02*
X80397619Y-99504762D01*
X80273810Y-99457143D01*
X80211905Y-99361905D01*
X80211905Y-99266667D01*
X89238095Y-110907143D02*
X89095238Y-110969048D01*
X89047619Y-111030952D01*
X89000000Y-111154762D01*
X89000000Y-111340476D01*
X89047619Y-111464286D01*
X89095238Y-111526190D01*
X89190476Y-111588095D01*
X89571429Y-111588095D01*
X89571429Y-110288095D01*
X89238095Y-110288095D01*
X89142857Y-110350000D01*
X89095238Y-110411905D01*
X89047619Y-110535714D01*
X89047619Y-110659524D01*
X89095238Y-110783333D01*
X89142857Y-110845238D01*
X89238095Y-110907143D01*
X89571429Y-110907143D01*
X88142857Y-111588095D02*
X88142857Y-110907143D01*
X88190476Y-110783333D01*
X88285714Y-110721429D01*
X88476191Y-110721429D01*
X88571429Y-110783333D01*
X88142857Y-111526190D02*
X88238095Y-111588095D01*
X88476191Y-111588095D01*
X88571429Y-111526190D01*
X88619048Y-111402381D01*
X88619048Y-111278571D01*
X88571429Y-111154762D01*
X88476191Y-111092857D01*
X88238095Y-111092857D01*
X88142857Y-111030952D01*
X87809524Y-110721429D02*
X87428572Y-110721429D01*
X87666667Y-110288095D02*
X87666667Y-111402381D01*
X87619048Y-111526190D01*
X87523810Y-111588095D01*
X87428572Y-111588095D01*
X86333333Y-111588095D02*
X86333333Y-110288095D01*
X85857143Y-110721429D02*
X85857143Y-111588095D01*
X85857143Y-110845238D02*
X85809524Y-110783333D01*
X85714286Y-110721429D01*
X85571428Y-110721429D01*
X85476190Y-110783333D01*
X85428571Y-110907143D01*
X85428571Y-111588095D01*
D12*
X92361905Y-113742857D02*
X90838095Y-113742857D01*
X84261905Y-113542857D02*
X82738095Y-113542857D01*
X83500000Y-114304762D02*
X83500000Y-112780952D01*
X78961905Y-108242857D02*
X77438095Y-108242857D01*
X78861905Y-99642857D02*
X77338095Y-99642857D01*
X78100000Y-100404762D02*
X78100000Y-98880952D01*
D11*
X126600000Y-96500000D02*
X126600000Y-96400000D01*
X113100000Y-96500000D02*
X126600000Y-96500000D01*
X99500000Y-96500000D02*
X110600000Y-96500000D01*
X102900000Y-99100000D02*
X120700000Y-99100000D01*
X125500000Y-112100000D02*
X127000000Y-112100000D01*
X129900000Y-109800000D02*
X130200000Y-109800000D01*
X129300000Y-110400000D02*
X129900000Y-109800000D01*
X125500000Y-111600000D02*
X125500000Y-112100000D01*
X126700000Y-110400000D02*
X125500000Y-111600000D01*
X135500000Y-110400000D02*
X126700000Y-110400000D01*
X135800000Y-110100000D02*
X135500000Y-110400000D01*
X135800000Y-109600000D02*
X135800000Y-110100000D01*
X137400000Y-109500000D02*
X137400000Y-109200000D01*
X137400000Y-109500000D02*
X135300000Y-109500000D01*
X136900000Y-110400000D02*
X136900000Y-109500000D01*
X136900000Y-110600000D02*
X136900000Y-110400000D01*
X135500000Y-112000000D02*
X136900000Y-110600000D01*
X135000000Y-112000000D02*
X135500000Y-112000000D01*
X129000000Y-112100000D02*
X133000000Y-112100000D01*
X135000000Y-112000000D02*
G75*
G03X135000000Y-112000000I-1000000J0D01*
G01*
X129000000Y-112000000D02*
G75*
G03X129000000Y-112000000I-1000000J0D01*
G01*
D13*
X79172543Y-68067208D02*
X78272543Y-68067208D01*
X79172543Y-68410065D02*
X78701114Y-68410065D01*
X78615400Y-68371970D01*
X78572543Y-68295780D01*
X78572543Y-68181494D01*
X78615400Y-68105303D01*
X78658257Y-68067208D01*
X78572543Y-68676732D02*
X78572543Y-68981494D01*
X78272543Y-68791018D02*
X79043971Y-68791018D01*
X79129686Y-68829113D01*
X79172543Y-68905304D01*
X79172543Y-68981494D01*
X78572543Y-69133875D02*
X78572543Y-69438637D01*
X78272543Y-69248161D02*
X79043971Y-69248161D01*
X79129686Y-69286256D01*
X79172543Y-69362447D01*
X79172543Y-69438637D01*
X78572543Y-69705304D02*
X79472543Y-69705304D01*
X78615400Y-69705304D02*
X78572543Y-69781495D01*
X78572543Y-69933876D01*
X78615400Y-70010066D01*
X78658257Y-70048161D01*
X78743971Y-70086257D01*
X79001114Y-70086257D01*
X79086829Y-70048161D01*
X79129686Y-70010066D01*
X79172543Y-69933876D01*
X79172543Y-69781495D01*
X79129686Y-69705304D01*
X79129686Y-70391019D02*
X79172543Y-70467209D01*
X79172543Y-70619590D01*
X79129686Y-70695781D01*
X79043971Y-70733876D01*
X79001114Y-70733876D01*
X78915400Y-70695781D01*
X78872543Y-70619590D01*
X78872543Y-70505305D01*
X78829686Y-70429114D01*
X78743971Y-70391019D01*
X78701114Y-70391019D01*
X78615400Y-70429114D01*
X78572543Y-70505305D01*
X78572543Y-70619590D01*
X78615400Y-70695781D01*
X79086829Y-71076733D02*
X79129686Y-71114828D01*
X79172543Y-71076733D01*
X79129686Y-71038638D01*
X79086829Y-71076733D01*
X79172543Y-71076733D01*
X78615400Y-71076733D02*
X78658257Y-71114828D01*
X78701114Y-71076733D01*
X78658257Y-71038638D01*
X78615400Y-71076733D01*
X78701114Y-71076733D01*
X78229686Y-72029114D02*
X79386829Y-71343399D01*
X78229686Y-72867209D02*
X79386829Y-72181494D01*
X78572543Y-73476732D02*
X79301114Y-73476732D01*
X79386829Y-73438637D01*
X79429686Y-73400542D01*
X79472543Y-73324351D01*
X79472543Y-73210066D01*
X79429686Y-73133875D01*
X79129686Y-73476732D02*
X79172543Y-73400542D01*
X79172543Y-73248161D01*
X79129686Y-73171970D01*
X79086829Y-73133875D01*
X79001114Y-73095780D01*
X78743971Y-73095780D01*
X78658257Y-73133875D01*
X78615400Y-73171970D01*
X78572543Y-73248161D01*
X78572543Y-73400542D01*
X78615400Y-73476732D01*
X79172543Y-73857685D02*
X78572543Y-73857685D01*
X78272543Y-73857685D02*
X78315400Y-73819590D01*
X78358257Y-73857685D01*
X78315400Y-73895780D01*
X78272543Y-73857685D01*
X78358257Y-73857685D01*
X78572543Y-74124351D02*
X78572543Y-74429113D01*
X78272543Y-74238637D02*
X79043971Y-74238637D01*
X79129686Y-74276732D01*
X79172543Y-74352923D01*
X79172543Y-74429113D01*
X79172543Y-74695780D02*
X78272543Y-74695780D01*
X79172543Y-75038637D02*
X78701114Y-75038637D01*
X78615400Y-75000542D01*
X78572543Y-74924352D01*
X78572543Y-74810066D01*
X78615400Y-74733875D01*
X78658257Y-74695780D01*
X78572543Y-75762447D02*
X79172543Y-75762447D01*
X78572543Y-75419590D02*
X79043971Y-75419590D01*
X79129686Y-75457685D01*
X79172543Y-75533876D01*
X79172543Y-75648162D01*
X79129686Y-75724352D01*
X79086829Y-75762447D01*
X79172543Y-76143400D02*
X78272543Y-76143400D01*
X78615400Y-76143400D02*
X78572543Y-76219591D01*
X78572543Y-76371972D01*
X78615400Y-76448162D01*
X78658257Y-76486257D01*
X78743971Y-76524353D01*
X79001114Y-76524353D01*
X79086829Y-76486257D01*
X79129686Y-76448162D01*
X79172543Y-76371972D01*
X79172543Y-76219591D01*
X79129686Y-76143400D01*
X79086829Y-76867210D02*
X79129686Y-76905305D01*
X79172543Y-76867210D01*
X79129686Y-76829115D01*
X79086829Y-76867210D01*
X79172543Y-76867210D01*
X79129686Y-77591019D02*
X79172543Y-77514829D01*
X79172543Y-77362448D01*
X79129686Y-77286257D01*
X79086829Y-77248162D01*
X79001114Y-77210067D01*
X78743971Y-77210067D01*
X78658257Y-77248162D01*
X78615400Y-77286257D01*
X78572543Y-77362448D01*
X78572543Y-77514829D01*
X78615400Y-77591019D01*
X79172543Y-78048162D02*
X79129686Y-77971971D01*
X79086829Y-77933876D01*
X79001114Y-77895781D01*
X78743971Y-77895781D01*
X78658257Y-77933876D01*
X78615400Y-77971971D01*
X78572543Y-78048162D01*
X78572543Y-78162448D01*
X78615400Y-78238638D01*
X78658257Y-78276733D01*
X78743971Y-78314829D01*
X79001114Y-78314829D01*
X79086829Y-78276733D01*
X79129686Y-78238638D01*
X79172543Y-78162448D01*
X79172543Y-78048162D01*
X79172543Y-78657686D02*
X78572543Y-78657686D01*
X78658257Y-78657686D02*
X78615400Y-78695781D01*
X78572543Y-78771972D01*
X78572543Y-78886258D01*
X78615400Y-78962448D01*
X78701114Y-79000543D01*
X79172543Y-79000543D01*
X78701114Y-79000543D02*
X78615400Y-79038639D01*
X78572543Y-79114829D01*
X78572543Y-79229115D01*
X78615400Y-79305305D01*
X78701114Y-79343400D01*
X79172543Y-79343400D01*
X78229686Y-80295782D02*
X79386829Y-79610067D01*
X78572543Y-80562448D02*
X79343971Y-80562448D01*
X79429686Y-80524353D01*
X79472543Y-80448162D01*
X79472543Y-80410067D01*
X78272543Y-80562448D02*
X78315400Y-80524353D01*
X78358257Y-80562448D01*
X78315400Y-80600543D01*
X78272543Y-80562448D01*
X78358257Y-80562448D01*
X78572543Y-80867210D02*
X79172543Y-81019591D01*
X78743971Y-81171972D01*
X79172543Y-81324353D01*
X78572543Y-81476734D01*
X79172543Y-82124352D02*
X78701114Y-82124352D01*
X78615400Y-82086257D01*
X78572543Y-82010067D01*
X78572543Y-81857686D01*
X78615400Y-81781495D01*
X79129686Y-82124352D02*
X79172543Y-82048162D01*
X79172543Y-81857686D01*
X79129686Y-81781495D01*
X79043971Y-81743400D01*
X78958257Y-81743400D01*
X78872543Y-81781495D01*
X78829686Y-81857686D01*
X78829686Y-82048162D01*
X78786829Y-82124352D01*
X78572543Y-82391019D02*
X78572543Y-82695781D01*
X78272543Y-82505305D02*
X79043971Y-82505305D01*
X79129686Y-82543400D01*
X79172543Y-82619591D01*
X79172543Y-82695781D01*
X78572543Y-82848162D02*
X78572543Y-83152924D01*
X78272543Y-82962448D02*
X79043971Y-82962448D01*
X79129686Y-83000543D01*
X79172543Y-83076734D01*
X79172543Y-83152924D01*
X79129686Y-83724353D02*
X79172543Y-83648163D01*
X79172543Y-83495782D01*
X79129686Y-83419591D01*
X79043971Y-83381496D01*
X78701114Y-83381496D01*
X78615400Y-83419591D01*
X78572543Y-83495782D01*
X78572543Y-83648163D01*
X78615400Y-83724353D01*
X78701114Y-83762448D01*
X78786829Y-83762448D01*
X78872543Y-83381496D01*
X78229686Y-84676734D02*
X79386829Y-83991019D01*
X79172543Y-85286257D02*
X78272543Y-85286257D01*
X79129686Y-85286257D02*
X79172543Y-85210067D01*
X79172543Y-85057686D01*
X79129686Y-84981495D01*
X79086829Y-84943400D01*
X79001114Y-84905305D01*
X78743971Y-84905305D01*
X78658257Y-84943400D01*
X78615400Y-84981495D01*
X78572543Y-85057686D01*
X78572543Y-85210067D01*
X78615400Y-85286257D01*
X79172543Y-85781496D02*
X79129686Y-85705305D01*
X79086829Y-85667210D01*
X79001114Y-85629115D01*
X78743971Y-85629115D01*
X78658257Y-85667210D01*
X78615400Y-85705305D01*
X78572543Y-85781496D01*
X78572543Y-85895782D01*
X78615400Y-85971972D01*
X78658257Y-86010067D01*
X78743971Y-86048163D01*
X79001114Y-86048163D01*
X79086829Y-86010067D01*
X79129686Y-85971972D01*
X79172543Y-85895782D01*
X79172543Y-85781496D01*
X78572543Y-86391020D02*
X79172543Y-86391020D01*
X78658257Y-86391020D02*
X78615400Y-86429115D01*
X78572543Y-86505306D01*
X78572543Y-86619592D01*
X78615400Y-86695782D01*
X78701114Y-86733877D01*
X79172543Y-86733877D01*
X79172543Y-87114830D02*
X78272543Y-87114830D01*
X78829686Y-87191021D02*
X79172543Y-87419592D01*
X78572543Y-87419592D02*
X78915400Y-87114830D01*
X79129686Y-88067211D02*
X79172543Y-87991021D01*
X79172543Y-87838640D01*
X79129686Y-87762449D01*
X79043971Y-87724354D01*
X78701114Y-87724354D01*
X78615400Y-87762449D01*
X78572543Y-87838640D01*
X78572543Y-87991021D01*
X78615400Y-88067211D01*
X78701114Y-88105306D01*
X78786829Y-88105306D01*
X78872543Y-87724354D01*
X78572543Y-88371973D02*
X79172543Y-88562449D01*
X78572543Y-88752925D02*
X79172543Y-88562449D01*
X79386829Y-88486258D01*
X79429686Y-88448163D01*
X79472543Y-88371973D01*
X79258257Y-88867211D02*
X79258257Y-89476735D01*
X79172543Y-89667211D02*
X78572543Y-89667211D01*
X78743971Y-89667211D02*
X78658257Y-89705306D01*
X78615400Y-89743402D01*
X78572543Y-89819592D01*
X78572543Y-89895783D01*
X79172543Y-90505306D02*
X78701114Y-90505306D01*
X78615400Y-90467211D01*
X78572543Y-90391021D01*
X78572543Y-90238640D01*
X78615400Y-90162449D01*
X79129686Y-90505306D02*
X79172543Y-90429116D01*
X79172543Y-90238640D01*
X79129686Y-90162449D01*
X79043971Y-90124354D01*
X78958257Y-90124354D01*
X78872543Y-90162449D01*
X78829686Y-90238640D01*
X78829686Y-90429116D01*
X78786829Y-90505306D01*
X79129686Y-91229116D02*
X79172543Y-91152926D01*
X79172543Y-91000545D01*
X79129686Y-90924354D01*
X79086829Y-90886259D01*
X79001114Y-90848164D01*
X78743971Y-90848164D01*
X78658257Y-90886259D01*
X78615400Y-90924354D01*
X78572543Y-91000545D01*
X78572543Y-91152926D01*
X78615400Y-91229116D01*
X79172543Y-91571973D02*
X78572543Y-91571973D01*
X78272543Y-91571973D02*
X78315400Y-91533878D01*
X78358257Y-91571973D01*
X78315400Y-91610068D01*
X78272543Y-91571973D01*
X78358257Y-91571973D01*
X78572543Y-91952925D02*
X79172543Y-91952925D01*
X78658257Y-91952925D02*
X78615400Y-91991020D01*
X78572543Y-92067211D01*
X78572543Y-92181497D01*
X78615400Y-92257687D01*
X78701114Y-92295782D01*
X79172543Y-92295782D01*
X78572543Y-93019592D02*
X79301114Y-93019592D01*
X79386829Y-92981497D01*
X79429686Y-92943402D01*
X79472543Y-92867211D01*
X79472543Y-92752926D01*
X79429686Y-92676735D01*
X79129686Y-93019592D02*
X79172543Y-92943402D01*
X79172543Y-92791021D01*
X79129686Y-92714830D01*
X79086829Y-92676735D01*
X79001114Y-92638640D01*
X78743971Y-92638640D01*
X78658257Y-92676735D01*
X78615400Y-92714830D01*
X78572543Y-92791021D01*
X78572543Y-92943402D01*
X78615400Y-93019592D01*
D11*
X77352457Y-68022801D02*
X76781029Y-67622801D01*
X77352457Y-67337086D02*
X76152457Y-67337086D01*
X76152457Y-67794229D01*
X76209600Y-67908515D01*
X76266743Y-67965658D01*
X76381029Y-68022801D01*
X76552457Y-68022801D01*
X76666743Y-67965658D01*
X76723886Y-67908515D01*
X76781029Y-67794229D01*
X76781029Y-67337086D01*
X77352457Y-69051372D02*
X76723886Y-69051372D01*
X76609600Y-68994229D01*
X76552457Y-68879943D01*
X76552457Y-68651372D01*
X76609600Y-68537086D01*
X77295314Y-69051372D02*
X77352457Y-68937086D01*
X77352457Y-68651372D01*
X77295314Y-68537086D01*
X77181029Y-68479943D01*
X77066743Y-68479943D01*
X76952457Y-68537086D01*
X76895314Y-68651372D01*
X76895314Y-68937086D01*
X76838171Y-69051372D01*
X77295314Y-69565657D02*
X77352457Y-69679943D01*
X77352457Y-69908515D01*
X77295314Y-70022800D01*
X77181029Y-70079943D01*
X77123886Y-70079943D01*
X77009600Y-70022800D01*
X76952457Y-69908515D01*
X76952457Y-69737086D01*
X76895314Y-69622800D01*
X76781029Y-69565657D01*
X76723886Y-69565657D01*
X76609600Y-69622800D01*
X76552457Y-69737086D01*
X76552457Y-69908515D01*
X76609600Y-70022800D01*
X76552457Y-70594229D02*
X77752457Y-70594229D01*
X76609600Y-70594229D02*
X76552457Y-70708515D01*
X76552457Y-70937086D01*
X76609600Y-71051372D01*
X76666743Y-71108515D01*
X76781029Y-71165658D01*
X77123886Y-71165658D01*
X77238171Y-71108515D01*
X77295314Y-71051372D01*
X77352457Y-70937086D01*
X77352457Y-70708515D01*
X77295314Y-70594229D01*
X77352457Y-71679943D02*
X76152457Y-71679943D01*
X76609600Y-71679943D02*
X76552457Y-71794229D01*
X76552457Y-72022800D01*
X76609600Y-72137086D01*
X76666743Y-72194229D01*
X76781029Y-72251372D01*
X77123886Y-72251372D01*
X77238171Y-72194229D01*
X77295314Y-72137086D01*
X77352457Y-72022800D01*
X77352457Y-71794229D01*
X77295314Y-71679943D01*
X77295314Y-73222800D02*
X77352457Y-73108514D01*
X77352457Y-72879943D01*
X77295314Y-72765657D01*
X77181029Y-72708514D01*
X76723886Y-72708514D01*
X76609600Y-72765657D01*
X76552457Y-72879943D01*
X76552457Y-73108514D01*
X76609600Y-73222800D01*
X76723886Y-73279943D01*
X76838171Y-73279943D01*
X76952457Y-72708514D01*
X77352457Y-73794228D02*
X76552457Y-73794228D01*
X76781029Y-73794228D02*
X76666743Y-73851371D01*
X76609600Y-73908514D01*
X76552457Y-74022800D01*
X76552457Y-74137085D01*
X77352457Y-74537085D02*
X76552457Y-74537085D01*
X76781029Y-74537085D02*
X76666743Y-74594228D01*
X76609600Y-74651371D01*
X76552457Y-74765657D01*
X76552457Y-74879942D01*
X76552457Y-75165657D02*
X77352457Y-75451371D01*
X76552457Y-75737085D02*
X77352457Y-75451371D01*
X77638171Y-75337085D01*
X77695314Y-75279942D01*
X77752457Y-75165657D01*
X77352457Y-77108514D02*
X76152457Y-77108514D01*
X76152457Y-77565657D01*
X76209600Y-77679943D01*
X76266743Y-77737086D01*
X76381029Y-77794229D01*
X76552457Y-77794229D01*
X76666743Y-77737086D01*
X76723886Y-77679943D01*
X76781029Y-77565657D01*
X76781029Y-77108514D01*
X77352457Y-78308514D02*
X76552457Y-78308514D01*
X76152457Y-78308514D02*
X76209600Y-78251371D01*
X76266743Y-78308514D01*
X76209600Y-78365657D01*
X76152457Y-78308514D01*
X76266743Y-78308514D01*
X77238171Y-80479944D02*
X77295314Y-80422801D01*
X77352457Y-80251372D01*
X77352457Y-80137086D01*
X77295314Y-79965658D01*
X77181029Y-79851372D01*
X77066743Y-79794229D01*
X76838171Y-79737086D01*
X76666743Y-79737086D01*
X76438171Y-79794229D01*
X76323886Y-79851372D01*
X76209600Y-79965658D01*
X76152457Y-80137086D01*
X76152457Y-80251372D01*
X76209600Y-80422801D01*
X76266743Y-80479944D01*
X77352457Y-81508515D02*
X76723886Y-81508515D01*
X76609600Y-81451372D01*
X76552457Y-81337086D01*
X76552457Y-81108515D01*
X76609600Y-80994229D01*
X77295314Y-81508515D02*
X77352457Y-81394229D01*
X77352457Y-81108515D01*
X77295314Y-80994229D01*
X77181029Y-80937086D01*
X77066743Y-80937086D01*
X76952457Y-80994229D01*
X76895314Y-81108515D01*
X76895314Y-81394229D01*
X76838171Y-81508515D01*
X77352457Y-82079943D02*
X76552457Y-82079943D01*
X76781029Y-82079943D02*
X76666743Y-82137086D01*
X76609600Y-82194229D01*
X76552457Y-82308515D01*
X76552457Y-82422800D01*
X77295314Y-83679943D02*
X77352457Y-83851372D01*
X77352457Y-84137086D01*
X77295314Y-84251372D01*
X77238171Y-84308515D01*
X77123886Y-84365658D01*
X77009600Y-84365658D01*
X76895314Y-84308515D01*
X76838171Y-84251372D01*
X76781029Y-84137086D01*
X76723886Y-83908515D01*
X76666743Y-83794229D01*
X76609600Y-83737086D01*
X76495314Y-83679943D01*
X76381029Y-83679943D01*
X76266743Y-83737086D01*
X76209600Y-83794229D01*
X76152457Y-83908515D01*
X76152457Y-84194229D01*
X76209600Y-84365658D01*
X77352457Y-84879943D02*
X76152457Y-84879943D01*
X77352457Y-85394229D02*
X76723886Y-85394229D01*
X76609600Y-85337086D01*
X76552457Y-85222800D01*
X76552457Y-85051372D01*
X76609600Y-84937086D01*
X76666743Y-84879943D01*
X77352457Y-85965657D02*
X76552457Y-85965657D01*
X76152457Y-85965657D02*
X76209600Y-85908514D01*
X76266743Y-85965657D01*
X76209600Y-86022800D01*
X76152457Y-85965657D01*
X76266743Y-85965657D01*
X77295314Y-86994229D02*
X77352457Y-86879943D01*
X77352457Y-86651372D01*
X77295314Y-86537086D01*
X77181029Y-86479943D01*
X76723886Y-86479943D01*
X76609600Y-86537086D01*
X76552457Y-86651372D01*
X76552457Y-86879943D01*
X76609600Y-86994229D01*
X76723886Y-87051372D01*
X76838171Y-87051372D01*
X76952457Y-86479943D01*
X77352457Y-87737086D02*
X77295314Y-87622800D01*
X77181029Y-87565657D01*
X76152457Y-87565657D01*
X77352457Y-88708514D02*
X76152457Y-88708514D01*
X77295314Y-88708514D02*
X77352457Y-88594228D01*
X77352457Y-88365657D01*
X77295314Y-88251371D01*
X77238171Y-88194228D01*
X77123886Y-88137085D01*
X76781029Y-88137085D01*
X76666743Y-88194228D01*
X76609600Y-88251371D01*
X76552457Y-88365657D01*
X76552457Y-88594228D01*
X76609600Y-88708514D01*
X76552457Y-90079943D02*
X77352457Y-90365657D01*
X76552457Y-90651371D01*
X76152457Y-92251372D02*
X76152457Y-92365657D01*
X76209600Y-92479943D01*
X76266743Y-92537086D01*
X76381029Y-92594229D01*
X76609600Y-92651372D01*
X76895314Y-92651372D01*
X77123886Y-92594229D01*
X77238171Y-92537086D01*
X77295314Y-92479943D01*
X77352457Y-92365657D01*
X77352457Y-92251372D01*
X77295314Y-92137086D01*
X77238171Y-92079943D01*
X77123886Y-92022800D01*
X76895314Y-91965657D01*
X76609600Y-91965657D01*
X76381029Y-92022800D01*
X76266743Y-92079943D01*
X76209600Y-92137086D01*
X76152457Y-92251372D01*
X77238171Y-93165657D02*
X77295314Y-93222800D01*
X77352457Y-93165657D01*
X77295314Y-93108514D01*
X77238171Y-93165657D01*
X77352457Y-93165657D01*
X77352457Y-94365658D02*
X77352457Y-93679943D01*
X77352457Y-94022801D02*
X76152457Y-94022801D01*
X76323886Y-93908515D01*
X76438171Y-93794229D01*
X76495314Y-93679943D01*
D14*
X93928571Y-109000001D02*
X93985714Y-108942858D01*
X94042857Y-108771429D01*
X94042857Y-108657143D01*
X93985714Y-108485715D01*
X93871429Y-108371429D01*
X93757143Y-108314286D01*
X93528571Y-108257143D01*
X93357143Y-108257143D01*
X93128571Y-108314286D01*
X93014286Y-108371429D01*
X92900000Y-108485715D01*
X92842857Y-108657143D01*
X92842857Y-108771429D01*
X92900000Y-108942858D01*
X92957143Y-109000001D01*
X93242857Y-110028572D02*
X94042857Y-110028572D01*
X93242857Y-109514286D02*
X93871429Y-109514286D01*
X93985714Y-109571429D01*
X94042857Y-109685715D01*
X94042857Y-109857143D01*
X93985714Y-109971429D01*
X93928571Y-110028572D01*
X93242857Y-110428572D02*
X93242857Y-110885715D01*
X92842857Y-110600000D02*
X93871429Y-110600000D01*
X93985714Y-110657143D01*
X94042857Y-110771429D01*
X94042857Y-110885715D01*
X94042857Y-112200000D02*
X92842857Y-112200000D01*
X93414286Y-112200000D02*
X93414286Y-112885715D01*
X94042857Y-112885715D02*
X92842857Y-112885715D01*
X93985714Y-113914286D02*
X94042857Y-113800000D01*
X94042857Y-113571429D01*
X93985714Y-113457143D01*
X93871429Y-113400000D01*
X93414286Y-113400000D01*
X93300000Y-113457143D01*
X93242857Y-113571429D01*
X93242857Y-113800000D01*
X93300000Y-113914286D01*
X93414286Y-113971429D01*
X93528571Y-113971429D01*
X93642857Y-113400000D01*
X94042857Y-114485714D02*
X93242857Y-114485714D01*
X93471429Y-114485714D02*
X93357143Y-114542857D01*
X93300000Y-114600000D01*
X93242857Y-114714286D01*
X93242857Y-114828571D01*
X93985714Y-115685714D02*
X94042857Y-115571428D01*
X94042857Y-115342857D01*
X93985714Y-115228571D01*
X93871429Y-115171428D01*
X93414286Y-115171428D01*
X93300000Y-115228571D01*
X93242857Y-115342857D01*
X93242857Y-115571428D01*
X93300000Y-115685714D01*
X93414286Y-115742857D01*
X93528571Y-115742857D01*
X93642857Y-115171428D01*
X96042857Y-103242857D02*
X94842857Y-103242857D01*
X95700000Y-103642857D01*
X94842857Y-104042857D01*
X96042857Y-104042857D01*
X95928571Y-105300001D02*
X95985714Y-105242858D01*
X96042857Y-105071429D01*
X96042857Y-104957143D01*
X95985714Y-104785715D01*
X95871429Y-104671429D01*
X95757143Y-104614286D01*
X95528571Y-104557143D01*
X95357143Y-104557143D01*
X95128571Y-104614286D01*
X95014286Y-104671429D01*
X94900000Y-104785715D01*
X94842857Y-104957143D01*
X94842857Y-105071429D01*
X94900000Y-105242858D01*
X94957143Y-105300001D01*
X94842857Y-105814286D02*
X95814286Y-105814286D01*
X95928571Y-105871429D01*
X95985714Y-105928572D01*
X96042857Y-106042858D01*
X96042857Y-106271429D01*
X95985714Y-106385715D01*
X95928571Y-106442858D01*
X95814286Y-106500001D01*
X94842857Y-106500001D01*
X94842857Y-108214287D02*
X94842857Y-108442858D01*
X94900000Y-108557144D01*
X95014286Y-108671430D01*
X95242857Y-108728572D01*
X95642857Y-108728572D01*
X95871429Y-108671430D01*
X95985714Y-108557144D01*
X96042857Y-108442858D01*
X96042857Y-108214287D01*
X95985714Y-108100001D01*
X95871429Y-107985715D01*
X95642857Y-107928572D01*
X95242857Y-107928572D01*
X95014286Y-107985715D01*
X94900000Y-108100001D01*
X94842857Y-108214287D01*
X95242857Y-109242858D02*
X96042857Y-109242858D01*
X95357143Y-109242858D02*
X95300000Y-109300001D01*
X95242857Y-109414287D01*
X95242857Y-109585715D01*
X95300000Y-109700001D01*
X95414286Y-109757144D01*
X96042857Y-109757144D01*
D15*
X134444999Y-75415571D02*
X134502142Y-75472714D01*
X134673571Y-75529857D01*
X134787857Y-75529857D01*
X134959285Y-75472714D01*
X135073571Y-75358429D01*
X135130714Y-75244143D01*
X135187857Y-75015571D01*
X135187857Y-74844143D01*
X135130714Y-74615571D01*
X135073571Y-74501286D01*
X134959285Y-74387000D01*
X134787857Y-74329857D01*
X134673571Y-74329857D01*
X134502142Y-74387000D01*
X134444999Y-74444143D01*
X133416428Y-74729857D02*
X133416428Y-75529857D01*
X133930714Y-74729857D02*
X133930714Y-75358429D01*
X133873571Y-75472714D01*
X133759285Y-75529857D01*
X133587857Y-75529857D01*
X133473571Y-75472714D01*
X133416428Y-75415571D01*
X133016428Y-74729857D02*
X132559285Y-74729857D01*
X132845000Y-74329857D02*
X132845000Y-75358429D01*
X132787857Y-75472714D01*
X132673571Y-75529857D01*
X132559285Y-75529857D01*
X131245000Y-75529857D02*
X131245000Y-74329857D01*
X131245000Y-74901286D02*
X130559285Y-74901286D01*
X130559285Y-75529857D02*
X130559285Y-74329857D01*
X129530714Y-75472714D02*
X129645000Y-75529857D01*
X129873571Y-75529857D01*
X129987857Y-75472714D01*
X130045000Y-75358429D01*
X130045000Y-74901286D01*
X129987857Y-74787000D01*
X129873571Y-74729857D01*
X129645000Y-74729857D01*
X129530714Y-74787000D01*
X129473571Y-74901286D01*
X129473571Y-75015571D01*
X130045000Y-75129857D01*
X128959286Y-75529857D02*
X128959286Y-74729857D01*
X128959286Y-74958429D02*
X128902143Y-74844143D01*
X128845000Y-74787000D01*
X128730714Y-74729857D01*
X128616429Y-74729857D01*
X127759286Y-75472714D02*
X127873572Y-75529857D01*
X128102143Y-75529857D01*
X128216429Y-75472714D01*
X128273572Y-75358429D01*
X128273572Y-74901286D01*
X128216429Y-74787000D01*
X128102143Y-74729857D01*
X127873572Y-74729857D01*
X127759286Y-74787000D01*
X127702143Y-74901286D01*
X127702143Y-75015571D01*
X128273572Y-75129857D01*
X136515285Y-76488857D02*
X135829571Y-76488857D01*
X136172428Y-77688857D02*
X136172428Y-76488857D01*
X135543856Y-76488857D02*
X134743856Y-77688857D01*
X134743856Y-76488857D02*
X135543856Y-77688857D01*
X134286714Y-77688857D02*
X134286714Y-76488857D01*
X134000999Y-76488857D01*
X133829571Y-76546000D01*
X133715285Y-76660286D01*
X133658142Y-76774571D01*
X133600999Y-77003143D01*
X133600999Y-77174571D01*
X133658142Y-77403143D01*
X133715285Y-77517429D01*
X133829571Y-77631714D01*
X134000999Y-77688857D01*
X134286714Y-77688857D01*
X135927999Y-80355857D02*
X136327999Y-79784429D01*
X136613714Y-80355857D02*
X136613714Y-79155857D01*
X136156571Y-79155857D01*
X136042285Y-79213000D01*
X135985142Y-79270143D01*
X135927999Y-79384429D01*
X135927999Y-79555857D01*
X135985142Y-79670143D01*
X136042285Y-79727286D01*
X136156571Y-79784429D01*
X136613714Y-79784429D01*
X135527999Y-79155857D02*
X134727999Y-80355857D01*
X134727999Y-79155857D02*
X135527999Y-80355857D01*
X134270857Y-80355857D02*
X134270857Y-79155857D01*
X133985142Y-79155857D01*
X133813714Y-79213000D01*
X133699428Y-79327286D01*
X133642285Y-79441571D01*
X133585142Y-79670143D01*
X133585142Y-79841571D01*
X133642285Y-80070143D01*
X133699428Y-80184429D01*
X133813714Y-80298714D01*
X133985142Y-80355857D01*
X134270857Y-80355857D01*
X136585143Y-82965714D02*
X136413714Y-83022857D01*
X136128000Y-83022857D01*
X136013714Y-82965714D01*
X135956571Y-82908571D01*
X135899428Y-82794286D01*
X135899428Y-82680000D01*
X135956571Y-82565714D01*
X136013714Y-82508571D01*
X136128000Y-82451429D01*
X136356571Y-82394286D01*
X136470857Y-82337143D01*
X136528000Y-82280000D01*
X136585143Y-82165714D01*
X136585143Y-82051429D01*
X136528000Y-81937143D01*
X136470857Y-81880000D01*
X136356571Y-81822857D01*
X136070857Y-81822857D01*
X135899428Y-81880000D01*
X135385143Y-83022857D02*
X135385143Y-81822857D01*
X135099428Y-81822857D01*
X134928000Y-81880000D01*
X134813714Y-81994286D01*
X134756571Y-82108571D01*
X134699428Y-82337143D01*
X134699428Y-82508571D01*
X134756571Y-82737143D01*
X134813714Y-82851429D01*
X134928000Y-82965714D01*
X135099428Y-83022857D01*
X135385143Y-83022857D01*
X134242286Y-82680000D02*
X133670857Y-82680000D01*
X134356571Y-83022857D02*
X133956571Y-81822857D01*
X133556571Y-83022857D01*
X136556572Y-85632714D02*
X136385143Y-85689857D01*
X136099429Y-85689857D01*
X135985143Y-85632714D01*
X135928000Y-85575571D01*
X135870857Y-85461286D01*
X135870857Y-85347000D01*
X135928000Y-85232714D01*
X135985143Y-85175571D01*
X136099429Y-85118429D01*
X136328000Y-85061286D01*
X136442286Y-85004143D01*
X136499429Y-84947000D01*
X136556572Y-84832714D01*
X136556572Y-84718429D01*
X136499429Y-84604143D01*
X136442286Y-84547000D01*
X136328000Y-84489857D01*
X136042286Y-84489857D01*
X135870857Y-84547000D01*
X134670857Y-85575571D02*
X134728000Y-85632714D01*
X134899429Y-85689857D01*
X135013715Y-85689857D01*
X135185143Y-85632714D01*
X135299429Y-85518429D01*
X135356572Y-85404143D01*
X135413715Y-85175571D01*
X135413715Y-85004143D01*
X135356572Y-84775571D01*
X135299429Y-84661286D01*
X135185143Y-84547000D01*
X135013715Y-84489857D01*
X134899429Y-84489857D01*
X134728000Y-84547000D01*
X134670857Y-84604143D01*
X133585143Y-85689857D02*
X134156572Y-85689857D01*
X134156572Y-84489857D01*
D16*
X116899540Y-79801500D02*
X116899540Y-81198500D01*
X116899540Y-81198500D02*
X114100460Y-81198500D01*
X114100460Y-81198500D02*
X114100460Y-79801500D01*
X114100460Y-79801500D02*
X116899540Y-79801500D01*
X95099820Y-84451360D02*
X95099820Y-85548640D01*
X95099820Y-85548640D02*
X92900180Y-85548640D01*
X92900180Y-85548640D02*
X92900180Y-84451360D01*
X92900180Y-84451360D02*
X95099820Y-84451360D01*
X94399540Y-85801500D02*
X94399540Y-87198500D01*
X94399540Y-87198500D02*
X91600460Y-87198500D01*
X91600460Y-87198500D02*
X91600460Y-85801500D01*
X91600460Y-85801500D02*
X94399540Y-85801500D01*
X81239360Y-81861660D02*
X81239360Y-78689200D01*
X81239360Y-78689200D02*
X85638640Y-78689200D01*
X85638640Y-78689200D02*
X85638640Y-81861660D01*
X85638640Y-81861660D02*
X81239360Y-81861660D01*
X81239360Y-74749660D02*
X81239360Y-71577200D01*
X81239360Y-71577200D02*
X85638640Y-71577200D01*
X85638640Y-71577200D02*
X85638640Y-74749660D01*
X85638640Y-74749660D02*
X81239360Y-74749660D01*
X81239360Y-71193660D02*
X81239360Y-68021200D01*
X81239360Y-68021200D02*
X85638640Y-68021200D01*
X85638640Y-68021200D02*
X85638640Y-71193660D01*
X85638640Y-71193660D02*
X81239360Y-71193660D01*
X81239360Y-78305660D02*
X81239360Y-75133200D01*
X81239360Y-75133200D02*
X85638640Y-75133200D01*
X85638640Y-75133200D02*
X85638640Y-78305660D01*
X85638640Y-78305660D02*
X81239360Y-78305660D01*
X90699640Y-93402340D02*
X90699640Y-96574800D01*
X90699640Y-96574800D02*
X86300360Y-96574800D01*
X86300360Y-96574800D02*
X86300360Y-93402340D01*
X86300360Y-93402340D02*
X90699640Y-93402340D01*
D13*
X89000000Y-106250000D02*
X89000000Y-106500000D01*
X89000000Y-105750000D02*
X89000000Y-105500000D01*
X89000000Y-105750000D02*
X88650000Y-106250000D01*
X88650000Y-106250000D02*
X89350000Y-106250000D01*
X89350000Y-106250000D02*
X89000000Y-105750000D01*
X88650000Y-105750000D02*
X89350000Y-105750000D01*
X89800000Y-104700000D02*
X89800000Y-107100000D01*
X88200000Y-104700000D02*
X88200000Y-107100000D01*
X131953000Y-84470000D02*
X132453000Y-83720000D01*
X131953000Y-84470000D02*
X131453000Y-83720000D01*
X131453000Y-86320000D02*
X131953000Y-85570000D01*
X131953000Y-85570000D02*
X132453000Y-86320000D01*
X131953000Y-81803000D02*
X132453000Y-81053000D01*
X131953000Y-81803000D02*
X131453000Y-81053000D01*
X131453000Y-83653000D02*
X131953000Y-82903000D01*
X131953000Y-82903000D02*
X132453000Y-83653000D01*
X131953000Y-79136000D02*
X132453000Y-78386000D01*
X131953000Y-79136000D02*
X131453000Y-78386000D01*
X131453000Y-80986000D02*
X131953000Y-80236000D01*
X131953000Y-80236000D02*
X132453000Y-80986000D01*
X131953000Y-76469000D02*
X132453000Y-75719000D01*
X131953000Y-76469000D02*
X131453000Y-75719000D01*
X131453000Y-78319000D02*
X131953000Y-77569000D01*
X131953000Y-77569000D02*
X132453000Y-78319000D01*
X96050000Y-111500000D02*
X96800000Y-112000000D01*
X96050000Y-111500000D02*
X96800000Y-111000000D01*
X94200000Y-111000000D02*
X94950000Y-111500000D01*
X94950000Y-111500000D02*
X94200000Y-112000000D01*
D16*
X119899540Y-81301500D02*
X119899540Y-82698500D01*
X119899540Y-82698500D02*
X117100460Y-82698500D01*
X117100460Y-82698500D02*
X117100460Y-81301500D01*
X117100460Y-81301500D02*
X119899540Y-81301500D01*
X116899540Y-81301500D02*
X116899540Y-82698500D01*
X116899540Y-82698500D02*
X114100460Y-82698500D01*
X114100460Y-82698500D02*
X114100460Y-81301500D01*
X114100460Y-81301500D02*
X116899540Y-81301500D01*
X131900180Y-70548640D02*
X131900180Y-69451360D01*
X131900180Y-69451360D02*
X134099820Y-69451360D01*
X134099820Y-69451360D02*
X134099820Y-70548640D01*
X134099820Y-70548640D02*
X131900180Y-70548640D01*
X135400180Y-70048640D02*
X135400180Y-68951360D01*
X135400180Y-68951360D02*
X137599820Y-68951360D01*
X137599820Y-68951360D02*
X137599820Y-70048640D01*
X137599820Y-70048640D02*
X135400180Y-70048640D01*
X135400180Y-68548640D02*
X135400180Y-67451360D01*
X135400180Y-67451360D02*
X137599820Y-67451360D01*
X137599820Y-67451360D02*
X137599820Y-68548640D01*
X137599820Y-68548640D02*
X135400180Y-68548640D01*
X98900180Y-105048640D02*
X98900180Y-103951360D01*
X98900180Y-103951360D02*
X101099820Y-103951360D01*
X101099820Y-103951360D02*
X101099820Y-105048640D01*
X101099820Y-105048640D02*
X98900180Y-105048640D01*
X104951360Y-111400180D02*
X106048640Y-111400180D01*
X106048640Y-111400180D02*
X106048640Y-113599820D01*
X106048640Y-113599820D02*
X104951360Y-113599820D01*
X104951360Y-113599820D02*
X104951360Y-111400180D01*
X91526360Y-107231180D02*
X92623640Y-107231180D01*
X92623640Y-107231180D02*
X92623640Y-109430820D01*
X92623640Y-109430820D02*
X91526360Y-109430820D01*
X91526360Y-109430820D02*
X91526360Y-107231180D01*
X104951360Y-108400180D02*
X106048640Y-108400180D01*
X106048640Y-108400180D02*
X106048640Y-110599820D01*
X106048640Y-110599820D02*
X104951360Y-110599820D01*
X104951360Y-110599820D02*
X104951360Y-108400180D01*
X98048640Y-93599820D02*
X96951360Y-93599820D01*
X96951360Y-93599820D02*
X96951360Y-91400180D01*
X96951360Y-91400180D02*
X98048640Y-91400180D01*
X98048640Y-91400180D02*
X98048640Y-93599820D01*
X80400180Y-83248640D02*
X80400180Y-82151360D01*
X80400180Y-82151360D02*
X82599820Y-82151360D01*
X82599820Y-82151360D02*
X82599820Y-83248640D01*
X82599820Y-83248640D02*
X80400180Y-83248640D01*
X82900180Y-83248640D02*
X82900180Y-82151360D01*
X82900180Y-82151360D02*
X85099820Y-82151360D01*
X85099820Y-82151360D02*
X85099820Y-83248640D01*
X85099820Y-83248640D02*
X82900180Y-83248640D01*
X122069860Y-76116180D02*
X123167140Y-76116180D01*
X123167140Y-76116180D02*
X123167140Y-78315820D01*
X123167140Y-78315820D02*
X122069860Y-78315820D01*
X122069860Y-78315820D02*
X122069860Y-76116180D01*
X123403360Y-76116180D02*
X124500640Y-76116180D01*
X124500640Y-76116180D02*
X124500640Y-78315820D01*
X124500640Y-78315820D02*
X123403360Y-78315820D01*
X123403360Y-78315820D02*
X123403360Y-76116180D01*
X97322640Y-99905820D02*
X96225360Y-99905820D01*
X96225360Y-99905820D02*
X96225360Y-97706180D01*
X96225360Y-97706180D02*
X97322640Y-97706180D01*
X97322640Y-97706180D02*
X97322640Y-99905820D01*
X98048640Y-97099820D02*
X96951360Y-97099820D01*
X96951360Y-97099820D02*
X96951360Y-94900180D01*
X96951360Y-94900180D02*
X98048640Y-94900180D01*
X98048640Y-94900180D02*
X98048640Y-97099820D01*
X98548640Y-109099820D02*
X97451360Y-109099820D01*
X97451360Y-109099820D02*
X97451360Y-106900180D01*
X97451360Y-106900180D02*
X98548640Y-106900180D01*
X98548640Y-106900180D02*
X98548640Y-109099820D01*
X128170940Y-83650940D02*
X128170940Y-80293060D01*
X128170940Y-80293060D02*
X126492000Y-80293060D01*
X126492000Y-80293060D02*
X124813060Y-80293060D01*
X124813060Y-80293060D02*
X124813060Y-83650940D01*
X124813060Y-83650940D02*
X126492000Y-83650940D01*
X126492000Y-83650940D02*
X128170940Y-83650940D01*
X99402340Y-106201680D02*
X102597660Y-106201680D01*
X102597660Y-106201680D02*
X102597660Y-109798320D01*
X102597660Y-109798320D02*
X99402340Y-109798320D01*
X99402340Y-109798320D02*
X99402340Y-106201680D01*
X98800360Y-106402340D02*
X98749560Y-106407420D01*
X98749560Y-106407420D02*
X98701300Y-106427740D01*
X98701300Y-106427740D02*
X98660660Y-106460760D01*
X98660660Y-106460760D02*
X98627640Y-106501400D01*
X98627640Y-106501400D02*
X98607320Y-106549660D01*
X98607320Y-106549660D02*
X98602240Y-106600460D01*
X98602240Y-106600460D02*
X98607320Y-106653800D01*
X98607320Y-106653800D02*
X98627640Y-106702060D01*
X98627640Y-106702060D02*
X98660660Y-106742700D01*
X98660660Y-106742700D02*
X98701300Y-106775720D01*
X98701300Y-106775720D02*
X98749560Y-106793500D01*
X98749560Y-106793500D02*
X98800360Y-106801120D01*
X98800360Y-106801120D02*
X98853700Y-106793500D01*
X98853700Y-106793500D02*
X98901960Y-106775720D01*
X98901960Y-106775720D02*
X98942600Y-106742700D01*
X98942600Y-106742700D02*
X98975620Y-106702060D01*
X98975620Y-106702060D02*
X98993400Y-106653800D01*
X98993400Y-106653800D02*
X99001020Y-106600460D01*
X99001020Y-106600460D02*
X98993400Y-106549660D01*
X98993400Y-106549660D02*
X98975620Y-106501400D01*
X98975620Y-106501400D02*
X98942600Y-106460760D01*
X98942600Y-106460760D02*
X98901960Y-106427740D01*
X98901960Y-106427740D02*
X98853700Y-106407420D01*
X98853700Y-106407420D02*
X98800360Y-106402340D01*
X103798320Y-110902340D02*
X103798320Y-114097660D01*
X103798320Y-114097660D02*
X100201680Y-114097660D01*
X100201680Y-114097660D02*
X100201680Y-110902340D01*
X100201680Y-110902340D02*
X103798320Y-110902340D01*
X103597660Y-110300360D02*
X103592580Y-110249560D01*
X103592580Y-110249560D02*
X103572260Y-110201300D01*
X103572260Y-110201300D02*
X103539240Y-110160660D01*
X103539240Y-110160660D02*
X103498600Y-110127640D01*
X103498600Y-110127640D02*
X103450340Y-110107320D01*
X103450340Y-110107320D02*
X103399540Y-110102240D01*
X103399540Y-110102240D02*
X103346200Y-110107320D01*
X103346200Y-110107320D02*
X103297940Y-110127640D01*
X103297940Y-110127640D02*
X103257300Y-110160660D01*
X103257300Y-110160660D02*
X103224280Y-110201300D01*
X103224280Y-110201300D02*
X103206500Y-110249560D01*
X103206500Y-110249560D02*
X103198880Y-110300360D01*
X103198880Y-110300360D02*
X103206500Y-110353700D01*
X103206500Y-110353700D02*
X103224280Y-110401960D01*
X103224280Y-110401960D02*
X103257300Y-110442600D01*
X103257300Y-110442600D02*
X103297940Y-110475620D01*
X103297940Y-110475620D02*
X103346200Y-110493400D01*
X103346200Y-110493400D02*
X103399540Y-110501020D01*
X103399540Y-110501020D02*
X103450340Y-110493400D01*
X103450340Y-110493400D02*
X103498600Y-110475620D01*
X103498600Y-110475620D02*
X103539240Y-110442600D01*
X103539240Y-110442600D02*
X103572260Y-110401960D01*
X103572260Y-110401960D02*
X103592580Y-110353700D01*
X103592580Y-110353700D02*
X103597660Y-110300360D01*
D13*
X82100000Y-66040000D02*
X132900000Y-66040000D01*
X132900000Y-66040000D02*
X132900000Y-60960000D01*
X132900000Y-60960000D02*
X82100000Y-60960000D01*
X82100000Y-60960000D02*
X82100000Y-66040000D01*
D16*
X122148640Y-58199820D02*
X121051360Y-58199820D01*
X121051360Y-58199820D02*
X121051360Y-56000180D01*
X121051360Y-56000180D02*
X122148640Y-56000180D01*
X122148640Y-56000180D02*
X122148640Y-58199820D01*
X86401360Y-57600180D02*
X87498640Y-57600180D01*
X87498640Y-57600180D02*
X87498640Y-59799820D01*
X87498640Y-59799820D02*
X86401360Y-59799820D01*
X86401360Y-59799820D02*
X86401360Y-57600180D01*
X88149820Y-51551360D02*
X88149820Y-52648640D01*
X88149820Y-52648640D02*
X85950180Y-52648640D01*
X85950180Y-52648640D02*
X85950180Y-51551360D01*
X85950180Y-51551360D02*
X88149820Y-51551360D01*
D13*
X117350000Y-51650000D02*
X117850000Y-50900000D01*
X117350000Y-51650000D02*
X116850000Y-50900000D01*
X116850000Y-53500000D02*
X117350000Y-52750000D01*
X117350000Y-52750000D02*
X117850000Y-53500000D01*
D16*
X119398640Y-58199820D02*
X118301360Y-58199820D01*
X118301360Y-58199820D02*
X118301360Y-56000180D01*
X118301360Y-56000180D02*
X119398640Y-56000180D01*
X119398640Y-56000180D02*
X119398640Y-58199820D01*
X120798640Y-58149820D02*
X119701360Y-58149820D01*
X119701360Y-58149820D02*
X119701360Y-55950180D01*
X119701360Y-55950180D02*
X120798640Y-55950180D01*
X120798640Y-55950180D02*
X120798640Y-58149820D01*
X124099820Y-53051360D02*
X124099820Y-54148640D01*
X124099820Y-54148640D02*
X121900180Y-54148640D01*
X121900180Y-54148640D02*
X121900180Y-53051360D01*
X121900180Y-53051360D02*
X124099820Y-53051360D01*
X81998640Y-56199820D02*
X80901360Y-56199820D01*
X80901360Y-56199820D02*
X80901360Y-54000180D01*
X80901360Y-54000180D02*
X81998640Y-54000180D01*
X81998640Y-54000180D02*
X81998640Y-56199820D01*
D13*
X87741000Y-54622000D02*
X88503000Y-54622000D01*
X87741000Y-54749000D02*
X88503000Y-54749000D01*
X87741000Y-54876000D02*
X88503000Y-54876000D01*
X87741000Y-55003000D02*
X88503000Y-55003000D01*
X87741000Y-55130000D02*
X88503000Y-55130000D01*
X87868000Y-55257000D02*
X88503000Y-55257000D01*
X88503000Y-55257000D02*
X88503000Y-54495000D01*
X88503000Y-54495000D02*
X87741000Y-54495000D01*
X87741000Y-54495000D02*
X87741000Y-55257000D01*
X87741000Y-55257000D02*
X87868000Y-55257000D01*
X88185000Y-57900000D02*
X88185000Y-54900000D01*
X88185000Y-54900000D02*
X91615000Y-54900000D01*
X91615000Y-54900000D02*
X91615000Y-57900000D01*
X91615000Y-57900000D02*
X88185000Y-57900000D01*
X121300000Y-55100000D02*
X121300000Y-55700000D01*
X121500000Y-55100000D02*
X121500000Y-55700000D01*
X121700000Y-55100000D02*
X121700000Y-55700000D01*
X121800000Y-55100000D02*
X121200000Y-55100000D01*
X121200000Y-55100000D02*
X121200000Y-55700000D01*
X121200000Y-55700000D02*
X121800000Y-55700000D01*
X121800000Y-55700000D02*
X121800000Y-55100000D01*
X121800000Y-55100000D02*
X121600000Y-55100000D01*
X121600000Y-55100000D02*
X121600000Y-55700000D01*
X121600000Y-55700000D02*
X121400000Y-55700000D01*
X121400000Y-55700000D02*
X121400000Y-55100000D01*
X121500000Y-53500000D02*
X121500000Y-55100000D01*
X121500000Y-55100000D02*
X120100000Y-55100000D01*
X120100000Y-55100000D02*
X120100000Y-53500000D01*
X121500000Y-53500000D02*
X120100000Y-53500000D01*
X88550000Y-52950000D02*
X88550000Y-52450000D01*
X88450000Y-52950000D02*
X88450000Y-52450000D01*
X88350000Y-52950000D02*
X88350000Y-52450000D01*
X88250000Y-52950000D02*
X88250000Y-52250000D01*
X88150000Y-52950000D02*
X88150000Y-52250000D01*
X88050000Y-52950000D02*
X88050000Y-52250000D01*
X87900000Y-52700000D02*
X87900000Y-52200000D01*
X87900000Y-52200000D02*
X88650000Y-52200000D01*
X88650000Y-52200000D02*
X88650000Y-52950000D01*
X88650000Y-52950000D02*
X87900000Y-52950000D01*
X87900000Y-52950000D02*
X87900000Y-52700000D01*
X88400000Y-52450000D02*
X90900000Y-52450000D01*
X90900000Y-52450000D02*
X90900000Y-51450000D01*
X90900000Y-51450000D02*
X88400000Y-51450000D01*
X88400000Y-51450000D02*
X88400000Y-52450000D01*
D16*
X77701640Y-53152240D02*
X77701640Y-57947760D01*
X77701640Y-57947760D02*
X79398360Y-57947760D01*
X79398360Y-57947760D02*
X79398360Y-53152240D01*
X79398360Y-53152240D02*
X77701640Y-53152240D01*
X78550000Y-55202020D02*
X78250280Y-55699860D01*
X78250280Y-55699860D02*
X78849720Y-55699860D01*
X78849720Y-55699860D02*
X78550000Y-55202020D01*
X77701640Y-52750920D02*
X77701640Y-53152240D01*
X77701640Y-53152240D02*
X79398360Y-53152240D01*
X79398360Y-53152240D02*
X79398360Y-52750920D01*
X79398360Y-52750920D02*
X77701640Y-52750920D01*
D13*
X113093333Y-80912714D02*
X113131428Y-80950810D01*
X113245714Y-80988905D01*
X113321904Y-80988905D01*
X113436190Y-80950810D01*
X113512381Y-80874619D01*
X113550476Y-80798429D01*
X113588571Y-80646048D01*
X113588571Y-80531762D01*
X113550476Y-80379381D01*
X113512381Y-80303190D01*
X113436190Y-80227000D01*
X113321904Y-80188905D01*
X113245714Y-80188905D01*
X113131428Y-80227000D01*
X113093333Y-80265095D01*
X112331428Y-80988905D02*
X112788571Y-80988905D01*
X112560000Y-80988905D02*
X112560000Y-80188905D01*
X112636190Y-80303190D01*
X112712381Y-80379381D01*
X112788571Y-80417476D01*
X96165333Y-85285714D02*
X96203428Y-85323810D01*
X96317714Y-85361905D01*
X96393904Y-85361905D01*
X96508190Y-85323810D01*
X96584381Y-85247619D01*
X96622476Y-85171429D01*
X96660571Y-85019048D01*
X96660571Y-84904762D01*
X96622476Y-84752381D01*
X96584381Y-84676190D01*
X96508190Y-84600000D01*
X96393904Y-84561905D01*
X96317714Y-84561905D01*
X96203428Y-84600000D01*
X96165333Y-84638095D01*
X95441523Y-84561905D02*
X95822476Y-84561905D01*
X95860571Y-84942857D01*
X95822476Y-84904762D01*
X95746285Y-84866667D01*
X95555809Y-84866667D01*
X95479619Y-84904762D01*
X95441523Y-84942857D01*
X95403428Y-85019048D01*
X95403428Y-85209524D01*
X95441523Y-85285714D01*
X95479619Y-85323810D01*
X95555809Y-85361905D01*
X95746285Y-85361905D01*
X95822476Y-85323810D01*
X95860571Y-85285714D01*
X95633333Y-86785714D02*
X95671428Y-86823810D01*
X95785714Y-86861905D01*
X95861904Y-86861905D01*
X95976190Y-86823810D01*
X96052381Y-86747619D01*
X96090476Y-86671429D01*
X96128571Y-86519048D01*
X96128571Y-86404762D01*
X96090476Y-86252381D01*
X96052381Y-86176190D01*
X95976190Y-86100000D01*
X95861904Y-86061905D01*
X95785714Y-86061905D01*
X95671428Y-86100000D01*
X95633333Y-86138095D01*
X94947619Y-86061905D02*
X95100000Y-86061905D01*
X95176190Y-86100000D01*
X95214285Y-86138095D01*
X95290476Y-86252381D01*
X95328571Y-86404762D01*
X95328571Y-86709524D01*
X95290476Y-86785714D01*
X95252381Y-86823810D01*
X95176190Y-86861905D01*
X95023809Y-86861905D01*
X94947619Y-86823810D01*
X94909523Y-86785714D01*
X94871428Y-86709524D01*
X94871428Y-86519048D01*
X94909523Y-86442857D01*
X94947619Y-86404762D01*
X95023809Y-86366667D01*
X95176190Y-86366667D01*
X95252381Y-86404762D01*
X95290476Y-86442857D01*
X95328571Y-86519048D01*
X80803714Y-80257667D02*
X80841810Y-80219572D01*
X80879905Y-80105286D01*
X80879905Y-80029096D01*
X80841810Y-79914810D01*
X80765619Y-79838619D01*
X80689429Y-79800524D01*
X80537048Y-79762429D01*
X80422762Y-79762429D01*
X80270381Y-79800524D01*
X80194190Y-79838619D01*
X80118000Y-79914810D01*
X80079905Y-80029096D01*
X80079905Y-80105286D01*
X80118000Y-80219572D01*
X80156095Y-80257667D01*
X80079905Y-80524334D02*
X80079905Y-81057667D01*
X80879905Y-80714810D01*
X80803714Y-72637667D02*
X80841810Y-72599572D01*
X80879905Y-72485286D01*
X80879905Y-72409096D01*
X80841810Y-72294810D01*
X80765619Y-72218619D01*
X80689429Y-72180524D01*
X80537048Y-72142429D01*
X80422762Y-72142429D01*
X80270381Y-72180524D01*
X80194190Y-72218619D01*
X80118000Y-72294810D01*
X80079905Y-72409096D01*
X80079905Y-72485286D01*
X80118000Y-72599572D01*
X80156095Y-72637667D01*
X80422762Y-73094810D02*
X80384667Y-73018619D01*
X80346571Y-72980524D01*
X80270381Y-72942429D01*
X80232286Y-72942429D01*
X80156095Y-72980524D01*
X80118000Y-73018619D01*
X80079905Y-73094810D01*
X80079905Y-73247191D01*
X80118000Y-73323381D01*
X80156095Y-73361477D01*
X80232286Y-73399572D01*
X80270381Y-73399572D01*
X80346571Y-73361477D01*
X80384667Y-73323381D01*
X80422762Y-73247191D01*
X80422762Y-73094810D01*
X80460857Y-73018619D01*
X80498952Y-72980524D01*
X80575143Y-72942429D01*
X80727524Y-72942429D01*
X80803714Y-72980524D01*
X80841810Y-73018619D01*
X80879905Y-73094810D01*
X80879905Y-73247191D01*
X80841810Y-73323381D01*
X80803714Y-73361477D01*
X80727524Y-73399572D01*
X80575143Y-73399572D01*
X80498952Y-73361477D01*
X80460857Y-73323381D01*
X80422762Y-73247191D01*
X80803714Y-69589667D02*
X80841810Y-69551572D01*
X80879905Y-69437286D01*
X80879905Y-69361096D01*
X80841810Y-69246810D01*
X80765619Y-69170619D01*
X80689429Y-69132524D01*
X80537048Y-69094429D01*
X80422762Y-69094429D01*
X80270381Y-69132524D01*
X80194190Y-69170619D01*
X80118000Y-69246810D01*
X80079905Y-69361096D01*
X80079905Y-69437286D01*
X80118000Y-69551572D01*
X80156095Y-69589667D01*
X80879905Y-69970619D02*
X80879905Y-70123000D01*
X80841810Y-70199191D01*
X80803714Y-70237286D01*
X80689429Y-70313477D01*
X80537048Y-70351572D01*
X80232286Y-70351572D01*
X80156095Y-70313477D01*
X80118000Y-70275381D01*
X80079905Y-70199191D01*
X80079905Y-70046810D01*
X80118000Y-69970619D01*
X80156095Y-69932524D01*
X80232286Y-69894429D01*
X80422762Y-69894429D01*
X80498952Y-69932524D01*
X80537048Y-69970619D01*
X80575143Y-70046810D01*
X80575143Y-70199191D01*
X80537048Y-70275381D01*
X80498952Y-70313477D01*
X80422762Y-70351572D01*
X80676714Y-76320714D02*
X80714810Y-76282619D01*
X80752905Y-76168333D01*
X80752905Y-76092143D01*
X80714810Y-75977857D01*
X80638619Y-75901666D01*
X80562429Y-75863571D01*
X80410048Y-75825476D01*
X80295762Y-75825476D01*
X80143381Y-75863571D01*
X80067190Y-75901666D01*
X79991000Y-75977857D01*
X79952905Y-76092143D01*
X79952905Y-76168333D01*
X79991000Y-76282619D01*
X80029095Y-76320714D01*
X80752905Y-77082619D02*
X80752905Y-76625476D01*
X80752905Y-76854047D02*
X79952905Y-76854047D01*
X80067190Y-76777857D01*
X80143381Y-76701666D01*
X80181476Y-76625476D01*
X79952905Y-77577857D02*
X79952905Y-77654048D01*
X79991000Y-77730238D01*
X80029095Y-77768333D01*
X80105286Y-77806429D01*
X80257667Y-77844524D01*
X80448143Y-77844524D01*
X80600524Y-77806429D01*
X80676714Y-77768333D01*
X80714810Y-77730238D01*
X80752905Y-77654048D01*
X80752905Y-77577857D01*
X80714810Y-77501667D01*
X80676714Y-77463571D01*
X80600524Y-77425476D01*
X80448143Y-77387381D01*
X80257667Y-77387381D01*
X80105286Y-77425476D01*
X80029095Y-77463571D01*
X79991000Y-77501667D01*
X79952905Y-77577857D01*
X85864714Y-94104714D02*
X85902810Y-94066619D01*
X85940905Y-93952333D01*
X85940905Y-93876143D01*
X85902810Y-93761857D01*
X85826619Y-93685666D01*
X85750429Y-93647571D01*
X85598048Y-93609476D01*
X85483762Y-93609476D01*
X85331381Y-93647571D01*
X85255190Y-93685666D01*
X85179000Y-93761857D01*
X85140905Y-93876143D01*
X85140905Y-93952333D01*
X85179000Y-94066619D01*
X85217095Y-94104714D01*
X85940905Y-94866619D02*
X85940905Y-94409476D01*
X85940905Y-94638047D02*
X85140905Y-94638047D01*
X85255190Y-94561857D01*
X85331381Y-94485666D01*
X85369476Y-94409476D01*
X85217095Y-95171381D02*
X85179000Y-95209476D01*
X85140905Y-95285667D01*
X85140905Y-95476143D01*
X85179000Y-95552333D01*
X85217095Y-95590429D01*
X85293286Y-95628524D01*
X85369476Y-95628524D01*
X85483762Y-95590429D01*
X85940905Y-95133286D01*
X85940905Y-95628524D01*
X87511905Y-105409524D02*
X86711905Y-105409524D01*
X86711905Y-105600000D01*
X86750000Y-105714286D01*
X86826190Y-105790477D01*
X86902381Y-105828572D01*
X87054762Y-105866667D01*
X87169048Y-105866667D01*
X87321429Y-105828572D01*
X87397619Y-105790477D01*
X87473810Y-105714286D01*
X87511905Y-105600000D01*
X87511905Y-105409524D01*
X86788095Y-106171429D02*
X86750000Y-106209524D01*
X86711905Y-106285715D01*
X86711905Y-106476191D01*
X86750000Y-106552381D01*
X86788095Y-106590477D01*
X86864286Y-106628572D01*
X86940476Y-106628572D01*
X87054762Y-106590477D01*
X87511905Y-106133334D01*
X87511905Y-106628572D01*
X130568619Y-84581905D02*
X130568619Y-85153333D01*
X130606715Y-85267619D01*
X130682905Y-85343810D01*
X130797191Y-85381905D01*
X130873381Y-85381905D01*
X129768619Y-85381905D02*
X130225762Y-85381905D01*
X129997191Y-85381905D02*
X129997191Y-84581905D01*
X130073381Y-84696190D01*
X130149572Y-84772381D01*
X130225762Y-84810476D01*
X129273381Y-84581905D02*
X129197190Y-84581905D01*
X129121000Y-84620000D01*
X129082905Y-84658095D01*
X129044809Y-84734286D01*
X129006714Y-84886667D01*
X129006714Y-85077143D01*
X129044809Y-85229524D01*
X129082905Y-85305714D01*
X129121000Y-85343810D01*
X129197190Y-85381905D01*
X129273381Y-85381905D01*
X129349571Y-85343810D01*
X129387667Y-85305714D01*
X129425762Y-85229524D01*
X129463857Y-85077143D01*
X129463857Y-84886667D01*
X129425762Y-84734286D01*
X129387667Y-84658095D01*
X129349571Y-84620000D01*
X129273381Y-84581905D01*
X130314619Y-82041905D02*
X130314619Y-82613333D01*
X130352715Y-82727619D01*
X130428905Y-82803810D01*
X130543191Y-82841905D01*
X130619381Y-82841905D01*
X129514619Y-82841905D02*
X129971762Y-82841905D01*
X129743191Y-82841905D02*
X129743191Y-82041905D01*
X129819381Y-82156190D01*
X129895572Y-82232381D01*
X129971762Y-82270476D01*
X128752714Y-82841905D02*
X129209857Y-82841905D01*
X128981286Y-82841905D02*
X128981286Y-82041905D01*
X129057476Y-82156190D01*
X129133667Y-82232381D01*
X129209857Y-82270476D01*
X130314619Y-79247905D02*
X130314619Y-79819333D01*
X130352715Y-79933619D01*
X130428905Y-80009810D01*
X130543191Y-80047905D01*
X130619381Y-80047905D01*
X129514619Y-80047905D02*
X129971762Y-80047905D01*
X129743191Y-80047905D02*
X129743191Y-79247905D01*
X129819381Y-79362190D01*
X129895572Y-79438381D01*
X129971762Y-79476476D01*
X129209857Y-79324095D02*
X129171762Y-79286000D01*
X129095571Y-79247905D01*
X128905095Y-79247905D01*
X128828905Y-79286000D01*
X128790809Y-79324095D01*
X128752714Y-79400286D01*
X128752714Y-79476476D01*
X128790809Y-79590762D01*
X129247952Y-80047905D01*
X128752714Y-80047905D01*
X130187619Y-76707905D02*
X130187619Y-77279333D01*
X130225715Y-77393619D01*
X130301905Y-77469810D01*
X130416191Y-77507905D01*
X130492381Y-77507905D01*
X129387619Y-77507905D02*
X129844762Y-77507905D01*
X129616191Y-77507905D02*
X129616191Y-76707905D01*
X129692381Y-76822190D01*
X129768572Y-76898381D01*
X129844762Y-76936476D01*
X129120952Y-76707905D02*
X128625714Y-76707905D01*
X128892381Y-77012667D01*
X128778095Y-77012667D01*
X128701905Y-77050762D01*
X128663809Y-77088857D01*
X128625714Y-77165048D01*
X128625714Y-77355524D01*
X128663809Y-77431714D01*
X128701905Y-77469810D01*
X128778095Y-77507905D01*
X129006667Y-77507905D01*
X129082857Y-77469810D01*
X129120952Y-77431714D01*
X95061905Y-113011381D02*
X95633333Y-113011381D01*
X95747619Y-112973285D01*
X95823810Y-112897095D01*
X95861905Y-112782809D01*
X95861905Y-112706619D01*
X95861905Y-113811381D02*
X95861905Y-113354238D01*
X95861905Y-113582809D02*
X95061905Y-113582809D01*
X95176190Y-113506619D01*
X95252381Y-113430428D01*
X95290476Y-113354238D01*
X95328571Y-114497095D02*
X95861905Y-114497095D01*
X95023810Y-114306619D02*
X95595238Y-114116143D01*
X95595238Y-114611381D01*
X121133333Y-82361905D02*
X121400000Y-81980952D01*
X121590476Y-82361905D02*
X121590476Y-81561905D01*
X121285714Y-81561905D01*
X121209523Y-81600000D01*
X121171428Y-81638095D01*
X121133333Y-81714286D01*
X121133333Y-81828571D01*
X121171428Y-81904762D01*
X121209523Y-81942857D01*
X121285714Y-81980952D01*
X121590476Y-81980952D01*
X120371428Y-82361905D02*
X120828571Y-82361905D01*
X120600000Y-82361905D02*
X120600000Y-81561905D01*
X120676190Y-81676190D01*
X120752381Y-81752381D01*
X120828571Y-81790476D01*
X113133333Y-82361905D02*
X113400000Y-81980952D01*
X113590476Y-82361905D02*
X113590476Y-81561905D01*
X113285714Y-81561905D01*
X113209523Y-81600000D01*
X113171428Y-81638095D01*
X113133333Y-81714286D01*
X113133333Y-81828571D01*
X113171428Y-81904762D01*
X113209523Y-81942857D01*
X113285714Y-81980952D01*
X113590476Y-81980952D01*
X112828571Y-81638095D02*
X112790476Y-81600000D01*
X112714285Y-81561905D01*
X112523809Y-81561905D01*
X112447619Y-81600000D01*
X112409523Y-81638095D01*
X112371428Y-81714286D01*
X112371428Y-81790476D01*
X112409523Y-81904762D01*
X112866666Y-82361905D01*
X112371428Y-82361905D01*
X131133333Y-70361905D02*
X131400000Y-69980952D01*
X131590476Y-70361905D02*
X131590476Y-69561905D01*
X131285714Y-69561905D01*
X131209523Y-69600000D01*
X131171428Y-69638095D01*
X131133333Y-69714286D01*
X131133333Y-69828571D01*
X131171428Y-69904762D01*
X131209523Y-69942857D01*
X131285714Y-69980952D01*
X131590476Y-69980952D01*
X130866666Y-69561905D02*
X130371428Y-69561905D01*
X130638095Y-69866667D01*
X130523809Y-69866667D01*
X130447619Y-69904762D01*
X130409523Y-69942857D01*
X130371428Y-70019048D01*
X130371428Y-70209524D01*
X130409523Y-70285714D01*
X130447619Y-70323810D01*
X130523809Y-70361905D01*
X130752381Y-70361905D01*
X130828571Y-70323810D01*
X130866666Y-70285714D01*
X138633333Y-69861905D02*
X138900000Y-69480952D01*
X139090476Y-69861905D02*
X139090476Y-69061905D01*
X138785714Y-69061905D01*
X138709523Y-69100000D01*
X138671428Y-69138095D01*
X138633333Y-69214286D01*
X138633333Y-69328571D01*
X138671428Y-69404762D01*
X138709523Y-69442857D01*
X138785714Y-69480952D01*
X139090476Y-69480952D01*
X137947619Y-69328571D02*
X137947619Y-69861905D01*
X138138095Y-69023810D02*
X138328571Y-69595238D01*
X137833333Y-69595238D01*
X138633333Y-68361905D02*
X138900000Y-67980952D01*
X139090476Y-68361905D02*
X139090476Y-67561905D01*
X138785714Y-67561905D01*
X138709523Y-67600000D01*
X138671428Y-67638095D01*
X138633333Y-67714286D01*
X138633333Y-67828571D01*
X138671428Y-67904762D01*
X138709523Y-67942857D01*
X138785714Y-67980952D01*
X139090476Y-67980952D01*
X137909523Y-67561905D02*
X138290476Y-67561905D01*
X138328571Y-67942857D01*
X138290476Y-67904762D01*
X138214285Y-67866667D01*
X138023809Y-67866667D01*
X137947619Y-67904762D01*
X137909523Y-67942857D01*
X137871428Y-68019048D01*
X137871428Y-68209524D01*
X137909523Y-68285714D01*
X137947619Y-68323810D01*
X138023809Y-68361905D01*
X138214285Y-68361905D01*
X138290476Y-68323810D01*
X138328571Y-68285714D01*
X98133333Y-104861905D02*
X98400000Y-104480952D01*
X98590476Y-104861905D02*
X98590476Y-104061905D01*
X98285714Y-104061905D01*
X98209523Y-104100000D01*
X98171428Y-104138095D01*
X98133333Y-104214286D01*
X98133333Y-104328571D01*
X98171428Y-104404762D01*
X98209523Y-104442857D01*
X98285714Y-104480952D01*
X98590476Y-104480952D01*
X97447619Y-104061905D02*
X97600000Y-104061905D01*
X97676190Y-104100000D01*
X97714285Y-104138095D01*
X97790476Y-104252381D01*
X97828571Y-104404762D01*
X97828571Y-104709524D01*
X97790476Y-104785714D01*
X97752381Y-104823810D01*
X97676190Y-104861905D01*
X97523809Y-104861905D01*
X97447619Y-104823810D01*
X97409523Y-104785714D01*
X97371428Y-104709524D01*
X97371428Y-104519048D01*
X97409523Y-104442857D01*
X97447619Y-104404762D01*
X97523809Y-104366667D01*
X97676190Y-104366667D01*
X97752381Y-104404762D01*
X97790476Y-104442857D01*
X97828571Y-104519048D01*
X107168905Y-112515667D02*
X106787952Y-112249000D01*
X107168905Y-112058524D02*
X106368905Y-112058524D01*
X106368905Y-112363286D01*
X106407000Y-112439477D01*
X106445095Y-112477572D01*
X106521286Y-112515667D01*
X106635571Y-112515667D01*
X106711762Y-112477572D01*
X106749857Y-112439477D01*
X106787952Y-112363286D01*
X106787952Y-112058524D01*
X106368905Y-112782334D02*
X106368905Y-113315667D01*
X107168905Y-112972810D01*
X92487705Y-110255067D02*
X92106752Y-109988400D01*
X92487705Y-109797924D02*
X91687705Y-109797924D01*
X91687705Y-110102686D01*
X91725800Y-110178877D01*
X91763895Y-110216972D01*
X91840086Y-110255067D01*
X91954371Y-110255067D01*
X92030562Y-110216972D01*
X92068657Y-110178877D01*
X92106752Y-110102686D01*
X92106752Y-109797924D01*
X92030562Y-110712210D02*
X91992467Y-110636019D01*
X91954371Y-110597924D01*
X91878181Y-110559829D01*
X91840086Y-110559829D01*
X91763895Y-110597924D01*
X91725800Y-110636019D01*
X91687705Y-110712210D01*
X91687705Y-110864591D01*
X91725800Y-110940781D01*
X91763895Y-110978877D01*
X91840086Y-111016972D01*
X91878181Y-111016972D01*
X91954371Y-110978877D01*
X91992467Y-110940781D01*
X92030562Y-110864591D01*
X92030562Y-110712210D01*
X92068657Y-110636019D01*
X92106752Y-110597924D01*
X92182943Y-110559829D01*
X92335324Y-110559829D01*
X92411514Y-110597924D01*
X92449610Y-110636019D01*
X92487705Y-110712210D01*
X92487705Y-110864591D01*
X92449610Y-110940781D01*
X92411514Y-110978877D01*
X92335324Y-111016972D01*
X92182943Y-111016972D01*
X92106752Y-110978877D01*
X92068657Y-110940781D01*
X92030562Y-110864591D01*
X107168905Y-109340667D02*
X106787952Y-109074000D01*
X107168905Y-108883524D02*
X106368905Y-108883524D01*
X106368905Y-109188286D01*
X106407000Y-109264477D01*
X106445095Y-109302572D01*
X106521286Y-109340667D01*
X106635571Y-109340667D01*
X106711762Y-109302572D01*
X106749857Y-109264477D01*
X106787952Y-109188286D01*
X106787952Y-108883524D01*
X107168905Y-109721619D02*
X107168905Y-109874000D01*
X107130810Y-109950191D01*
X107092714Y-109988286D01*
X106978429Y-110064477D01*
X106826048Y-110102572D01*
X106521286Y-110102572D01*
X106445095Y-110064477D01*
X106407000Y-110026381D01*
X106368905Y-109950191D01*
X106368905Y-109797810D01*
X106407000Y-109721619D01*
X106445095Y-109683524D01*
X106521286Y-109645429D01*
X106711762Y-109645429D01*
X106787952Y-109683524D01*
X106826048Y-109721619D01*
X106864143Y-109797810D01*
X106864143Y-109950191D01*
X106826048Y-110026381D01*
X106787952Y-110064477D01*
X106711762Y-110102572D01*
X97872505Y-89554114D02*
X97491552Y-89287447D01*
X97872505Y-89096971D02*
X97072505Y-89096971D01*
X97072505Y-89401733D01*
X97110600Y-89477924D01*
X97148695Y-89516019D01*
X97224886Y-89554114D01*
X97339171Y-89554114D01*
X97415362Y-89516019D01*
X97453457Y-89477924D01*
X97491552Y-89401733D01*
X97491552Y-89096971D01*
X97872505Y-90316019D02*
X97872505Y-89858876D01*
X97872505Y-90087447D02*
X97072505Y-90087447D01*
X97186790Y-90011257D01*
X97262981Y-89935066D01*
X97301076Y-89858876D01*
X97072505Y-90811257D02*
X97072505Y-90887448D01*
X97110600Y-90963638D01*
X97148695Y-91001733D01*
X97224886Y-91039829D01*
X97377267Y-91077924D01*
X97567743Y-91077924D01*
X97720124Y-91039829D01*
X97796314Y-91001733D01*
X97834410Y-90963638D01*
X97872505Y-90887448D01*
X97872505Y-90811257D01*
X97834410Y-90735067D01*
X97796314Y-90696971D01*
X97720124Y-90658876D01*
X97567743Y-90620781D01*
X97377267Y-90620781D01*
X97224886Y-90658876D01*
X97148695Y-90696971D01*
X97110600Y-90735067D01*
X97072505Y-90811257D01*
X81887286Y-84458905D02*
X82153953Y-84077952D01*
X82344429Y-84458905D02*
X82344429Y-83658905D01*
X82039667Y-83658905D01*
X81963476Y-83697000D01*
X81925381Y-83735095D01*
X81887286Y-83811286D01*
X81887286Y-83925571D01*
X81925381Y-84001762D01*
X81963476Y-84039857D01*
X82039667Y-84077952D01*
X82344429Y-84077952D01*
X81125381Y-84458905D02*
X81582524Y-84458905D01*
X81353953Y-84458905D02*
X81353953Y-83658905D01*
X81430143Y-83773190D01*
X81506334Y-83849381D01*
X81582524Y-83887476D01*
X80363476Y-84458905D02*
X80820619Y-84458905D01*
X80592048Y-84458905D02*
X80592048Y-83658905D01*
X80668238Y-83773190D01*
X80744429Y-83849381D01*
X80820619Y-83887476D01*
X84514286Y-84458905D02*
X84780953Y-84077952D01*
X84971429Y-84458905D02*
X84971429Y-83658905D01*
X84666667Y-83658905D01*
X84590476Y-83697000D01*
X84552381Y-83735095D01*
X84514286Y-83811286D01*
X84514286Y-83925571D01*
X84552381Y-84001762D01*
X84590476Y-84039857D01*
X84666667Y-84077952D01*
X84971429Y-84077952D01*
X83752381Y-84458905D02*
X84209524Y-84458905D01*
X83980953Y-84458905D02*
X83980953Y-83658905D01*
X84057143Y-83773190D01*
X84133334Y-83849381D01*
X84209524Y-83887476D01*
X83447619Y-83735095D02*
X83409524Y-83697000D01*
X83333333Y-83658905D01*
X83142857Y-83658905D01*
X83066667Y-83697000D01*
X83028571Y-83735095D01*
X82990476Y-83811286D01*
X82990476Y-83887476D01*
X83028571Y-84001762D01*
X83485714Y-84458905D01*
X82990476Y-84458905D01*
X123061905Y-74550000D02*
X122680952Y-74316666D01*
X123061905Y-74150000D02*
X122261905Y-74150000D01*
X122261905Y-74416666D01*
X122300000Y-74483333D01*
X122338095Y-74516666D01*
X122414286Y-74550000D01*
X122528571Y-74550000D01*
X122604762Y-74516666D01*
X122642857Y-74483333D01*
X122680952Y-74416666D01*
X122680952Y-74150000D01*
X123061905Y-75216666D02*
X123061905Y-74816666D01*
X123061905Y-75016666D02*
X122261905Y-75016666D01*
X122376190Y-74950000D01*
X122452381Y-74883333D01*
X122490476Y-74816666D01*
X122261905Y-75450000D02*
X122261905Y-75883333D01*
X122566667Y-75650000D01*
X122566667Y-75750000D01*
X122604762Y-75816667D01*
X122642857Y-75850000D01*
X122719048Y-75883333D01*
X122909524Y-75883333D01*
X122985714Y-75850000D01*
X123023810Y-75816667D01*
X123061905Y-75750000D01*
X123061905Y-75550000D01*
X123023810Y-75483333D01*
X122985714Y-75450000D01*
X124311905Y-74500000D02*
X123930952Y-74266666D01*
X124311905Y-74100000D02*
X123511905Y-74100000D01*
X123511905Y-74366666D01*
X123550000Y-74433333D01*
X123588095Y-74466666D01*
X123664286Y-74500000D01*
X123778571Y-74500000D01*
X123854762Y-74466666D01*
X123892857Y-74433333D01*
X123930952Y-74366666D01*
X123930952Y-74100000D01*
X124311905Y-75166666D02*
X124311905Y-74766666D01*
X124311905Y-74966666D02*
X123511905Y-74966666D01*
X123626190Y-74900000D01*
X123702381Y-74833333D01*
X123740476Y-74766666D01*
X123778571Y-75766667D02*
X124311905Y-75766667D01*
X123473810Y-75600000D02*
X124045238Y-75433333D01*
X124045238Y-75866667D01*
X95861905Y-98485714D02*
X95480952Y-98219047D01*
X95861905Y-98028571D02*
X95061905Y-98028571D01*
X95061905Y-98333333D01*
X95100000Y-98409524D01*
X95138095Y-98447619D01*
X95214286Y-98485714D01*
X95328571Y-98485714D01*
X95404762Y-98447619D01*
X95442857Y-98409524D01*
X95480952Y-98333333D01*
X95480952Y-98028571D01*
X95861905Y-99247619D02*
X95861905Y-98790476D01*
X95861905Y-99019047D02*
X95061905Y-99019047D01*
X95176190Y-98942857D01*
X95252381Y-98866666D01*
X95290476Y-98790476D01*
X95061905Y-99971429D02*
X95061905Y-99590476D01*
X95442857Y-99552381D01*
X95404762Y-99590476D01*
X95366667Y-99666667D01*
X95366667Y-99857143D01*
X95404762Y-99933333D01*
X95442857Y-99971429D01*
X95519048Y-100009524D01*
X95709524Y-100009524D01*
X95785714Y-99971429D01*
X95823810Y-99933333D01*
X95861905Y-99857143D01*
X95861905Y-99666667D01*
X95823810Y-99590476D01*
X95785714Y-99552381D01*
X96587905Y-95346714D02*
X96206952Y-95080047D01*
X96587905Y-94889571D02*
X95787905Y-94889571D01*
X95787905Y-95194333D01*
X95826000Y-95270524D01*
X95864095Y-95308619D01*
X95940286Y-95346714D01*
X96054571Y-95346714D01*
X96130762Y-95308619D01*
X96168857Y-95270524D01*
X96206952Y-95194333D01*
X96206952Y-94889571D01*
X96587905Y-96108619D02*
X96587905Y-95651476D01*
X96587905Y-95880047D02*
X95787905Y-95880047D01*
X95902190Y-95803857D01*
X95978381Y-95727666D01*
X96016476Y-95651476D01*
X95787905Y-96794333D02*
X95787905Y-96641952D01*
X95826000Y-96565762D01*
X95864095Y-96527667D01*
X95978381Y-96451476D01*
X96130762Y-96413381D01*
X96435524Y-96413381D01*
X96511714Y-96451476D01*
X96549810Y-96489571D01*
X96587905Y-96565762D01*
X96587905Y-96718143D01*
X96549810Y-96794333D01*
X96511714Y-96832429D01*
X96435524Y-96870524D01*
X96245048Y-96870524D01*
X96168857Y-96832429D01*
X96130762Y-96794333D01*
X96092667Y-96718143D01*
X96092667Y-96565762D01*
X96130762Y-96489571D01*
X96168857Y-96451476D01*
X96245048Y-96413381D01*
X98361905Y-109985714D02*
X97980952Y-109719047D01*
X98361905Y-109528571D02*
X97561905Y-109528571D01*
X97561905Y-109833333D01*
X97600000Y-109909524D01*
X97638095Y-109947619D01*
X97714286Y-109985714D01*
X97828571Y-109985714D01*
X97904762Y-109947619D01*
X97942857Y-109909524D01*
X97980952Y-109833333D01*
X97980952Y-109528571D01*
X98361905Y-110747619D02*
X98361905Y-110290476D01*
X98361905Y-110519047D02*
X97561905Y-110519047D01*
X97676190Y-110442857D01*
X97752381Y-110366666D01*
X97790476Y-110290476D01*
X97561905Y-111014286D02*
X97561905Y-111547619D01*
X98361905Y-111204762D01*
X124313905Y-81368810D02*
X123932952Y-81102143D01*
X124313905Y-80911667D02*
X123513905Y-80911667D01*
X123513905Y-81216429D01*
X123552000Y-81292620D01*
X123590095Y-81330715D01*
X123666286Y-81368810D01*
X123780571Y-81368810D01*
X123856762Y-81330715D01*
X123894857Y-81292620D01*
X123932952Y-81216429D01*
X123932952Y-80911667D01*
X124085333Y-81673572D02*
X124085333Y-82054524D01*
X124313905Y-81597381D02*
X123513905Y-81864048D01*
X124313905Y-82130715D01*
X124313905Y-82816429D02*
X124313905Y-82359286D01*
X124313905Y-82587857D02*
X123513905Y-82587857D01*
X123628190Y-82511667D01*
X123704381Y-82435476D01*
X123742476Y-82359286D01*
X103061905Y-107390476D02*
X103709524Y-107390476D01*
X103785714Y-107428571D01*
X103823810Y-107466667D01*
X103861905Y-107542857D01*
X103861905Y-107695238D01*
X103823810Y-107771429D01*
X103785714Y-107809524D01*
X103709524Y-107847619D01*
X103061905Y-107847619D01*
X103061905Y-108152381D02*
X103061905Y-108647619D01*
X103366667Y-108380952D01*
X103366667Y-108495238D01*
X103404762Y-108571428D01*
X103442857Y-108609524D01*
X103519048Y-108647619D01*
X103709524Y-108647619D01*
X103785714Y-108609524D01*
X103823810Y-108571428D01*
X103861905Y-108495238D01*
X103861905Y-108266666D01*
X103823810Y-108190476D01*
X103785714Y-108152381D01*
X99061905Y-111890476D02*
X99709524Y-111890476D01*
X99785714Y-111928571D01*
X99823810Y-111966667D01*
X99861905Y-112042857D01*
X99861905Y-112195238D01*
X99823810Y-112271429D01*
X99785714Y-112309524D01*
X99709524Y-112347619D01*
X99061905Y-112347619D01*
X99328571Y-113071428D02*
X99861905Y-113071428D01*
X99023810Y-112880952D02*
X99595238Y-112690476D01*
X99595238Y-113185714D01*
X81706981Y-62838105D02*
X80706981Y-62838105D01*
X80706981Y-63219058D01*
X80754600Y-63314296D01*
X80802219Y-63361915D01*
X80897457Y-63409534D01*
X81040314Y-63409534D01*
X81135552Y-63361915D01*
X81183171Y-63314296D01*
X81230790Y-63219058D01*
X81230790Y-62838105D01*
X81706981Y-64361915D02*
X81706981Y-63790486D01*
X81706981Y-64076200D02*
X80706981Y-64076200D01*
X80849838Y-63980962D01*
X80945076Y-63885724D01*
X80992695Y-63790486D01*
D11*
X121985714Y-58985714D02*
X122023810Y-58947619D01*
X122061905Y-58833333D01*
X122061905Y-58757143D01*
X122023810Y-58642857D01*
X121947619Y-58566666D01*
X121871429Y-58528571D01*
X121719048Y-58490476D01*
X121604762Y-58490476D01*
X121452381Y-58528571D01*
X121376190Y-58566666D01*
X121300000Y-58642857D01*
X121261905Y-58757143D01*
X121261905Y-58833333D01*
X121300000Y-58947619D01*
X121338095Y-58985714D01*
X122061905Y-59747619D02*
X122061905Y-59290476D01*
X122061905Y-59519047D02*
X121261905Y-59519047D01*
X121376190Y-59442857D01*
X121452381Y-59366666D01*
X121490476Y-59290476D01*
X121261905Y-60014286D02*
X121261905Y-60509524D01*
X121566667Y-60242857D01*
X121566667Y-60357143D01*
X121604762Y-60433333D01*
X121642857Y-60471429D01*
X121719048Y-60509524D01*
X121909524Y-60509524D01*
X121985714Y-60471429D01*
X122023810Y-60433333D01*
X122061905Y-60357143D01*
X122061905Y-60128571D01*
X122023810Y-60052381D01*
X121985714Y-60014286D01*
X85935714Y-57885714D02*
X85973810Y-57847619D01*
X86011905Y-57733333D01*
X86011905Y-57657143D01*
X85973810Y-57542857D01*
X85897619Y-57466666D01*
X85821429Y-57428571D01*
X85669048Y-57390476D01*
X85554762Y-57390476D01*
X85402381Y-57428571D01*
X85326190Y-57466666D01*
X85250000Y-57542857D01*
X85211905Y-57657143D01*
X85211905Y-57733333D01*
X85250000Y-57847619D01*
X85288095Y-57885714D01*
X86011905Y-58647619D02*
X86011905Y-58190476D01*
X86011905Y-58419047D02*
X85211905Y-58419047D01*
X85326190Y-58342857D01*
X85402381Y-58266666D01*
X85440476Y-58190476D01*
X85478571Y-59333333D02*
X86011905Y-59333333D01*
X85173810Y-59142857D02*
X85745238Y-58952381D01*
X85745238Y-59447619D01*
X87414286Y-53935714D02*
X87452381Y-53973810D01*
X87566667Y-54011905D01*
X87642857Y-54011905D01*
X87757143Y-53973810D01*
X87833334Y-53897619D01*
X87871429Y-53821429D01*
X87909524Y-53669048D01*
X87909524Y-53554762D01*
X87871429Y-53402381D01*
X87833334Y-53326190D01*
X87757143Y-53250000D01*
X87642857Y-53211905D01*
X87566667Y-53211905D01*
X87452381Y-53250000D01*
X87414286Y-53288095D01*
X86652381Y-54011905D02*
X87109524Y-54011905D01*
X86880953Y-54011905D02*
X86880953Y-53211905D01*
X86957143Y-53326190D01*
X87033334Y-53402381D01*
X87109524Y-53440476D01*
X85928571Y-53211905D02*
X86309524Y-53211905D01*
X86347619Y-53592857D01*
X86309524Y-53554762D01*
X86233333Y-53516667D01*
X86042857Y-53516667D01*
X85966667Y-53554762D01*
X85928571Y-53592857D01*
X85890476Y-53669048D01*
X85890476Y-53859524D01*
X85928571Y-53935714D01*
X85966667Y-53973810D01*
X86042857Y-54011905D01*
X86233333Y-54011905D01*
X86309524Y-53973810D01*
X86347619Y-53935714D01*
X115497619Y-51811905D02*
X115497619Y-52383333D01*
X115535715Y-52497619D01*
X115611905Y-52573810D01*
X115726191Y-52611905D01*
X115802381Y-52611905D01*
X114697619Y-52611905D02*
X115154762Y-52611905D01*
X114926191Y-52611905D02*
X114926191Y-51811905D01*
X115002381Y-51926190D01*
X115078572Y-52002381D01*
X115154762Y-52040476D01*
X113973809Y-51811905D02*
X114354762Y-51811905D01*
X114392857Y-52192857D01*
X114354762Y-52154762D01*
X114278571Y-52116667D01*
X114088095Y-52116667D01*
X114011905Y-52154762D01*
X113973809Y-52192857D01*
X113935714Y-52269048D01*
X113935714Y-52459524D01*
X113973809Y-52535714D01*
X114011905Y-52573810D01*
X114088095Y-52611905D01*
X114278571Y-52611905D01*
X114354762Y-52573810D01*
X114392857Y-52535714D01*
X119311905Y-58985714D02*
X118930952Y-58719047D01*
X119311905Y-58528571D02*
X118511905Y-58528571D01*
X118511905Y-58833333D01*
X118550000Y-58909524D01*
X118588095Y-58947619D01*
X118664286Y-58985714D01*
X118778571Y-58985714D01*
X118854762Y-58947619D01*
X118892857Y-58909524D01*
X118930952Y-58833333D01*
X118930952Y-58528571D01*
X119311905Y-59747619D02*
X119311905Y-59290476D01*
X119311905Y-59519047D02*
X118511905Y-59519047D01*
X118626190Y-59442857D01*
X118702381Y-59366666D01*
X118740476Y-59290476D01*
X118854762Y-60204762D02*
X118816667Y-60128571D01*
X118778571Y-60090476D01*
X118702381Y-60052381D01*
X118664286Y-60052381D01*
X118588095Y-60090476D01*
X118550000Y-60128571D01*
X118511905Y-60204762D01*
X118511905Y-60357143D01*
X118550000Y-60433333D01*
X118588095Y-60471429D01*
X118664286Y-60509524D01*
X118702381Y-60509524D01*
X118778571Y-60471429D01*
X118816667Y-60433333D01*
X118854762Y-60357143D01*
X118854762Y-60204762D01*
X118892857Y-60128571D01*
X118930952Y-60090476D01*
X119007143Y-60052381D01*
X119159524Y-60052381D01*
X119235714Y-60090476D01*
X119273810Y-60128571D01*
X119311905Y-60204762D01*
X119311905Y-60357143D01*
X119273810Y-60433333D01*
X119235714Y-60471429D01*
X119159524Y-60509524D01*
X119007143Y-60509524D01*
X118930952Y-60471429D01*
X118892857Y-60433333D01*
X118854762Y-60357143D01*
X120611905Y-59035714D02*
X120230952Y-58769047D01*
X120611905Y-58578571D02*
X119811905Y-58578571D01*
X119811905Y-58883333D01*
X119850000Y-58959524D01*
X119888095Y-58997619D01*
X119964286Y-59035714D01*
X120078571Y-59035714D01*
X120154762Y-58997619D01*
X120192857Y-58959524D01*
X120230952Y-58883333D01*
X120230952Y-58578571D01*
X120611905Y-59797619D02*
X120611905Y-59340476D01*
X120611905Y-59569047D02*
X119811905Y-59569047D01*
X119926190Y-59492857D01*
X120002381Y-59416666D01*
X120040476Y-59340476D01*
X120611905Y-60178571D02*
X120611905Y-60330952D01*
X120573810Y-60407143D01*
X120535714Y-60445238D01*
X120421429Y-60521429D01*
X120269048Y-60559524D01*
X119964286Y-60559524D01*
X119888095Y-60521429D01*
X119850000Y-60483333D01*
X119811905Y-60407143D01*
X119811905Y-60254762D01*
X119850000Y-60178571D01*
X119888095Y-60140476D01*
X119964286Y-60102381D01*
X120154762Y-60102381D01*
X120230952Y-60140476D01*
X120269048Y-60178571D01*
X120307143Y-60254762D01*
X120307143Y-60407143D01*
X120269048Y-60483333D01*
X120230952Y-60521429D01*
X120154762Y-60559524D01*
X126064286Y-53961905D02*
X126330953Y-53580952D01*
X126521429Y-53961905D02*
X126521429Y-53161905D01*
X126216667Y-53161905D01*
X126140476Y-53200000D01*
X126102381Y-53238095D01*
X126064286Y-53314286D01*
X126064286Y-53428571D01*
X126102381Y-53504762D01*
X126140476Y-53542857D01*
X126216667Y-53580952D01*
X126521429Y-53580952D01*
X125759524Y-53238095D02*
X125721429Y-53200000D01*
X125645238Y-53161905D01*
X125454762Y-53161905D01*
X125378572Y-53200000D01*
X125340476Y-53238095D01*
X125302381Y-53314286D01*
X125302381Y-53390476D01*
X125340476Y-53504762D01*
X125797619Y-53961905D01*
X125302381Y-53961905D01*
X124807143Y-53161905D02*
X124730952Y-53161905D01*
X124654762Y-53200000D01*
X124616667Y-53238095D01*
X124578571Y-53314286D01*
X124540476Y-53466667D01*
X124540476Y-53657143D01*
X124578571Y-53809524D01*
X124616667Y-53885714D01*
X124654762Y-53923810D01*
X124730952Y-53961905D01*
X124807143Y-53961905D01*
X124883333Y-53923810D01*
X124921429Y-53885714D01*
X124959524Y-53809524D01*
X124997619Y-53657143D01*
X124997619Y-53466667D01*
X124959524Y-53314286D01*
X124921429Y-53238095D01*
X124883333Y-53200000D01*
X124807143Y-53161905D01*
X81911905Y-51685714D02*
X81530952Y-51419047D01*
X81911905Y-51228571D02*
X81111905Y-51228571D01*
X81111905Y-51533333D01*
X81150000Y-51609524D01*
X81188095Y-51647619D01*
X81264286Y-51685714D01*
X81378571Y-51685714D01*
X81454762Y-51647619D01*
X81492857Y-51609524D01*
X81530952Y-51533333D01*
X81530952Y-51228571D01*
X81188095Y-51990476D02*
X81150000Y-52028571D01*
X81111905Y-52104762D01*
X81111905Y-52295238D01*
X81150000Y-52371428D01*
X81188095Y-52409524D01*
X81264286Y-52447619D01*
X81340476Y-52447619D01*
X81454762Y-52409524D01*
X81911905Y-51952381D01*
X81911905Y-52447619D01*
X81911905Y-53209524D02*
X81911905Y-52752381D01*
X81911905Y-52980952D02*
X81111905Y-52980952D01*
X81226190Y-52904762D01*
X81302381Y-52828571D01*
X81340476Y-52752381D01*
X92111905Y-55890476D02*
X92759524Y-55890476D01*
X92835714Y-55928571D01*
X92873810Y-55966667D01*
X92911905Y-56042857D01*
X92911905Y-56195238D01*
X92873810Y-56271429D01*
X92835714Y-56309524D01*
X92759524Y-56347619D01*
X92111905Y-56347619D01*
X92111905Y-57071428D02*
X92111905Y-56919047D01*
X92150000Y-56842857D01*
X92188095Y-56804762D01*
X92302381Y-56728571D01*
X92454762Y-56690476D01*
X92759524Y-56690476D01*
X92835714Y-56728571D01*
X92873810Y-56766666D01*
X92911905Y-56842857D01*
X92911905Y-56995238D01*
X92873810Y-57071428D01*
X92835714Y-57109524D01*
X92759524Y-57147619D01*
X92569048Y-57147619D01*
X92492857Y-57109524D01*
X92454762Y-57071428D01*
X92416667Y-56995238D01*
X92416667Y-56842857D01*
X92454762Y-56766666D01*
X92492857Y-56728571D01*
X92569048Y-56690476D01*
D17*
X121459524Y-52161905D02*
X121459524Y-52809524D01*
X121421429Y-52885714D01*
X121383333Y-52923810D01*
X121307143Y-52961905D01*
X121154762Y-52961905D01*
X121078571Y-52923810D01*
X121040476Y-52885714D01*
X121002381Y-52809524D01*
X121002381Y-52161905D01*
X120697619Y-52161905D02*
X120164286Y-52161905D01*
X120507143Y-52961905D01*
D11*
X92230952Y-51980952D02*
X92230952Y-52361905D01*
X92497619Y-51561905D02*
X92230952Y-51980952D01*
X91964285Y-51561905D01*
X91278571Y-52361905D02*
X91735714Y-52361905D01*
X91507143Y-52361905D02*
X91507143Y-51561905D01*
X91583333Y-51676190D01*
X91659524Y-51752381D01*
X91735714Y-51790476D01*
X77314245Y-54700444D02*
X76514245Y-54700444D01*
X76514245Y-54890920D01*
X76552340Y-55005206D01*
X76628530Y-55081397D01*
X76704721Y-55119492D01*
X76857102Y-55157587D01*
X76971388Y-55157587D01*
X77123769Y-55119492D01*
X77199959Y-55081397D01*
X77276150Y-55005206D01*
X77314245Y-54890920D01*
X77314245Y-54700444D01*
X76780911Y-55843301D02*
X77314245Y-55843301D01*
X76476150Y-55652825D02*
X77047578Y-55462349D01*
X77047578Y-55957587D01*
%LPC*%
D18*
X131553000Y-85220000D02*
X132353000Y-85220000D01*
X132353000Y-85220000D02*
X132353000Y-85020000D01*
X132353000Y-85020000D02*
X131553000Y-85020000D01*
X131553000Y-85020000D02*
X131553000Y-84820000D01*
X131553000Y-84820000D02*
X132353000Y-84820000D01*
X131553000Y-82553000D02*
X132353000Y-82553000D01*
X132353000Y-82553000D02*
X132353000Y-82353000D01*
X132353000Y-82353000D02*
X131553000Y-82353000D01*
X131553000Y-82353000D02*
X131553000Y-82153000D01*
X131553000Y-82153000D02*
X132353000Y-82153000D01*
X131553000Y-79886000D02*
X132353000Y-79886000D01*
X132353000Y-79886000D02*
X132353000Y-79686000D01*
X132353000Y-79686000D02*
X131553000Y-79686000D01*
X131553000Y-79686000D02*
X131553000Y-79486000D01*
X131553000Y-79486000D02*
X132353000Y-79486000D01*
X131553000Y-77219000D02*
X132353000Y-77219000D01*
X132353000Y-77219000D02*
X132353000Y-77019000D01*
X132353000Y-77019000D02*
X131553000Y-77019000D01*
X131553000Y-77019000D02*
X131553000Y-76819000D01*
X131553000Y-76819000D02*
X132353000Y-76819000D01*
X95300000Y-111100000D02*
X95300000Y-111900000D01*
X95300000Y-111900000D02*
X95500000Y-111900000D01*
X95500000Y-111900000D02*
X95500000Y-111100000D01*
X95500000Y-111100000D02*
X95700000Y-111100000D01*
X95700000Y-111100000D02*
X95700000Y-111900000D01*
X116950000Y-52400000D02*
X117750000Y-52400000D01*
X117750000Y-52400000D02*
X117750000Y-52200000D01*
X117750000Y-52200000D02*
X116950000Y-52200000D01*
X116950000Y-52200000D02*
X116950000Y-52000000D01*
X116950000Y-52000000D02*
X117750000Y-52000000D01*
D19*
X95885000Y-57023000D03*
X98425000Y-57023000D03*
X100965000Y-57023000D03*
X103505000Y-57023000D03*
X106045000Y-57023000D03*
X108585000Y-57023000D03*
X111125000Y-57023000D03*
X113665000Y-57023000D03*
X102000000Y-86350000D03*
X102000000Y-83810000D03*
X102000000Y-81270000D03*
X102000000Y-78730000D03*
X102000000Y-76190000D03*
X102000000Y-73650000D03*
X102610000Y-104000000D03*
X105150000Y-104000000D03*
X107690000Y-104000000D03*
X110230000Y-104000000D03*
X112770000Y-104000000D03*
X115310000Y-104000000D03*
X117850000Y-104000000D03*
X120390000Y-104000000D03*
D20*
X138430000Y-88068000D03*
X138430000Y-72828000D03*
X135890000Y-88068000D03*
X135890000Y-72828000D03*
X133350000Y-88068000D03*
X133350000Y-72828000D03*
X130810000Y-88068000D03*
X130810000Y-72828000D03*
X128270000Y-88068000D03*
X128270000Y-72828000D03*
X125730000Y-88068000D03*
X125730000Y-72828000D03*
X123190000Y-88068000D03*
X123190000Y-72828000D03*
X120650000Y-88068000D03*
X120650000Y-72828000D03*
X118110000Y-88068000D03*
X118110000Y-72828000D03*
X115570000Y-88068000D03*
X115570000Y-72828000D03*
X113030000Y-88068000D03*
X113030000Y-72828000D03*
X110490000Y-88068000D03*
X110490000Y-72828000D03*
X107950000Y-88068000D03*
X107950000Y-72828000D03*
X105410000Y-88068000D03*
X105410000Y-72828000D03*
D21*
X116249300Y-80500000D03*
X114750700Y-80500000D03*
D22*
X94548640Y-85000000D03*
X93451360Y-85000000D03*
D21*
X93749300Y-86500000D03*
X92250700Y-86500000D03*
D23*
X81991200Y-80264000D03*
X84886800Y-80264000D03*
X81991200Y-73152000D03*
X84886800Y-73152000D03*
X81991200Y-69596000D03*
X84886800Y-69596000D03*
X81991200Y-76708000D03*
X84886800Y-76708000D03*
X89947800Y-95000000D03*
X87052200Y-95000000D03*
D24*
X89000000Y-104945000D03*
X89000000Y-107055000D03*
D19*
X97500000Y-78960000D03*
X97500000Y-81500000D03*
X97500000Y-84040000D03*
X130190000Y-96500000D03*
X132730000Y-96500000D03*
X135270000Y-96500000D03*
X137810000Y-96500000D03*
X99500000Y-93960000D03*
X99500000Y-96500000D03*
X99500000Y-99040000D03*
X126500000Y-93960000D03*
X126500000Y-96500000D03*
X126500000Y-99040000D03*
X123920000Y-57000000D03*
X126460000Y-57000000D03*
X129000000Y-57000000D03*
X131540000Y-57000000D03*
X134080000Y-57000000D03*
X127420000Y-104000000D03*
X129960000Y-104000000D03*
X132500000Y-104000000D03*
X135040000Y-104000000D03*
X137580000Y-104000000D03*
D25*
X131353000Y-85020000D03*
X132553000Y-85020000D03*
X131353000Y-82353000D03*
X132553000Y-82353000D03*
X131353000Y-79686000D03*
X132553000Y-79686000D03*
X131353000Y-77019000D03*
X132553000Y-77019000D03*
D26*
X95500000Y-110900000D03*
X95500000Y-112100000D03*
D21*
X119249300Y-82000000D03*
X117750700Y-82000000D03*
X116249300Y-82000000D03*
X114750700Y-82000000D03*
D22*
X132451360Y-70000000D03*
X133548640Y-70000000D03*
X135951360Y-69500000D03*
X137048640Y-69500000D03*
X135951360Y-68000000D03*
X137048640Y-68000000D03*
X99451360Y-104500000D03*
X100548640Y-104500000D03*
D27*
X105500000Y-111951360D03*
X105500000Y-113048640D03*
X92075000Y-107782360D03*
X92075000Y-108879640D03*
X105500000Y-108951360D03*
X105500000Y-110048640D03*
X97500000Y-93048640D03*
X97500000Y-91951360D03*
D22*
X80951360Y-82700000D03*
X82048640Y-82700000D03*
X83451360Y-82700000D03*
X84548640Y-82700000D03*
D27*
X122618500Y-76667360D03*
X122618500Y-77764640D03*
X123952000Y-76667360D03*
X123952000Y-77764640D03*
X96774000Y-99354640D03*
X96774000Y-98257360D03*
X97500000Y-96548640D03*
X97500000Y-95451360D03*
X98000000Y-108548640D03*
X98000000Y-107451360D03*
D28*
X125643640Y-83170880D03*
X125643640Y-82370780D03*
X125643640Y-81573220D03*
X125643640Y-80773120D03*
X127340360Y-80773120D03*
X127340360Y-81573220D03*
X127340360Y-82370780D03*
X127340360Y-83170880D03*
D29*
X100050040Y-107001780D03*
X101949960Y-107001780D03*
X101000000Y-108998220D03*
D30*
X102998220Y-111550040D03*
X102998220Y-113449960D03*
X101001780Y-112500000D03*
D31*
X83370000Y-64770000D03*
X83370000Y-62230000D03*
X85910000Y-64770000D03*
X85910000Y-62230000D03*
X88450000Y-64770000D03*
X88450000Y-62230000D03*
X90990000Y-64770000D03*
X90990000Y-62230000D03*
X93530000Y-64770000D03*
X93530000Y-62230000D03*
X96070000Y-64770000D03*
X96070000Y-62230000D03*
X98610000Y-64770000D03*
X98610000Y-62230000D03*
X101150000Y-64770000D03*
X101150000Y-62230000D03*
X103690000Y-64770000D03*
X103690000Y-62230000D03*
X106230000Y-64770000D03*
X106230000Y-62230000D03*
X108770000Y-64770000D03*
X108770000Y-62230000D03*
X111310000Y-64770000D03*
X111310000Y-62230000D03*
X113850000Y-64770000D03*
X113850000Y-62230000D03*
X116390000Y-64770000D03*
X116390000Y-62230000D03*
X118930000Y-64770000D03*
X118930000Y-62230000D03*
X121470000Y-64770000D03*
X121470000Y-62230000D03*
X124010000Y-64770000D03*
X124010000Y-62230000D03*
X126550000Y-64770000D03*
X126550000Y-62230000D03*
X129090000Y-64770000D03*
X129090000Y-62230000D03*
X131630000Y-64770000D03*
X131630000Y-62230000D03*
D32*
X78105000Y-102263000D03*
D33*
X78105000Y-105763000D03*
D34*
X85880000Y-113665000D03*
D35*
X89380000Y-113665000D03*
D36*
X92988000Y-90055000D03*
X92988000Y-91555000D03*
X94488000Y-90055000D03*
X94488000Y-91555000D03*
X95988000Y-91555000D03*
X95988000Y-90055000D03*
D37*
X120660000Y-93960000D03*
D38*
X118120000Y-93960000D03*
X115580000Y-93960000D03*
X113040000Y-93960000D03*
X110500000Y-93960000D03*
X107960000Y-93960000D03*
X105420000Y-93960000D03*
X102880000Y-93960000D03*
X120660000Y-96500000D03*
X118120000Y-96500000D03*
X115580000Y-96500000D03*
X113040000Y-96500000D03*
X110500000Y-96500000D03*
X107960000Y-96500000D03*
X105420000Y-96500000D03*
X102880000Y-96500000D03*
X120660000Y-99040000D03*
X118120000Y-99040000D03*
X115580000Y-99040000D03*
X113040000Y-99040000D03*
X110500000Y-99040000D03*
X107960000Y-99040000D03*
X105420000Y-99040000D03*
X102880000Y-99040000D03*
D39*
X84150000Y-57450000D03*
X84150000Y-52450000D03*
D27*
X121600000Y-57648640D03*
X121600000Y-56551360D03*
X86950000Y-58151360D03*
X86950000Y-59248640D03*
D22*
X87598640Y-52100000D03*
X86501360Y-52100000D03*
D25*
X116750000Y-52200000D03*
X117950000Y-52200000D03*
D27*
X118850000Y-57648640D03*
X118850000Y-56551360D03*
X120250000Y-57598640D03*
X120250000Y-56501360D03*
D22*
X123548640Y-53600000D03*
X122451360Y-53600000D03*
D27*
X81450000Y-55648640D03*
X81450000Y-54551360D03*
D40*
X88925000Y-58500000D03*
X88925000Y-54300000D03*
X89575000Y-58500000D03*
X89575000Y-54300000D03*
X90225000Y-58500000D03*
X90225000Y-54300000D03*
X90875000Y-58500000D03*
X90875000Y-54300000D03*
D41*
X121200000Y-54800000D03*
X121200000Y-53800000D03*
D42*
X120800000Y-54300000D03*
D41*
X120400000Y-53800000D03*
X120400000Y-54800000D03*
D43*
X90400000Y-51950000D03*
X88900000Y-51950000D03*
D44*
X78550000Y-57223860D03*
X78550000Y-53876140D03*
D19*
X97190000Y-52000000D03*
X99730000Y-52000000D03*
X102270000Y-52000000D03*
X104810000Y-52000000D03*
M02*
