G04 #@! TF.FileFunction,Soldermask,Bot*
%FSLAX46Y46*%
G04 Gerber Fmt 4.6, Leading zero omitted, Abs format (unit mm)*
G04 Created by KiCad (PCBNEW 4.0.6) date 09/14/17 13:16:33*
%MOMM*%
%LPD*%
G01*
G04 APERTURE LIST*
%ADD10C,0.100000*%
%ADD11C,0.500000*%
%ADD12C,1.506220*%
%ADD13O,1.300000X2.000000*%
%ADD14R,0.802640X1.102360*%
%ADD15R,0.701040X0.802640*%
%ADD16R,1.153160X2.753360*%
%ADD17R,0.450000X0.590000*%
%ADD18R,0.600000X1.000000*%
%ADD19R,1.000000X0.600000*%
%ADD20R,0.802640X0.701040*%
%ADD21R,1.102360X0.622300*%
%ADD22R,0.797560X0.899160*%
%ADD23R,0.899160X0.797560*%
%ADD24C,1.500000*%
%ADD25R,2.000000X1.600000*%
%ADD26O,2.000000X1.600000*%
%ADD27R,1.600000X2.000000*%
%ADD28O,1.600000X2.000000*%
%ADD29C,1.200000*%
%ADD30R,1.500000X1.500000*%
%ADD31O,1.500000X1.500000*%
%ADD32C,1.600000*%
%ADD33R,0.450000X1.200000*%
%ADD34R,0.200000X0.600000*%
%ADD35R,0.200000X1.600000*%
%ADD36R,0.700000X1.400000*%
%ADD37R,1.198880X0.848360*%
G04 APERTURE END LIST*
D10*
D11*
X131553000Y-85220000D02*
X132353000Y-85220000D01*
X132353000Y-85220000D02*
X132353000Y-85020000D01*
X132353000Y-85020000D02*
X131553000Y-85020000D01*
X131553000Y-85020000D02*
X131553000Y-84820000D01*
X131553000Y-84820000D02*
X132353000Y-84820000D01*
X131553000Y-82553000D02*
X132353000Y-82553000D01*
X132353000Y-82553000D02*
X132353000Y-82353000D01*
X132353000Y-82353000D02*
X131553000Y-82353000D01*
X131553000Y-82353000D02*
X131553000Y-82153000D01*
X131553000Y-82153000D02*
X132353000Y-82153000D01*
X131553000Y-79886000D02*
X132353000Y-79886000D01*
X132353000Y-79886000D02*
X132353000Y-79686000D01*
X132353000Y-79686000D02*
X131553000Y-79686000D01*
X131553000Y-79686000D02*
X131553000Y-79486000D01*
X131553000Y-79486000D02*
X132353000Y-79486000D01*
X131553000Y-77219000D02*
X132353000Y-77219000D01*
X132353000Y-77219000D02*
X132353000Y-77019000D01*
X132353000Y-77019000D02*
X131553000Y-77019000D01*
X131553000Y-77019000D02*
X131553000Y-76819000D01*
X131553000Y-76819000D02*
X132353000Y-76819000D01*
X95300000Y-111100000D02*
X95300000Y-111900000D01*
X95300000Y-111900000D02*
X95500000Y-111900000D01*
X95500000Y-111900000D02*
X95500000Y-111100000D01*
X95500000Y-111100000D02*
X95700000Y-111100000D01*
X95700000Y-111100000D02*
X95700000Y-111900000D01*
X116950000Y-52400000D02*
X117750000Y-52400000D01*
X117750000Y-52400000D02*
X117750000Y-52200000D01*
X117750000Y-52200000D02*
X116950000Y-52200000D01*
X116950000Y-52200000D02*
X116950000Y-52000000D01*
X116950000Y-52000000D02*
X117750000Y-52000000D01*
D12*
X95885000Y-57023000D03*
X98425000Y-57023000D03*
X100965000Y-57023000D03*
X103505000Y-57023000D03*
X106045000Y-57023000D03*
X108585000Y-57023000D03*
X111125000Y-57023000D03*
X113665000Y-57023000D03*
X102000000Y-86350000D03*
X102000000Y-83810000D03*
X102000000Y-81270000D03*
X102000000Y-78730000D03*
X102000000Y-76190000D03*
X102000000Y-73650000D03*
X102610000Y-104000000D03*
X105150000Y-104000000D03*
X107690000Y-104000000D03*
X110230000Y-104000000D03*
X112770000Y-104000000D03*
X115310000Y-104000000D03*
X117850000Y-104000000D03*
X120390000Y-104000000D03*
D13*
X138430000Y-88068000D03*
X138430000Y-72828000D03*
X135890000Y-88068000D03*
X135890000Y-72828000D03*
X133350000Y-88068000D03*
X133350000Y-72828000D03*
X130810000Y-88068000D03*
X130810000Y-72828000D03*
X128270000Y-88068000D03*
X128270000Y-72828000D03*
X125730000Y-88068000D03*
X125730000Y-72828000D03*
X123190000Y-88068000D03*
X123190000Y-72828000D03*
X120650000Y-88068000D03*
X120650000Y-72828000D03*
X118110000Y-88068000D03*
X118110000Y-72828000D03*
X115570000Y-88068000D03*
X115570000Y-72828000D03*
X113030000Y-88068000D03*
X113030000Y-72828000D03*
X110490000Y-88068000D03*
X110490000Y-72828000D03*
X107950000Y-88068000D03*
X107950000Y-72828000D03*
X105410000Y-88068000D03*
X105410000Y-72828000D03*
D14*
X116249300Y-80500000D03*
X114750700Y-80500000D03*
D15*
X94548640Y-85000000D03*
X93451360Y-85000000D03*
D14*
X93749300Y-86500000D03*
X92250700Y-86500000D03*
D16*
X81991200Y-80264000D03*
X84886800Y-80264000D03*
X81991200Y-73152000D03*
X84886800Y-73152000D03*
X81991200Y-69596000D03*
X84886800Y-69596000D03*
X81991200Y-76708000D03*
X84886800Y-76708000D03*
X89947800Y-95000000D03*
X87052200Y-95000000D03*
D17*
X89000000Y-104945000D03*
X89000000Y-107055000D03*
D12*
X97500000Y-78960000D03*
X97500000Y-81500000D03*
X97500000Y-84040000D03*
X130190000Y-96500000D03*
X132730000Y-96500000D03*
X135270000Y-96500000D03*
X137810000Y-96500000D03*
X99500000Y-93960000D03*
X99500000Y-96500000D03*
X99500000Y-99040000D03*
X126500000Y-93960000D03*
X126500000Y-96500000D03*
X126500000Y-99040000D03*
X123920000Y-57000000D03*
X126460000Y-57000000D03*
X129000000Y-57000000D03*
X131540000Y-57000000D03*
X134080000Y-57000000D03*
X127420000Y-104000000D03*
X129960000Y-104000000D03*
X132500000Y-104000000D03*
X135040000Y-104000000D03*
X137580000Y-104000000D03*
D18*
X131353000Y-85020000D03*
X132553000Y-85020000D03*
X131353000Y-82353000D03*
X132553000Y-82353000D03*
X131353000Y-79686000D03*
X132553000Y-79686000D03*
X131353000Y-77019000D03*
X132553000Y-77019000D03*
D19*
X95500000Y-110900000D03*
X95500000Y-112100000D03*
D14*
X119249300Y-82000000D03*
X117750700Y-82000000D03*
X116249300Y-82000000D03*
X114750700Y-82000000D03*
D15*
X132451360Y-70000000D03*
X133548640Y-70000000D03*
X135951360Y-69500000D03*
X137048640Y-69500000D03*
X135951360Y-68000000D03*
X137048640Y-68000000D03*
X99451360Y-104500000D03*
X100548640Y-104500000D03*
D20*
X105500000Y-111951360D03*
X105500000Y-113048640D03*
X92075000Y-107782360D03*
X92075000Y-108879640D03*
X105500000Y-108951360D03*
X105500000Y-110048640D03*
X97500000Y-93048640D03*
X97500000Y-91951360D03*
D15*
X80951360Y-82700000D03*
X82048640Y-82700000D03*
X83451360Y-82700000D03*
X84548640Y-82700000D03*
D20*
X122618500Y-76667360D03*
X122618500Y-77764640D03*
X123952000Y-76667360D03*
X123952000Y-77764640D03*
X96774000Y-99354640D03*
X96774000Y-98257360D03*
X97500000Y-96548640D03*
X97500000Y-95451360D03*
X98000000Y-108548640D03*
X98000000Y-107451360D03*
D21*
X125643640Y-83170880D03*
X125643640Y-82370780D03*
X125643640Y-81573220D03*
X125643640Y-80773120D03*
X127340360Y-80773120D03*
X127340360Y-81573220D03*
X127340360Y-82370780D03*
X127340360Y-83170880D03*
D22*
X100050040Y-107001780D03*
X101949960Y-107001780D03*
X101000000Y-108998220D03*
D23*
X102998220Y-111550040D03*
X102998220Y-113449960D03*
X101001780Y-112500000D03*
D24*
X83370000Y-64770000D03*
X83370000Y-62230000D03*
X85910000Y-64770000D03*
X85910000Y-62230000D03*
X88450000Y-64770000D03*
X88450000Y-62230000D03*
X90990000Y-64770000D03*
X90990000Y-62230000D03*
X93530000Y-64770000D03*
X93530000Y-62230000D03*
X96070000Y-64770000D03*
X96070000Y-62230000D03*
X98610000Y-64770000D03*
X98610000Y-62230000D03*
X101150000Y-64770000D03*
X101150000Y-62230000D03*
X103690000Y-64770000D03*
X103690000Y-62230000D03*
X106230000Y-64770000D03*
X106230000Y-62230000D03*
X108770000Y-64770000D03*
X108770000Y-62230000D03*
X111310000Y-64770000D03*
X111310000Y-62230000D03*
X113850000Y-64770000D03*
X113850000Y-62230000D03*
X116390000Y-64770000D03*
X116390000Y-62230000D03*
X118930000Y-64770000D03*
X118930000Y-62230000D03*
X121470000Y-64770000D03*
X121470000Y-62230000D03*
X124010000Y-64770000D03*
X124010000Y-62230000D03*
X126550000Y-64770000D03*
X126550000Y-62230000D03*
X129090000Y-64770000D03*
X129090000Y-62230000D03*
X131630000Y-64770000D03*
X131630000Y-62230000D03*
D25*
X78105000Y-102263000D03*
D26*
X78105000Y-105763000D03*
D27*
X85880000Y-113665000D03*
D28*
X89380000Y-113665000D03*
D29*
X92988000Y-90055000D03*
X92988000Y-91555000D03*
X94488000Y-90055000D03*
X94488000Y-91555000D03*
X95988000Y-91555000D03*
X95988000Y-90055000D03*
D30*
X120660000Y-93960000D03*
D31*
X118120000Y-93960000D03*
X115580000Y-93960000D03*
X113040000Y-93960000D03*
X110500000Y-93960000D03*
X107960000Y-93960000D03*
X105420000Y-93960000D03*
X102880000Y-93960000D03*
X120660000Y-96500000D03*
X118120000Y-96500000D03*
X115580000Y-96500000D03*
X113040000Y-96500000D03*
X110500000Y-96500000D03*
X107960000Y-96500000D03*
X105420000Y-96500000D03*
X102880000Y-96500000D03*
X120660000Y-99040000D03*
X118120000Y-99040000D03*
X115580000Y-99040000D03*
X113040000Y-99040000D03*
X110500000Y-99040000D03*
X107960000Y-99040000D03*
X105420000Y-99040000D03*
X102880000Y-99040000D03*
D32*
X84150000Y-57450000D03*
X84150000Y-52450000D03*
D20*
X121600000Y-57648640D03*
X121600000Y-56551360D03*
X86950000Y-58151360D03*
X86950000Y-59248640D03*
D15*
X87598640Y-52100000D03*
X86501360Y-52100000D03*
D18*
X116750000Y-52200000D03*
X117950000Y-52200000D03*
D20*
X118850000Y-57648640D03*
X118850000Y-56551360D03*
X120250000Y-57598640D03*
X120250000Y-56501360D03*
D15*
X123548640Y-53600000D03*
X122451360Y-53600000D03*
D20*
X81450000Y-55648640D03*
X81450000Y-54551360D03*
D33*
X88925000Y-58500000D03*
X88925000Y-54300000D03*
X89575000Y-58500000D03*
X89575000Y-54300000D03*
X90225000Y-58500000D03*
X90225000Y-54300000D03*
X90875000Y-58500000D03*
X90875000Y-54300000D03*
D34*
X121200000Y-54800000D03*
X121200000Y-53800000D03*
D35*
X120800000Y-54300000D03*
D34*
X120400000Y-53800000D03*
X120400000Y-54800000D03*
D36*
X90400000Y-51950000D03*
X88900000Y-51950000D03*
D37*
X78550000Y-57223860D03*
X78550000Y-53876140D03*
D12*
X97190000Y-52000000D03*
X99730000Y-52000000D03*
X102270000Y-52000000D03*
X104810000Y-52000000D03*
M02*
