G04 #@! TF.FileFunction,Legend,Top*
%FSLAX45Y45*%
G04 Gerber Fmt 4.5, Leading zero omitted, Abs format (unit mm)*
G04 Created by KiCad (PCBNEW 4.0.7-e2-6376~58~ubuntu17.04.1) date Fri Feb 23 16:56:55 2018*
%MOMM*%
%LPD*%
G01*
G04 APERTURE LIST*
%ADD10C,0.100000*%
%ADD11C,0.250000*%
%ADD12C,0.175000*%
%ADD13C,0.200000*%
%ADD14C,0.400000*%
%ADD15C,0.254000*%
%ADD16C,0.444500*%
%ADD17C,0.508000*%
%ADD18C,0.317500*%
%ADD19C,0.120000*%
%ADD20C,0.150000*%
%ADD21C,0.127000*%
%ADD22C,0.500000*%
%ADD23R,1.700000X1.700000*%
%ADD24O,1.700000X1.700000*%
%ADD25C,1.500000*%
%ADD26R,1.501140X0.901700*%
%ADD27R,3.197860X1.597660*%
%ADD28R,2.500000X1.400000*%
%ADD29R,0.848360X1.198880*%
%ADD30R,3.600000X1.800000*%
%ADD31O,3.600000X1.800000*%
%ADD32R,0.600000X1.000000*%
%ADD33R,1.500000X1.500000*%
%ADD34O,1.500000X1.500000*%
%ADD35R,5.100000X2.350000*%
%ADD36R,0.952500X1.551940*%
%ADD37R,1.551940X0.952500*%
%ADD38R,0.802640X1.102360*%
%ADD39R,0.901700X1.303020*%
%ADD40O,1.300000X2.000000*%
%ADD41R,0.899160X0.797560*%
%ADD42R,5.588000X2.540000*%
%ADD43C,11.000000*%
%ADD44R,1.102360X0.802640*%
%ADD45R,1.000760X1.000760*%
%ADD46R,0.400000X0.600000*%
%ADD47R,0.700000X0.550000*%
%ADD48R,0.635000X1.250000*%
%ADD49R,0.650000X1.250000*%
%ADD50R,4.600000X3.900000*%
%ADD51C,1.506220*%
G04 APERTURE END LIST*
D10*
D11*
X13237619Y-5958571D02*
X13251905Y-5964286D01*
X13275714Y-5964286D01*
X13285238Y-5958571D01*
X13290000Y-5952857D01*
X13294762Y-5941429D01*
X13294762Y-5930000D01*
X13290000Y-5918571D01*
X13285238Y-5912857D01*
X13275714Y-5907143D01*
X13256667Y-5901429D01*
X13247143Y-5895714D01*
X13242381Y-5890000D01*
X13237619Y-5878571D01*
X13237619Y-5867143D01*
X13242381Y-5855714D01*
X13247143Y-5850000D01*
X13256667Y-5844286D01*
X13280476Y-5844286D01*
X13294762Y-5850000D01*
X13337619Y-5964286D02*
X13337619Y-5844286D01*
X13375714Y-5844286D01*
X13385238Y-5850000D01*
X13390000Y-5855714D01*
X13394762Y-5867143D01*
X13394762Y-5884286D01*
X13390000Y-5895714D01*
X13385238Y-5901429D01*
X13375714Y-5907143D01*
X13337619Y-5907143D01*
X13437619Y-5964286D02*
X13437619Y-5844286D01*
X9400476Y-5964286D02*
X9400476Y-5844286D01*
X9448095Y-5964286D02*
X9448095Y-5844286D01*
X9481429Y-5930000D01*
X9514762Y-5844286D01*
X9514762Y-5964286D01*
X9562381Y-5844286D02*
X9562381Y-5941429D01*
X9567143Y-5952857D01*
X9571905Y-5958571D01*
X9581429Y-5964286D01*
X9600476Y-5964286D01*
X9610000Y-5958571D01*
X9614762Y-5952857D01*
X9619524Y-5941429D01*
X9619524Y-5844286D01*
X8274762Y-10564286D02*
X8293810Y-10564286D01*
X8303333Y-10570000D01*
X8312857Y-10581429D01*
X8317619Y-10604286D01*
X8317619Y-10644286D01*
X8312857Y-10667143D01*
X8303333Y-10678571D01*
X8293810Y-10684286D01*
X8274762Y-10684286D01*
X8265238Y-10678571D01*
X8255714Y-10667143D01*
X8250952Y-10644286D01*
X8250952Y-10604286D01*
X8255714Y-10581429D01*
X8265238Y-10570000D01*
X8274762Y-10564286D01*
X8393810Y-10621429D02*
X8360476Y-10621429D01*
X8360476Y-10684286D02*
X8360476Y-10564286D01*
X8408095Y-10564286D01*
X8479524Y-10621429D02*
X8446191Y-10621429D01*
X8446191Y-10684286D02*
X8446191Y-10564286D01*
X8493810Y-10564286D01*
X7808095Y-10564286D02*
X7827143Y-10564286D01*
X7836667Y-10570000D01*
X7846190Y-10581429D01*
X7850952Y-10604286D01*
X7850952Y-10644286D01*
X7846190Y-10667143D01*
X7836667Y-10678571D01*
X7827143Y-10684286D01*
X7808095Y-10684286D01*
X7798571Y-10678571D01*
X7789048Y-10667143D01*
X7784286Y-10644286D01*
X7784286Y-10604286D01*
X7789048Y-10581429D01*
X7798571Y-10570000D01*
X7808095Y-10564286D01*
X7893809Y-10684286D02*
X7893809Y-10564286D01*
X7950952Y-10684286D01*
X7950952Y-10564286D01*
D12*
X13038286Y-5795633D02*
X13038286Y-5772300D01*
X13080190Y-5762300D02*
X13080190Y-5795633D01*
X13000190Y-5795633D01*
X13000190Y-5762300D01*
X13080190Y-5695633D02*
X13080190Y-5735633D01*
X13080190Y-5715633D02*
X13000190Y-5715633D01*
X13011619Y-5722300D01*
X13019238Y-5728967D01*
X13023048Y-5735633D01*
X12812571Y-5725633D02*
X12816381Y-5728967D01*
X12820190Y-5738967D01*
X12820190Y-5745633D01*
X12816381Y-5755633D01*
X12808762Y-5762300D01*
X12801143Y-5765633D01*
X12785905Y-5768967D01*
X12774476Y-5768967D01*
X12759238Y-5765633D01*
X12751619Y-5762300D01*
X12744000Y-5755633D01*
X12740190Y-5745633D01*
X12740190Y-5738967D01*
X12744000Y-5728967D01*
X12747809Y-5725633D01*
X12518286Y-5795633D02*
X12518286Y-5772300D01*
X12560190Y-5762300D02*
X12560190Y-5795633D01*
X12480190Y-5795633D01*
X12480190Y-5762300D01*
X12480190Y-5718967D02*
X12480190Y-5712300D01*
X12484000Y-5705633D01*
X12487809Y-5702300D01*
X12495429Y-5698967D01*
X12510667Y-5695633D01*
X12529714Y-5695633D01*
X12544952Y-5698967D01*
X12552571Y-5702300D01*
X12556381Y-5705633D01*
X12560190Y-5712300D01*
X12560190Y-5718967D01*
X12556381Y-5725633D01*
X12552571Y-5728967D01*
X12544952Y-5732300D01*
X12529714Y-5735633D01*
X12510667Y-5735633D01*
X12495429Y-5732300D01*
X12487809Y-5728967D01*
X12484000Y-5725633D01*
X12480190Y-5718967D01*
X12320190Y-5747300D02*
X12240190Y-5747300D01*
X11987809Y-5800633D02*
X11984000Y-5797300D01*
X11980190Y-5790633D01*
X11980190Y-5773967D01*
X11984000Y-5767300D01*
X11987809Y-5763967D01*
X11995429Y-5760633D01*
X12003048Y-5760633D01*
X12014476Y-5763967D01*
X12060190Y-5803967D01*
X12060190Y-5760633D01*
X11980190Y-5697300D02*
X11980190Y-5730633D01*
X12018286Y-5733967D01*
X12014476Y-5730633D01*
X12010667Y-5723967D01*
X12010667Y-5707300D01*
X12014476Y-5700633D01*
X12018286Y-5697300D01*
X12025905Y-5693967D01*
X12044952Y-5693967D01*
X12052571Y-5697300D01*
X12056381Y-5700633D01*
X12060190Y-5707300D01*
X12060190Y-5723967D01*
X12056381Y-5730633D01*
X12052571Y-5733967D01*
X11740190Y-5753967D02*
X11740190Y-5740633D01*
X11744000Y-5733967D01*
X11751619Y-5727300D01*
X11766857Y-5723967D01*
X11793524Y-5723967D01*
X11808762Y-5727300D01*
X11816381Y-5733967D01*
X11820190Y-5740633D01*
X11820190Y-5753967D01*
X11816381Y-5760633D01*
X11808762Y-5767300D01*
X11793524Y-5770633D01*
X11766857Y-5770633D01*
X11751619Y-5767300D01*
X11744000Y-5760633D01*
X11740190Y-5753967D01*
X11484000Y-5728967D02*
X11480190Y-5735633D01*
X11480190Y-5745633D01*
X11484000Y-5755633D01*
X11491619Y-5762300D01*
X11499238Y-5765633D01*
X11514476Y-5768967D01*
X11525905Y-5768967D01*
X11541143Y-5765633D01*
X11548762Y-5762300D01*
X11556381Y-5755633D01*
X11560190Y-5745633D01*
X11560190Y-5738967D01*
X11556381Y-5728967D01*
X11552571Y-5725633D01*
X11525905Y-5725633D01*
X11525905Y-5738967D01*
X11220190Y-5770633D02*
X11220190Y-5727300D01*
X11250667Y-5750633D01*
X11250667Y-5740633D01*
X11254476Y-5733967D01*
X11258286Y-5730633D01*
X11265905Y-5727300D01*
X11284952Y-5727300D01*
X11292571Y-5730633D01*
X11296381Y-5733967D01*
X11300190Y-5740633D01*
X11300190Y-5760633D01*
X11296381Y-5767300D01*
X11292571Y-5770633D01*
X9256191Y-5778333D02*
X9176191Y-5778333D01*
X9176191Y-5761667D01*
X9180000Y-5751667D01*
X9187619Y-5745000D01*
X9195238Y-5741667D01*
X9210476Y-5738333D01*
X9221905Y-5738333D01*
X9237143Y-5741667D01*
X9244762Y-5745000D01*
X9252381Y-5751667D01*
X9256191Y-5761667D01*
X9256191Y-5778333D01*
X8988571Y-5738333D02*
X8992381Y-5741667D01*
X8996191Y-5751667D01*
X8996191Y-5758333D01*
X8992381Y-5768333D01*
X8984762Y-5775000D01*
X8977143Y-5778333D01*
X8961905Y-5781667D01*
X8950476Y-5781667D01*
X8935238Y-5778333D01*
X8927619Y-5775000D01*
X8920000Y-5768333D01*
X8916191Y-5758333D01*
X8916191Y-5751667D01*
X8920000Y-5741667D01*
X8923810Y-5738333D01*
X8660000Y-5741667D02*
X8656191Y-5748333D01*
X8656191Y-5758333D01*
X8660000Y-5768333D01*
X8667619Y-5775000D01*
X8675238Y-5778333D01*
X8690476Y-5781667D01*
X8701905Y-5781667D01*
X8717143Y-5778333D01*
X8724762Y-5775000D01*
X8732381Y-5768333D01*
X8736191Y-5758333D01*
X8736191Y-5751667D01*
X8732381Y-5741667D01*
X8728571Y-5738333D01*
X8701905Y-5738333D01*
X8701905Y-5751667D01*
X8396191Y-5783333D02*
X8396191Y-5740000D01*
X8426667Y-5763333D01*
X8426667Y-5753333D01*
X8430476Y-5746667D01*
X8434286Y-5743333D01*
X8441905Y-5740000D01*
X8460952Y-5740000D01*
X8468571Y-5743333D01*
X8472381Y-5746667D01*
X8476191Y-5753333D01*
X8476191Y-5773333D01*
X8472381Y-5780000D01*
X8468571Y-5783333D01*
D13*
X7565238Y-6684286D02*
X7565238Y-6564286D01*
X7595714Y-6564286D01*
X7603333Y-6570000D01*
X7607143Y-6575714D01*
X7610952Y-6587143D01*
X7610952Y-6604286D01*
X7607143Y-6615714D01*
X7603333Y-6621429D01*
X7595714Y-6627143D01*
X7565238Y-6627143D01*
X7660476Y-6564286D02*
X7675714Y-6564286D01*
X7683333Y-6570000D01*
X7690952Y-6581429D01*
X7694762Y-6604286D01*
X7694762Y-6644286D01*
X7690952Y-6667143D01*
X7683333Y-6678571D01*
X7675714Y-6684286D01*
X7660476Y-6684286D01*
X7652857Y-6678571D01*
X7645238Y-6667143D01*
X7641429Y-6644286D01*
X7641429Y-6604286D01*
X7645238Y-6581429D01*
X7652857Y-6570000D01*
X7660476Y-6564286D01*
X7721429Y-6564286D02*
X7740476Y-6684286D01*
X7755714Y-6598571D01*
X7770952Y-6684286D01*
X7790000Y-6564286D01*
X7820476Y-6621429D02*
X7847143Y-6621429D01*
X7858571Y-6684286D02*
X7820476Y-6684286D01*
X7820476Y-6564286D01*
X7858571Y-6564286D01*
X7938571Y-6684286D02*
X7911905Y-6627143D01*
X7892857Y-6684286D02*
X7892857Y-6564286D01*
X7923333Y-6564286D01*
X7930952Y-6570000D01*
X7934762Y-6575714D01*
X7938571Y-6587143D01*
X7938571Y-6604286D01*
X7934762Y-6615714D01*
X7930952Y-6621429D01*
X7923333Y-6627143D01*
X7892857Y-6627143D01*
X11835238Y-11004286D02*
X11835238Y-10884286D01*
X11861905Y-10970000D01*
X11888571Y-10884286D01*
X11888571Y-11004286D01*
X11922857Y-10998571D02*
X11934286Y-11004286D01*
X11953333Y-11004286D01*
X11960952Y-10998571D01*
X11964762Y-10992857D01*
X11968571Y-10981429D01*
X11968571Y-10970000D01*
X11964762Y-10958571D01*
X11960952Y-10952857D01*
X11953333Y-10947143D01*
X11938095Y-10941429D01*
X11930476Y-10935714D01*
X11926667Y-10930000D01*
X11922857Y-10918571D01*
X11922857Y-10907143D01*
X11926667Y-10895714D01*
X11930476Y-10890000D01*
X11938095Y-10884286D01*
X11957143Y-10884286D01*
X11968571Y-10890000D01*
X12044762Y-10890000D02*
X12037143Y-10884286D01*
X12025714Y-10884286D01*
X12014286Y-10890000D01*
X12006667Y-10901429D01*
X12002857Y-10912857D01*
X11999048Y-10935714D01*
X11999048Y-10952857D01*
X12002857Y-10975714D01*
X12006667Y-10987143D01*
X12014286Y-10998571D01*
X12025714Y-11004286D01*
X12033333Y-11004286D01*
X12044762Y-10998571D01*
X12048571Y-10992857D01*
X12048571Y-10952857D01*
X12033333Y-10952857D01*
X11351428Y-11394762D02*
X11355238Y-11390000D01*
X11362857Y-11385238D01*
X11381905Y-11385238D01*
X11389524Y-11390000D01*
X11393333Y-11394762D01*
X11397143Y-11404286D01*
X11397143Y-11413809D01*
X11393333Y-11428095D01*
X11347619Y-11485238D01*
X11397143Y-11485238D01*
X11446667Y-11385238D02*
X11454286Y-11385238D01*
X11461905Y-11390000D01*
X11465714Y-11394762D01*
X11469524Y-11404286D01*
X11473333Y-11423333D01*
X11473333Y-11447143D01*
X11469524Y-11466190D01*
X11465714Y-11475714D01*
X11461905Y-11480476D01*
X11454286Y-11485238D01*
X11446667Y-11485238D01*
X11439048Y-11480476D01*
X11435238Y-11475714D01*
X11431428Y-11466190D01*
X11427619Y-11447143D01*
X11427619Y-11423333D01*
X11431428Y-11404286D01*
X11435238Y-11394762D01*
X11439048Y-11390000D01*
X11446667Y-11385238D01*
X11549524Y-11485238D02*
X11503809Y-11485238D01*
X11526667Y-11485238D02*
X11526667Y-11385238D01*
X11519048Y-11399524D01*
X11511428Y-11409048D01*
X11503809Y-11413809D01*
X11595238Y-11428095D02*
X11587619Y-11423333D01*
X11583809Y-11418571D01*
X11580000Y-11409048D01*
X11580000Y-11404286D01*
X11583809Y-11394762D01*
X11587619Y-11390000D01*
X11595238Y-11385238D01*
X11610476Y-11385238D01*
X11618095Y-11390000D01*
X11621905Y-11394762D01*
X11625714Y-11404286D01*
X11625714Y-11409048D01*
X11621905Y-11418571D01*
X11618095Y-11423333D01*
X11610476Y-11428095D01*
X11595238Y-11428095D01*
X11587619Y-11432857D01*
X11583809Y-11437619D01*
X11580000Y-11447143D01*
X11580000Y-11466190D01*
X11583809Y-11475714D01*
X11587619Y-11480476D01*
X11595238Y-11485238D01*
X11610476Y-11485238D01*
X11618095Y-11480476D01*
X11621905Y-11475714D01*
X11625714Y-11466190D01*
X11625714Y-11447143D01*
X11621905Y-11437619D01*
X11618095Y-11432857D01*
X11610476Y-11428095D01*
X11660000Y-11447143D02*
X11720952Y-11447143D01*
X11774286Y-11385238D02*
X11781905Y-11385238D01*
X11789524Y-11390000D01*
X11793333Y-11394762D01*
X11797143Y-11404286D01*
X11800952Y-11423333D01*
X11800952Y-11447143D01*
X11797143Y-11466190D01*
X11793333Y-11475714D01*
X11789524Y-11480476D01*
X11781905Y-11485238D01*
X11774286Y-11485238D01*
X11766667Y-11480476D01*
X11762857Y-11475714D01*
X11759048Y-11466190D01*
X11755238Y-11447143D01*
X11755238Y-11423333D01*
X11759048Y-11404286D01*
X11762857Y-11394762D01*
X11766667Y-11390000D01*
X11774286Y-11385238D01*
X11877143Y-11485238D02*
X11831429Y-11485238D01*
X11854286Y-11485238D02*
X11854286Y-11385238D01*
X11846667Y-11399524D01*
X11839048Y-11409048D01*
X11831429Y-11413809D01*
X11911429Y-11447143D02*
X11972381Y-11447143D01*
X12006667Y-11394762D02*
X12010476Y-11390000D01*
X12018095Y-11385238D01*
X12037143Y-11385238D01*
X12044762Y-11390000D01*
X12048571Y-11394762D01*
X12052381Y-11404286D01*
X12052381Y-11413809D01*
X12048571Y-11428095D01*
X12002857Y-11485238D01*
X12052381Y-11485238D01*
X12082857Y-11394762D02*
X12086667Y-11390000D01*
X12094286Y-11385238D01*
X12113333Y-11385238D01*
X12120952Y-11390000D01*
X12124762Y-11394762D01*
X12128571Y-11404286D01*
X12128571Y-11413809D01*
X12124762Y-11428095D01*
X12079048Y-11485238D01*
X12128571Y-11485238D01*
D14*
X12706350Y-11379200D02*
X12706350Y-9607550D01*
X13417550Y-11379200D02*
X12706350Y-11379200D01*
X13417550Y-9601200D02*
X13417550Y-11379200D01*
X12687300Y-9601200D02*
X13417550Y-9601200D01*
D15*
X12403667Y-8546193D02*
X12461724Y-8546193D01*
X12432695Y-8698593D02*
X12432695Y-8546193D01*
X12534295Y-8691336D02*
X12524619Y-8698593D01*
X12505267Y-8698593D01*
X12495591Y-8691336D01*
X12490752Y-8676821D01*
X12490752Y-8618764D01*
X12495591Y-8604250D01*
X12505267Y-8596993D01*
X12524619Y-8596993D01*
X12534295Y-8604250D01*
X12539133Y-8618764D01*
X12539133Y-8633279D01*
X12490752Y-8647793D01*
X12621381Y-8691336D02*
X12611705Y-8698593D01*
X12592352Y-8698593D01*
X12582676Y-8691336D01*
X12577838Y-8676821D01*
X12577838Y-8618764D01*
X12582676Y-8604250D01*
X12592352Y-8596993D01*
X12611705Y-8596993D01*
X12621381Y-8604250D01*
X12626219Y-8618764D01*
X12626219Y-8633279D01*
X12577838Y-8647793D01*
X12669762Y-8596993D02*
X12669762Y-8698593D01*
X12669762Y-8611507D02*
X12674600Y-8604250D01*
X12684276Y-8596993D01*
X12698790Y-8596993D01*
X12708467Y-8604250D01*
X12713305Y-8618764D01*
X12713305Y-8698593D01*
X12756848Y-8691336D02*
X12766524Y-8698593D01*
X12785876Y-8698593D01*
X12795552Y-8691336D01*
X12800390Y-8676821D01*
X12800390Y-8669564D01*
X12795552Y-8655050D01*
X12785876Y-8647793D01*
X12771362Y-8647793D01*
X12761686Y-8640536D01*
X12756848Y-8626021D01*
X12756848Y-8618764D01*
X12761686Y-8604250D01*
X12771362Y-8596993D01*
X12785876Y-8596993D01*
X12795552Y-8604250D01*
X12834257Y-8596993D02*
X12858448Y-8698593D01*
X12882638Y-8596993D02*
X12858448Y-8698593D01*
X12848771Y-8734879D01*
X12843933Y-8742136D01*
X12834257Y-8749393D01*
X12989076Y-8546193D02*
X13051971Y-8546193D01*
X13018105Y-8604250D01*
X13032619Y-8604250D01*
X13042295Y-8611507D01*
X13047133Y-8618764D01*
X13051971Y-8633279D01*
X13051971Y-8669564D01*
X13047133Y-8684079D01*
X13042295Y-8691336D01*
X13032619Y-8698593D01*
X13003590Y-8698593D01*
X12993914Y-8691336D01*
X12989076Y-8684079D01*
X13168086Y-8538936D02*
X13081000Y-8734879D01*
X13250333Y-8698593D02*
X13201952Y-8698593D01*
X13201952Y-8546193D01*
X13342257Y-8684079D02*
X13337419Y-8691336D01*
X13322905Y-8698593D01*
X13313228Y-8698593D01*
X13298714Y-8691336D01*
X13289038Y-8676821D01*
X13284200Y-8662307D01*
X13279362Y-8633279D01*
X13279362Y-8611507D01*
X13284200Y-8582479D01*
X13289038Y-8567964D01*
X13298714Y-8553450D01*
X13313228Y-8546193D01*
X13322905Y-8546193D01*
X13337419Y-8553450D01*
X13342257Y-8560707D01*
X8424636Y-9412514D02*
X8424636Y-9335105D01*
X8482693Y-9373810D02*
X8366579Y-9373810D01*
X8330293Y-9267371D02*
X8330293Y-9248019D01*
X8337550Y-9238343D01*
X8352064Y-9228667D01*
X8381093Y-9223829D01*
X8431893Y-9223829D01*
X8460921Y-9228667D01*
X8475436Y-9238343D01*
X8482693Y-9248019D01*
X8482693Y-9267371D01*
X8475436Y-9277048D01*
X8460921Y-9286724D01*
X8431893Y-9291562D01*
X8381093Y-9291562D01*
X8352064Y-9286724D01*
X8337550Y-9277048D01*
X8330293Y-9267371D01*
X8381093Y-9136743D02*
X8482693Y-9136743D01*
X8381093Y-9180286D02*
X8460921Y-9180286D01*
X8475436Y-9175448D01*
X8482693Y-9165771D01*
X8482693Y-9151257D01*
X8475436Y-9141581D01*
X8468179Y-9136743D01*
X8381093Y-9102876D02*
X8381093Y-9064171D01*
X8330293Y-9088362D02*
X8460921Y-9088362D01*
X8475436Y-9083524D01*
X8482693Y-9073848D01*
X8482693Y-9064171D01*
D16*
X8354483Y-8620579D02*
X8489950Y-8620579D01*
X8422217Y-8707664D02*
X8422217Y-8533493D01*
X8633883Y-8587921D02*
X8659283Y-8598807D01*
X8667750Y-8609693D01*
X8676217Y-8631464D01*
X8676217Y-8664121D01*
X8667750Y-8685893D01*
X8659283Y-8696779D01*
X8642350Y-8707664D01*
X8574617Y-8707664D01*
X8574617Y-8479064D01*
X8633883Y-8479064D01*
X8650817Y-8489950D01*
X8659283Y-8500836D01*
X8667750Y-8522607D01*
X8667750Y-8544379D01*
X8659283Y-8566150D01*
X8650817Y-8577036D01*
X8633883Y-8587921D01*
X8574617Y-8587921D01*
X8743950Y-8642350D02*
X8828617Y-8642350D01*
X8727017Y-8707664D02*
X8786283Y-8479064D01*
X8845550Y-8707664D01*
X8879417Y-8479064D02*
X8981017Y-8479064D01*
X8930217Y-8707664D02*
X8930217Y-8479064D01*
D17*
X7917240Y-7746093D02*
X8072059Y-7746093D01*
X8355390Y-9784443D02*
X8510210Y-9784443D01*
D15*
X11895181Y-10168943D02*
X11895181Y-10016543D01*
X11933886Y-10016543D01*
X11943562Y-10023800D01*
X11948400Y-10031057D01*
X11953238Y-10045571D01*
X11953238Y-10067343D01*
X11948400Y-10081857D01*
X11943562Y-10089114D01*
X11933886Y-10096371D01*
X11895181Y-10096371D01*
X12016133Y-10016543D02*
X12035486Y-10016543D01*
X12045162Y-10023800D01*
X12054838Y-10038314D01*
X12059676Y-10067343D01*
X12059676Y-10118143D01*
X12054838Y-10147171D01*
X12045162Y-10161686D01*
X12035486Y-10168943D01*
X12016133Y-10168943D01*
X12006457Y-10161686D01*
X11996781Y-10147171D01*
X11991943Y-10118143D01*
X11991943Y-10067343D01*
X11996781Y-10038314D01*
X12006457Y-10023800D01*
X12016133Y-10016543D01*
X12146762Y-10067343D02*
X12146762Y-10168943D01*
X12103219Y-10067343D02*
X12103219Y-10147171D01*
X12108057Y-10161686D01*
X12117733Y-10168943D01*
X12132248Y-10168943D01*
X12141924Y-10161686D01*
X12146762Y-10154429D01*
X12180629Y-10067343D02*
X12219333Y-10067343D01*
X12195143Y-10016543D02*
X12195143Y-10147171D01*
X12199981Y-10161686D01*
X12209657Y-10168943D01*
X12219333Y-10168943D01*
X9548888Y-10152743D02*
X9548888Y-10000343D01*
X9587593Y-10000343D01*
X9597269Y-10007600D01*
X9602107Y-10014857D01*
X9606945Y-10029371D01*
X9606945Y-10051143D01*
X9602107Y-10065657D01*
X9597269Y-10072914D01*
X9587593Y-10080171D01*
X9548888Y-10080171D01*
X9650488Y-10152743D02*
X9650488Y-10000343D01*
X9698869Y-10051143D02*
X9698869Y-10152743D01*
X9698869Y-10065657D02*
X9703707Y-10058400D01*
X9713383Y-10051143D01*
X9727898Y-10051143D01*
X9737574Y-10058400D01*
X9742412Y-10072914D01*
X9742412Y-10152743D01*
D14*
X11207750Y-10553700D02*
X11715750Y-10553700D01*
X9931400Y-10553700D02*
X10445750Y-10553700D01*
D15*
X11371640Y-10617200D02*
X11361964Y-10609943D01*
X11347450Y-10609943D01*
X11332936Y-10617200D01*
X11323260Y-10631714D01*
X11318421Y-10646229D01*
X11313583Y-10675257D01*
X11313583Y-10697029D01*
X11318421Y-10726057D01*
X11323260Y-10740571D01*
X11332936Y-10755086D01*
X11347450Y-10762343D01*
X11357126Y-10762343D01*
X11371640Y-10755086D01*
X11376479Y-10747829D01*
X11376479Y-10697029D01*
X11357126Y-10697029D01*
X11420021Y-10762343D02*
X11420021Y-10609943D01*
X11478079Y-10762343D01*
X11478079Y-10609943D01*
X11526460Y-10762343D02*
X11526460Y-10609943D01*
X11550650Y-10609943D01*
X11565164Y-10617200D01*
X11574840Y-10631714D01*
X11579679Y-10646229D01*
X11584517Y-10675257D01*
X11584517Y-10697029D01*
X11579679Y-10726057D01*
X11574840Y-10740571D01*
X11565164Y-10755086D01*
X11550650Y-10762343D01*
X11526460Y-10762343D01*
X10114341Y-10617200D02*
X10104664Y-10609943D01*
X10090150Y-10609943D01*
X10075636Y-10617200D01*
X10065960Y-10631714D01*
X10061122Y-10646229D01*
X10056283Y-10675257D01*
X10056283Y-10697029D01*
X10061122Y-10726057D01*
X10065960Y-10740571D01*
X10075636Y-10755086D01*
X10090150Y-10762343D01*
X10099826Y-10762343D01*
X10114341Y-10755086D01*
X10119179Y-10747829D01*
X10119179Y-10697029D01*
X10099826Y-10697029D01*
X10162722Y-10762343D02*
X10162722Y-10609943D01*
X10220779Y-10762343D01*
X10220779Y-10609943D01*
X10269160Y-10762343D02*
X10269160Y-10609943D01*
X10293350Y-10609943D01*
X10307864Y-10617200D01*
X10317541Y-10631714D01*
X10322379Y-10646229D01*
X10327217Y-10675257D01*
X10327217Y-10697029D01*
X10322379Y-10726057D01*
X10317541Y-10740571D01*
X10307864Y-10755086D01*
X10293350Y-10762343D01*
X10269160Y-10762343D01*
D14*
X9925050Y-10096500D02*
X10706100Y-10096500D01*
X11715750Y-10109200D02*
X11715750Y-10102850D01*
X10953750Y-10109200D02*
X11715750Y-10109200D01*
D15*
X10633086Y-10650886D02*
X10710495Y-10650886D01*
X10671791Y-10708943D02*
X10671791Y-10592829D01*
X10778229Y-10556543D02*
X10797581Y-10556543D01*
X10807257Y-10563800D01*
X10816933Y-10578314D01*
X10821772Y-10607343D01*
X10821772Y-10658143D01*
X10816933Y-10687171D01*
X10807257Y-10701686D01*
X10797581Y-10708943D01*
X10778229Y-10708943D01*
X10768553Y-10701686D01*
X10758876Y-10687171D01*
X10754038Y-10658143D01*
X10754038Y-10607343D01*
X10758876Y-10578314D01*
X10768553Y-10563800D01*
X10778229Y-10556543D01*
X10908857Y-10607343D02*
X10908857Y-10708943D01*
X10865314Y-10607343D02*
X10865314Y-10687171D01*
X10870153Y-10701686D01*
X10879829Y-10708943D01*
X10894343Y-10708943D01*
X10904019Y-10701686D01*
X10908857Y-10694429D01*
X10942724Y-10607343D02*
X10981429Y-10607343D01*
X10957238Y-10556543D02*
X10957238Y-10687171D01*
X10962076Y-10701686D01*
X10971753Y-10708943D01*
X10981429Y-10708943D01*
X11335657Y-9536793D02*
X11355009Y-9536793D01*
X11364686Y-9544050D01*
X11374362Y-9558564D01*
X11379200Y-9587593D01*
X11379200Y-9638393D01*
X11374362Y-9667421D01*
X11364686Y-9681936D01*
X11355009Y-9689193D01*
X11335657Y-9689193D01*
X11325981Y-9681936D01*
X11316305Y-9667421D01*
X11311467Y-9638393D01*
X11311467Y-9587593D01*
X11316305Y-9558564D01*
X11325981Y-9544050D01*
X11335657Y-9536793D01*
X11408229Y-9536793D02*
X11466286Y-9536793D01*
X11437257Y-9689193D02*
X11437257Y-9536793D01*
X11500152Y-9689193D02*
X11500152Y-9536793D01*
X11543695Y-9689193D02*
X11543695Y-9609364D01*
X11538857Y-9594850D01*
X11529181Y-9587593D01*
X11514667Y-9587593D01*
X11504990Y-9594850D01*
X11500152Y-9602107D01*
X11647714Y-9530443D02*
X11667067Y-9530443D01*
X11676743Y-9537700D01*
X11686419Y-9552214D01*
X11691257Y-9581243D01*
X11691257Y-9632043D01*
X11686419Y-9661071D01*
X11676743Y-9675586D01*
X11667067Y-9682843D01*
X11647714Y-9682843D01*
X11638038Y-9675586D01*
X11628362Y-9661071D01*
X11623524Y-9632043D01*
X11623524Y-9581243D01*
X11628362Y-9552214D01*
X11638038Y-9537700D01*
X11647714Y-9530443D01*
X11729962Y-9675586D02*
X11744476Y-9682843D01*
X11768667Y-9682843D01*
X11778343Y-9675586D01*
X11783181Y-9668329D01*
X11788019Y-9653814D01*
X11788019Y-9639300D01*
X11783181Y-9624786D01*
X11778343Y-9617529D01*
X11768667Y-9610271D01*
X11749314Y-9603014D01*
X11739638Y-9595757D01*
X11734800Y-9588500D01*
X11729962Y-9573986D01*
X11729962Y-9559471D01*
X11734800Y-9544957D01*
X11739638Y-9537700D01*
X11749314Y-9530443D01*
X11773505Y-9530443D01*
X11788019Y-9537700D01*
X11817048Y-9581243D02*
X11855752Y-9581243D01*
X11831562Y-9530443D02*
X11831562Y-9661071D01*
X11836400Y-9675586D01*
X11846076Y-9682843D01*
X11855752Y-9682843D01*
X10664372Y-9631136D02*
X10741781Y-9631136D01*
X10703076Y-9689193D02*
X10703076Y-9573079D01*
X10838543Y-9536793D02*
X10790162Y-9536793D01*
X10785324Y-9609364D01*
X10790162Y-9602107D01*
X10799838Y-9594850D01*
X10824029Y-9594850D01*
X10833705Y-9602107D01*
X10838543Y-9609364D01*
X10843381Y-9623879D01*
X10843381Y-9660164D01*
X10838543Y-9674679D01*
X10833705Y-9681936D01*
X10824029Y-9689193D01*
X10799838Y-9689193D01*
X10790162Y-9681936D01*
X10785324Y-9674679D01*
X10872410Y-9536793D02*
X10906276Y-9689193D01*
X10940143Y-9536793D01*
X10260693Y-9655629D02*
X10108293Y-9655629D01*
X10159093Y-9607248D02*
X10260693Y-9607248D01*
X10173607Y-9607248D02*
X10166350Y-9602409D01*
X10159093Y-9592733D01*
X10159093Y-9578219D01*
X10166350Y-9568543D01*
X10180864Y-9563705D01*
X10260693Y-9563705D01*
X10108293Y-9529838D02*
X10108293Y-9471781D01*
X10260693Y-9500809D02*
X10108293Y-9500809D01*
X10260693Y-9437914D02*
X10108293Y-9437914D01*
X10260693Y-9394371D02*
X10180864Y-9394371D01*
X10166350Y-9399210D01*
X10159093Y-9408886D01*
X10159093Y-9423400D01*
X10166350Y-9433076D01*
X10173607Y-9437914D01*
X10006693Y-9654721D02*
X9854293Y-9654721D01*
X9905093Y-9606340D02*
X10006693Y-9606340D01*
X9919607Y-9606340D02*
X9912350Y-9601502D01*
X9905093Y-9591826D01*
X9905093Y-9577312D01*
X9912350Y-9567636D01*
X9926864Y-9562798D01*
X10006693Y-9562798D01*
X9999436Y-9519255D02*
X10006693Y-9504740D01*
X10006693Y-9480550D01*
X9999436Y-9470874D01*
X9992179Y-9466036D01*
X9977664Y-9461198D01*
X9963150Y-9461198D01*
X9948636Y-9466036D01*
X9941379Y-9470874D01*
X9934121Y-9480550D01*
X9926864Y-9499902D01*
X9919607Y-9509579D01*
X9912350Y-9514417D01*
X9897836Y-9519255D01*
X9883321Y-9519255D01*
X9868807Y-9514417D01*
X9861550Y-9509579D01*
X9854293Y-9499902D01*
X9854293Y-9475712D01*
X9861550Y-9461198D01*
X9905093Y-9432169D02*
X9905093Y-9393464D01*
X9854293Y-9417655D02*
X9984921Y-9417655D01*
X9999436Y-9412817D01*
X10006693Y-9403140D01*
X10006693Y-9393464D01*
X13872029Y-10645926D02*
X13879286Y-10650764D01*
X13886543Y-10665279D01*
X13886543Y-10674955D01*
X13879286Y-10689469D01*
X13864771Y-10699145D01*
X13850257Y-10703983D01*
X13821229Y-10708821D01*
X13799457Y-10708821D01*
X13770429Y-10703983D01*
X13755914Y-10699145D01*
X13741400Y-10689469D01*
X13734143Y-10674955D01*
X13734143Y-10665279D01*
X13741400Y-10650764D01*
X13748657Y-10645926D01*
X13886543Y-10544326D02*
X13813971Y-10578193D01*
X13886543Y-10602383D02*
X13734143Y-10602383D01*
X13734143Y-10563679D01*
X13741400Y-10554002D01*
X13748657Y-10549164D01*
X13763171Y-10544326D01*
X13784943Y-10544326D01*
X13799457Y-10549164D01*
X13806714Y-10554002D01*
X13813971Y-10563679D01*
X13813971Y-10602383D01*
X13886543Y-10447564D02*
X13886543Y-10505621D01*
X13886543Y-10476593D02*
X13734143Y-10476593D01*
X13755914Y-10486269D01*
X13770429Y-10495945D01*
X13777686Y-10505621D01*
X13748657Y-10408860D02*
X13741400Y-10404021D01*
X13734143Y-10394345D01*
X13734143Y-10370155D01*
X13741400Y-10360479D01*
X13748657Y-10355641D01*
X13763171Y-10350802D01*
X13777686Y-10350802D01*
X13799457Y-10355641D01*
X13886543Y-10413698D01*
X13886543Y-10350802D01*
X13748657Y-10312098D02*
X13741400Y-10307260D01*
X13734143Y-10297583D01*
X13734143Y-10273393D01*
X13741400Y-10263717D01*
X13748657Y-10258879D01*
X13763171Y-10254041D01*
X13777686Y-10254041D01*
X13799457Y-10258879D01*
X13886543Y-10316936D01*
X13886543Y-10254041D01*
X13734143Y-10162117D02*
X13734143Y-10210498D01*
X13806714Y-10215336D01*
X13799457Y-10210498D01*
X13792200Y-10200821D01*
X13792200Y-10176631D01*
X13799457Y-10166955D01*
X13806714Y-10162117D01*
X13821229Y-10157279D01*
X13857514Y-10157279D01*
X13872029Y-10162117D01*
X13879286Y-10166955D01*
X13886543Y-10176631D01*
X13886543Y-10200821D01*
X13879286Y-10210498D01*
X13872029Y-10215336D01*
X13120914Y-6716486D02*
X13198324Y-6716486D01*
X13159619Y-6774543D02*
X13159619Y-6658429D01*
X13295086Y-6622143D02*
X13246705Y-6622143D01*
X13241867Y-6694714D01*
X13246705Y-6687457D01*
X13256381Y-6680200D01*
X13280571Y-6680200D01*
X13290248Y-6687457D01*
X13295086Y-6694714D01*
X13299924Y-6709229D01*
X13299924Y-6745514D01*
X13295086Y-6760029D01*
X13290248Y-6767286D01*
X13280571Y-6774543D01*
X13256381Y-6774543D01*
X13246705Y-6767286D01*
X13241867Y-6760029D01*
X13642590Y-6626543D02*
X13700648Y-6626543D01*
X13671619Y-6778943D02*
X13671619Y-6626543D01*
X13787733Y-6778943D02*
X13729676Y-6778943D01*
X13758705Y-6778943D02*
X13758705Y-6626543D01*
X13749029Y-6648314D01*
X13739352Y-6662829D01*
X13729676Y-6670086D01*
X13453067Y-6778943D02*
X13419200Y-6706371D01*
X13395010Y-6778943D02*
X13395010Y-6626543D01*
X13433714Y-6626543D01*
X13443390Y-6633800D01*
X13448229Y-6641057D01*
X13453067Y-6655571D01*
X13453067Y-6677343D01*
X13448229Y-6691857D01*
X13443390Y-6699114D01*
X13433714Y-6706371D01*
X13395010Y-6706371D01*
X13549829Y-6778943D02*
X13491771Y-6778943D01*
X13520800Y-6778943D02*
X13520800Y-6626543D01*
X13511124Y-6648314D01*
X13501448Y-6662829D01*
X13491771Y-6670086D01*
X13643429Y-7543800D02*
X13691809Y-7543800D01*
X13633752Y-7587343D02*
X13667619Y-7434943D01*
X13701486Y-7587343D01*
X13740190Y-7587343D02*
X13759543Y-7587343D01*
X13769219Y-7580086D01*
X13774057Y-7572829D01*
X13783733Y-7551057D01*
X13788571Y-7522029D01*
X13788571Y-7463971D01*
X13783733Y-7449457D01*
X13778895Y-7442200D01*
X13769219Y-7434943D01*
X13749867Y-7434943D01*
X13740190Y-7442200D01*
X13735352Y-7449457D01*
X13730514Y-7463971D01*
X13730514Y-7500257D01*
X13735352Y-7514771D01*
X13740190Y-7522029D01*
X13749867Y-7529286D01*
X13769219Y-7529286D01*
X13778895Y-7522029D01*
X13783733Y-7514771D01*
X13788571Y-7500257D01*
X13389429Y-7543800D02*
X13437809Y-7543800D01*
X13379752Y-7587343D02*
X13413619Y-7434943D01*
X13447486Y-7587343D01*
X13495867Y-7500257D02*
X13486190Y-7493000D01*
X13481352Y-7485743D01*
X13476514Y-7471229D01*
X13476514Y-7463971D01*
X13481352Y-7449457D01*
X13486190Y-7442200D01*
X13495867Y-7434943D01*
X13515219Y-7434943D01*
X13524895Y-7442200D01*
X13529733Y-7449457D01*
X13534571Y-7463971D01*
X13534571Y-7471229D01*
X13529733Y-7485743D01*
X13524895Y-7493000D01*
X13515219Y-7500257D01*
X13495867Y-7500257D01*
X13486190Y-7507514D01*
X13481352Y-7514771D01*
X13476514Y-7529286D01*
X13476514Y-7558314D01*
X13481352Y-7572829D01*
X13486190Y-7580086D01*
X13495867Y-7587343D01*
X13515219Y-7587343D01*
X13524895Y-7580086D01*
X13529733Y-7572829D01*
X13534571Y-7558314D01*
X13534571Y-7529286D01*
X13529733Y-7514771D01*
X13524895Y-7507514D01*
X13515219Y-7500257D01*
X13120914Y-7529286D02*
X13198324Y-7529286D01*
X13159619Y-7587343D02*
X13159619Y-7471229D01*
X13295086Y-7434943D02*
X13246705Y-7434943D01*
X13241867Y-7507514D01*
X13246705Y-7500257D01*
X13256381Y-7493000D01*
X13280571Y-7493000D01*
X13290248Y-7500257D01*
X13295086Y-7507514D01*
X13299924Y-7522029D01*
X13299924Y-7558314D01*
X13295086Y-7572829D01*
X13290248Y-7580086D01*
X13280571Y-7587343D01*
X13256381Y-7587343D01*
X13246705Y-7580086D01*
X13241867Y-7572829D01*
X12915295Y-7529286D02*
X12992705Y-7529286D01*
X12915295Y-6716486D02*
X12992705Y-6716486D01*
X12692743Y-6760029D02*
X12687905Y-6767286D01*
X12673390Y-6774543D01*
X12663714Y-6774543D01*
X12649200Y-6767286D01*
X12639524Y-6752771D01*
X12634686Y-6738257D01*
X12629848Y-6709229D01*
X12629848Y-6687457D01*
X12634686Y-6658429D01*
X12639524Y-6643914D01*
X12649200Y-6629400D01*
X12663714Y-6622143D01*
X12673390Y-6622143D01*
X12687905Y-6629400D01*
X12692743Y-6636657D01*
X12721771Y-6622143D02*
X12779829Y-6622143D01*
X12750800Y-6774543D02*
X12750800Y-6622143D01*
X12426648Y-6760029D02*
X12421809Y-6767286D01*
X12407295Y-6774543D01*
X12397619Y-6774543D01*
X12383105Y-6767286D01*
X12373429Y-6752771D01*
X12368590Y-6738257D01*
X12363752Y-6709229D01*
X12363752Y-6687457D01*
X12368590Y-6658429D01*
X12373429Y-6643914D01*
X12383105Y-6629400D01*
X12397619Y-6622143D01*
X12407295Y-6622143D01*
X12421809Y-6629400D01*
X12426648Y-6636657D01*
X12528248Y-6774543D02*
X12494381Y-6701971D01*
X12470190Y-6774543D02*
X12470190Y-6622143D01*
X12508895Y-6622143D01*
X12518571Y-6629400D01*
X12523409Y-6636657D01*
X12528248Y-6651171D01*
X12528248Y-6672943D01*
X12523409Y-6687457D01*
X12518571Y-6694714D01*
X12508895Y-6701971D01*
X12470190Y-6701971D01*
X12423067Y-7588943D02*
X12389200Y-7516371D01*
X12365010Y-7588943D02*
X12365010Y-7436543D01*
X12403714Y-7436543D01*
X12413390Y-7443800D01*
X12418229Y-7451057D01*
X12423067Y-7465571D01*
X12423067Y-7487343D01*
X12418229Y-7501857D01*
X12413390Y-7509114D01*
X12403714Y-7516371D01*
X12365010Y-7516371D01*
X12461771Y-7451057D02*
X12466610Y-7443800D01*
X12476286Y-7436543D01*
X12500476Y-7436543D01*
X12510152Y-7443800D01*
X12514990Y-7451057D01*
X12519829Y-7465571D01*
X12519829Y-7480086D01*
X12514990Y-7501857D01*
X12456933Y-7588943D01*
X12519829Y-7588943D01*
X12632590Y-7436543D02*
X12690648Y-7436543D01*
X12661619Y-7588943D02*
X12661619Y-7436543D01*
X12719676Y-7451057D02*
X12724514Y-7443800D01*
X12734190Y-7436543D01*
X12758381Y-7436543D01*
X12768057Y-7443800D01*
X12772895Y-7451057D01*
X12777733Y-7465571D01*
X12777733Y-7480086D01*
X12772895Y-7501857D01*
X12714838Y-7588943D01*
X12777733Y-7588943D01*
X12104914Y-7529286D02*
X12182324Y-7529286D01*
X12143619Y-7587343D02*
X12143619Y-7471229D01*
X12279086Y-7434943D02*
X12230705Y-7434943D01*
X12225867Y-7507514D01*
X12230705Y-7500257D01*
X12240381Y-7493000D01*
X12264571Y-7493000D01*
X12274248Y-7500257D01*
X12279086Y-7507514D01*
X12283924Y-7522029D01*
X12283924Y-7558314D01*
X12279086Y-7572829D01*
X12274248Y-7580086D01*
X12264571Y-7587343D01*
X12240381Y-7587343D01*
X12230705Y-7580086D01*
X12225867Y-7572829D01*
X12104914Y-6716486D02*
X12182324Y-6716486D01*
X12143619Y-6774543D02*
X12143619Y-6658429D01*
X12279086Y-6622143D02*
X12230705Y-6622143D01*
X12225867Y-6694714D01*
X12230705Y-6687457D01*
X12240381Y-6680200D01*
X12264571Y-6680200D01*
X12274248Y-6687457D01*
X12279086Y-6694714D01*
X12283924Y-6709229D01*
X12283924Y-6745514D01*
X12279086Y-6760029D01*
X12274248Y-6767286D01*
X12264571Y-6774543D01*
X12240381Y-6774543D01*
X12230705Y-6767286D01*
X12225867Y-6760029D01*
X11899295Y-7529286D02*
X11976705Y-7529286D01*
X11899295Y-6716486D02*
X11976705Y-6716486D01*
X11360171Y-6801686D02*
X11374686Y-6808943D01*
X11398876Y-6808943D01*
X11408552Y-6801686D01*
X11413390Y-6794429D01*
X11418229Y-6779914D01*
X11418229Y-6765400D01*
X11413390Y-6750886D01*
X11408552Y-6743629D01*
X11398876Y-6736371D01*
X11379524Y-6729114D01*
X11369848Y-6721857D01*
X11365010Y-6714600D01*
X11360171Y-6700086D01*
X11360171Y-6685571D01*
X11365010Y-6671057D01*
X11369848Y-6663800D01*
X11379524Y-6656543D01*
X11403714Y-6656543D01*
X11418229Y-6663800D01*
X11461771Y-6808943D02*
X11461771Y-6656543D01*
X11485962Y-6656543D01*
X11500476Y-6663800D01*
X11510152Y-6678314D01*
X11514990Y-6692829D01*
X11519829Y-6721857D01*
X11519829Y-6743629D01*
X11514990Y-6772657D01*
X11510152Y-6787171D01*
X11500476Y-6801686D01*
X11485962Y-6808943D01*
X11461771Y-6808943D01*
X11100172Y-6801686D02*
X11114686Y-6808943D01*
X11138876Y-6808943D01*
X11148552Y-6801686D01*
X11153391Y-6794429D01*
X11158229Y-6779914D01*
X11158229Y-6765400D01*
X11153391Y-6750886D01*
X11148552Y-6743629D01*
X11138876Y-6736371D01*
X11119524Y-6729114D01*
X11109848Y-6721857D01*
X11105010Y-6714600D01*
X11100172Y-6700086D01*
X11100172Y-6685571D01*
X11105010Y-6671057D01*
X11109848Y-6663800D01*
X11119524Y-6656543D01*
X11143714Y-6656543D01*
X11158229Y-6663800D01*
X11259829Y-6794429D02*
X11254990Y-6801686D01*
X11240476Y-6808943D01*
X11230800Y-6808943D01*
X11216286Y-6801686D01*
X11206610Y-6787171D01*
X11201771Y-6772657D01*
X11196933Y-6743629D01*
X11196933Y-6721857D01*
X11201771Y-6692829D01*
X11206610Y-6678314D01*
X11216286Y-6663800D01*
X11230800Y-6656543D01*
X11240476Y-6656543D01*
X11254990Y-6663800D01*
X11259829Y-6671057D01*
X10621295Y-6750886D02*
X10698705Y-6750886D01*
X10832914Y-6750886D02*
X10910324Y-6750886D01*
X10871619Y-6808943D02*
X10871619Y-6692829D01*
X10949029Y-6656543D02*
X11011924Y-6656543D01*
X10978057Y-6714600D01*
X10992571Y-6714600D01*
X11002248Y-6721857D01*
X11007086Y-6729114D01*
X11011924Y-6743629D01*
X11011924Y-6779914D01*
X11007086Y-6794429D01*
X11002248Y-6801686D01*
X10992571Y-6808943D01*
X10963543Y-6808943D01*
X10953867Y-6801686D01*
X10949029Y-6794429D01*
X11163067Y-7568943D02*
X11129200Y-7496371D01*
X11105010Y-7568943D02*
X11105010Y-7416543D01*
X11143714Y-7416543D01*
X11153391Y-7423800D01*
X11158229Y-7431057D01*
X11163067Y-7445571D01*
X11163067Y-7467343D01*
X11158229Y-7481857D01*
X11153391Y-7489114D01*
X11143714Y-7496371D01*
X11105010Y-7496371D01*
X11196933Y-7416543D02*
X11259829Y-7416543D01*
X11225962Y-7474600D01*
X11240476Y-7474600D01*
X11250152Y-7481857D01*
X11254990Y-7489114D01*
X11259829Y-7503629D01*
X11259829Y-7539914D01*
X11254990Y-7554429D01*
X11250152Y-7561686D01*
X11240476Y-7568943D01*
X11211448Y-7568943D01*
X11201771Y-7561686D01*
X11196933Y-7554429D01*
X11372590Y-7416543D02*
X11430648Y-7416543D01*
X11401619Y-7568943D02*
X11401619Y-7416543D01*
X11454838Y-7416543D02*
X11517733Y-7416543D01*
X11483867Y-7474600D01*
X11498381Y-7474600D01*
X11508057Y-7481857D01*
X11512895Y-7489114D01*
X11517733Y-7503629D01*
X11517733Y-7539914D01*
X11512895Y-7554429D01*
X11508057Y-7561686D01*
X11498381Y-7568943D01*
X11469352Y-7568943D01*
X11459676Y-7561686D01*
X11454838Y-7554429D01*
X10832914Y-7510886D02*
X10910324Y-7510886D01*
X10871619Y-7568943D02*
X10871619Y-7452829D01*
X10949029Y-7416543D02*
X11011924Y-7416543D01*
X10978057Y-7474600D01*
X10992571Y-7474600D01*
X11002248Y-7481857D01*
X11007086Y-7489114D01*
X11011924Y-7503629D01*
X11011924Y-7539914D01*
X11007086Y-7554429D01*
X11002248Y-7561686D01*
X10992571Y-7568943D01*
X10963543Y-7568943D01*
X10953867Y-7561686D01*
X10949029Y-7554429D01*
X10621295Y-7510886D02*
X10698705Y-7510886D01*
X9535981Y-7581686D02*
X9550495Y-7588943D01*
X9574686Y-7588943D01*
X9584362Y-7581686D01*
X9589200Y-7574429D01*
X9594038Y-7559914D01*
X9594038Y-7545400D01*
X9589200Y-7530886D01*
X9584362Y-7523629D01*
X9574686Y-7516371D01*
X9555333Y-7509114D01*
X9545657Y-7501857D01*
X9540819Y-7494600D01*
X9535981Y-7480086D01*
X9535981Y-7465571D01*
X9540819Y-7451057D01*
X9545657Y-7443800D01*
X9555333Y-7436543D01*
X9579524Y-7436543D01*
X9594038Y-7443800D01*
X9676286Y-7581686D02*
X9666610Y-7588943D01*
X9647257Y-7588943D01*
X9637581Y-7581686D01*
X9632743Y-7567171D01*
X9632743Y-7509114D01*
X9637581Y-7494600D01*
X9647257Y-7487343D01*
X9666610Y-7487343D01*
X9676286Y-7494600D01*
X9681124Y-7509114D01*
X9681124Y-7523629D01*
X9632743Y-7538143D01*
X9724667Y-7588943D02*
X9724667Y-7487343D01*
X9724667Y-7516371D02*
X9729505Y-7501857D01*
X9734343Y-7494600D01*
X9744019Y-7487343D01*
X9753695Y-7487343D01*
X10060819Y-7588943D02*
X10060819Y-7436543D01*
X10104362Y-7451057D02*
X10109200Y-7443800D01*
X10118876Y-7436543D01*
X10143067Y-7436543D01*
X10152743Y-7443800D01*
X10157581Y-7451057D01*
X10162419Y-7465571D01*
X10162419Y-7480086D01*
X10157581Y-7501857D01*
X10099524Y-7588943D01*
X10162419Y-7588943D01*
X10264019Y-7574429D02*
X10259181Y-7581686D01*
X10244667Y-7588943D01*
X10234991Y-7588943D01*
X10220476Y-7581686D01*
X10210800Y-7567171D01*
X10205962Y-7552657D01*
X10201124Y-7523629D01*
X10201124Y-7501857D01*
X10205962Y-7472829D01*
X10210800Y-7458314D01*
X10220476Y-7443800D01*
X10234991Y-7436543D01*
X10244667Y-7436543D01*
X10259181Y-7443800D01*
X10264019Y-7451057D01*
D18*
X9259048Y-11382633D02*
X9283238Y-11382633D01*
X9295333Y-11391100D01*
X9307429Y-11408033D01*
X9313476Y-11441900D01*
X9313476Y-11501167D01*
X9307429Y-11535033D01*
X9295333Y-11551967D01*
X9283238Y-11560433D01*
X9259048Y-11560433D01*
X9246952Y-11551967D01*
X9234857Y-11535033D01*
X9228810Y-11501167D01*
X9228810Y-11441900D01*
X9234857Y-11408033D01*
X9246952Y-11391100D01*
X9259048Y-11382633D01*
X9410238Y-11467300D02*
X9367905Y-11467300D01*
X9367905Y-11560433D02*
X9367905Y-11382633D01*
X9428381Y-11382633D01*
X9519095Y-11467300D02*
X9476762Y-11467300D01*
X9476762Y-11560433D02*
X9476762Y-11382633D01*
X9537238Y-11382633D01*
X8561381Y-11382633D02*
X8585571Y-11382633D01*
X8597667Y-11391100D01*
X8609762Y-11408033D01*
X8615810Y-11441900D01*
X8615810Y-11501167D01*
X8609762Y-11535033D01*
X8597667Y-11551967D01*
X8585571Y-11560433D01*
X8561381Y-11560433D01*
X8549286Y-11551967D01*
X8537191Y-11535033D01*
X8531143Y-11501167D01*
X8531143Y-11441900D01*
X8537191Y-11408033D01*
X8549286Y-11391100D01*
X8561381Y-11382633D01*
X8670238Y-11560433D02*
X8670238Y-11382633D01*
X8742810Y-11560433D01*
X8742810Y-11382633D01*
D19*
X11379200Y-6038500D02*
X13163200Y-6038500D01*
X11252200Y-6038500D02*
X11119200Y-6038500D01*
X11119200Y-6038500D02*
X11119200Y-5905500D01*
X8572500Y-6038500D02*
X9340500Y-6038500D01*
X8445500Y-6038500D02*
X8312500Y-6038500D01*
X8312500Y-6038500D02*
X8312500Y-5905500D01*
D20*
X8743400Y-6324600D02*
X8946600Y-6324600D01*
X8946600Y-6324600D02*
X8946600Y-6121400D01*
X8946600Y-6121400D02*
X8743400Y-6121400D01*
X8743400Y-6121400D02*
X8743400Y-6324600D01*
X9251400Y-6578600D02*
X9454600Y-6578600D01*
X9454600Y-6578600D02*
X9454600Y-6375400D01*
X9454600Y-6375400D02*
X9251400Y-6375400D01*
X9251400Y-6375400D02*
X9251400Y-6578600D01*
X9759400Y-6324600D02*
X9962600Y-6324600D01*
X9962600Y-6324600D02*
X9962600Y-6121400D01*
X9962600Y-6121400D02*
X9759400Y-6121400D01*
X9759400Y-6121400D02*
X9759400Y-6324600D01*
X10521400Y-6324600D02*
X10724600Y-6324600D01*
X10724600Y-6324600D02*
X10724600Y-6121400D01*
X10724600Y-6121400D02*
X10521400Y-6121400D01*
X10521400Y-6121400D02*
X10521400Y-6324600D01*
X11486600Y-6578600D02*
X11486600Y-6375400D01*
X11486600Y-6375400D02*
X11283400Y-6375400D01*
X11283400Y-6375400D02*
X11283400Y-6578600D01*
X11283400Y-6578600D02*
X11486600Y-6578600D01*
X11994600Y-6324600D02*
X11994600Y-6121400D01*
X11994600Y-6121400D02*
X11791400Y-6121400D01*
X11791400Y-6121400D02*
X11791400Y-6324600D01*
X11791400Y-6324600D02*
X11994600Y-6324600D01*
X12502600Y-6324600D02*
X12502600Y-6121400D01*
X12502600Y-6121400D02*
X12299400Y-6121400D01*
X12299400Y-6121400D02*
X12299400Y-6324600D01*
X12299400Y-6324600D02*
X12502600Y-6324600D01*
X13061400Y-6578600D02*
X13061400Y-6375400D01*
X13061400Y-6375400D02*
X13264600Y-6375400D01*
X13264600Y-6375400D02*
X13264600Y-6578600D01*
X13264600Y-6578600D02*
X13061400Y-6578600D01*
D21*
X9473184Y-8491982D02*
X9653016Y-8491982D01*
X9653016Y-8491982D02*
X9653016Y-8132318D01*
X9653016Y-8132318D02*
X9473184Y-8132318D01*
X9473184Y-8132318D02*
X9473184Y-8491982D01*
X7664704Y-7148068D02*
X7664704Y-6928104D01*
X7664704Y-6928104D02*
X8224520Y-6928104D01*
X8224520Y-6928104D02*
X8324596Y-7028180D01*
X8324596Y-7028180D02*
X8324596Y-7148068D01*
X7664704Y-7368032D02*
X7664704Y-7587996D01*
X7664704Y-7587996D02*
X8224520Y-7587996D01*
X8224520Y-7587996D02*
X8324596Y-7487920D01*
X8324596Y-7487920D02*
X8324596Y-7368032D01*
X8144510Y-7058152D02*
X8244586Y-7058152D01*
X8194548Y-7108190D02*
X8194548Y-7008114D01*
D20*
X9530000Y-8830000D02*
X9190000Y-8830000D01*
X9210000Y-8710000D02*
X9130000Y-8710000D01*
X9210000Y-8700000D02*
X9130000Y-8700000D01*
X9210000Y-8690000D02*
X9130000Y-8690000D01*
X9210000Y-8680000D02*
X9130000Y-8680000D01*
X9210000Y-8670000D02*
X9130000Y-8670000D01*
X9210000Y-8660000D02*
X9130000Y-8660000D01*
X9210000Y-8650000D02*
X9210000Y-8720000D01*
X9210000Y-8720000D02*
X9130000Y-8720000D01*
X9130000Y-8720000D02*
X9130000Y-8650000D01*
X9130000Y-8650000D02*
X9210000Y-8650000D01*
X9535000Y-8840000D02*
X9185000Y-8840000D01*
X9535000Y-8815000D02*
X9185000Y-8815000D01*
X9360000Y-8890000D02*
X9460000Y-8990000D01*
X9460000Y-8990000D02*
X9260000Y-8990000D01*
X9260000Y-8990000D02*
X9360000Y-8890000D01*
X9235000Y-9165000D02*
X9185000Y-9165000D01*
X9185000Y-9165000D02*
X9185000Y-8715000D01*
X9185000Y-8715000D02*
X9235000Y-8715000D01*
X9485000Y-8715000D02*
X9535000Y-8715000D01*
X9535000Y-8715000D02*
X9535000Y-9165000D01*
X9535000Y-9165000D02*
X9485000Y-9165000D01*
D21*
X9615424Y-8515164D02*
X10094976Y-8515164D01*
X10094976Y-8515164D02*
X10094976Y-8684836D01*
X10094976Y-8684836D02*
X9615424Y-8684836D01*
X9615424Y-8684836D02*
X9615424Y-8515164D01*
X9820402Y-8600000D02*
X9870186Y-8570028D01*
X9870186Y-8570028D02*
X9870186Y-8629972D01*
X9870186Y-8629972D02*
X9820402Y-8600000D01*
X9575292Y-8515164D02*
X9615424Y-8515164D01*
X9615424Y-8515164D02*
X9615424Y-8684836D01*
X9615424Y-8684836D02*
X9575292Y-8684836D01*
X9575292Y-8684836D02*
X9575292Y-8515164D01*
D19*
X8215984Y-8561035D02*
G75*
G03X8216000Y-8711000I170016J-74965D01*
G01*
X8215984Y-8053035D02*
G75*
G03X8216000Y-8203000I170016J-74965D01*
G01*
X7558000Y-8898000D02*
X8299000Y-8898000D01*
X8299000Y-8898000D02*
X8299000Y-7866000D01*
X8299000Y-7866000D02*
X7558000Y-7866000D01*
X7558000Y-7866000D02*
X7558000Y-8898000D01*
X8216000Y-8711000D02*
X8216000Y-8786000D01*
X8216000Y-8786000D02*
X7786000Y-8786000D01*
X7786000Y-8786000D02*
X7786000Y-8711000D01*
X7786000Y-8711000D02*
X7751000Y-8711000D01*
X7751000Y-8711000D02*
X7751000Y-8761000D01*
X7751000Y-8761000D02*
X7651000Y-8786000D01*
X7651000Y-8786000D02*
X7651000Y-8486000D01*
X7651000Y-8486000D02*
X7751000Y-8511000D01*
X7751000Y-8511000D02*
X7751000Y-8561000D01*
X7751000Y-8561000D02*
X7786000Y-8561000D01*
X7786000Y-8561000D02*
X7786000Y-8486000D01*
X7786000Y-8486000D02*
X8216000Y-8486000D01*
X8216000Y-8486000D02*
X8216000Y-8561000D01*
X8216000Y-8203000D02*
X8216000Y-8278000D01*
X8216000Y-8278000D02*
X7786000Y-8278000D01*
X7786000Y-8278000D02*
X7786000Y-8203000D01*
X7786000Y-8203000D02*
X7751000Y-8203000D01*
X7751000Y-8203000D02*
X7751000Y-8253000D01*
X7751000Y-8253000D02*
X7651000Y-8278000D01*
X7651000Y-8278000D02*
X7651000Y-7978000D01*
X7651000Y-7978000D02*
X7751000Y-8003000D01*
X7751000Y-8003000D02*
X7751000Y-8053000D01*
X7751000Y-8053000D02*
X7786000Y-8053000D01*
X7786000Y-8053000D02*
X7786000Y-7978000D01*
X7786000Y-7978000D02*
X8216000Y-7978000D01*
X8216000Y-7978000D02*
X8216000Y-8053000D01*
X7641000Y-8940000D02*
X7516000Y-8940000D01*
X7516000Y-8940000D02*
X7516000Y-8740000D01*
X8215984Y-9704035D02*
G75*
G03X8216000Y-9854000I170016J-74965D01*
G01*
X8215984Y-9196035D02*
G75*
G03X8216000Y-9346000I170016J-74965D01*
G01*
X7558000Y-10041000D02*
X8299000Y-10041000D01*
X8299000Y-10041000D02*
X8299000Y-9009000D01*
X8299000Y-9009000D02*
X7558000Y-9009000D01*
X7558000Y-9009000D02*
X7558000Y-10041000D01*
X8216000Y-9854000D02*
X8216000Y-9929000D01*
X8216000Y-9929000D02*
X7786000Y-9929000D01*
X7786000Y-9929000D02*
X7786000Y-9854000D01*
X7786000Y-9854000D02*
X7751000Y-9854000D01*
X7751000Y-9854000D02*
X7751000Y-9904000D01*
X7751000Y-9904000D02*
X7651000Y-9929000D01*
X7651000Y-9929000D02*
X7651000Y-9629000D01*
X7651000Y-9629000D02*
X7751000Y-9654000D01*
X7751000Y-9654000D02*
X7751000Y-9704000D01*
X7751000Y-9704000D02*
X7786000Y-9704000D01*
X7786000Y-9704000D02*
X7786000Y-9629000D01*
X7786000Y-9629000D02*
X8216000Y-9629000D01*
X8216000Y-9629000D02*
X8216000Y-9704000D01*
X8216000Y-9346000D02*
X8216000Y-9421000D01*
X8216000Y-9421000D02*
X7786000Y-9421000D01*
X7786000Y-9421000D02*
X7786000Y-9346000D01*
X7786000Y-9346000D02*
X7751000Y-9346000D01*
X7751000Y-9346000D02*
X7751000Y-9396000D01*
X7751000Y-9396000D02*
X7651000Y-9421000D01*
X7651000Y-9421000D02*
X7651000Y-9121000D01*
X7651000Y-9121000D02*
X7751000Y-9146000D01*
X7751000Y-9146000D02*
X7751000Y-9196000D01*
X7751000Y-9196000D02*
X7786000Y-9196000D01*
X7786000Y-9196000D02*
X7786000Y-9121000D01*
X7786000Y-9121000D02*
X8216000Y-9121000D01*
X8216000Y-9121000D02*
X8216000Y-9196000D01*
X7641000Y-10083000D02*
X7516000Y-10083000D01*
X7516000Y-10083000D02*
X7516000Y-9883000D01*
D20*
X10160000Y-6855000D02*
X10110000Y-6780000D01*
X10160000Y-6855000D02*
X10210000Y-6780000D01*
X10210000Y-7040000D02*
X10160000Y-6965000D01*
X10160000Y-6965000D02*
X10110000Y-7040000D01*
X10160000Y-7101450D02*
X10110000Y-7026450D01*
X10160000Y-7101450D02*
X10210000Y-7026450D01*
X10210000Y-7286450D02*
X10160000Y-7211450D01*
X10160000Y-7211450D02*
X10110000Y-7286450D01*
X9645650Y-6930000D02*
X9595650Y-6855000D01*
X9645650Y-6930000D02*
X9695650Y-6855000D01*
X9695650Y-7115000D02*
X9645650Y-7040000D01*
X9645650Y-7040000D02*
X9595650Y-7115000D01*
X9645650Y-7190350D02*
X9595650Y-7115350D01*
X9645650Y-7190350D02*
X9695650Y-7115350D01*
X9695650Y-7375350D02*
X9645650Y-7300350D01*
X9645650Y-7300350D02*
X9595650Y-7375350D01*
D19*
X11805000Y-6852000D02*
X11805000Y-7372000D01*
X13589000Y-6852000D02*
X11805000Y-6852000D01*
X13849000Y-7372000D02*
X11805000Y-7372000D01*
X13589000Y-6852000D02*
X13589000Y-7112000D01*
X13589000Y-7112000D02*
X13849000Y-7112000D01*
X13849000Y-7112000D02*
X13849000Y-7372000D01*
X13716000Y-6852000D02*
X13849000Y-6852000D01*
X13849000Y-6852000D02*
X13849000Y-6985000D01*
X10535000Y-6852000D02*
X10535000Y-7372000D01*
X11303000Y-6852000D02*
X10535000Y-6852000D01*
X11563000Y-7372000D02*
X10535000Y-7372000D01*
X11303000Y-6852000D02*
X11303000Y-7112000D01*
X11303000Y-7112000D02*
X11563000Y-7112000D01*
X11563000Y-7112000D02*
X11563000Y-7372000D01*
X11430000Y-6852000D02*
X11563000Y-6852000D01*
X11563000Y-6852000D02*
X11563000Y-6985000D01*
D20*
X11817600Y-9973000D02*
X11817600Y-9719000D01*
X11792200Y-9973000D02*
X11792200Y-9719000D01*
X11766800Y-9973000D02*
X11766800Y-9719000D01*
X11741400Y-9973000D02*
X11741400Y-9719000D01*
X11716000Y-9973000D02*
X11716000Y-9719000D01*
X11690600Y-9973000D02*
X11690600Y-9719000D01*
X11665200Y-9973000D02*
X11665200Y-9719000D01*
X11639800Y-9973000D02*
X11639800Y-9719000D01*
X11614400Y-9973000D02*
X11614400Y-9719000D01*
X11843000Y-9973000D02*
X11589000Y-9973000D01*
X11589000Y-9973000D02*
X11589000Y-9719000D01*
X11843000Y-10481000D02*
X9811000Y-10481000D01*
X9811000Y-10481000D02*
X9811000Y-9719000D01*
X9811000Y-9707000D02*
X11843000Y-9707000D01*
X11843000Y-9719000D02*
X11843000Y-10481000D01*
X8478400Y-8235600D02*
X8478400Y-8295600D01*
X8488400Y-8235600D02*
X8488400Y-8295600D01*
X8498400Y-8235600D02*
X8498400Y-8295600D01*
X8508400Y-8235600D02*
X8508400Y-8295600D01*
X8518400Y-8235600D02*
X8518400Y-8295600D01*
X8468400Y-8235600D02*
X8528400Y-8235600D01*
X8528400Y-8235600D02*
X8528400Y-8295600D01*
X8908400Y-7915600D02*
X8958400Y-7915600D01*
X8818400Y-7915600D02*
X8868400Y-7915600D01*
X8728400Y-7915600D02*
X8768400Y-7915600D01*
X8638400Y-7915600D02*
X8688400Y-7915600D01*
X8908400Y-7945600D02*
X8958400Y-7945600D01*
X8818400Y-7945600D02*
X8868400Y-7945600D01*
X8728400Y-7945600D02*
X8768400Y-7945600D01*
X8638400Y-7945600D02*
X8688400Y-7945600D01*
X8938400Y-8015600D02*
X8978400Y-8015600D01*
X8638400Y-8015600D02*
X8608400Y-8015600D01*
X8938400Y-8015600D02*
G75*
G03X8888400Y-7965600I-50000J0D01*
G01*
X8888400Y-7965600D02*
G75*
G03X8838400Y-8015600I0J-50000D01*
G01*
X8838400Y-8015600D02*
G75*
G03X8788400Y-7965600I-50000J0D01*
G01*
X8788400Y-7965600D02*
G75*
G03X8738400Y-8015600I0J-50000D01*
G01*
X8738400Y-8015600D02*
G75*
G03X8688400Y-7965600I-50000J0D01*
G01*
X8688400Y-7965600D02*
G75*
G03X8638400Y-8015600I0J-50000D01*
G01*
X9038400Y-8015600D02*
X8978400Y-8015600D01*
X8538400Y-8015600D02*
X8608400Y-8015600D01*
X8468400Y-7655600D02*
X9108400Y-7655600D01*
X9108400Y-7655600D02*
X9108400Y-8295600D01*
X9108400Y-8295600D02*
X8468400Y-8295600D01*
X8468400Y-8295600D02*
X8468400Y-7655600D01*
D21*
X9444482Y-10688066D02*
X9444482Y-10508234D01*
X9444482Y-10508234D02*
X9084818Y-10508234D01*
X9084818Y-10508234D02*
X9084818Y-10688066D01*
X9084818Y-10688066D02*
X9444482Y-10688066D01*
X10726166Y-11212068D02*
X10546334Y-11212068D01*
X10546334Y-11212068D02*
X10546334Y-11571732D01*
X10546334Y-11571732D02*
X10726166Y-11571732D01*
X10726166Y-11571732D02*
X10726166Y-11212068D01*
X10336784Y-11571732D02*
X10516616Y-11571732D01*
X10516616Y-11571732D02*
X10516616Y-11212068D01*
X10516616Y-11212068D02*
X10336784Y-11212068D01*
X10336784Y-11212068D02*
X10336784Y-11571732D01*
X10060432Y-8427466D02*
X10060432Y-8247634D01*
X10060432Y-8247634D02*
X9700768Y-8247634D01*
X9700768Y-8247634D02*
X9700768Y-8427466D01*
X9700768Y-8427466D02*
X10060432Y-8427466D01*
X10115804Y-8007350D02*
X10115804Y-7867650D01*
X10115804Y-7867650D02*
X9835896Y-7867650D01*
X9835896Y-7867650D02*
X9835896Y-8007350D01*
X9835896Y-8007350D02*
X10115804Y-8007350D01*
X9545066Y-10756392D02*
X9545066Y-11316208D01*
X9545066Y-11316208D02*
X9225534Y-11316208D01*
X9225534Y-11316208D02*
X9225534Y-10756392D01*
X9225534Y-10756392D02*
X9545066Y-10756392D01*
X9505188Y-10916412D02*
X9505188Y-11036300D01*
X9505188Y-11036300D02*
X9505188Y-11156188D01*
X9265412Y-10916412D02*
X9265412Y-11036300D01*
X9265412Y-11036300D02*
X9265412Y-11156188D01*
X9265412Y-11036300D02*
X9325356Y-11036300D01*
X9505188Y-11036300D02*
X9445244Y-11036300D01*
X9325356Y-11036300D02*
X9425178Y-10996422D01*
X8795766Y-10762742D02*
X8795766Y-11322558D01*
X8795766Y-11322558D02*
X8476234Y-11322558D01*
X8476234Y-11322558D02*
X8476234Y-10762742D01*
X8476234Y-10762742D02*
X8795766Y-10762742D01*
X8755888Y-10922762D02*
X8755888Y-11042650D01*
X8755888Y-11042650D02*
X8755888Y-11162538D01*
X8516112Y-10922762D02*
X8516112Y-11042650D01*
X8516112Y-11042650D02*
X8516112Y-11162538D01*
X8516112Y-11042650D02*
X8576056Y-11042650D01*
X8755888Y-11042650D02*
X8695944Y-11042650D01*
X8576056Y-11042650D02*
X8675878Y-11002772D01*
D20*
X13856000Y-7698000D02*
X10324000Y-7698000D01*
X10324000Y-7698000D02*
X10324000Y-9522000D01*
X10324000Y-9522000D02*
X13856000Y-9522000D01*
X13856000Y-9522000D02*
X13856000Y-8914000D01*
X13856000Y-8914000D02*
X13811000Y-8914000D01*
X13811000Y-8914000D02*
X13811000Y-8306000D01*
X13811000Y-8306000D02*
X13856000Y-8306000D01*
X13856000Y-8306000D02*
X13856000Y-7698000D01*
D21*
X10200132Y-11558016D02*
X10200132Y-11238484D01*
X10200132Y-11238484D02*
X9840468Y-11238484D01*
X9840468Y-11238484D02*
X9840468Y-11558016D01*
X9840468Y-11558016D02*
X10200132Y-11558016D01*
X10180066Y-11618214D02*
X10179558Y-11623294D01*
X10179558Y-11623294D02*
X10177526Y-11628120D01*
X10177526Y-11628120D02*
X10174224Y-11632184D01*
X10174224Y-11632184D02*
X10170160Y-11635486D01*
X10170160Y-11635486D02*
X10165334Y-11637518D01*
X10165334Y-11637518D02*
X10160254Y-11638026D01*
X10160254Y-11638026D02*
X10154920Y-11637518D01*
X10154920Y-11637518D02*
X10150094Y-11635486D01*
X10150094Y-11635486D02*
X10146030Y-11632184D01*
X10146030Y-11632184D02*
X10142728Y-11628120D01*
X10142728Y-11628120D02*
X10140950Y-11623294D01*
X10140950Y-11623294D02*
X10140188Y-11618214D01*
X10140188Y-11618214D02*
X10140950Y-11612880D01*
X10140950Y-11612880D02*
X10142728Y-11608054D01*
X10142728Y-11608054D02*
X10146030Y-11603990D01*
X10146030Y-11603990D02*
X10150094Y-11600688D01*
X10150094Y-11600688D02*
X10154920Y-11598910D01*
X10154920Y-11598910D02*
X10160254Y-11598148D01*
X10160254Y-11598148D02*
X10165334Y-11598910D01*
X10165334Y-11598910D02*
X10170160Y-11600688D01*
X10170160Y-11600688D02*
X10174224Y-11603990D01*
X10174224Y-11603990D02*
X10177526Y-11608054D01*
X10177526Y-11608054D02*
X10179558Y-11612880D01*
X10179558Y-11612880D02*
X10180066Y-11618214D01*
X8966454Y-10668000D02*
X8966454Y-10528300D01*
X8966454Y-10528300D02*
X8686546Y-10528300D01*
X8686546Y-10528300D02*
X8686546Y-10668000D01*
X8686546Y-10668000D02*
X8966454Y-10668000D01*
X10813796Y-11417300D02*
X10813796Y-11557000D01*
X10813796Y-11557000D02*
X11093704Y-11557000D01*
X11093704Y-11557000D02*
X11093704Y-11417300D01*
X11093704Y-11417300D02*
X10813796Y-11417300D01*
X9194546Y-6915150D02*
X9194546Y-7054850D01*
X9194546Y-7054850D02*
X9474454Y-7054850D01*
X9474454Y-7054850D02*
X9474454Y-6915150D01*
X9474454Y-6915150D02*
X9194546Y-6915150D01*
X9194546Y-7175500D02*
X9194546Y-7315200D01*
X9194546Y-7315200D02*
X9474454Y-7315200D01*
X9474454Y-7315200D02*
X9474454Y-7175500D01*
X9474454Y-7175500D02*
X9194546Y-7175500D01*
X10439400Y-6845046D02*
X10299700Y-6845046D01*
X10299700Y-6845046D02*
X10299700Y-7124954D01*
X10299700Y-7124954D02*
X10439400Y-7124954D01*
X10439400Y-7124954D02*
X10439400Y-6845046D01*
X10001250Y-6851396D02*
X9861550Y-6851396D01*
X9861550Y-6851396D02*
X9861550Y-7131304D01*
X9861550Y-7131304D02*
X10001250Y-7131304D01*
X10001250Y-7131304D02*
X10001250Y-6851396D01*
X7930046Y-6730150D02*
X7930046Y-6869850D01*
X7930046Y-6869850D02*
X8209954Y-6869850D01*
X8209954Y-6869850D02*
X8209954Y-6730150D01*
X8209954Y-6730150D02*
X7930046Y-6730150D01*
X7600140Y-6725070D02*
X7600140Y-6874930D01*
X7600140Y-6874930D02*
X7899860Y-6874930D01*
X7899860Y-6874930D02*
X7899860Y-6725070D01*
X7899860Y-6725070D02*
X7600140Y-6725070D01*
X7600140Y-6725070D02*
X7580074Y-6725070D01*
X7580074Y-6725070D02*
X7580074Y-6874930D01*
X7580074Y-6874930D02*
X7600140Y-6874930D01*
X7600140Y-6874930D02*
X7600140Y-6725070D01*
X7735014Y-6800000D02*
X7764986Y-6770028D01*
X7764986Y-6770028D02*
X7764986Y-6829972D01*
X7764986Y-6829972D02*
X7735014Y-6800000D01*
X11790140Y-10655070D02*
X11790140Y-10804930D01*
X11790140Y-10804930D02*
X12089860Y-10804930D01*
X12089860Y-10804930D02*
X12089860Y-10655070D01*
X12089860Y-10655070D02*
X11790140Y-10655070D01*
X11790140Y-10655070D02*
X11770074Y-10655070D01*
X11770074Y-10655070D02*
X11770074Y-10804930D01*
X11770074Y-10804930D02*
X11790140Y-10804930D01*
X11790140Y-10804930D02*
X11790140Y-10655070D01*
X11925014Y-10730000D02*
X11954986Y-10700028D01*
X11954986Y-10700028D02*
X11954986Y-10759972D01*
X11954986Y-10759972D02*
X11925014Y-10730000D01*
D20*
X9069350Y-8851800D02*
X9069350Y-8809300D01*
X9081850Y-8851800D02*
X9081850Y-8809300D01*
X9056850Y-8854300D02*
X9056850Y-8806800D01*
X9044350Y-8854300D02*
X9094350Y-8854300D01*
X9094350Y-8854300D02*
X9094350Y-8804300D01*
X9094350Y-8804300D02*
X9044350Y-8804300D01*
X9044350Y-8804300D02*
X9044350Y-8854300D01*
X9019350Y-9454300D02*
X8519350Y-9454300D01*
X8519350Y-9454300D02*
X8519350Y-8804300D01*
X8519350Y-8804300D02*
X9019350Y-8804300D01*
X9019350Y-8804300D02*
X9019350Y-9454300D01*
D21*
X7614032Y-10225032D02*
X8625968Y-10225032D01*
X8625968Y-10225032D02*
X8625968Y-10474968D01*
X8625968Y-10474968D02*
X7614032Y-10474968D01*
X7614032Y-10474968D02*
X7614032Y-10225032D01*
X7548500Y-10540500D02*
X7612000Y-10540500D01*
X7612000Y-10540500D02*
X7675500Y-10477000D01*
X7675500Y-10477000D02*
X7612000Y-10413500D01*
X7612000Y-10413500D02*
X7548500Y-10477000D01*
X7548500Y-10477000D02*
X7548500Y-10540500D01*
D12*
X10988391Y-5962167D02*
X11045533Y-5962167D01*
X11056962Y-5965500D01*
X11064581Y-5972167D01*
X11068391Y-5982167D01*
X11068391Y-5988833D01*
X11068391Y-5892167D02*
X11068391Y-5932167D01*
X11068391Y-5912167D02*
X10988391Y-5912167D01*
X10999819Y-5918833D01*
X11007438Y-5925500D01*
X11011248Y-5932167D01*
X10996010Y-5865500D02*
X10992200Y-5862167D01*
X10988391Y-5855500D01*
X10988391Y-5838833D01*
X10992200Y-5832167D01*
X10996010Y-5828833D01*
X11003629Y-5825500D01*
X11011248Y-5825500D01*
X11022676Y-5828833D01*
X11068391Y-5868833D01*
X11068391Y-5825500D01*
X8196190Y-5956667D02*
X8253333Y-5956667D01*
X8264762Y-5960000D01*
X8272381Y-5966667D01*
X8276190Y-5976667D01*
X8276190Y-5983333D01*
X8276190Y-5886667D02*
X8276190Y-5926667D01*
X8276190Y-5906667D02*
X8196190Y-5906667D01*
X8207619Y-5913333D01*
X8215238Y-5920000D01*
X8219048Y-5926667D01*
X8276190Y-5820000D02*
X8276190Y-5860000D01*
X8276190Y-5840000D02*
X8196190Y-5840000D01*
X8207619Y-5846667D01*
X8215238Y-5853333D01*
X8219048Y-5860000D01*
D11*
X8263971Y-6649238D02*
X8206829Y-6649238D01*
X8235400Y-6649238D02*
X8235400Y-6549238D01*
X8225876Y-6563524D01*
X8216352Y-6573048D01*
X8206829Y-6577809D01*
D12*
X9434461Y-8249903D02*
X9438747Y-8253236D01*
X9443032Y-8263236D01*
X9443032Y-8269903D01*
X9438747Y-8279903D01*
X9430175Y-8286569D01*
X9421604Y-8289903D01*
X9404461Y-8293236D01*
X9391604Y-8293236D01*
X9374461Y-8289903D01*
X9365889Y-8286569D01*
X9357318Y-8279903D01*
X9353032Y-8269903D01*
X9353032Y-8263236D01*
X9357318Y-8253236D01*
X9361604Y-8249903D01*
X9353032Y-8226569D02*
X9353032Y-8179903D01*
X9443032Y-8209903D01*
X8356993Y-7631667D02*
X8361279Y-7635000D01*
X8365564Y-7645000D01*
X8365564Y-7651667D01*
X8361279Y-7661667D01*
X8352707Y-7668333D01*
X8344136Y-7671667D01*
X8326993Y-7675000D01*
X8314136Y-7675000D01*
X8296993Y-7671667D01*
X8288421Y-7668333D01*
X8279850Y-7661667D01*
X8275564Y-7651667D01*
X8275564Y-7645000D01*
X8279850Y-7635000D01*
X8284136Y-7631667D01*
X8314136Y-7591667D02*
X8309850Y-7598333D01*
X8305564Y-7601667D01*
X8296993Y-7605000D01*
X8292707Y-7605000D01*
X8284136Y-7601667D01*
X8279850Y-7598333D01*
X8275564Y-7591667D01*
X8275564Y-7578333D01*
X8279850Y-7571667D01*
X8284136Y-7568333D01*
X8292707Y-7565000D01*
X8296993Y-7565000D01*
X8305564Y-7568333D01*
X8309850Y-7571667D01*
X8314136Y-7578333D01*
X8314136Y-7591667D01*
X8318421Y-7598333D01*
X8322707Y-7601667D01*
X8331279Y-7605000D01*
X8348421Y-7605000D01*
X8356993Y-7601667D01*
X8361279Y-7598333D01*
X8365564Y-7591667D01*
X8365564Y-7578333D01*
X8361279Y-7571667D01*
X8356993Y-7568333D01*
X8348421Y-7565000D01*
X8331279Y-7565000D01*
X8322707Y-7568333D01*
X8318421Y-7571667D01*
X8314136Y-7578333D01*
X9642014Y-9036117D02*
X9552014Y-9036117D01*
X9552014Y-9019450D01*
X9556300Y-9009450D01*
X9564871Y-9002783D01*
X9573443Y-8999450D01*
X9590586Y-8996117D01*
X9603443Y-8996117D01*
X9620586Y-8999450D01*
X9629157Y-9002783D01*
X9637729Y-9009450D01*
X9642014Y-9019450D01*
X9642014Y-9036117D01*
X9642014Y-8929450D02*
X9642014Y-8969450D01*
X9642014Y-8949450D02*
X9552014Y-8949450D01*
X9564871Y-8956117D01*
X9573443Y-8962783D01*
X9577729Y-8969450D01*
D13*
X9656191Y-8780952D02*
X9576191Y-8780952D01*
X9656191Y-8735238D02*
X9610476Y-8769524D01*
X9576191Y-8735238D02*
X9621905Y-8780952D01*
D12*
X10123533Y-8640714D02*
X10123533Y-8550714D01*
X10140200Y-8550714D01*
X10150200Y-8555000D01*
X10156867Y-8563571D01*
X10160200Y-8572143D01*
X10163533Y-8589286D01*
X10163533Y-8602143D01*
X10160200Y-8619286D01*
X10156867Y-8627857D01*
X10150200Y-8636429D01*
X10140200Y-8640714D01*
X10123533Y-8640714D01*
X10186867Y-8550714D02*
X10230200Y-8550714D01*
X10206867Y-8585000D01*
X10216867Y-8585000D01*
X10223533Y-8589286D01*
X10226867Y-8593571D01*
X10230200Y-8602143D01*
X10230200Y-8623571D01*
X10226867Y-8632143D01*
X10223533Y-8636429D01*
X10216867Y-8640714D01*
X10196867Y-8640714D01*
X10190200Y-8636429D01*
X10186867Y-8632143D01*
X7587667Y-7686714D02*
X7587667Y-7751000D01*
X7584333Y-7763857D01*
X7577667Y-7772429D01*
X7567667Y-7776714D01*
X7561000Y-7776714D01*
X7657667Y-7776714D02*
X7617667Y-7776714D01*
X7637667Y-7776714D02*
X7637667Y-7686714D01*
X7631000Y-7699571D01*
X7624333Y-7708143D01*
X7617667Y-7712429D01*
X7606667Y-10090714D02*
X7606667Y-10155000D01*
X7603333Y-10167857D01*
X7596667Y-10176429D01*
X7586667Y-10180714D01*
X7580000Y-10180714D01*
X7636667Y-10099286D02*
X7640000Y-10095000D01*
X7646667Y-10090714D01*
X7663333Y-10090714D01*
X7670000Y-10095000D01*
X7673333Y-10099286D01*
X7676667Y-10107857D01*
X7676667Y-10116429D01*
X7673333Y-10129286D01*
X7633333Y-10180714D01*
X7676667Y-10180714D01*
X13899714Y-7135333D02*
X13964000Y-7135333D01*
X13976857Y-7138667D01*
X13985429Y-7145333D01*
X13989714Y-7155333D01*
X13989714Y-7162000D01*
X13899714Y-7108667D02*
X13899714Y-7062000D01*
X13989714Y-7092000D01*
X11613714Y-7135333D02*
X11678000Y-7135333D01*
X11690857Y-7138667D01*
X11699429Y-7145333D01*
X11703714Y-7155333D01*
X11703714Y-7162000D01*
X11652286Y-7092000D02*
X11648000Y-7098667D01*
X11643714Y-7102000D01*
X11635143Y-7105333D01*
X11630857Y-7105333D01*
X11622286Y-7102000D01*
X11618000Y-7098667D01*
X11613714Y-7092000D01*
X11613714Y-7078667D01*
X11618000Y-7072000D01*
X11622286Y-7068667D01*
X11630857Y-7065333D01*
X11635143Y-7065333D01*
X11643714Y-7068667D01*
X11648000Y-7072000D01*
X11652286Y-7078667D01*
X11652286Y-7092000D01*
X11656571Y-7098667D01*
X11660857Y-7102000D01*
X11669429Y-7105333D01*
X11686571Y-7105333D01*
X11695143Y-7102000D01*
X11699429Y-7098667D01*
X11703714Y-7092000D01*
X11703714Y-7078667D01*
X11699429Y-7072000D01*
X11695143Y-7068667D01*
X11686571Y-7065333D01*
X11669429Y-7065333D01*
X11660857Y-7068667D01*
X11656571Y-7072000D01*
X11652286Y-7078667D01*
X11882364Y-10392883D02*
X11946650Y-10392883D01*
X11959507Y-10396217D01*
X11968079Y-10402883D01*
X11972364Y-10412883D01*
X11972364Y-10419550D01*
X11972364Y-10356217D02*
X11972364Y-10342883D01*
X11968079Y-10336217D01*
X11963793Y-10332883D01*
X11950936Y-10326217D01*
X11933793Y-10322883D01*
X11899507Y-10322883D01*
X11890936Y-10326217D01*
X11886650Y-10329550D01*
X11882364Y-10336217D01*
X11882364Y-10349550D01*
X11886650Y-10356217D01*
X11890936Y-10359550D01*
X11899507Y-10362883D01*
X11920936Y-10362883D01*
X11929507Y-10359550D01*
X11933793Y-10356217D01*
X11938079Y-10349550D01*
X11938079Y-10336217D01*
X11933793Y-10329550D01*
X11929507Y-10326217D01*
X11920936Y-10322883D01*
X8764033Y-7616264D02*
X8730700Y-7616264D01*
X8730700Y-7526264D01*
X8824033Y-7616264D02*
X8784033Y-7616264D01*
X8804033Y-7616264D02*
X8804033Y-7526264D01*
X8797367Y-7539121D01*
X8790700Y-7547693D01*
X8784033Y-7551979D01*
X9248333Y-10440714D02*
X9225000Y-10397857D01*
X9208333Y-10440714D02*
X9208333Y-10350714D01*
X9235000Y-10350714D01*
X9241667Y-10355000D01*
X9245000Y-10359286D01*
X9248333Y-10367857D01*
X9248333Y-10380714D01*
X9245000Y-10389286D01*
X9241667Y-10393571D01*
X9235000Y-10397857D01*
X9208333Y-10397857D01*
X9315000Y-10440714D02*
X9275000Y-10440714D01*
X9295000Y-10440714D02*
X9295000Y-10350714D01*
X9288333Y-10363571D01*
X9281667Y-10372143D01*
X9275000Y-10376429D01*
X10780714Y-11131667D02*
X10737857Y-11155000D01*
X10780714Y-11171667D02*
X10690714Y-11171667D01*
X10690714Y-11145000D01*
X10695000Y-11138333D01*
X10699286Y-11135000D01*
X10707857Y-11131667D01*
X10720714Y-11131667D01*
X10729286Y-11135000D01*
X10733571Y-11138333D01*
X10737857Y-11145000D01*
X10737857Y-11171667D01*
X10690714Y-11108333D02*
X10690714Y-11065000D01*
X10725000Y-11088333D01*
X10725000Y-11078333D01*
X10729286Y-11071667D01*
X10733571Y-11068333D01*
X10742143Y-11065000D01*
X10763571Y-11065000D01*
X10772143Y-11068333D01*
X10776429Y-11071667D01*
X10780714Y-11078333D01*
X10780714Y-11098333D01*
X10776429Y-11105000D01*
X10772143Y-11108333D01*
X10470714Y-11121667D02*
X10427857Y-11145000D01*
X10470714Y-11161667D02*
X10380714Y-11161667D01*
X10380714Y-11135000D01*
X10385000Y-11128333D01*
X10389286Y-11125000D01*
X10397857Y-11121667D01*
X10410714Y-11121667D01*
X10419286Y-11125000D01*
X10423571Y-11128333D01*
X10427857Y-11135000D01*
X10427857Y-11161667D01*
X10410714Y-11061667D02*
X10470714Y-11061667D01*
X10376429Y-11078333D02*
X10440714Y-11095000D01*
X10440714Y-11051667D01*
X10148333Y-8380714D02*
X10125000Y-8337857D01*
X10108333Y-8380714D02*
X10108333Y-8290714D01*
X10135000Y-8290714D01*
X10141667Y-8295000D01*
X10145000Y-8299286D01*
X10148333Y-8307857D01*
X10148333Y-8320714D01*
X10145000Y-8329286D01*
X10141667Y-8333571D01*
X10135000Y-8337857D01*
X10108333Y-8337857D01*
X10188333Y-8329286D02*
X10181667Y-8325000D01*
X10178333Y-8320714D01*
X10175000Y-8312143D01*
X10175000Y-8307857D01*
X10178333Y-8299286D01*
X10181667Y-8295000D01*
X10188333Y-8290714D01*
X10201667Y-8290714D01*
X10208333Y-8295000D01*
X10211667Y-8299286D01*
X10215000Y-8307857D01*
X10215000Y-8312143D01*
X10211667Y-8320714D01*
X10208333Y-8325000D01*
X10201667Y-8329286D01*
X10188333Y-8329286D01*
X10181667Y-8333571D01*
X10178333Y-8337857D01*
X10175000Y-8346429D01*
X10175000Y-8363571D01*
X10178333Y-8372143D01*
X10181667Y-8376429D01*
X10188333Y-8380714D01*
X10201667Y-8380714D01*
X10208333Y-8376429D01*
X10211667Y-8372143D01*
X10215000Y-8363571D01*
X10215000Y-8346429D01*
X10211667Y-8337857D01*
X10208333Y-8333571D01*
X10201667Y-8329286D01*
X9728333Y-7980714D02*
X9705000Y-7937857D01*
X9688333Y-7980714D02*
X9688333Y-7890714D01*
X9715000Y-7890714D01*
X9721667Y-7895000D01*
X9725000Y-7899286D01*
X9728333Y-7907857D01*
X9728333Y-7920714D01*
X9725000Y-7929286D01*
X9721667Y-7933571D01*
X9715000Y-7937857D01*
X9688333Y-7937857D01*
X9761667Y-7980714D02*
X9775000Y-7980714D01*
X9781667Y-7976429D01*
X9785000Y-7972143D01*
X9791667Y-7959286D01*
X9795000Y-7942143D01*
X9795000Y-7907857D01*
X9791667Y-7899286D01*
X9788333Y-7895000D01*
X9781667Y-7890714D01*
X9768333Y-7890714D01*
X9761667Y-7895000D01*
X9758333Y-7899286D01*
X9755000Y-7907857D01*
X9755000Y-7929286D01*
X9758333Y-7937857D01*
X9761667Y-7942143D01*
X9768333Y-7946429D01*
X9781667Y-7946429D01*
X9788333Y-7942143D01*
X9791667Y-7937857D01*
X9795000Y-7929286D01*
X9672427Y-11200392D02*
X9676712Y-11190392D01*
X9676712Y-11173725D01*
X9672427Y-11167059D01*
X9668141Y-11163725D01*
X9659569Y-11160392D01*
X9650998Y-11160392D01*
X9642427Y-11163725D01*
X9638141Y-11167059D01*
X9633855Y-11173725D01*
X9629569Y-11187059D01*
X9625284Y-11193725D01*
X9620998Y-11197059D01*
X9612427Y-11200392D01*
X9603855Y-11200392D01*
X9595284Y-11197059D01*
X9590998Y-11193725D01*
X9586712Y-11187059D01*
X9586712Y-11170392D01*
X9590998Y-11160392D01*
X9586712Y-11137059D02*
X9676712Y-11120392D01*
X9612427Y-11107059D01*
X9676712Y-11093725D01*
X9586712Y-11077059D01*
X9586712Y-11037059D02*
X9586712Y-11023725D01*
X9590998Y-11017059D01*
X9599569Y-11010392D01*
X9616712Y-11007059D01*
X9646712Y-11007059D01*
X9663855Y-11010392D01*
X9672427Y-11017059D01*
X9676712Y-11023725D01*
X9676712Y-11037059D01*
X9672427Y-11043725D01*
X9663855Y-11050392D01*
X9646712Y-11053725D01*
X9616712Y-11053725D01*
X9599569Y-11050392D01*
X9590998Y-11043725D01*
X9586712Y-11037059D01*
X9629569Y-10953725D02*
X9629569Y-10977059D01*
X9676712Y-10977059D02*
X9586712Y-10977059D01*
X9586712Y-10943725D01*
X9629569Y-10893725D02*
X9629569Y-10917059D01*
X9676712Y-10917059D02*
X9586712Y-10917059D01*
X9586712Y-10883725D01*
X9676712Y-10820392D02*
X9676712Y-10860392D01*
X9676712Y-10840392D02*
X9586712Y-10840392D01*
X9599569Y-10847059D01*
X9608141Y-10853725D01*
X9612427Y-10860392D01*
X8923127Y-11183409D02*
X8927412Y-11173409D01*
X8927412Y-11156742D01*
X8923127Y-11150075D01*
X8918841Y-11146742D01*
X8910269Y-11143409D01*
X8901698Y-11143409D01*
X8893127Y-11146742D01*
X8888841Y-11150075D01*
X8884555Y-11156742D01*
X8880269Y-11170075D01*
X8875984Y-11176742D01*
X8871698Y-11180075D01*
X8863127Y-11183409D01*
X8854555Y-11183409D01*
X8845984Y-11180075D01*
X8841698Y-11176742D01*
X8837412Y-11170075D01*
X8837412Y-11153409D01*
X8841698Y-11143409D01*
X8837412Y-11120075D02*
X8927412Y-11103409D01*
X8863127Y-11090075D01*
X8927412Y-11076742D01*
X8837412Y-11060075D01*
X8837412Y-11020075D02*
X8837412Y-11006742D01*
X8841698Y-11000075D01*
X8850269Y-10993409D01*
X8867412Y-10990075D01*
X8897412Y-10990075D01*
X8914555Y-10993409D01*
X8923127Y-11000075D01*
X8927412Y-11006742D01*
X8927412Y-11020075D01*
X8923127Y-11026742D01*
X8914555Y-11033409D01*
X8897412Y-11036742D01*
X8867412Y-11036742D01*
X8850269Y-11033409D01*
X8841698Y-11026742D01*
X8837412Y-11020075D01*
X8927412Y-10960075D02*
X8837412Y-10960075D01*
X8927412Y-10920075D01*
X8837412Y-10920075D01*
X8927412Y-10850075D02*
X8927412Y-10890075D01*
X8927412Y-10870075D02*
X8837412Y-10870075D01*
X8850269Y-10876742D01*
X8858841Y-10883409D01*
X8863127Y-10890075D01*
X13857214Y-8644883D02*
X13930071Y-8644883D01*
X13938643Y-8641550D01*
X13942929Y-8638217D01*
X13947214Y-8631550D01*
X13947214Y-8618217D01*
X13942929Y-8611550D01*
X13938643Y-8608217D01*
X13930071Y-8604883D01*
X13857214Y-8604883D01*
X13947214Y-8534883D02*
X13947214Y-8574883D01*
X13947214Y-8554883D02*
X13857214Y-8554883D01*
X13870071Y-8561550D01*
X13878643Y-8568217D01*
X13882929Y-8574883D01*
X9966667Y-11110714D02*
X9966667Y-11183571D01*
X9970000Y-11192143D01*
X9973333Y-11196429D01*
X9980000Y-11200714D01*
X9993333Y-11200714D01*
X10000000Y-11196429D01*
X10003333Y-11192143D01*
X10006667Y-11183571D01*
X10006667Y-11110714D01*
X10036667Y-11119286D02*
X10040000Y-11115000D01*
X10046667Y-11110714D01*
X10063333Y-11110714D01*
X10070000Y-11115000D01*
X10073333Y-11119286D01*
X10076667Y-11127857D01*
X10076667Y-11136429D01*
X10073333Y-11149286D01*
X10033333Y-11200714D01*
X10076667Y-11200714D01*
D20*
X12552857Y-9898571D02*
X12557619Y-9884286D01*
X12562381Y-9879524D01*
X12571905Y-9874762D01*
X12586190Y-9874762D01*
X12595714Y-9879524D01*
X12600476Y-9884286D01*
X12605238Y-9893810D01*
X12605238Y-9931905D01*
X12505238Y-9931905D01*
X12505238Y-9898571D01*
X12510000Y-9889048D01*
X12514762Y-9884286D01*
X12524286Y-9879524D01*
X12533809Y-9879524D01*
X12543333Y-9884286D01*
X12548095Y-9889048D01*
X12552857Y-9898571D01*
X12552857Y-9931905D01*
X12505238Y-9846191D02*
X12505238Y-9789048D01*
X12605238Y-9817619D02*
X12505238Y-9817619D01*
X12605238Y-9703333D02*
X12605238Y-9760476D01*
X12605238Y-9731905D02*
X12505238Y-9731905D01*
X12519524Y-9741429D01*
X12529048Y-9750952D01*
X12533809Y-9760476D01*
D12*
X8808333Y-10456191D02*
X8785000Y-10418095D01*
X8768333Y-10456191D02*
X8768333Y-10376191D01*
X8795000Y-10376191D01*
X8801667Y-10380000D01*
X8805000Y-10383810D01*
X8808333Y-10391429D01*
X8808333Y-10402857D01*
X8805000Y-10410476D01*
X8801667Y-10414286D01*
X8795000Y-10418095D01*
X8768333Y-10418095D01*
X8835000Y-10383810D02*
X8838333Y-10380000D01*
X8845000Y-10376191D01*
X8861667Y-10376191D01*
X8868333Y-10380000D01*
X8871667Y-10383810D01*
X8875000Y-10391429D01*
X8875000Y-10399048D01*
X8871667Y-10410476D01*
X8831667Y-10456191D01*
X8875000Y-10456191D01*
X11168333Y-11506190D02*
X11145000Y-11468095D01*
X11128333Y-11506190D02*
X11128333Y-11426190D01*
X11155000Y-11426190D01*
X11161667Y-11430000D01*
X11165000Y-11433809D01*
X11168333Y-11441429D01*
X11168333Y-11452857D01*
X11165000Y-11460476D01*
X11161667Y-11464286D01*
X11155000Y-11468095D01*
X11128333Y-11468095D01*
X11231667Y-11426190D02*
X11198333Y-11426190D01*
X11195000Y-11464286D01*
X11198333Y-11460476D01*
X11205000Y-11456667D01*
X11221667Y-11456667D01*
X11228333Y-11460476D01*
X11231667Y-11464286D01*
X11235000Y-11471905D01*
X11235000Y-11490952D01*
X11231667Y-11498571D01*
X11228333Y-11502381D01*
X11221667Y-11506190D01*
X11205000Y-11506190D01*
X11198333Y-11502381D01*
X11195000Y-11498571D01*
X9025000Y-7026190D02*
X9001667Y-6988095D01*
X8985000Y-7026190D02*
X8985000Y-6946190D01*
X9011667Y-6946190D01*
X9018333Y-6950000D01*
X9021667Y-6953809D01*
X9025000Y-6961429D01*
X9025000Y-6972857D01*
X9021667Y-6980476D01*
X9018333Y-6984286D01*
X9011667Y-6988095D01*
X8985000Y-6988095D01*
X9091667Y-7026190D02*
X9051667Y-7026190D01*
X9071667Y-7026190D02*
X9071667Y-6946190D01*
X9065000Y-6957619D01*
X9058333Y-6965238D01*
X9051667Y-6969048D01*
X9118333Y-6953809D02*
X9121667Y-6950000D01*
X9128333Y-6946190D01*
X9145000Y-6946190D01*
X9151667Y-6950000D01*
X9155000Y-6953809D01*
X9158333Y-6961429D01*
X9158333Y-6969048D01*
X9155000Y-6980476D01*
X9115000Y-7026190D01*
X9158333Y-7026190D01*
X9025000Y-7286190D02*
X9001667Y-7248095D01*
X8985000Y-7286190D02*
X8985000Y-7206190D01*
X9011667Y-7206190D01*
X9018333Y-7210000D01*
X9021667Y-7213809D01*
X9025000Y-7221429D01*
X9025000Y-7232857D01*
X9021667Y-7240476D01*
X9018333Y-7244286D01*
X9011667Y-7248095D01*
X8985000Y-7248095D01*
X9091667Y-7286190D02*
X9051667Y-7286190D01*
X9071667Y-7286190D02*
X9071667Y-7206190D01*
X9065000Y-7217619D01*
X9058333Y-7225238D01*
X9051667Y-7229048D01*
X9115000Y-7206190D02*
X9158333Y-7206190D01*
X9135000Y-7236667D01*
X9145000Y-7236667D01*
X9151667Y-7240476D01*
X9155000Y-7244286D01*
X9158333Y-7251905D01*
X9158333Y-7270952D01*
X9155000Y-7278571D01*
X9151667Y-7282381D01*
X9145000Y-7286190D01*
X9125000Y-7286190D01*
X9118333Y-7282381D01*
X9115000Y-7278571D01*
X10421667Y-7311429D02*
X10388333Y-7338095D01*
X10421667Y-7357143D02*
X10351667Y-7357143D01*
X10351667Y-7326667D01*
X10355000Y-7319048D01*
X10358333Y-7315238D01*
X10365000Y-7311429D01*
X10375000Y-7311429D01*
X10381667Y-7315238D01*
X10385000Y-7319048D01*
X10388333Y-7326667D01*
X10388333Y-7357143D01*
X10421667Y-7235238D02*
X10421667Y-7280952D01*
X10421667Y-7258095D02*
X10351667Y-7258095D01*
X10361667Y-7265714D01*
X10368333Y-7273333D01*
X10371667Y-7280952D01*
X10375000Y-7166667D02*
X10421667Y-7166667D01*
X10348333Y-7185714D02*
X10398333Y-7204762D01*
X10398333Y-7155238D01*
X9976191Y-7305000D02*
X9938095Y-7328333D01*
X9976191Y-7345000D02*
X9896191Y-7345000D01*
X9896191Y-7318333D01*
X9900000Y-7311667D01*
X9903810Y-7308333D01*
X9911429Y-7305000D01*
X9922857Y-7305000D01*
X9930476Y-7308333D01*
X9934286Y-7311667D01*
X9938095Y-7318333D01*
X9938095Y-7345000D01*
X9976191Y-7238333D02*
X9976191Y-7278333D01*
X9976191Y-7258333D02*
X9896191Y-7258333D01*
X9907619Y-7265000D01*
X9915238Y-7271667D01*
X9919048Y-7278333D01*
X9896191Y-7175000D02*
X9896191Y-7208333D01*
X9934286Y-7211667D01*
X9930476Y-7208333D01*
X9926667Y-7201667D01*
X9926667Y-7185000D01*
X9930476Y-7178333D01*
X9934286Y-7175000D01*
X9941905Y-7171667D01*
X9960952Y-7171667D01*
X9968571Y-7175000D01*
X9972381Y-7178333D01*
X9976191Y-7185000D01*
X9976191Y-7201667D01*
X9972381Y-7208333D01*
X9968571Y-7211667D01*
X8285000Y-6836190D02*
X8261667Y-6798095D01*
X8245000Y-6836190D02*
X8245000Y-6756190D01*
X8271667Y-6756190D01*
X8278333Y-6760000D01*
X8281667Y-6763809D01*
X8285000Y-6771429D01*
X8285000Y-6782857D01*
X8281667Y-6790476D01*
X8278333Y-6794286D01*
X8271667Y-6798095D01*
X8245000Y-6798095D01*
X8351667Y-6836190D02*
X8311667Y-6836190D01*
X8331667Y-6836190D02*
X8331667Y-6756190D01*
X8325000Y-6767619D01*
X8318333Y-6775238D01*
X8311667Y-6779048D01*
X8418333Y-6836190D02*
X8378333Y-6836190D01*
X8398333Y-6836190D02*
X8398333Y-6756190D01*
X8391667Y-6767619D01*
X8385000Y-6775238D01*
X8378333Y-6779048D01*
X7626190Y-7021667D02*
X7546190Y-7021667D01*
X7546190Y-7005000D01*
X7550000Y-6995000D01*
X7557619Y-6988333D01*
X7565238Y-6985000D01*
X7580476Y-6981667D01*
X7591905Y-6981667D01*
X7607143Y-6985000D01*
X7614762Y-6988333D01*
X7622381Y-6995000D01*
X7626190Y-7005000D01*
X7626190Y-7021667D01*
X7546190Y-6918333D02*
X7546190Y-6951667D01*
X7584286Y-6955000D01*
X7580476Y-6951667D01*
X7576667Y-6945000D01*
X7576667Y-6928333D01*
X7580476Y-6921667D01*
X7584286Y-6918333D01*
X7591905Y-6915000D01*
X7610952Y-6915000D01*
X7618571Y-6918333D01*
X7622381Y-6921667D01*
X7626190Y-6928333D01*
X7626190Y-6945000D01*
X7622381Y-6951667D01*
X7618571Y-6955000D01*
X12206190Y-10771667D02*
X12126190Y-10771667D01*
X12126190Y-10755000D01*
X12130000Y-10745000D01*
X12137619Y-10738333D01*
X12145238Y-10735000D01*
X12160476Y-10731667D01*
X12171905Y-10731667D01*
X12187143Y-10735000D01*
X12194762Y-10738333D01*
X12202381Y-10745000D01*
X12206190Y-10755000D01*
X12206190Y-10771667D01*
X12126190Y-10671667D02*
X12126190Y-10685000D01*
X12130000Y-10691667D01*
X12133809Y-10695000D01*
X12145238Y-10701667D01*
X12160476Y-10705000D01*
X12190952Y-10705000D01*
X12198571Y-10701667D01*
X12202381Y-10698333D01*
X12206190Y-10691667D01*
X12206190Y-10678333D01*
X12202381Y-10671667D01*
X12198571Y-10668333D01*
X12190952Y-10665000D01*
X12171905Y-10665000D01*
X12164286Y-10668333D01*
X12160476Y-10671667D01*
X12156667Y-10678333D01*
X12156667Y-10691667D01*
X12160476Y-10698333D01*
X12164286Y-10701667D01*
X12171905Y-10705000D01*
D20*
X8759826Y-8709062D02*
X8750302Y-8704300D01*
X8740779Y-8694776D01*
X8726493Y-8680491D01*
X8716969Y-8675729D01*
X8707445Y-8675729D01*
X8712207Y-8699538D02*
X8702683Y-8694776D01*
X8693160Y-8685252D01*
X8688398Y-8666205D01*
X8688398Y-8632871D01*
X8693160Y-8613824D01*
X8702683Y-8604300D01*
X8712207Y-8599538D01*
X8731255Y-8599538D01*
X8740779Y-8604300D01*
X8750302Y-8613824D01*
X8755064Y-8632871D01*
X8755064Y-8666205D01*
X8750302Y-8685252D01*
X8740779Y-8694776D01*
X8731255Y-8699538D01*
X8712207Y-8699538D01*
X8850302Y-8699538D02*
X8793160Y-8699538D01*
X8821731Y-8699538D02*
X8821731Y-8599538D01*
X8812207Y-8613824D01*
X8802683Y-8623348D01*
X8793160Y-8628110D01*
D12*
X7506190Y-10386667D02*
X7563333Y-10386667D01*
X7574762Y-10390000D01*
X7582381Y-10396667D01*
X7586190Y-10406667D01*
X7586190Y-10413333D01*
X7586190Y-10316667D02*
X7586190Y-10356667D01*
X7586190Y-10336667D02*
X7506190Y-10336667D01*
X7517619Y-10343333D01*
X7525238Y-10350000D01*
X7529048Y-10356667D01*
X7506190Y-10273333D02*
X7506190Y-10266667D01*
X7510000Y-10260000D01*
X7513809Y-10256667D01*
X7521429Y-10253333D01*
X7536667Y-10250000D01*
X7555714Y-10250000D01*
X7570952Y-10253333D01*
X7578571Y-10256667D01*
X7582381Y-10260000D01*
X7586190Y-10266667D01*
X7586190Y-10273333D01*
X7582381Y-10280000D01*
X7578571Y-10283333D01*
X7570952Y-10286667D01*
X7555714Y-10290000D01*
X7536667Y-10290000D01*
X7521429Y-10286667D01*
X7513809Y-10283333D01*
X7510000Y-10280000D01*
X7506190Y-10273333D01*
%LPC*%
D22*
X10200000Y-6930000D02*
X10120000Y-6930000D01*
X10120000Y-6930000D02*
X10120000Y-6910000D01*
X10120000Y-6910000D02*
X10200000Y-6910000D01*
X10200000Y-6910000D02*
X10200000Y-6890000D01*
X10200000Y-6890000D02*
X10120000Y-6890000D01*
X10200000Y-7176450D02*
X10120000Y-7176450D01*
X10120000Y-7176450D02*
X10120000Y-7156450D01*
X10120000Y-7156450D02*
X10200000Y-7156450D01*
X10200000Y-7156450D02*
X10200000Y-7136450D01*
X10200000Y-7136450D02*
X10120000Y-7136450D01*
X9685650Y-7005000D02*
X9605650Y-7005000D01*
X9605650Y-7005000D02*
X9605650Y-6985000D01*
X9605650Y-6985000D02*
X9685650Y-6985000D01*
X9685650Y-6985000D02*
X9685650Y-6965000D01*
X9685650Y-6965000D02*
X9605650Y-6965000D01*
X9685650Y-7265350D02*
X9605650Y-7265350D01*
X9605650Y-7265350D02*
X9605650Y-7245350D01*
X9605650Y-7245350D02*
X9685650Y-7245350D01*
X9685650Y-7245350D02*
X9685650Y-7225350D01*
X9685650Y-7225350D02*
X9605650Y-7225350D01*
D23*
X11252200Y-5905500D03*
D24*
X11506200Y-5905500D03*
X11760200Y-5905500D03*
X12014200Y-5905500D03*
X12268200Y-5905500D03*
X12522200Y-5905500D03*
X12776200Y-5905500D03*
X13030200Y-5905500D03*
D23*
X8445500Y-5905500D03*
D24*
X8699500Y-5905500D03*
X8953500Y-5905500D03*
X9207500Y-5905500D03*
D25*
X8337000Y-6477000D03*
X8337000Y-6223000D03*
X8591000Y-6477000D03*
X8591000Y-6223000D03*
X8845000Y-6477000D03*
X8845000Y-6223000D03*
X9099000Y-6477000D03*
X9099000Y-6223000D03*
X9353000Y-6477000D03*
X9353000Y-6223000D03*
X9607000Y-6477000D03*
X9607000Y-6223000D03*
X9861000Y-6477000D03*
X9861000Y-6223000D03*
X10115000Y-6477000D03*
X10115000Y-6223000D03*
X10369000Y-6477000D03*
X10369000Y-6223000D03*
X10623000Y-6477000D03*
X10623000Y-6223000D03*
X10877000Y-6477000D03*
X10877000Y-6223000D03*
X11131000Y-6477000D03*
X11131000Y-6223000D03*
X11385000Y-6477000D03*
X11385000Y-6223000D03*
X11639000Y-6477000D03*
X11639000Y-6223000D03*
X11893000Y-6477000D03*
X11893000Y-6223000D03*
X12147000Y-6477000D03*
X12147000Y-6223000D03*
X12401000Y-6477000D03*
X12401000Y-6223000D03*
X12655000Y-6477000D03*
X12655000Y-6223000D03*
X12909000Y-6477000D03*
X12909000Y-6223000D03*
X13163000Y-6477000D03*
X13163000Y-6223000D03*
D26*
X9563100Y-8407146D03*
X9563100Y-8217154D03*
D27*
X8264398Y-7258050D03*
X7724902Y-7258050D03*
D28*
X9360000Y-9160000D03*
X9360000Y-8720000D03*
D29*
X10022586Y-8600000D03*
X9687814Y-8600000D03*
D30*
X8001000Y-8636000D03*
D31*
X8001000Y-8128000D03*
D30*
X8001000Y-9779000D03*
D31*
X8001000Y-9271000D03*
D32*
X10220000Y-6910000D03*
X10100000Y-6910000D03*
X10220000Y-7156450D03*
X10100000Y-7156450D03*
X9705650Y-6985000D03*
X9585650Y-6985000D03*
X9705650Y-7245350D03*
X9585650Y-7245350D03*
D23*
X13716000Y-6985000D03*
D24*
X13716000Y-7239000D03*
X13462000Y-6985000D03*
X13462000Y-7239000D03*
X13208000Y-6985000D03*
X13208000Y-7239000D03*
X12954000Y-6985000D03*
X12954000Y-7239000D03*
X12700000Y-6985000D03*
X12700000Y-7239000D03*
X12446000Y-6985000D03*
X12446000Y-7239000D03*
X12192000Y-6985000D03*
X12192000Y-7239000D03*
X11938000Y-6985000D03*
X11938000Y-7239000D03*
D23*
X11430000Y-6985000D03*
D24*
X11430000Y-7239000D03*
X11176000Y-6985000D03*
X11176000Y-7239000D03*
X10922000Y-6985000D03*
X10922000Y-7239000D03*
X10668000Y-6985000D03*
X10668000Y-7239000D03*
D33*
X11716000Y-9846000D03*
D34*
X11462000Y-9846000D03*
X11208000Y-9846000D03*
X10954000Y-9846000D03*
X10700000Y-9846000D03*
X10446000Y-9846000D03*
X10192000Y-9846000D03*
X9938000Y-9846000D03*
X11716000Y-10100000D03*
X11462000Y-10100000D03*
X11208000Y-10100000D03*
X10954000Y-10100000D03*
X10700000Y-10100000D03*
X10446000Y-10100000D03*
X10192000Y-10100000D03*
X9938000Y-10100000D03*
X11716000Y-10354000D03*
X11462000Y-10354000D03*
X11208000Y-10354000D03*
X10954000Y-10354000D03*
X10700000Y-10354000D03*
X10446000Y-10354000D03*
X10192000Y-10354000D03*
X9938000Y-10354000D03*
D35*
X8788400Y-7768100D03*
X8788400Y-8183100D03*
D36*
X9359646Y-10598150D03*
X9169654Y-10598150D03*
D37*
X10636250Y-11296904D03*
X10636250Y-11486896D03*
X10426700Y-11486896D03*
X10426700Y-11296904D03*
D36*
X9975596Y-8337550D03*
X9785604Y-8337550D03*
D38*
X10050780Y-7937500D03*
X9900920Y-7937500D03*
D39*
X9492742Y-10829036D03*
X9492742Y-11243564D03*
X9277858Y-10829036D03*
X9277858Y-11243564D03*
X8743442Y-10835386D03*
X8743442Y-11249914D03*
X8528558Y-10835386D03*
X8528558Y-11249914D03*
D40*
X13741000Y-9372000D03*
X13741000Y-7848000D03*
X13487000Y-9372000D03*
X13487000Y-7848000D03*
X13233000Y-9372000D03*
X13233000Y-7848000D03*
X12979000Y-9372000D03*
X12979000Y-7848000D03*
X12725000Y-9372000D03*
X12725000Y-7848000D03*
X12471000Y-9372000D03*
X12471000Y-7848000D03*
X12217000Y-9372000D03*
X12217000Y-7848000D03*
X11963000Y-9372000D03*
X11963000Y-7848000D03*
X11709000Y-9372000D03*
X11709000Y-7848000D03*
X11455000Y-9372000D03*
X11455000Y-7848000D03*
X11201000Y-9372000D03*
X11201000Y-7848000D03*
X10947000Y-9372000D03*
X10947000Y-7848000D03*
X10693000Y-9372000D03*
X10693000Y-7848000D03*
X10439000Y-9372000D03*
X10439000Y-7848000D03*
D41*
X10120122Y-11493246D03*
X10120122Y-11303254D03*
X9920478Y-11398250D03*
D42*
X13060000Y-9718000D03*
X13060000Y-11242000D03*
D43*
X13060000Y-10480000D03*
D38*
X8901430Y-10598150D03*
X8751570Y-10598150D03*
X10878820Y-11487150D03*
X11028680Y-11487150D03*
X9259570Y-6985000D03*
X9409430Y-6985000D03*
X9259570Y-7245350D03*
X9409430Y-7245350D03*
D44*
X10369550Y-6910070D03*
X10369550Y-7059930D03*
X9931400Y-6916420D03*
X9931400Y-7066280D03*
D38*
X7995070Y-6800000D03*
X8144930Y-6800000D03*
D45*
X7824930Y-6800000D03*
X7675070Y-6800000D03*
X12014930Y-10730000D03*
X11865070Y-10730000D03*
D46*
X9019350Y-9329300D03*
X8519350Y-9329300D03*
X9019350Y-9054300D03*
D47*
X8706850Y-9421800D03*
X8831850Y-9421800D03*
X8964350Y-9421800D03*
D48*
X8578850Y-8851800D03*
D49*
X8705850Y-8851800D03*
D48*
X8832850Y-8851800D03*
X8959850Y-8851800D03*
D50*
X8769350Y-9199300D03*
D47*
X8574350Y-9421800D03*
D46*
X8519350Y-9054300D03*
D51*
X7739000Y-10350000D03*
X7993000Y-10350000D03*
X8247000Y-10350000D03*
X8501000Y-10350000D03*
M02*
