G04 #@! TF.FileFunction,Soldermask,Top*
%FSLAX45Y45*%
G04 Gerber Fmt 4.5, Leading zero omitted, Abs format (unit mm)*
G04 Created by KiCad (PCBNEW 4.0.7-e2-6376~58~ubuntu17.04.1) date Fri Feb 23 16:56:55 2018*
%MOMM*%
%LPD*%
G01*
G04 APERTURE LIST*
%ADD10C,0.100000*%
%ADD11C,0.500000*%
%ADD12R,1.700000X1.700000*%
%ADD13O,1.700000X1.700000*%
%ADD14C,1.500000*%
%ADD15R,1.501140X0.901700*%
%ADD16R,3.197860X1.597660*%
%ADD17R,2.500000X1.400000*%
%ADD18R,0.848360X1.198880*%
%ADD19R,3.600000X1.800000*%
%ADD20O,3.600000X1.800000*%
%ADD21R,0.600000X1.000000*%
%ADD22R,1.500000X1.500000*%
%ADD23O,1.500000X1.500000*%
%ADD24R,5.100000X2.350000*%
%ADD25R,0.952500X1.551940*%
%ADD26R,1.551940X0.952500*%
%ADD27R,0.802640X1.102360*%
%ADD28R,0.901700X1.303020*%
%ADD29O,1.300000X2.000000*%
%ADD30R,0.899160X0.797560*%
%ADD31R,5.588000X2.540000*%
%ADD32C,11.000000*%
%ADD33R,1.102360X0.802640*%
%ADD34R,1.000760X1.000760*%
%ADD35R,0.400000X0.600000*%
%ADD36R,0.700000X0.550000*%
%ADD37R,0.635000X1.250000*%
%ADD38R,0.650000X1.250000*%
%ADD39R,4.600000X3.900000*%
%ADD40C,1.506220*%
G04 APERTURE END LIST*
D10*
D11*
X10200000Y-6930000D02*
X10120000Y-6930000D01*
X10120000Y-6930000D02*
X10120000Y-6910000D01*
X10120000Y-6910000D02*
X10200000Y-6910000D01*
X10200000Y-6910000D02*
X10200000Y-6890000D01*
X10200000Y-6890000D02*
X10120000Y-6890000D01*
X10200000Y-7176450D02*
X10120000Y-7176450D01*
X10120000Y-7176450D02*
X10120000Y-7156450D01*
X10120000Y-7156450D02*
X10200000Y-7156450D01*
X10200000Y-7156450D02*
X10200000Y-7136450D01*
X10200000Y-7136450D02*
X10120000Y-7136450D01*
X9685650Y-7005000D02*
X9605650Y-7005000D01*
X9605650Y-7005000D02*
X9605650Y-6985000D01*
X9605650Y-6985000D02*
X9685650Y-6985000D01*
X9685650Y-6985000D02*
X9685650Y-6965000D01*
X9685650Y-6965000D02*
X9605650Y-6965000D01*
X9685650Y-7265350D02*
X9605650Y-7265350D01*
X9605650Y-7265350D02*
X9605650Y-7245350D01*
X9605650Y-7245350D02*
X9685650Y-7245350D01*
X9685650Y-7245350D02*
X9685650Y-7225350D01*
X9685650Y-7225350D02*
X9605650Y-7225350D01*
D12*
X11252200Y-5905500D03*
D13*
X11506200Y-5905500D03*
X11760200Y-5905500D03*
X12014200Y-5905500D03*
X12268200Y-5905500D03*
X12522200Y-5905500D03*
X12776200Y-5905500D03*
X13030200Y-5905500D03*
D12*
X8445500Y-5905500D03*
D13*
X8699500Y-5905500D03*
X8953500Y-5905500D03*
X9207500Y-5905500D03*
D14*
X8337000Y-6477000D03*
X8337000Y-6223000D03*
X8591000Y-6477000D03*
X8591000Y-6223000D03*
X8845000Y-6477000D03*
X8845000Y-6223000D03*
X9099000Y-6477000D03*
X9099000Y-6223000D03*
X9353000Y-6477000D03*
X9353000Y-6223000D03*
X9607000Y-6477000D03*
X9607000Y-6223000D03*
X9861000Y-6477000D03*
X9861000Y-6223000D03*
X10115000Y-6477000D03*
X10115000Y-6223000D03*
X10369000Y-6477000D03*
X10369000Y-6223000D03*
X10623000Y-6477000D03*
X10623000Y-6223000D03*
X10877000Y-6477000D03*
X10877000Y-6223000D03*
X11131000Y-6477000D03*
X11131000Y-6223000D03*
X11385000Y-6477000D03*
X11385000Y-6223000D03*
X11639000Y-6477000D03*
X11639000Y-6223000D03*
X11893000Y-6477000D03*
X11893000Y-6223000D03*
X12147000Y-6477000D03*
X12147000Y-6223000D03*
X12401000Y-6477000D03*
X12401000Y-6223000D03*
X12655000Y-6477000D03*
X12655000Y-6223000D03*
X12909000Y-6477000D03*
X12909000Y-6223000D03*
X13163000Y-6477000D03*
X13163000Y-6223000D03*
D15*
X9563100Y-8407146D03*
X9563100Y-8217154D03*
D16*
X8264398Y-7258050D03*
X7724902Y-7258050D03*
D17*
X9360000Y-9160000D03*
X9360000Y-8720000D03*
D18*
X10022586Y-8600000D03*
X9687814Y-8600000D03*
D19*
X8001000Y-8636000D03*
D20*
X8001000Y-8128000D03*
D19*
X8001000Y-9779000D03*
D20*
X8001000Y-9271000D03*
D21*
X10220000Y-6910000D03*
X10100000Y-6910000D03*
X10220000Y-7156450D03*
X10100000Y-7156450D03*
X9705650Y-6985000D03*
X9585650Y-6985000D03*
X9705650Y-7245350D03*
X9585650Y-7245350D03*
D12*
X13716000Y-6985000D03*
D13*
X13716000Y-7239000D03*
X13462000Y-6985000D03*
X13462000Y-7239000D03*
X13208000Y-6985000D03*
X13208000Y-7239000D03*
X12954000Y-6985000D03*
X12954000Y-7239000D03*
X12700000Y-6985000D03*
X12700000Y-7239000D03*
X12446000Y-6985000D03*
X12446000Y-7239000D03*
X12192000Y-6985000D03*
X12192000Y-7239000D03*
X11938000Y-6985000D03*
X11938000Y-7239000D03*
D12*
X11430000Y-6985000D03*
D13*
X11430000Y-7239000D03*
X11176000Y-6985000D03*
X11176000Y-7239000D03*
X10922000Y-6985000D03*
X10922000Y-7239000D03*
X10668000Y-6985000D03*
X10668000Y-7239000D03*
D22*
X11716000Y-9846000D03*
D23*
X11462000Y-9846000D03*
X11208000Y-9846000D03*
X10954000Y-9846000D03*
X10700000Y-9846000D03*
X10446000Y-9846000D03*
X10192000Y-9846000D03*
X9938000Y-9846000D03*
X11716000Y-10100000D03*
X11462000Y-10100000D03*
X11208000Y-10100000D03*
X10954000Y-10100000D03*
X10700000Y-10100000D03*
X10446000Y-10100000D03*
X10192000Y-10100000D03*
X9938000Y-10100000D03*
X11716000Y-10354000D03*
X11462000Y-10354000D03*
X11208000Y-10354000D03*
X10954000Y-10354000D03*
X10700000Y-10354000D03*
X10446000Y-10354000D03*
X10192000Y-10354000D03*
X9938000Y-10354000D03*
D24*
X8788400Y-7768100D03*
X8788400Y-8183100D03*
D25*
X9359646Y-10598150D03*
X9169654Y-10598150D03*
D26*
X10636250Y-11296904D03*
X10636250Y-11486896D03*
X10426700Y-11486896D03*
X10426700Y-11296904D03*
D25*
X9975596Y-8337550D03*
X9785604Y-8337550D03*
D27*
X10050780Y-7937500D03*
X9900920Y-7937500D03*
D28*
X9492742Y-10829036D03*
X9492742Y-11243564D03*
X9277858Y-10829036D03*
X9277858Y-11243564D03*
X8743442Y-10835386D03*
X8743442Y-11249914D03*
X8528558Y-10835386D03*
X8528558Y-11249914D03*
D29*
X13741000Y-9372000D03*
X13741000Y-7848000D03*
X13487000Y-9372000D03*
X13487000Y-7848000D03*
X13233000Y-9372000D03*
X13233000Y-7848000D03*
X12979000Y-9372000D03*
X12979000Y-7848000D03*
X12725000Y-9372000D03*
X12725000Y-7848000D03*
X12471000Y-9372000D03*
X12471000Y-7848000D03*
X12217000Y-9372000D03*
X12217000Y-7848000D03*
X11963000Y-9372000D03*
X11963000Y-7848000D03*
X11709000Y-9372000D03*
X11709000Y-7848000D03*
X11455000Y-9372000D03*
X11455000Y-7848000D03*
X11201000Y-9372000D03*
X11201000Y-7848000D03*
X10947000Y-9372000D03*
X10947000Y-7848000D03*
X10693000Y-9372000D03*
X10693000Y-7848000D03*
X10439000Y-9372000D03*
X10439000Y-7848000D03*
D30*
X10120122Y-11493246D03*
X10120122Y-11303254D03*
X9920478Y-11398250D03*
D31*
X13060000Y-9718000D03*
X13060000Y-11242000D03*
D32*
X13060000Y-10480000D03*
D27*
X8901430Y-10598150D03*
X8751570Y-10598150D03*
X10878820Y-11487150D03*
X11028680Y-11487150D03*
X9259570Y-6985000D03*
X9409430Y-6985000D03*
X9259570Y-7245350D03*
X9409430Y-7245350D03*
D33*
X10369550Y-6910070D03*
X10369550Y-7059930D03*
X9931400Y-6916420D03*
X9931400Y-7066280D03*
D27*
X7995070Y-6800000D03*
X8144930Y-6800000D03*
D34*
X7824930Y-6800000D03*
X7675070Y-6800000D03*
X12014930Y-10730000D03*
X11865070Y-10730000D03*
D35*
X9019350Y-9329300D03*
X8519350Y-9329300D03*
X9019350Y-9054300D03*
D36*
X8706850Y-9421800D03*
X8831850Y-9421800D03*
X8964350Y-9421800D03*
D37*
X8578850Y-8851800D03*
D38*
X8705850Y-8851800D03*
D37*
X8832850Y-8851800D03*
X8959850Y-8851800D03*
D39*
X8769350Y-9199300D03*
D36*
X8574350Y-9421800D03*
D35*
X8519350Y-9054300D03*
D40*
X7739000Y-10350000D03*
X7993000Y-10350000D03*
X8247000Y-10350000D03*
X8501000Y-10350000D03*
M02*
