G04 #@! TF.FileFunction,Soldermask,Bot*
%FSLAX45Y45*%
G04 Gerber Fmt 4.5, Leading zero omitted, Abs format (unit mm)*
G04 Created by KiCad (PCBNEW 4.0.7-e2-6376~58~ubuntu17.04.1) date Fri Feb 23 16:56:55 2018*
%MOMM*%
%LPD*%
G01*
G04 APERTURE LIST*
%ADD10C,0.100000*%
%ADD11R,1.700000X1.700000*%
%ADD12O,1.700000X1.700000*%
%ADD13C,1.500000*%
%ADD14R,0.901700X1.501140*%
%ADD15R,1.153160X1.851660*%
%ADD16R,1.501140X0.901700*%
%ADD17R,1.102360X0.802640*%
%ADD18R,0.848360X1.198880*%
%ADD19R,3.600000X1.800000*%
%ADD20O,3.600000X1.800000*%
%ADD21R,1.500000X1.500000*%
%ADD22O,1.500000X1.500000*%
%ADD23R,0.952500X1.551940*%
%ADD24R,0.802640X1.102360*%
%ADD25O,1.300000X2.000000*%
%ADD26R,2.200000X0.600000*%
%ADD27R,2.500000X3.500000*%
%ADD28R,1.400000X0.700000*%
%ADD29R,1.198880X0.848360*%
%ADD30R,1.100000X0.400000*%
%ADD31R,0.360000X0.250000*%
%ADD32R,2.500000X1.800000*%
%ADD33R,2.500000X3.300000*%
%ADD34C,1.506220*%
G04 APERTURE END LIST*
D10*
D11*
X11252200Y-5905500D03*
D12*
X11506200Y-5905500D03*
X11760200Y-5905500D03*
X12014200Y-5905500D03*
X12268200Y-5905500D03*
X12522200Y-5905500D03*
X12776200Y-5905500D03*
X13030200Y-5905500D03*
D11*
X8445500Y-5905500D03*
D12*
X8699500Y-5905500D03*
X8953500Y-5905500D03*
X9207500Y-5905500D03*
D13*
X8337000Y-6477000D03*
X8337000Y-6223000D03*
X8591000Y-6477000D03*
X8591000Y-6223000D03*
X8845000Y-6477000D03*
X8845000Y-6223000D03*
X9099000Y-6477000D03*
X9099000Y-6223000D03*
X9353000Y-6477000D03*
X9353000Y-6223000D03*
X9607000Y-6477000D03*
X9607000Y-6223000D03*
X9861000Y-6477000D03*
X9861000Y-6223000D03*
X10115000Y-6477000D03*
X10115000Y-6223000D03*
X10369000Y-6477000D03*
X10369000Y-6223000D03*
X10623000Y-6477000D03*
X10623000Y-6223000D03*
X10877000Y-6477000D03*
X10877000Y-6223000D03*
X11131000Y-6477000D03*
X11131000Y-6223000D03*
X11385000Y-6477000D03*
X11385000Y-6223000D03*
X11639000Y-6477000D03*
X11639000Y-6223000D03*
X11893000Y-6477000D03*
X11893000Y-6223000D03*
X12147000Y-6477000D03*
X12147000Y-6223000D03*
X12401000Y-6477000D03*
X12401000Y-6223000D03*
X12655000Y-6477000D03*
X12655000Y-6223000D03*
X12909000Y-6477000D03*
X12909000Y-6223000D03*
X13163000Y-6477000D03*
X13163000Y-6223000D03*
D14*
X11137646Y-8832850D03*
X10947654Y-8832850D03*
X9346946Y-8636000D03*
X9156954Y-8636000D03*
D15*
X9441180Y-9093200D03*
X9151620Y-9093200D03*
X9444780Y-8850000D03*
X9155220Y-8850000D03*
D16*
X10430000Y-8465004D03*
X10430000Y-8654996D03*
D17*
X10648950Y-8415020D03*
X10648950Y-8564880D03*
D14*
X9099804Y-7842250D03*
X9289796Y-7842250D03*
X9099804Y-7639050D03*
X9289796Y-7639050D03*
D18*
X11472614Y-8530000D03*
X11807386Y-8530000D03*
D19*
X8001000Y-8636000D03*
D20*
X8001000Y-8128000D03*
D19*
X8001000Y-9779000D03*
D20*
X8001000Y-9271000D03*
D11*
X13716000Y-6985000D03*
D12*
X13716000Y-7239000D03*
X13462000Y-6985000D03*
X13462000Y-7239000D03*
X13208000Y-6985000D03*
X13208000Y-7239000D03*
X12954000Y-6985000D03*
X12954000Y-7239000D03*
X12700000Y-6985000D03*
X12700000Y-7239000D03*
X12446000Y-6985000D03*
X12446000Y-7239000D03*
X12192000Y-6985000D03*
X12192000Y-7239000D03*
X11938000Y-6985000D03*
X11938000Y-7239000D03*
D11*
X11430000Y-6985000D03*
D12*
X11430000Y-7239000D03*
X11176000Y-6985000D03*
X11176000Y-7239000D03*
X10922000Y-6985000D03*
X10922000Y-7239000D03*
X10668000Y-6985000D03*
X10668000Y-7239000D03*
D21*
X11716000Y-9846000D03*
D22*
X11462000Y-9846000D03*
X11208000Y-9846000D03*
X10954000Y-9846000D03*
X10700000Y-9846000D03*
X10446000Y-9846000D03*
X10192000Y-9846000D03*
X9938000Y-9846000D03*
X11716000Y-10100000D03*
X11462000Y-10100000D03*
X11208000Y-10100000D03*
X10954000Y-10100000D03*
X10700000Y-10100000D03*
X10446000Y-10100000D03*
X10192000Y-10100000D03*
X9938000Y-10100000D03*
X11716000Y-10354000D03*
X11462000Y-10354000D03*
X11208000Y-10354000D03*
X10954000Y-10354000D03*
X10700000Y-10354000D03*
X10446000Y-10354000D03*
X10192000Y-10354000D03*
X9938000Y-10354000D03*
D23*
X10947654Y-9036050D03*
X11137646Y-9036050D03*
X11137646Y-8629650D03*
X10947654Y-8629650D03*
D24*
X9932670Y-7918450D03*
X10082530Y-7918450D03*
D23*
X10642346Y-8216900D03*
X10452354Y-8216900D03*
D25*
X13741000Y-9372000D03*
X13741000Y-7848000D03*
X13487000Y-9372000D03*
X13487000Y-7848000D03*
X13233000Y-9372000D03*
X13233000Y-7848000D03*
X12979000Y-9372000D03*
X12979000Y-7848000D03*
X12725000Y-9372000D03*
X12725000Y-7848000D03*
X12471000Y-9372000D03*
X12471000Y-7848000D03*
X12217000Y-9372000D03*
X12217000Y-7848000D03*
X11963000Y-9372000D03*
X11963000Y-7848000D03*
X11709000Y-9372000D03*
X11709000Y-7848000D03*
X11455000Y-9372000D03*
X11455000Y-7848000D03*
X11201000Y-9372000D03*
X11201000Y-7848000D03*
X10947000Y-9372000D03*
X10947000Y-7848000D03*
X10693000Y-9372000D03*
X10693000Y-7848000D03*
X10439000Y-9372000D03*
X10439000Y-7848000D03*
D26*
X10150600Y-8470900D03*
X9610600Y-8470900D03*
X10150600Y-8343900D03*
X9610600Y-8343900D03*
X10150600Y-8216900D03*
X9610600Y-8216900D03*
X10150600Y-8089900D03*
X9610600Y-8089900D03*
D27*
X9880600Y-8280400D03*
D28*
X13487400Y-8584000D03*
X13487400Y-8434000D03*
D29*
X12846050Y-10047986D03*
X12846050Y-9713214D03*
D30*
X13296000Y-8487700D03*
X13296000Y-8552700D03*
X13296000Y-8617700D03*
X13296000Y-8682700D03*
X12866000Y-8682700D03*
X12866000Y-8617700D03*
X12866000Y-8552700D03*
X12866000Y-8487700D03*
D14*
X13005004Y-8270000D03*
X13194996Y-8270000D03*
D24*
X13655070Y-8420000D03*
X13804930Y-8420000D03*
D17*
X12040000Y-9864930D03*
X12040000Y-9715070D03*
D31*
X13768000Y-9180000D03*
X13852000Y-9180000D03*
D32*
X9150000Y-9430000D03*
X9550000Y-9430000D03*
X9200000Y-10580000D03*
X8800000Y-10580000D03*
D33*
X8450000Y-7320000D03*
X7770000Y-7320000D03*
D34*
X7739000Y-10350000D03*
X7993000Y-10350000D03*
X8247000Y-10350000D03*
X8501000Y-10350000D03*
M02*
