G04 #@! TF.FileFunction,Paste,Bot*
%FSLAX45Y45*%
G04 Gerber Fmt 4.5, Leading zero omitted, Abs format (unit mm)*
G04 Created by KiCad (PCBNEW 4.0.7-e2-6376~58~ubuntu17.04.1) date Fri Feb 23 16:56:55 2018*
%MOMM*%
%LPD*%
G01*
G04 APERTURE LIST*
%ADD10C,0.100000*%
%ADD11R,0.698500X1.297940*%
%ADD12R,0.899160X1.597660*%
%ADD13R,1.297940X0.698500*%
%ADD14R,0.899160X0.599440*%
%ADD15R,0.848360X1.198880*%
%ADD16R,0.599440X0.899160*%
%ADD17R,2.200000X0.600000*%
%ADD18R,2.500000X3.500000*%
%ADD19R,1.400000X0.700000*%
%ADD20R,1.198880X0.848360*%
%ADD21R,1.100000X0.400000*%
%ADD22R,0.360000X0.250000*%
%ADD23R,2.500000X1.800000*%
%ADD24R,2.500000X3.300000*%
G04 APERTURE END LIST*
D10*
D11*
X11137646Y-8832850D03*
X10947654Y-8832850D03*
X9346946Y-8636000D03*
X9156954Y-8636000D03*
D12*
X9441180Y-9093200D03*
X9151620Y-9093200D03*
X9444780Y-8850000D03*
X9155220Y-8850000D03*
D13*
X10430000Y-8465004D03*
X10430000Y-8654996D03*
D14*
X10648950Y-8415020D03*
X10648950Y-8564880D03*
D11*
X9099804Y-7842250D03*
X9289796Y-7842250D03*
X9099804Y-7639050D03*
X9289796Y-7639050D03*
D15*
X11472614Y-8530000D03*
X11807386Y-8530000D03*
D11*
X10947654Y-9036050D03*
X11137646Y-9036050D03*
X11137646Y-8629650D03*
X10947654Y-8629650D03*
D16*
X9932670Y-7918450D03*
X10082530Y-7918450D03*
D11*
X10642346Y-8216900D03*
X10452354Y-8216900D03*
D17*
X10150600Y-8470900D03*
X9610600Y-8470900D03*
X10150600Y-8343900D03*
X9610600Y-8343900D03*
X10150600Y-8216900D03*
X9610600Y-8216900D03*
X10150600Y-8089900D03*
X9610600Y-8089900D03*
D18*
X9880600Y-8280400D03*
D19*
X13487400Y-8584000D03*
X13487400Y-8434000D03*
D20*
X12846050Y-10047986D03*
X12846050Y-9713214D03*
D21*
X13296000Y-8487700D03*
X13296000Y-8552700D03*
X13296000Y-8617700D03*
X13296000Y-8682700D03*
X12866000Y-8682700D03*
X12866000Y-8617700D03*
X12866000Y-8552700D03*
X12866000Y-8487700D03*
D11*
X13005004Y-8270000D03*
X13194996Y-8270000D03*
D16*
X13655070Y-8420000D03*
X13804930Y-8420000D03*
D14*
X12040000Y-9864930D03*
X12040000Y-9715070D03*
D22*
X13768000Y-9180000D03*
X13852000Y-9180000D03*
D23*
X9150000Y-9430000D03*
X9550000Y-9430000D03*
X9200000Y-10580000D03*
X8800000Y-10580000D03*
D24*
X8450000Y-7320000D03*
X7770000Y-7320000D03*
M02*
