M48
;DRILL file {KiCad 4.0.7-e2-6376~58~ubuntu17.04.1} date Fri Feb 23 16:57:00 2018
;FORMAT={2:4/ absolute / inch / suppress leading zeros}
FMAT,2
INCH,TZ
T1C0.012
T2C0.016
T3C0.024
T4C0.035
T5C0.039
T6C0.039
T7C0.047
T8C0.106
%
G90
G05
M72
T1
X32953Y-42677
X32992Y-41732
X33504Y-34488
X33622Y-26693
X34016Y-26299
X34803Y-33780
X34843Y-40118
X35276Y-26457
X35354Y-42283
X35512Y-40787
X35827Y-44882
X37087Y-33307
X38189Y-35945
X38346Y-27008
X38583Y-27953
X38661Y-44882
X39528Y-37480
X39606Y-36929
X39764Y-26850
X40079Y-31181
X40630Y-28346
X40709Y-30079
X40709Y-32835
X40827Y-26260
X41811Y-42756
X41890Y-43701
X42362Y-31693
X42598Y-42992
X43622Y-30276
X44567Y-29213
X45945Y-29016
X46693Y-32126
X46693Y-32598
X46693Y-41496
X46693Y-43780
X47520Y-40551
X47598Y-30236
X48583Y-30000
X49409Y-39882
X49921Y-38268
X50079Y-29134
X50157Y-44252
X50900Y-36130
X51181Y-29213
X51220Y-31535
X51250Y-35210
X51710Y-35770
X52087Y-31535
X52105Y-34723
X52520Y-27992
X52677Y-34803
X53071Y-31575
X53071Y-34173
X54567Y-38819
T2
X36142Y-32283
X36220Y-33150
X36378Y-33465
X36457Y-32126
X36457Y-32913
X36614Y-33228
X36693Y-32362
X36850Y-32992
X37008Y-32205
X37087Y-30551
X37638Y-30551
X38110Y-30551
X38583Y-30551
X38583Y-34488
X39291Y-34488
X40000Y-34488
X40630Y-34488
X41575Y-34252
X41575Y-34724
X42520Y-34252
X42520Y-34803
T3
X32913Y-29803
X35197Y-29685
X35591Y-29370
X41339Y-23268
T4
X32823Y-24500
X32823Y-25500
X33823Y-24500
X33823Y-25500
X34823Y-24500
X34823Y-25500
X35823Y-24500
X35823Y-25500
X36823Y-24500
X36823Y-25500
X37823Y-24500
X37823Y-25500
X38823Y-24500
X38823Y-25500
X39823Y-24500
X39823Y-25500
X40823Y-24500
X40823Y-25500
X41098Y-30898
X41098Y-36898
X41823Y-24500
X41823Y-25500
X42098Y-30898
X42098Y-36898
X42823Y-24500
X42823Y-25500
X43098Y-30898
X43098Y-36898
X43823Y-24500
X43823Y-25500
X44098Y-30898
X44098Y-36898
X44823Y-24500
X44823Y-25500
X45098Y-30898
X45098Y-36898
X45823Y-24500
X45823Y-25500
X46098Y-30898
X46098Y-36898
X46823Y-24500
X46823Y-25500
X47098Y-30898
X47098Y-36898
X47823Y-24500
X47823Y-25500
X48098Y-30898
X48098Y-36898
X48823Y-24500
X48823Y-25500
X49098Y-30898
X49098Y-36898
X49823Y-24500
X49823Y-25500
X50098Y-30898
X50098Y-36898
X50823Y-24500
X50823Y-25500
X51098Y-30898
X51098Y-36898
X51823Y-24500
X51823Y-25500
X52098Y-30898
X52098Y-36898
X53098Y-30898
X53098Y-36898
X54098Y-30898
X54098Y-36898
T5
X30469Y-40748
X31469Y-40748
X32469Y-40748
X33469Y-40748
T6
X33250Y-23250
X34250Y-23250
X35250Y-23250
X36250Y-23250
X39126Y-38764
X39126Y-39764
X39126Y-40764
X40126Y-38764
X40126Y-39764
X40126Y-40764
X41126Y-38764
X41126Y-39764
X41126Y-40764
X42000Y-27500
X42000Y-28500
X42126Y-38764
X42126Y-39764
X42126Y-40764
X43000Y-27500
X43000Y-28500
X43126Y-38764
X43126Y-39764
X43126Y-40764
X44000Y-27500
X44000Y-28500
X44126Y-38764
X44126Y-39764
X44126Y-40764
X44300Y-23250
X45000Y-27500
X45000Y-28500
X45126Y-38764
X45126Y-39764
X45126Y-40764
X45300Y-23250
X46126Y-38764
X46126Y-39764
X46126Y-40764
X46300Y-23250
X47000Y-27500
X47000Y-28500
X47300Y-23250
X48000Y-27500
X48000Y-28500
X48300Y-23250
X49000Y-27500
X49000Y-28500
X49300Y-23250
X50000Y-27500
X50000Y-28500
X50300Y-23250
X51000Y-27500
X51000Y-28500
X51300Y-23250
X52000Y-27500
X52000Y-28500
X53000Y-27500
X53000Y-28500
X54000Y-27500
X54000Y-28500
T7
X31500Y-32000
X31500Y-34000
X31500Y-36500
X31500Y-38500
T8
X30906Y-25000
X30906Y-44488
X53740Y-25000
X53740Y-44488
T0
M30
