G04 #@! TF.FileFunction,Soldermask,Top*
%FSLAX46Y46*%
G04 Gerber Fmt 4.6, Leading zero omitted, Abs format (unit mm)*
G04 Created by KiCad (PCBNEW 4.0.2+dfsg1-stable) date Sat 19 Aug 2017 09:03:07 PM PDT*
%MOMM*%
G01*
G04 APERTURE LIST*
%ADD10C,0.100000*%
%ADD11C,1.506220*%
%ADD12O,1.300000X2.000000*%
%ADD13R,3.197860X1.597660*%
%ADD14R,4.099560X1.998980*%
%ADD15R,1.701800X1.102360*%
%ADD16R,2.000000X1.000000*%
%ADD17R,1.200000X1.200000*%
%ADD18R,3.400000X3.800000*%
%ADD19R,2.500000X1.400000*%
%ADD20R,3.600000X5.000000*%
%ADD21R,0.700000X0.550000*%
%ADD22R,0.635000X1.250000*%
%ADD23R,0.650000X1.250000*%
%ADD24R,4.600000X3.900000*%
%ADD25R,1.297940X1.549400*%
%ADD26C,1.500000*%
%ADD27R,2.000000X1.600000*%
%ADD28O,2.000000X1.600000*%
%ADD29R,1.600000X2.000000*%
%ADD30O,1.600000X2.000000*%
%ADD31R,0.500000X2.200000*%
%ADD32R,0.500000X2.550000*%
%ADD33R,4.900000X2.900000*%
%ADD34C,1.200000*%
%ADD35R,1.500000X1.500000*%
%ADD36O,1.500000X1.500000*%
G04 APERTURE END LIST*
D10*
D11*
X102000000Y-86350000D03*
X102000000Y-83810000D03*
X102000000Y-81270000D03*
X102000000Y-78730000D03*
X102000000Y-76190000D03*
X102000000Y-73650000D03*
X102610000Y-104000000D03*
X105150000Y-104000000D03*
X107690000Y-104000000D03*
X110230000Y-104000000D03*
X112770000Y-104000000D03*
X115310000Y-104000000D03*
X117850000Y-104000000D03*
X120390000Y-104000000D03*
D12*
X138430000Y-88068000D03*
X138430000Y-72828000D03*
X135890000Y-88068000D03*
X135890000Y-72828000D03*
X133350000Y-88068000D03*
X133350000Y-72828000D03*
X130810000Y-88068000D03*
X130810000Y-72828000D03*
X128270000Y-88068000D03*
X128270000Y-72828000D03*
X125730000Y-88068000D03*
X125730000Y-72828000D03*
X123190000Y-88068000D03*
X123190000Y-72828000D03*
X120650000Y-88068000D03*
X120650000Y-72828000D03*
X118110000Y-88068000D03*
X118110000Y-72828000D03*
X115570000Y-88068000D03*
X115570000Y-72828000D03*
X113030000Y-88068000D03*
X113030000Y-72828000D03*
X110490000Y-88068000D03*
X110490000Y-72828000D03*
X107950000Y-88068000D03*
X107950000Y-72828000D03*
X105410000Y-88068000D03*
X105410000Y-72828000D03*
D13*
X90317320Y-104800400D03*
X95712280Y-104800400D03*
X89697480Y-96500000D03*
X84302520Y-96500000D03*
D14*
X77312520Y-73152000D03*
X86009480Y-73152000D03*
D15*
X135450600Y-67750700D03*
X135450600Y-69249300D03*
X138549400Y-69249300D03*
X138549400Y-67750700D03*
D16*
X91059000Y-77379000D03*
D17*
X90139000Y-71879000D03*
X91979000Y-71879000D03*
D18*
X91059000Y-74979000D03*
D19*
X93800000Y-100800000D03*
X93800000Y-96400000D03*
D11*
X97500000Y-78960000D03*
X97500000Y-81500000D03*
X97500000Y-84040000D03*
X130190000Y-96500000D03*
X132730000Y-96500000D03*
X135270000Y-96500000D03*
X137810000Y-96500000D03*
X99500000Y-93960000D03*
X99500000Y-96500000D03*
X99500000Y-99040000D03*
X126500000Y-93960000D03*
X126500000Y-96500000D03*
X126500000Y-99040000D03*
X100203000Y-67945000D03*
X102743000Y-67945000D03*
X105283000Y-67945000D03*
X107823000Y-67945000D03*
X110363000Y-67945000D03*
X112903000Y-67945000D03*
X115443000Y-67945000D03*
X117983000Y-67945000D03*
X122301000Y-67945000D03*
X124841000Y-67945000D03*
X127381000Y-67945000D03*
X129921000Y-67945000D03*
X132461000Y-67945000D03*
X127420000Y-104000000D03*
X129960000Y-104000000D03*
X132500000Y-104000000D03*
X135040000Y-104000000D03*
X137580000Y-104000000D03*
D20*
X88858000Y-85090000D03*
X77258000Y-85090000D03*
D21*
X86625000Y-101825000D03*
X85375000Y-101825000D03*
X84050000Y-101825000D03*
D22*
X87905000Y-107525000D03*
D23*
X86635000Y-107525000D03*
D22*
X85365000Y-107525000D03*
X84095000Y-107525000D03*
D24*
X86000000Y-104050000D03*
D21*
X87950000Y-101825000D03*
D25*
X126964440Y-114970560D03*
X126964440Y-107025440D03*
X131861560Y-114970560D03*
X131861560Y-107025440D03*
X116051440Y-114972560D03*
X116051440Y-107027440D03*
X120948560Y-114972560D03*
X120948560Y-107027440D03*
X107551440Y-114972560D03*
X107551440Y-107027440D03*
X112448560Y-114972560D03*
X112448560Y-107027440D03*
X98051440Y-114972560D03*
X98051440Y-107027440D03*
X102948560Y-114972560D03*
X102948560Y-107027440D03*
D26*
X83370000Y-64770000D03*
X83370000Y-62230000D03*
X85910000Y-64770000D03*
X85910000Y-62230000D03*
X88450000Y-64770000D03*
X88450000Y-62230000D03*
X90990000Y-64770000D03*
X90990000Y-62230000D03*
X93530000Y-64770000D03*
X93530000Y-62230000D03*
X96070000Y-64770000D03*
X96070000Y-62230000D03*
X98610000Y-64770000D03*
X98610000Y-62230000D03*
X101150000Y-64770000D03*
X101150000Y-62230000D03*
X103690000Y-64770000D03*
X103690000Y-62230000D03*
X106230000Y-64770000D03*
X106230000Y-62230000D03*
X108770000Y-64770000D03*
X108770000Y-62230000D03*
X111310000Y-64770000D03*
X111310000Y-62230000D03*
X113850000Y-64770000D03*
X113850000Y-62230000D03*
X116390000Y-64770000D03*
X116390000Y-62230000D03*
X118930000Y-64770000D03*
X118930000Y-62230000D03*
X121470000Y-64770000D03*
X121470000Y-62230000D03*
X124010000Y-64770000D03*
X124010000Y-62230000D03*
X126550000Y-64770000D03*
X126550000Y-62230000D03*
X129090000Y-64770000D03*
X129090000Y-62230000D03*
X131630000Y-64770000D03*
X131630000Y-62230000D03*
D27*
X78105000Y-102263000D03*
D28*
X78105000Y-105763000D03*
D29*
X85880000Y-113665000D03*
D30*
X89380000Y-113665000D03*
D31*
X92583000Y-87930000D03*
X92583000Y-93680000D03*
D32*
X93853000Y-88105000D03*
D31*
X93853000Y-93680000D03*
X95123000Y-87930000D03*
X95123000Y-93680000D03*
X96393000Y-87930000D03*
X96393000Y-93680000D03*
D33*
X94488000Y-90805000D03*
D34*
X92988000Y-90055000D03*
X92988000Y-91555000D03*
X94488000Y-90055000D03*
X94488000Y-91555000D03*
X95988000Y-91555000D03*
X95988000Y-90055000D03*
D35*
X120660000Y-93960000D03*
D36*
X118120000Y-93960000D03*
X115580000Y-93960000D03*
X113040000Y-93960000D03*
X110500000Y-93960000D03*
X107960000Y-93960000D03*
X105420000Y-93960000D03*
X102880000Y-93960000D03*
X120660000Y-96500000D03*
X118120000Y-96500000D03*
X115580000Y-96500000D03*
X113040000Y-96500000D03*
X110500000Y-96500000D03*
X107960000Y-96500000D03*
X105420000Y-96500000D03*
X102880000Y-96500000D03*
X120660000Y-99040000D03*
X118120000Y-99040000D03*
X115580000Y-99040000D03*
X113040000Y-99040000D03*
X110500000Y-99040000D03*
X107960000Y-99040000D03*
X105420000Y-99040000D03*
X102880000Y-99040000D03*
M02*
