G04 #@! TF.FileFunction,Copper,L3,Inr,Signal*
%FSLAX46Y46*%
G04 Gerber Fmt 4.6, Leading zero omitted, Abs format (unit mm)*
G04 Created by KiCad (PCBNEW 4.0.2+dfsg1-stable) date Sat 19 Aug 2017 09:03:07 PM PDT*
%MOMM*%
G01*
G04 APERTURE LIST*
%ADD10C,0.100000*%
%ADD11C,1.506220*%
%ADD12O,1.300000X2.000000*%
%ADD13C,1.500000*%
%ADD14R,2.000000X1.600000*%
%ADD15O,2.000000X1.600000*%
%ADD16R,1.600000X2.000000*%
%ADD17O,1.600000X2.000000*%
%ADD18C,1.200000*%
%ADD19R,1.500000X1.500000*%
%ADD20O,1.500000X1.500000*%
%ADD21C,0.465000*%
%ADD22C,0.600000*%
%ADD23C,0.900000*%
%ADD24C,1.400000*%
%ADD25C,0.250000*%
%ADD26C,1.000000*%
%ADD27C,1.500000*%
%ADD28C,0.500000*%
G04 APERTURE END LIST*
D10*
D11*
X102000000Y-86350000D03*
X102000000Y-83810000D03*
X102000000Y-81270000D03*
X102000000Y-78730000D03*
X102000000Y-76190000D03*
X102000000Y-73650000D03*
X102610000Y-104000000D03*
X105150000Y-104000000D03*
X107690000Y-104000000D03*
X110230000Y-104000000D03*
X112770000Y-104000000D03*
X115310000Y-104000000D03*
X117850000Y-104000000D03*
X120390000Y-104000000D03*
D12*
X138430000Y-88068000D03*
X138430000Y-72828000D03*
X135890000Y-88068000D03*
X135890000Y-72828000D03*
X133350000Y-88068000D03*
X133350000Y-72828000D03*
X130810000Y-88068000D03*
X130810000Y-72828000D03*
X128270000Y-88068000D03*
X128270000Y-72828000D03*
X125730000Y-88068000D03*
X125730000Y-72828000D03*
X123190000Y-88068000D03*
X123190000Y-72828000D03*
X120650000Y-88068000D03*
X120650000Y-72828000D03*
X118110000Y-88068000D03*
X118110000Y-72828000D03*
X115570000Y-88068000D03*
X115570000Y-72828000D03*
X113030000Y-88068000D03*
X113030000Y-72828000D03*
X110490000Y-88068000D03*
X110490000Y-72828000D03*
X107950000Y-88068000D03*
X107950000Y-72828000D03*
X105410000Y-88068000D03*
X105410000Y-72828000D03*
D11*
X97500000Y-78960000D03*
X97500000Y-81500000D03*
X97500000Y-84040000D03*
X130190000Y-96500000D03*
X132730000Y-96500000D03*
X135270000Y-96500000D03*
X137810000Y-96500000D03*
X99500000Y-93960000D03*
X99500000Y-96500000D03*
X99500000Y-99040000D03*
X126500000Y-93960000D03*
X126500000Y-96500000D03*
X126500000Y-99040000D03*
X100203000Y-67945000D03*
X102743000Y-67945000D03*
X105283000Y-67945000D03*
X107823000Y-67945000D03*
X110363000Y-67945000D03*
X112903000Y-67945000D03*
X115443000Y-67945000D03*
X117983000Y-67945000D03*
X122301000Y-67945000D03*
X124841000Y-67945000D03*
X127381000Y-67945000D03*
X129921000Y-67945000D03*
X132461000Y-67945000D03*
X127420000Y-104000000D03*
X129960000Y-104000000D03*
X132500000Y-104000000D03*
X135040000Y-104000000D03*
X137580000Y-104000000D03*
D13*
X83370000Y-64770000D03*
X83370000Y-62230000D03*
X85910000Y-64770000D03*
X85910000Y-62230000D03*
X88450000Y-64770000D03*
X88450000Y-62230000D03*
X90990000Y-64770000D03*
X90990000Y-62230000D03*
X93530000Y-64770000D03*
X93530000Y-62230000D03*
X96070000Y-64770000D03*
X96070000Y-62230000D03*
X98610000Y-64770000D03*
X98610000Y-62230000D03*
X101150000Y-64770000D03*
X101150000Y-62230000D03*
X103690000Y-64770000D03*
X103690000Y-62230000D03*
X106230000Y-64770000D03*
X106230000Y-62230000D03*
X108770000Y-64770000D03*
X108770000Y-62230000D03*
X111310000Y-64770000D03*
X111310000Y-62230000D03*
X113850000Y-64770000D03*
X113850000Y-62230000D03*
X116390000Y-64770000D03*
X116390000Y-62230000D03*
X118930000Y-64770000D03*
X118930000Y-62230000D03*
X121470000Y-64770000D03*
X121470000Y-62230000D03*
X124010000Y-64770000D03*
X124010000Y-62230000D03*
X126550000Y-64770000D03*
X126550000Y-62230000D03*
X129090000Y-64770000D03*
X129090000Y-62230000D03*
X131630000Y-64770000D03*
X131630000Y-62230000D03*
D14*
X78105000Y-102263000D03*
D15*
X78105000Y-105763000D03*
D16*
X85880000Y-113665000D03*
D17*
X89380000Y-113665000D03*
D18*
X92988000Y-90055000D03*
X92988000Y-91555000D03*
X94488000Y-90055000D03*
X94488000Y-91555000D03*
X95988000Y-91555000D03*
X95988000Y-90055000D03*
D19*
X120660000Y-93960000D03*
D20*
X118120000Y-93960000D03*
X115580000Y-93960000D03*
X113040000Y-93960000D03*
X110500000Y-93960000D03*
X107960000Y-93960000D03*
X105420000Y-93960000D03*
X102880000Y-93960000D03*
X120660000Y-96500000D03*
X118120000Y-96500000D03*
X115580000Y-96500000D03*
X113040000Y-96500000D03*
X110500000Y-96500000D03*
X107960000Y-96500000D03*
X105420000Y-96500000D03*
X102880000Y-96500000D03*
X120660000Y-99040000D03*
X118120000Y-99040000D03*
X115580000Y-99040000D03*
X113040000Y-99040000D03*
X110500000Y-99040000D03*
X107960000Y-99040000D03*
X105420000Y-99040000D03*
X102880000Y-99040000D03*
D21*
X98501200Y-91897200D03*
X98094800Y-90373200D03*
X98501200Y-88798400D03*
X90779600Y-88722200D03*
X90779600Y-90805000D03*
X90779600Y-92837000D03*
D22*
X104394000Y-114173000D03*
D23*
X91500000Y-70000000D03*
X89000000Y-70000000D03*
D22*
X76000000Y-98000000D03*
X78000000Y-98000000D03*
D23*
X100000000Y-91000000D03*
D24*
X87000000Y-98000000D03*
D23*
X97500000Y-73500000D03*
X97500000Y-75500000D03*
D22*
X79500000Y-75500000D03*
X80250000Y-74000000D03*
X96750000Y-110250000D03*
X78500000Y-69500000D03*
X79000000Y-70500000D03*
X81000000Y-85000000D03*
X79500000Y-80000000D03*
X121500000Y-74500000D03*
X111480600Y-81280000D03*
X108610400Y-80721200D03*
X116713000Y-83362800D03*
X107950000Y-83362800D03*
X116865400Y-86918800D03*
X117043200Y-95072200D03*
X104902000Y-79451200D03*
X118287800Y-80492600D03*
X105918000Y-89814400D03*
X114808000Y-102489000D03*
X126669800Y-78232000D03*
X123799600Y-86334600D03*
X123952000Y-93319600D03*
X119443500Y-80327500D03*
X122529600Y-82270600D03*
X126746000Y-84150200D03*
X125412500Y-84137500D03*
X130556000Y-70866000D03*
X133540500Y-83502500D03*
X123596400Y-78740000D03*
X134747000Y-83743800D03*
X122682000Y-78930500D03*
X121615200Y-70548500D03*
X133477000Y-80899000D03*
X94869000Y-69723000D03*
X133413500Y-78359000D03*
X128193800Y-108458000D03*
X136677400Y-100380800D03*
X137160000Y-75514200D03*
X134620000Y-71628000D03*
X129590800Y-71805800D03*
X129743200Y-86029800D03*
X116509800Y-101117400D03*
X118033800Y-107137200D03*
X134010400Y-68935600D03*
X96342200Y-71704200D03*
X102362000Y-110363000D03*
X136017000Y-70713600D03*
X137718800Y-66624200D03*
X130657600Y-69189600D03*
X123266200Y-71069200D03*
X94589600Y-72136000D03*
X98780600Y-105664000D03*
X126809500Y-74739500D03*
X127482600Y-76149200D03*
X129730500Y-84899500D03*
X105410000Y-84836000D03*
X127190500Y-85534500D03*
X106172000Y-85534500D03*
X110464600Y-84251800D03*
X124079000Y-84201000D03*
X106743500Y-86233000D03*
X121856500Y-86169500D03*
X106045000Y-106553000D03*
X92456000Y-104394000D03*
X90500000Y-103500000D03*
X135000000Y-70500000D03*
X138500000Y-70500000D03*
X139000000Y-66500000D03*
X94640400Y-109524800D03*
X111000000Y-107000000D03*
X105500000Y-107500000D03*
X89000000Y-109000000D03*
X94183200Y-98766400D03*
X94900000Y-99300000D03*
X119329200Y-93395800D03*
X122364500Y-83185000D03*
X96500000Y-100500000D03*
D23*
X102997000Y-90995500D03*
D22*
X108458000Y-110109000D03*
X100965000Y-114554000D03*
D24*
X90000000Y-98500000D03*
D22*
X95500000Y-84000000D03*
X92000000Y-95500000D03*
X96000000Y-86000000D03*
X91500000Y-84500000D03*
X97500000Y-94000000D03*
X97500000Y-86000000D03*
D23*
X81500000Y-86500000D03*
D22*
X96000000Y-95500000D03*
D25*
X99500000Y-107500000D02*
X99500000Y-99040000D01*
X96750000Y-110250000D02*
X99500000Y-107500000D01*
X105150000Y-104000000D02*
X105150000Y-103384000D01*
X105150000Y-103384000D02*
X109042200Y-99491800D01*
X109042200Y-99491800D02*
X109042200Y-89408000D01*
X109042200Y-89408000D02*
X108966000Y-89331800D01*
X108966000Y-89331800D02*
X108966000Y-81559400D01*
X108966000Y-81559400D02*
X113030000Y-77495400D01*
X113030000Y-77495400D02*
X113030000Y-72828000D01*
X107690000Y-104000000D02*
X107690000Y-103663400D01*
X107690000Y-103663400D02*
X111607600Y-99745800D01*
X111607600Y-99745800D02*
X111607600Y-96062800D01*
X111607600Y-96062800D02*
X112623600Y-95046800D01*
X112623600Y-95046800D02*
X113487200Y-95046800D01*
X113487200Y-95046800D02*
X114147600Y-94386400D01*
X114147600Y-94386400D02*
X114147600Y-91719400D01*
X114147600Y-91719400D02*
X111531400Y-89103200D01*
X111531400Y-89103200D02*
X111531400Y-81330800D01*
X111531400Y-81330800D02*
X111480600Y-81280000D01*
X108610400Y-80721200D02*
X110490000Y-78867000D01*
X110490000Y-78867000D02*
X110490000Y-72828000D01*
X110230000Y-104000000D02*
X110230000Y-103409400D01*
X110230000Y-103409400D02*
X114147600Y-99491800D01*
X114147600Y-99491800D02*
X114147600Y-95707200D01*
X114147600Y-95707200D02*
X114782600Y-95072200D01*
X114782600Y-95072200D02*
X116001800Y-95072200D01*
X116001800Y-95072200D02*
X116687600Y-94386400D01*
X116687600Y-94386400D02*
X116687600Y-92176600D01*
X116687600Y-92176600D02*
X114096800Y-89585800D01*
X114096800Y-89585800D02*
X114096800Y-85979000D01*
X114096800Y-85979000D02*
X116713000Y-83362800D01*
X107950000Y-83362800D02*
X107950000Y-72828000D01*
X105410000Y-78943200D02*
X105410000Y-72828000D01*
X104902000Y-79451200D02*
X105410000Y-78943200D01*
X112770000Y-104000000D02*
X112770000Y-103485600D01*
X112770000Y-103485600D02*
X117017800Y-99237800D01*
X117017800Y-99237800D02*
X117017800Y-95097600D01*
X117017800Y-95097600D02*
X117043200Y-95072200D01*
X116865400Y-86918800D02*
X118287800Y-85496400D01*
X118287800Y-85496400D02*
X118287800Y-80492600D01*
X115310000Y-104000000D02*
X115310000Y-102991000D01*
X105918000Y-89814400D02*
X107664400Y-88068000D01*
X115310000Y-102991000D02*
X114808000Y-102489000D01*
X107664400Y-88068000D02*
X107950000Y-88068000D01*
X126669800Y-78816200D02*
X126669800Y-78232000D01*
X117850000Y-104000000D02*
X117850000Y-102342600D01*
X126669800Y-79806800D02*
X126669800Y-78816200D01*
X126669800Y-78816200D02*
X126669800Y-78841600D01*
X122707400Y-83769200D02*
X126669800Y-79806800D01*
X122707400Y-85242400D02*
X122707400Y-83769200D01*
X123799600Y-86334600D02*
X122707400Y-85242400D01*
X122097800Y-95173800D02*
X123952000Y-93319600D01*
X120294400Y-95173800D02*
X122097800Y-95173800D01*
X119303800Y-96164400D02*
X120294400Y-95173800D01*
X119303800Y-100888800D02*
X119303800Y-96164400D01*
X117850000Y-102342600D02*
X119303800Y-100888800D01*
X118110000Y-88068000D02*
X118110000Y-86890000D01*
X119443500Y-82556500D02*
X119443500Y-80327500D01*
X119000000Y-83000000D02*
X119443500Y-82556500D01*
X119000000Y-86000000D02*
X119000000Y-83000000D01*
X118110000Y-86890000D02*
X119000000Y-86000000D01*
X120650000Y-88068000D02*
X120650000Y-86944200D01*
X122326400Y-82270600D02*
X122529600Y-82270600D01*
X120446800Y-84150200D02*
X122326400Y-82270600D01*
X120446800Y-86741000D02*
X120446800Y-84150200D01*
X120650000Y-86944200D02*
X120446800Y-86741000D01*
X135270000Y-96500000D02*
X135270000Y-95328500D01*
X129413000Y-86804500D02*
X126746000Y-84150200D01*
X129413000Y-89471500D02*
X129413000Y-86804500D01*
X135270000Y-95328500D02*
X129413000Y-89471500D01*
X137810000Y-96500000D02*
X137810000Y-96568500D01*
X137810000Y-96568500D02*
X136334500Y-98044000D01*
X136334500Y-98044000D02*
X134747000Y-98044000D01*
X134747000Y-98044000D02*
X133985000Y-97282000D01*
X133985000Y-97282000D02*
X133985000Y-95948500D01*
X133985000Y-95948500D02*
X127000000Y-88963500D01*
X127000000Y-88963500D02*
X127000000Y-86677500D01*
X127000000Y-86677500D02*
X126365000Y-86042500D01*
X126365000Y-86042500D02*
X126365000Y-85090000D01*
X126365000Y-85090000D02*
X125412500Y-84137500D01*
X102743000Y-67945000D02*
X105918000Y-64770000D01*
X105918000Y-64770000D02*
X106230000Y-64770000D01*
X105283000Y-67945000D02*
X108458000Y-64770000D01*
X108458000Y-64770000D02*
X108770000Y-64770000D01*
X108770000Y-62230000D02*
X110083600Y-63543600D01*
X110083600Y-63543600D02*
X110083600Y-67665600D01*
X110083600Y-67665600D02*
X110363000Y-67945000D01*
X112903000Y-67945000D02*
X112623600Y-67665600D01*
X112623600Y-67665600D02*
X112623600Y-63543600D01*
X112623600Y-63543600D02*
X111310000Y-62230000D01*
X115443000Y-67945000D02*
X115112800Y-67614800D01*
X115112800Y-67614800D02*
X115112800Y-63492800D01*
X115112800Y-63492800D02*
X113850000Y-62230000D01*
X85910000Y-64770000D02*
X85910000Y-64828000D01*
X85910000Y-64828000D02*
X87198200Y-66116200D01*
X87198200Y-66116200D02*
X89027000Y-66116200D01*
X89027000Y-66116200D02*
X94157800Y-71247000D01*
X94157800Y-71247000D02*
X95504000Y-71247000D01*
X95504000Y-71247000D02*
X96647000Y-70104000D01*
X96647000Y-70104000D02*
X120827800Y-70104000D01*
X120827800Y-70104000D02*
X121818400Y-69113400D01*
X121818400Y-69113400D02*
X122910600Y-69113400D01*
X122910600Y-69113400D02*
X123571000Y-68453000D01*
X123571000Y-68453000D02*
X123571000Y-67487800D01*
X123571000Y-67487800D02*
X124409200Y-66649600D01*
X124409200Y-66649600D02*
X128625600Y-66649600D01*
X128625600Y-66649600D02*
X129921000Y-67945000D01*
X123596400Y-78740000D02*
X123620319Y-76276186D01*
X123620319Y-76276186D02*
X124714000Y-75184000D01*
X124714000Y-75184000D02*
X124714000Y-71755000D01*
X124714000Y-71755000D02*
X125603000Y-70866000D01*
X125603000Y-70866000D02*
X130556000Y-70866000D01*
X88450000Y-64770000D02*
X94317400Y-70637400D01*
X130708400Y-66141600D02*
X132461000Y-67945000D01*
X121883920Y-66154338D02*
X130708400Y-66141600D01*
X118694200Y-69443600D02*
X121883920Y-66154338D01*
X96596200Y-69443600D02*
X118694200Y-69443600D01*
X95402400Y-70637400D02*
X96596200Y-69443600D01*
X94317400Y-70637400D02*
X95402400Y-70637400D01*
X122682000Y-78930500D02*
X122682000Y-76327000D01*
X132461000Y-69215000D02*
X132461000Y-67945000D01*
X131508500Y-70167500D02*
X132461000Y-69215000D01*
X125603000Y-70167500D02*
X131508500Y-70167500D01*
X124206000Y-71564500D02*
X125603000Y-70167500D01*
X124206000Y-74803000D02*
X124206000Y-71564500D01*
X122682000Y-76327000D02*
X124206000Y-74803000D01*
X127381000Y-67945000D02*
X126238000Y-69088000D01*
X126238000Y-69088000D02*
X124993400Y-69088000D01*
X122567700Y-69596000D02*
X121615200Y-70548500D01*
X124485400Y-69596000D02*
X122567700Y-69596000D01*
X124993400Y-69088000D02*
X124485400Y-69596000D01*
X94869000Y-69723000D02*
X95021400Y-69519800D01*
X95021400Y-69519800D02*
X94970600Y-63677800D01*
X94970600Y-63677800D02*
X93530000Y-62230000D01*
X128193800Y-108458000D02*
X130962400Y-105689400D01*
X130962400Y-105689400D02*
X135382000Y-105689400D01*
X135382000Y-105689400D02*
X136398000Y-104673400D01*
X136398000Y-104673400D02*
X136398000Y-100660200D01*
X136398000Y-100660200D02*
X136677400Y-100380800D01*
X137160000Y-75514200D02*
X136855200Y-75209400D01*
X136855200Y-75209400D02*
X135839200Y-75209400D01*
X135839200Y-75209400D02*
X134620000Y-73990200D01*
X134620000Y-73990200D02*
X134620000Y-71628000D01*
X129590800Y-79908400D02*
X129590800Y-71805800D01*
X128625600Y-80873600D02*
X129590800Y-79908400D01*
X128625600Y-84912200D02*
X128625600Y-80873600D01*
X129743200Y-86029800D02*
X128625600Y-84912200D01*
X116509800Y-105613200D02*
X116509800Y-101117400D01*
X118033800Y-107137200D02*
X116509800Y-105613200D01*
X127820000Y-63500000D02*
X126550000Y-62230000D01*
X129641600Y-63500000D02*
X127820000Y-63500000D01*
X130352800Y-64211200D02*
X129641600Y-63500000D01*
X130352800Y-65125600D02*
X130352800Y-64211200D01*
X131368800Y-66141600D02*
X130352800Y-65125600D01*
X132613400Y-66141600D02*
X131368800Y-66141600D01*
X133985000Y-67513200D02*
X132613400Y-66141600D01*
X133985000Y-68910200D02*
X133985000Y-67513200D01*
X134010400Y-68935600D02*
X133985000Y-68910200D01*
X96266000Y-71780400D02*
X96342200Y-71704200D01*
X96266000Y-84734400D02*
X96266000Y-71780400D01*
X96824800Y-85293200D02*
X96266000Y-84734400D01*
X97917000Y-85293200D02*
X96824800Y-85293200D01*
X98221800Y-85598000D02*
X97917000Y-85293200D01*
X98221800Y-87604600D02*
X98221800Y-85598000D01*
X101168200Y-90551000D02*
X98221800Y-87604600D01*
X101168200Y-109169200D02*
X101168200Y-90551000D01*
X102362000Y-110363000D02*
X101168200Y-109169200D01*
X130360000Y-63500000D02*
X129090000Y-62230000D01*
X132461000Y-63500000D02*
X130360000Y-63500000D01*
X133019800Y-64058800D02*
X132461000Y-63500000D01*
X133019800Y-64871600D02*
X133019800Y-64058800D01*
X135915400Y-67767200D02*
X133019800Y-64871600D01*
X136017000Y-67767200D02*
X135915400Y-67767200D01*
X136017000Y-70713600D02*
X136017000Y-67767200D01*
X137718800Y-66624200D02*
X137693400Y-66649600D01*
X132715000Y-62230000D02*
X131630000Y-62230000D01*
X133629400Y-63144400D02*
X132715000Y-62230000D01*
X133629400Y-64439800D02*
X133629400Y-63144400D01*
X135839200Y-66649600D02*
X133629400Y-64439800D01*
X137693400Y-66649600D02*
X135839200Y-66649600D01*
X130657600Y-69189600D02*
X130251200Y-69596000D01*
X130251200Y-69596000D02*
X125323600Y-69596000D01*
X125323600Y-69596000D02*
X123850400Y-71069200D01*
X123850400Y-71069200D02*
X123266200Y-71069200D01*
X94589600Y-72136000D02*
X94640400Y-72186800D01*
X94640400Y-72186800D02*
X94640400Y-83667600D01*
X94640400Y-83667600D02*
X90195400Y-88112600D01*
X90195400Y-88112600D02*
X90195400Y-97078800D01*
X90195400Y-97078800D02*
X98780600Y-105664000D01*
X105410000Y-84899500D02*
X105410000Y-84836000D01*
X129730500Y-84899500D02*
X130810000Y-85979000D01*
X130810000Y-85979000D02*
X130810000Y-88068000D01*
X102880000Y-93960000D02*
X102880000Y-92827000D01*
X103378000Y-86931500D02*
X105410000Y-84899500D01*
X105410000Y-84899500D02*
X105410000Y-84899500D01*
X103378000Y-90043000D02*
X103378000Y-86931500D01*
X103949500Y-90614500D02*
X103378000Y-90043000D01*
X103949500Y-91757500D02*
X103949500Y-90614500D01*
X102880000Y-92827000D02*
X103949500Y-91757500D01*
X105420000Y-93960000D02*
X105420000Y-91380998D01*
X128270000Y-86614000D02*
X128270000Y-88068000D01*
X127190500Y-85534500D02*
X128270000Y-86614000D01*
X105473500Y-85534500D02*
X106172000Y-85534500D01*
X103886000Y-87122000D02*
X105473500Y-85534500D01*
X103886000Y-89852500D02*
X103886000Y-87122000D01*
X105420000Y-91380998D02*
X103886000Y-89852500D01*
X120660000Y-93960000D02*
X120660000Y-93017500D01*
X128270000Y-78867000D02*
X128270000Y-72828000D01*
X123317000Y-83820000D02*
X128270000Y-78867000D01*
X123317000Y-84582000D02*
X123317000Y-83820000D01*
X124650500Y-85915500D02*
X123317000Y-84582000D01*
X124650500Y-89027000D02*
X124650500Y-85915500D01*
X120660000Y-93017500D02*
X124650500Y-89027000D01*
X110500000Y-91186000D02*
X110500000Y-89989500D01*
X124079000Y-84201000D02*
X125730000Y-85852000D01*
X125730000Y-85852000D02*
X125730000Y-88068000D01*
X110464600Y-84315300D02*
X110464600Y-84251800D01*
X109474000Y-85293200D02*
X110464600Y-84315300D01*
X109474000Y-88963500D02*
X109474000Y-85293200D01*
X110500000Y-89989500D02*
X109474000Y-88963500D01*
X110500000Y-93960000D02*
X110500000Y-91186000D01*
X110500000Y-91186000D02*
X110500000Y-91239500D01*
X118120000Y-93960000D02*
X118120000Y-91176000D01*
X125749050Y-78085950D02*
X125730000Y-72828000D01*
X119653050Y-84181950D02*
X125749050Y-78085950D01*
X119634000Y-89662000D02*
X119653050Y-84181950D01*
X118120000Y-91176000D02*
X119634000Y-89662000D01*
X107960000Y-93960000D02*
X107960000Y-93228000D01*
X107960000Y-93228000D02*
X104394000Y-89662000D01*
X104394000Y-89662000D02*
X104394000Y-87312500D01*
X104394000Y-87312500D02*
X105473500Y-86233000D01*
X105473500Y-86233000D02*
X106743500Y-86233000D01*
X121856500Y-86169500D02*
X122682000Y-86169500D01*
X122682000Y-86169500D02*
X123190000Y-86677500D01*
X123190000Y-86677500D02*
X123190000Y-88068000D01*
X115580000Y-93960000D02*
X115580000Y-93355000D01*
X115580000Y-93355000D02*
X115570000Y-93345000D01*
X115570000Y-93345000D02*
X115570000Y-92456000D01*
X115570000Y-92456000D02*
X112014000Y-88900000D01*
X112014000Y-88900000D02*
X112014000Y-85026500D01*
X112014000Y-85026500D02*
X112585500Y-84455000D01*
X112585500Y-84455000D02*
X113157000Y-84455000D01*
X113157000Y-84455000D02*
X123190000Y-74422000D01*
X123190000Y-74422000D02*
X123190000Y-72828000D01*
X113040000Y-93960000D02*
X113040000Y-91767500D01*
X110490000Y-89217500D02*
X110490000Y-88068000D01*
X113040000Y-91767500D02*
X110490000Y-89217500D01*
X137580000Y-104000000D02*
X137580000Y-105244000D01*
X108712000Y-106553000D02*
X106045000Y-106553000D01*
X117475000Y-115316000D02*
X108712000Y-106553000D01*
X126365000Y-115316000D02*
X117475000Y-115316000D01*
X134874000Y-106807000D02*
X126365000Y-115316000D01*
X136017000Y-106807000D02*
X134874000Y-106807000D01*
X137580000Y-105244000D02*
X136017000Y-106807000D01*
X121920000Y-89662000D02*
X119329200Y-92252800D01*
X119329200Y-92252800D02*
X119329200Y-93395800D01*
X121920000Y-87185500D02*
X121920000Y-89662000D01*
X121920000Y-89662000D02*
X121920000Y-89662000D01*
X120967500Y-86233000D02*
X121920000Y-87185500D01*
X120942100Y-84696300D02*
X120967500Y-86233000D01*
X122021600Y-83616800D02*
X120942100Y-84696300D01*
X122364500Y-83185000D02*
X122021600Y-83616800D01*
D26*
X103060500Y-91020900D02*
X103022400Y-91020900D01*
X103022400Y-91020900D02*
X102997000Y-90995500D01*
X103060500Y-91020900D02*
X103098600Y-90982800D01*
X99153000Y-81500000D02*
X99796600Y-82143600D01*
X99796600Y-87680800D02*
X103098600Y-90982800D01*
X99796600Y-82143600D02*
X99796600Y-87680800D01*
D27*
X97500000Y-81500000D02*
X99153000Y-81500000D01*
X100543200Y-73650000D02*
X102000000Y-73650000D01*
X99745800Y-74447400D02*
X100543200Y-73650000D01*
X99745800Y-80907200D02*
X99745800Y-74447400D01*
X99153000Y-81500000D02*
X99745800Y-80907200D01*
D28*
X91500000Y-95000000D02*
X92000000Y-95500000D01*
X91500000Y-89500000D02*
X91500000Y-95000000D01*
X92500000Y-88500000D02*
X91500000Y-89500000D01*
X93500000Y-88500000D02*
X92500000Y-88500000D01*
X96000000Y-86000000D02*
X93500000Y-88500000D01*
D25*
G36*
X94875000Y-62943734D02*
X94538182Y-62605233D01*
X94604813Y-62444769D01*
X94605186Y-62017107D01*
X94441872Y-61621857D01*
X94139733Y-61319191D01*
X93744769Y-61155187D01*
X93317107Y-61154814D01*
X92921857Y-61318128D01*
X92619191Y-61620267D01*
X92455187Y-62015231D01*
X92454814Y-62442893D01*
X92618128Y-62838143D01*
X92920267Y-63140809D01*
X93315231Y-63304813D01*
X93742893Y-63305186D01*
X93900305Y-63240144D01*
X94522212Y-63865159D01*
X94526273Y-64332127D01*
X94484419Y-64231083D01*
X94330503Y-64146274D01*
X93706777Y-64770000D01*
X94330503Y-65393726D01*
X94484419Y-65308917D01*
X94533469Y-65159743D01*
X94544037Y-66375000D01*
X90691396Y-66375000D01*
X89459194Y-65142798D01*
X89524813Y-64984769D01*
X89524814Y-64982893D01*
X89914814Y-64982893D01*
X90078128Y-65378143D01*
X90380267Y-65680809D01*
X90775231Y-65844813D01*
X91202893Y-65845186D01*
X91598143Y-65681872D01*
X91709706Y-65570503D01*
X92906274Y-65570503D01*
X92991083Y-65724419D01*
X93397345Y-65858003D01*
X93823804Y-65825948D01*
X94068917Y-65724419D01*
X94153726Y-65570503D01*
X93530000Y-64946777D01*
X92906274Y-65570503D01*
X91709706Y-65570503D01*
X91900809Y-65379733D01*
X92064813Y-64984769D01*
X92065116Y-64637345D01*
X92441997Y-64637345D01*
X92474052Y-65063804D01*
X92575581Y-65308917D01*
X92729497Y-65393726D01*
X93353223Y-64770000D01*
X92729497Y-64146274D01*
X92575581Y-64231083D01*
X92441997Y-64637345D01*
X92065116Y-64637345D01*
X92065186Y-64557107D01*
X91901872Y-64161857D01*
X91709847Y-63969497D01*
X92906274Y-63969497D01*
X93530000Y-64593223D01*
X94153726Y-63969497D01*
X94068917Y-63815581D01*
X93662655Y-63681997D01*
X93236196Y-63714052D01*
X92991083Y-63815581D01*
X92906274Y-63969497D01*
X91709847Y-63969497D01*
X91599733Y-63859191D01*
X91204769Y-63695187D01*
X90777107Y-63694814D01*
X90381857Y-63858128D01*
X90079191Y-64160267D01*
X89915187Y-64555231D01*
X89914814Y-64982893D01*
X89524814Y-64982893D01*
X89525186Y-64557107D01*
X89361872Y-64161857D01*
X89059733Y-63859191D01*
X88664769Y-63695187D01*
X88237107Y-63694814D01*
X87841857Y-63858128D01*
X87539191Y-64160267D01*
X87375187Y-64555231D01*
X87374814Y-64982893D01*
X87538128Y-65378143D01*
X87825683Y-65666200D01*
X87384596Y-65666200D01*
X86902176Y-65183780D01*
X86984813Y-64984769D01*
X86985186Y-64557107D01*
X86821872Y-64161857D01*
X86519733Y-63859191D01*
X86124769Y-63695187D01*
X85697107Y-63694814D01*
X85301857Y-63858128D01*
X84999191Y-64160267D01*
X84835187Y-64555231D01*
X84834814Y-64982893D01*
X84998128Y-65378143D01*
X85300267Y-65680809D01*
X85695231Y-65844813D01*
X86122893Y-65845186D01*
X86241700Y-65796096D01*
X86880002Y-66434398D01*
X87025992Y-66531946D01*
X87198200Y-66566200D01*
X88840604Y-66566200D01*
X93839602Y-71565198D01*
X93985592Y-71662746D01*
X94146886Y-71694829D01*
X94060060Y-71781504D01*
X93964709Y-72011134D01*
X93964492Y-72259775D01*
X94059442Y-72489571D01*
X94190400Y-72620758D01*
X94190400Y-83481204D01*
X89877202Y-87794402D01*
X89779654Y-87940392D01*
X89745400Y-88112600D01*
X89745400Y-97078800D01*
X89779654Y-97251008D01*
X89877202Y-97396998D01*
X89955164Y-97474960D01*
X89797009Y-97474822D01*
X89420143Y-97630541D01*
X89131554Y-97918626D01*
X88975178Y-98295220D01*
X88974822Y-98702991D01*
X89130541Y-99079857D01*
X89418626Y-99368446D01*
X89795220Y-99524822D01*
X90202991Y-99525178D01*
X90579857Y-99369459D01*
X90868446Y-99081374D01*
X91024822Y-98704780D01*
X91024962Y-98544758D01*
X96375000Y-103894796D01*
X96375000Y-109741234D01*
X96220460Y-109895504D01*
X96125109Y-110125134D01*
X96124892Y-110373775D01*
X96219842Y-110603571D01*
X96375000Y-110759000D01*
X96375000Y-116125000D01*
X77036936Y-116125000D01*
X76380950Y-115994517D01*
X75856146Y-115643854D01*
X75505483Y-115119048D01*
X75375000Y-114463068D01*
X75375000Y-113331716D01*
X76824710Y-113331716D01*
X77079176Y-113947572D01*
X77549950Y-114419168D01*
X78165360Y-114674708D01*
X78831716Y-114675290D01*
X79447572Y-114420824D01*
X79919168Y-113950050D01*
X80174708Y-113334640D01*
X80175290Y-112668284D01*
X80173934Y-112665000D01*
X84748633Y-112665000D01*
X84748633Y-114665000D01*
X84771295Y-114785438D01*
X84842474Y-114896053D01*
X84951080Y-114970260D01*
X85080000Y-114996367D01*
X86680000Y-114996367D01*
X86800438Y-114973705D01*
X86911053Y-114902526D01*
X86985260Y-114793920D01*
X87011367Y-114665000D01*
X87011367Y-113967562D01*
X88253017Y-113967562D01*
X88378052Y-114391033D01*
X88655625Y-114734420D01*
X89043477Y-114945446D01*
X89081640Y-114949715D01*
X89255000Y-114901238D01*
X89255000Y-113790000D01*
X89505000Y-113790000D01*
X89505000Y-114901238D01*
X89678360Y-114949715D01*
X89716523Y-114945446D01*
X90104375Y-114734420D01*
X90381948Y-114391033D01*
X90506983Y-113967562D01*
X90427902Y-113790000D01*
X89505000Y-113790000D01*
X89255000Y-113790000D01*
X88332098Y-113790000D01*
X88253017Y-113967562D01*
X87011367Y-113967562D01*
X87011367Y-113362438D01*
X88253017Y-113362438D01*
X88332098Y-113540000D01*
X89255000Y-113540000D01*
X89255000Y-112428762D01*
X89505000Y-112428762D01*
X89505000Y-113540000D01*
X90427902Y-113540000D01*
X90506983Y-113362438D01*
X90381948Y-112938967D01*
X90104375Y-112595580D01*
X89716523Y-112384554D01*
X89678360Y-112380285D01*
X89505000Y-112428762D01*
X89255000Y-112428762D01*
X89081640Y-112380285D01*
X89043477Y-112384554D01*
X88655625Y-112595580D01*
X88378052Y-112938967D01*
X88253017Y-113362438D01*
X87011367Y-113362438D01*
X87011367Y-112665000D01*
X86988705Y-112544562D01*
X86917526Y-112433947D01*
X86808920Y-112359740D01*
X86680000Y-112333633D01*
X85080000Y-112333633D01*
X84959562Y-112356295D01*
X84848947Y-112427474D01*
X84774740Y-112536080D01*
X84748633Y-112665000D01*
X80173934Y-112665000D01*
X79920824Y-112052428D01*
X79450050Y-111580832D01*
X78834640Y-111325292D01*
X78168284Y-111324710D01*
X77552428Y-111579176D01*
X77080832Y-112049950D01*
X76825292Y-112665360D01*
X76824710Y-113331716D01*
X75375000Y-113331716D01*
X75375000Y-109648575D01*
X94015292Y-109648575D01*
X94110242Y-109878371D01*
X94285904Y-110054340D01*
X94515534Y-110149691D01*
X94764175Y-110149908D01*
X94993971Y-110054958D01*
X95169940Y-109879296D01*
X95265291Y-109649666D01*
X95265508Y-109401025D01*
X95170558Y-109171229D01*
X94994896Y-108995260D01*
X94765266Y-108899909D01*
X94516625Y-108899692D01*
X94286829Y-108994642D01*
X94110860Y-109170304D01*
X94015509Y-109399934D01*
X94015292Y-109648575D01*
X75375000Y-109648575D01*
X75375000Y-109123775D01*
X88374892Y-109123775D01*
X88469842Y-109353571D01*
X88645504Y-109529540D01*
X88875134Y-109624891D01*
X89123775Y-109625108D01*
X89353571Y-109530158D01*
X89529540Y-109354496D01*
X89624891Y-109124866D01*
X89625108Y-108876225D01*
X89530158Y-108646429D01*
X89354496Y-108470460D01*
X89124866Y-108375109D01*
X88876225Y-108374892D01*
X88646429Y-108469842D01*
X88470460Y-108645504D01*
X88375109Y-108875134D01*
X88374892Y-109123775D01*
X75375000Y-109123775D01*
X75375000Y-106061360D01*
X76820285Y-106061360D01*
X76824554Y-106099523D01*
X77035580Y-106487375D01*
X77378967Y-106764948D01*
X77802438Y-106889983D01*
X77980000Y-106810902D01*
X77980000Y-105888000D01*
X78230000Y-105888000D01*
X78230000Y-106810902D01*
X78407562Y-106889983D01*
X78831033Y-106764948D01*
X79174420Y-106487375D01*
X79385446Y-106099523D01*
X79389715Y-106061360D01*
X79341238Y-105888000D01*
X78230000Y-105888000D01*
X77980000Y-105888000D01*
X76868762Y-105888000D01*
X76820285Y-106061360D01*
X75375000Y-106061360D01*
X75375000Y-105464640D01*
X76820285Y-105464640D01*
X76868762Y-105638000D01*
X77980000Y-105638000D01*
X77980000Y-104715098D01*
X78230000Y-104715098D01*
X78230000Y-105638000D01*
X79341238Y-105638000D01*
X79389715Y-105464640D01*
X79385446Y-105426477D01*
X79174420Y-105038625D01*
X78831033Y-104761052D01*
X78407562Y-104636017D01*
X78230000Y-104715098D01*
X77980000Y-104715098D01*
X77802438Y-104636017D01*
X77378967Y-104761052D01*
X77035580Y-105038625D01*
X76824554Y-105426477D01*
X76820285Y-105464640D01*
X75375000Y-105464640D01*
X75375000Y-104517775D01*
X91830892Y-104517775D01*
X91925842Y-104747571D01*
X92101504Y-104923540D01*
X92331134Y-105018891D01*
X92579775Y-105019108D01*
X92809571Y-104924158D01*
X92985540Y-104748496D01*
X93080891Y-104518866D01*
X93081108Y-104270225D01*
X92986158Y-104040429D01*
X92810496Y-103864460D01*
X92580866Y-103769109D01*
X92332225Y-103768892D01*
X92102429Y-103863842D01*
X91926460Y-104039504D01*
X91831109Y-104269134D01*
X91830892Y-104517775D01*
X75375000Y-104517775D01*
X75375000Y-103623775D01*
X89874892Y-103623775D01*
X89969842Y-103853571D01*
X90145504Y-104029540D01*
X90375134Y-104124891D01*
X90623775Y-104125108D01*
X90853571Y-104030158D01*
X91029540Y-103854496D01*
X91124891Y-103624866D01*
X91125108Y-103376225D01*
X91030158Y-103146429D01*
X90854496Y-102970460D01*
X90624866Y-102875109D01*
X90376225Y-102874892D01*
X90146429Y-102969842D01*
X89970460Y-103145504D01*
X89875109Y-103375134D01*
X89874892Y-103623775D01*
X75375000Y-103623775D01*
X75375000Y-101463000D01*
X76773633Y-101463000D01*
X76773633Y-103063000D01*
X76796295Y-103183438D01*
X76867474Y-103294053D01*
X76976080Y-103368260D01*
X77105000Y-103394367D01*
X79105000Y-103394367D01*
X79225438Y-103371705D01*
X79336053Y-103300526D01*
X79410260Y-103191920D01*
X79436367Y-103063000D01*
X79436367Y-101463000D01*
X79413705Y-101342562D01*
X79342526Y-101231947D01*
X79233920Y-101157740D01*
X79105000Y-101131633D01*
X77105000Y-101131633D01*
X76984562Y-101154295D01*
X76873947Y-101225474D01*
X76799740Y-101334080D01*
X76773633Y-101463000D01*
X75375000Y-101463000D01*
X75375000Y-86653481D01*
X80724866Y-86653481D01*
X80842604Y-86938429D01*
X81060425Y-87156630D01*
X81345167Y-87274865D01*
X81653481Y-87275134D01*
X81938429Y-87157396D01*
X82156630Y-86939575D01*
X82274865Y-86654833D01*
X82275134Y-86346519D01*
X82157396Y-86061571D01*
X81939575Y-85843370D01*
X81654833Y-85725135D01*
X81346519Y-85724866D01*
X81061571Y-85842604D01*
X80843370Y-86060425D01*
X80725135Y-86345167D01*
X80724866Y-86653481D01*
X75375000Y-86653481D01*
X75375000Y-85123775D01*
X80374892Y-85123775D01*
X80469842Y-85353571D01*
X80645504Y-85529540D01*
X80875134Y-85624891D01*
X81123775Y-85625108D01*
X81353571Y-85530158D01*
X81529540Y-85354496D01*
X81624891Y-85124866D01*
X81625108Y-84876225D01*
X81530158Y-84646429D01*
X81507544Y-84623775D01*
X90874892Y-84623775D01*
X90969842Y-84853571D01*
X91145504Y-85029540D01*
X91375134Y-85124891D01*
X91623775Y-85125108D01*
X91853571Y-85030158D01*
X92029540Y-84854496D01*
X92124891Y-84624866D01*
X92125108Y-84376225D01*
X92030158Y-84146429D01*
X91854496Y-83970460D01*
X91624866Y-83875109D01*
X91376225Y-83874892D01*
X91146429Y-83969842D01*
X90970460Y-84145504D01*
X90875109Y-84375134D01*
X90874892Y-84623775D01*
X81507544Y-84623775D01*
X81354496Y-84470460D01*
X81124866Y-84375109D01*
X80876225Y-84374892D01*
X80646429Y-84469842D01*
X80470460Y-84645504D01*
X80375109Y-84875134D01*
X80374892Y-85123775D01*
X75375000Y-85123775D01*
X75375000Y-80123775D01*
X78874892Y-80123775D01*
X78969842Y-80353571D01*
X79145504Y-80529540D01*
X79375134Y-80624891D01*
X79623775Y-80625108D01*
X79853571Y-80530158D01*
X80029540Y-80354496D01*
X80124891Y-80124866D01*
X80125108Y-79876225D01*
X80030158Y-79646429D01*
X79854496Y-79470460D01*
X79624866Y-79375109D01*
X79376225Y-79374892D01*
X79146429Y-79469842D01*
X78970460Y-79645504D01*
X78875109Y-79875134D01*
X78874892Y-80123775D01*
X75375000Y-80123775D01*
X75375000Y-75623775D01*
X78874892Y-75623775D01*
X78969842Y-75853571D01*
X79145504Y-76029540D01*
X79375134Y-76124891D01*
X79623775Y-76125108D01*
X79853571Y-76030158D01*
X80029540Y-75854496D01*
X80124891Y-75624866D01*
X80125108Y-75376225D01*
X80030158Y-75146429D01*
X79854496Y-74970460D01*
X79624866Y-74875109D01*
X79376225Y-74874892D01*
X79146429Y-74969842D01*
X78970460Y-75145504D01*
X78875109Y-75375134D01*
X78874892Y-75623775D01*
X75375000Y-75623775D01*
X75375000Y-74123775D01*
X79624892Y-74123775D01*
X79719842Y-74353571D01*
X79895504Y-74529540D01*
X80125134Y-74624891D01*
X80373775Y-74625108D01*
X80603571Y-74530158D01*
X80779540Y-74354496D01*
X80874891Y-74124866D01*
X80875108Y-73876225D01*
X80780158Y-73646429D01*
X80604496Y-73470460D01*
X80374866Y-73375109D01*
X80126225Y-73374892D01*
X79896429Y-73469842D01*
X79720460Y-73645504D01*
X79625109Y-73875134D01*
X79624892Y-74123775D01*
X75375000Y-74123775D01*
X75375000Y-69623775D01*
X77874892Y-69623775D01*
X77969842Y-69853571D01*
X78145504Y-70029540D01*
X78375134Y-70124891D01*
X78491008Y-70124992D01*
X78470460Y-70145504D01*
X78375109Y-70375134D01*
X78374892Y-70623775D01*
X78469842Y-70853571D01*
X78645504Y-71029540D01*
X78875134Y-71124891D01*
X79123775Y-71125108D01*
X79353571Y-71030158D01*
X79529540Y-70854496D01*
X79624891Y-70624866D01*
X79625108Y-70376225D01*
X79530158Y-70146429D01*
X79354496Y-69970460D01*
X79124866Y-69875109D01*
X79008992Y-69875008D01*
X79029540Y-69854496D01*
X79124891Y-69624866D01*
X79125108Y-69376225D01*
X79030158Y-69146429D01*
X78854496Y-68970460D01*
X78624866Y-68875109D01*
X78376225Y-68874892D01*
X78146429Y-68969842D01*
X77970460Y-69145504D01*
X77875109Y-69375134D01*
X77874892Y-69623775D01*
X75375000Y-69623775D01*
X75375000Y-63831716D01*
X76824710Y-63831716D01*
X77079176Y-64447572D01*
X77549950Y-64919168D01*
X78165360Y-65174708D01*
X78831716Y-65175290D01*
X79297353Y-64982893D01*
X82294814Y-64982893D01*
X82458128Y-65378143D01*
X82760267Y-65680809D01*
X83155231Y-65844813D01*
X83582893Y-65845186D01*
X83978143Y-65681872D01*
X84280809Y-65379733D01*
X84444813Y-64984769D01*
X84445186Y-64557107D01*
X84281872Y-64161857D01*
X83979733Y-63859191D01*
X83584769Y-63695187D01*
X83157107Y-63694814D01*
X82761857Y-63858128D01*
X82459191Y-64160267D01*
X82295187Y-64555231D01*
X82294814Y-64982893D01*
X79297353Y-64982893D01*
X79447572Y-64920824D01*
X79919168Y-64450050D01*
X80174708Y-63834640D01*
X80175290Y-63168284D01*
X79920824Y-62552428D01*
X79811480Y-62442893D01*
X82294814Y-62442893D01*
X82458128Y-62838143D01*
X82760267Y-63140809D01*
X83155231Y-63304813D01*
X83582893Y-63305186D01*
X83978143Y-63141872D01*
X84280809Y-62839733D01*
X84444813Y-62444769D01*
X84444814Y-62442893D01*
X84834814Y-62442893D01*
X84998128Y-62838143D01*
X85300267Y-63140809D01*
X85695231Y-63304813D01*
X86122893Y-63305186D01*
X86518143Y-63141872D01*
X86629706Y-63030503D01*
X87826274Y-63030503D01*
X87911083Y-63184419D01*
X88317345Y-63318003D01*
X88743804Y-63285948D01*
X88988917Y-63184419D01*
X89073726Y-63030503D01*
X88450000Y-62406777D01*
X87826274Y-63030503D01*
X86629706Y-63030503D01*
X86820809Y-62839733D01*
X86984813Y-62444769D01*
X86985116Y-62097345D01*
X87361997Y-62097345D01*
X87394052Y-62523804D01*
X87495581Y-62768917D01*
X87649497Y-62853726D01*
X88273223Y-62230000D01*
X88626777Y-62230000D01*
X89250503Y-62853726D01*
X89404419Y-62768917D01*
X89511619Y-62442893D01*
X89914814Y-62442893D01*
X90078128Y-62838143D01*
X90380267Y-63140809D01*
X90775231Y-63304813D01*
X91202893Y-63305186D01*
X91598143Y-63141872D01*
X91900809Y-62839733D01*
X92064813Y-62444769D01*
X92065186Y-62017107D01*
X91901872Y-61621857D01*
X91599733Y-61319191D01*
X91204769Y-61155187D01*
X90777107Y-61154814D01*
X90381857Y-61318128D01*
X90079191Y-61620267D01*
X89915187Y-62015231D01*
X89914814Y-62442893D01*
X89511619Y-62442893D01*
X89538003Y-62362655D01*
X89505948Y-61936196D01*
X89404419Y-61691083D01*
X89250503Y-61606274D01*
X88626777Y-62230000D01*
X88273223Y-62230000D01*
X87649497Y-61606274D01*
X87495581Y-61691083D01*
X87361997Y-62097345D01*
X86985116Y-62097345D01*
X86985186Y-62017107D01*
X86821872Y-61621857D01*
X86629847Y-61429497D01*
X87826274Y-61429497D01*
X88450000Y-62053223D01*
X89073726Y-61429497D01*
X88988917Y-61275581D01*
X88582655Y-61141997D01*
X88156196Y-61174052D01*
X87911083Y-61275581D01*
X87826274Y-61429497D01*
X86629847Y-61429497D01*
X86519733Y-61319191D01*
X86124769Y-61155187D01*
X85697107Y-61154814D01*
X85301857Y-61318128D01*
X84999191Y-61620267D01*
X84835187Y-62015231D01*
X84834814Y-62442893D01*
X84444814Y-62442893D01*
X84445186Y-62017107D01*
X84281872Y-61621857D01*
X83979733Y-61319191D01*
X83584769Y-61155187D01*
X83157107Y-61154814D01*
X82761857Y-61318128D01*
X82459191Y-61620267D01*
X82295187Y-62015231D01*
X82294814Y-62442893D01*
X79811480Y-62442893D01*
X79450050Y-62080832D01*
X78834640Y-61825292D01*
X78168284Y-61824710D01*
X77552428Y-62079176D01*
X77080832Y-62549950D01*
X76825292Y-63165360D01*
X76824710Y-63831716D01*
X75375000Y-63831716D01*
X75375000Y-62036932D01*
X75505483Y-61380952D01*
X75856146Y-60856146D01*
X76380950Y-60505483D01*
X77036936Y-60375000D01*
X94875000Y-60375000D01*
X94875000Y-62943734D01*
X94875000Y-62943734D01*
G37*
X94875000Y-62943734D02*
X94538182Y-62605233D01*
X94604813Y-62444769D01*
X94605186Y-62017107D01*
X94441872Y-61621857D01*
X94139733Y-61319191D01*
X93744769Y-61155187D01*
X93317107Y-61154814D01*
X92921857Y-61318128D01*
X92619191Y-61620267D01*
X92455187Y-62015231D01*
X92454814Y-62442893D01*
X92618128Y-62838143D01*
X92920267Y-63140809D01*
X93315231Y-63304813D01*
X93742893Y-63305186D01*
X93900305Y-63240144D01*
X94522212Y-63865159D01*
X94526273Y-64332127D01*
X94484419Y-64231083D01*
X94330503Y-64146274D01*
X93706777Y-64770000D01*
X94330503Y-65393726D01*
X94484419Y-65308917D01*
X94533469Y-65159743D01*
X94544037Y-66375000D01*
X90691396Y-66375000D01*
X89459194Y-65142798D01*
X89524813Y-64984769D01*
X89524814Y-64982893D01*
X89914814Y-64982893D01*
X90078128Y-65378143D01*
X90380267Y-65680809D01*
X90775231Y-65844813D01*
X91202893Y-65845186D01*
X91598143Y-65681872D01*
X91709706Y-65570503D01*
X92906274Y-65570503D01*
X92991083Y-65724419D01*
X93397345Y-65858003D01*
X93823804Y-65825948D01*
X94068917Y-65724419D01*
X94153726Y-65570503D01*
X93530000Y-64946777D01*
X92906274Y-65570503D01*
X91709706Y-65570503D01*
X91900809Y-65379733D01*
X92064813Y-64984769D01*
X92065116Y-64637345D01*
X92441997Y-64637345D01*
X92474052Y-65063804D01*
X92575581Y-65308917D01*
X92729497Y-65393726D01*
X93353223Y-64770000D01*
X92729497Y-64146274D01*
X92575581Y-64231083D01*
X92441997Y-64637345D01*
X92065116Y-64637345D01*
X92065186Y-64557107D01*
X91901872Y-64161857D01*
X91709847Y-63969497D01*
X92906274Y-63969497D01*
X93530000Y-64593223D01*
X94153726Y-63969497D01*
X94068917Y-63815581D01*
X93662655Y-63681997D01*
X93236196Y-63714052D01*
X92991083Y-63815581D01*
X92906274Y-63969497D01*
X91709847Y-63969497D01*
X91599733Y-63859191D01*
X91204769Y-63695187D01*
X90777107Y-63694814D01*
X90381857Y-63858128D01*
X90079191Y-64160267D01*
X89915187Y-64555231D01*
X89914814Y-64982893D01*
X89524814Y-64982893D01*
X89525186Y-64557107D01*
X89361872Y-64161857D01*
X89059733Y-63859191D01*
X88664769Y-63695187D01*
X88237107Y-63694814D01*
X87841857Y-63858128D01*
X87539191Y-64160267D01*
X87375187Y-64555231D01*
X87374814Y-64982893D01*
X87538128Y-65378143D01*
X87825683Y-65666200D01*
X87384596Y-65666200D01*
X86902176Y-65183780D01*
X86984813Y-64984769D01*
X86985186Y-64557107D01*
X86821872Y-64161857D01*
X86519733Y-63859191D01*
X86124769Y-63695187D01*
X85697107Y-63694814D01*
X85301857Y-63858128D01*
X84999191Y-64160267D01*
X84835187Y-64555231D01*
X84834814Y-64982893D01*
X84998128Y-65378143D01*
X85300267Y-65680809D01*
X85695231Y-65844813D01*
X86122893Y-65845186D01*
X86241700Y-65796096D01*
X86880002Y-66434398D01*
X87025992Y-66531946D01*
X87198200Y-66566200D01*
X88840604Y-66566200D01*
X93839602Y-71565198D01*
X93985592Y-71662746D01*
X94146886Y-71694829D01*
X94060060Y-71781504D01*
X93964709Y-72011134D01*
X93964492Y-72259775D01*
X94059442Y-72489571D01*
X94190400Y-72620758D01*
X94190400Y-83481204D01*
X89877202Y-87794402D01*
X89779654Y-87940392D01*
X89745400Y-88112600D01*
X89745400Y-97078800D01*
X89779654Y-97251008D01*
X89877202Y-97396998D01*
X89955164Y-97474960D01*
X89797009Y-97474822D01*
X89420143Y-97630541D01*
X89131554Y-97918626D01*
X88975178Y-98295220D01*
X88974822Y-98702991D01*
X89130541Y-99079857D01*
X89418626Y-99368446D01*
X89795220Y-99524822D01*
X90202991Y-99525178D01*
X90579857Y-99369459D01*
X90868446Y-99081374D01*
X91024822Y-98704780D01*
X91024962Y-98544758D01*
X96375000Y-103894796D01*
X96375000Y-109741234D01*
X96220460Y-109895504D01*
X96125109Y-110125134D01*
X96124892Y-110373775D01*
X96219842Y-110603571D01*
X96375000Y-110759000D01*
X96375000Y-116125000D01*
X77036936Y-116125000D01*
X76380950Y-115994517D01*
X75856146Y-115643854D01*
X75505483Y-115119048D01*
X75375000Y-114463068D01*
X75375000Y-113331716D01*
X76824710Y-113331716D01*
X77079176Y-113947572D01*
X77549950Y-114419168D01*
X78165360Y-114674708D01*
X78831716Y-114675290D01*
X79447572Y-114420824D01*
X79919168Y-113950050D01*
X80174708Y-113334640D01*
X80175290Y-112668284D01*
X80173934Y-112665000D01*
X84748633Y-112665000D01*
X84748633Y-114665000D01*
X84771295Y-114785438D01*
X84842474Y-114896053D01*
X84951080Y-114970260D01*
X85080000Y-114996367D01*
X86680000Y-114996367D01*
X86800438Y-114973705D01*
X86911053Y-114902526D01*
X86985260Y-114793920D01*
X87011367Y-114665000D01*
X87011367Y-113967562D01*
X88253017Y-113967562D01*
X88378052Y-114391033D01*
X88655625Y-114734420D01*
X89043477Y-114945446D01*
X89081640Y-114949715D01*
X89255000Y-114901238D01*
X89255000Y-113790000D01*
X89505000Y-113790000D01*
X89505000Y-114901238D01*
X89678360Y-114949715D01*
X89716523Y-114945446D01*
X90104375Y-114734420D01*
X90381948Y-114391033D01*
X90506983Y-113967562D01*
X90427902Y-113790000D01*
X89505000Y-113790000D01*
X89255000Y-113790000D01*
X88332098Y-113790000D01*
X88253017Y-113967562D01*
X87011367Y-113967562D01*
X87011367Y-113362438D01*
X88253017Y-113362438D01*
X88332098Y-113540000D01*
X89255000Y-113540000D01*
X89255000Y-112428762D01*
X89505000Y-112428762D01*
X89505000Y-113540000D01*
X90427902Y-113540000D01*
X90506983Y-113362438D01*
X90381948Y-112938967D01*
X90104375Y-112595580D01*
X89716523Y-112384554D01*
X89678360Y-112380285D01*
X89505000Y-112428762D01*
X89255000Y-112428762D01*
X89081640Y-112380285D01*
X89043477Y-112384554D01*
X88655625Y-112595580D01*
X88378052Y-112938967D01*
X88253017Y-113362438D01*
X87011367Y-113362438D01*
X87011367Y-112665000D01*
X86988705Y-112544562D01*
X86917526Y-112433947D01*
X86808920Y-112359740D01*
X86680000Y-112333633D01*
X85080000Y-112333633D01*
X84959562Y-112356295D01*
X84848947Y-112427474D01*
X84774740Y-112536080D01*
X84748633Y-112665000D01*
X80173934Y-112665000D01*
X79920824Y-112052428D01*
X79450050Y-111580832D01*
X78834640Y-111325292D01*
X78168284Y-111324710D01*
X77552428Y-111579176D01*
X77080832Y-112049950D01*
X76825292Y-112665360D01*
X76824710Y-113331716D01*
X75375000Y-113331716D01*
X75375000Y-109648575D01*
X94015292Y-109648575D01*
X94110242Y-109878371D01*
X94285904Y-110054340D01*
X94515534Y-110149691D01*
X94764175Y-110149908D01*
X94993971Y-110054958D01*
X95169940Y-109879296D01*
X95265291Y-109649666D01*
X95265508Y-109401025D01*
X95170558Y-109171229D01*
X94994896Y-108995260D01*
X94765266Y-108899909D01*
X94516625Y-108899692D01*
X94286829Y-108994642D01*
X94110860Y-109170304D01*
X94015509Y-109399934D01*
X94015292Y-109648575D01*
X75375000Y-109648575D01*
X75375000Y-109123775D01*
X88374892Y-109123775D01*
X88469842Y-109353571D01*
X88645504Y-109529540D01*
X88875134Y-109624891D01*
X89123775Y-109625108D01*
X89353571Y-109530158D01*
X89529540Y-109354496D01*
X89624891Y-109124866D01*
X89625108Y-108876225D01*
X89530158Y-108646429D01*
X89354496Y-108470460D01*
X89124866Y-108375109D01*
X88876225Y-108374892D01*
X88646429Y-108469842D01*
X88470460Y-108645504D01*
X88375109Y-108875134D01*
X88374892Y-109123775D01*
X75375000Y-109123775D01*
X75375000Y-106061360D01*
X76820285Y-106061360D01*
X76824554Y-106099523D01*
X77035580Y-106487375D01*
X77378967Y-106764948D01*
X77802438Y-106889983D01*
X77980000Y-106810902D01*
X77980000Y-105888000D01*
X78230000Y-105888000D01*
X78230000Y-106810902D01*
X78407562Y-106889983D01*
X78831033Y-106764948D01*
X79174420Y-106487375D01*
X79385446Y-106099523D01*
X79389715Y-106061360D01*
X79341238Y-105888000D01*
X78230000Y-105888000D01*
X77980000Y-105888000D01*
X76868762Y-105888000D01*
X76820285Y-106061360D01*
X75375000Y-106061360D01*
X75375000Y-105464640D01*
X76820285Y-105464640D01*
X76868762Y-105638000D01*
X77980000Y-105638000D01*
X77980000Y-104715098D01*
X78230000Y-104715098D01*
X78230000Y-105638000D01*
X79341238Y-105638000D01*
X79389715Y-105464640D01*
X79385446Y-105426477D01*
X79174420Y-105038625D01*
X78831033Y-104761052D01*
X78407562Y-104636017D01*
X78230000Y-104715098D01*
X77980000Y-104715098D01*
X77802438Y-104636017D01*
X77378967Y-104761052D01*
X77035580Y-105038625D01*
X76824554Y-105426477D01*
X76820285Y-105464640D01*
X75375000Y-105464640D01*
X75375000Y-104517775D01*
X91830892Y-104517775D01*
X91925842Y-104747571D01*
X92101504Y-104923540D01*
X92331134Y-105018891D01*
X92579775Y-105019108D01*
X92809571Y-104924158D01*
X92985540Y-104748496D01*
X93080891Y-104518866D01*
X93081108Y-104270225D01*
X92986158Y-104040429D01*
X92810496Y-103864460D01*
X92580866Y-103769109D01*
X92332225Y-103768892D01*
X92102429Y-103863842D01*
X91926460Y-104039504D01*
X91831109Y-104269134D01*
X91830892Y-104517775D01*
X75375000Y-104517775D01*
X75375000Y-103623775D01*
X89874892Y-103623775D01*
X89969842Y-103853571D01*
X90145504Y-104029540D01*
X90375134Y-104124891D01*
X90623775Y-104125108D01*
X90853571Y-104030158D01*
X91029540Y-103854496D01*
X91124891Y-103624866D01*
X91125108Y-103376225D01*
X91030158Y-103146429D01*
X90854496Y-102970460D01*
X90624866Y-102875109D01*
X90376225Y-102874892D01*
X90146429Y-102969842D01*
X89970460Y-103145504D01*
X89875109Y-103375134D01*
X89874892Y-103623775D01*
X75375000Y-103623775D01*
X75375000Y-101463000D01*
X76773633Y-101463000D01*
X76773633Y-103063000D01*
X76796295Y-103183438D01*
X76867474Y-103294053D01*
X76976080Y-103368260D01*
X77105000Y-103394367D01*
X79105000Y-103394367D01*
X79225438Y-103371705D01*
X79336053Y-103300526D01*
X79410260Y-103191920D01*
X79436367Y-103063000D01*
X79436367Y-101463000D01*
X79413705Y-101342562D01*
X79342526Y-101231947D01*
X79233920Y-101157740D01*
X79105000Y-101131633D01*
X77105000Y-101131633D01*
X76984562Y-101154295D01*
X76873947Y-101225474D01*
X76799740Y-101334080D01*
X76773633Y-101463000D01*
X75375000Y-101463000D01*
X75375000Y-86653481D01*
X80724866Y-86653481D01*
X80842604Y-86938429D01*
X81060425Y-87156630D01*
X81345167Y-87274865D01*
X81653481Y-87275134D01*
X81938429Y-87157396D01*
X82156630Y-86939575D01*
X82274865Y-86654833D01*
X82275134Y-86346519D01*
X82157396Y-86061571D01*
X81939575Y-85843370D01*
X81654833Y-85725135D01*
X81346519Y-85724866D01*
X81061571Y-85842604D01*
X80843370Y-86060425D01*
X80725135Y-86345167D01*
X80724866Y-86653481D01*
X75375000Y-86653481D01*
X75375000Y-85123775D01*
X80374892Y-85123775D01*
X80469842Y-85353571D01*
X80645504Y-85529540D01*
X80875134Y-85624891D01*
X81123775Y-85625108D01*
X81353571Y-85530158D01*
X81529540Y-85354496D01*
X81624891Y-85124866D01*
X81625108Y-84876225D01*
X81530158Y-84646429D01*
X81507544Y-84623775D01*
X90874892Y-84623775D01*
X90969842Y-84853571D01*
X91145504Y-85029540D01*
X91375134Y-85124891D01*
X91623775Y-85125108D01*
X91853571Y-85030158D01*
X92029540Y-84854496D01*
X92124891Y-84624866D01*
X92125108Y-84376225D01*
X92030158Y-84146429D01*
X91854496Y-83970460D01*
X91624866Y-83875109D01*
X91376225Y-83874892D01*
X91146429Y-83969842D01*
X90970460Y-84145504D01*
X90875109Y-84375134D01*
X90874892Y-84623775D01*
X81507544Y-84623775D01*
X81354496Y-84470460D01*
X81124866Y-84375109D01*
X80876225Y-84374892D01*
X80646429Y-84469842D01*
X80470460Y-84645504D01*
X80375109Y-84875134D01*
X80374892Y-85123775D01*
X75375000Y-85123775D01*
X75375000Y-80123775D01*
X78874892Y-80123775D01*
X78969842Y-80353571D01*
X79145504Y-80529540D01*
X79375134Y-80624891D01*
X79623775Y-80625108D01*
X79853571Y-80530158D01*
X80029540Y-80354496D01*
X80124891Y-80124866D01*
X80125108Y-79876225D01*
X80030158Y-79646429D01*
X79854496Y-79470460D01*
X79624866Y-79375109D01*
X79376225Y-79374892D01*
X79146429Y-79469842D01*
X78970460Y-79645504D01*
X78875109Y-79875134D01*
X78874892Y-80123775D01*
X75375000Y-80123775D01*
X75375000Y-75623775D01*
X78874892Y-75623775D01*
X78969842Y-75853571D01*
X79145504Y-76029540D01*
X79375134Y-76124891D01*
X79623775Y-76125108D01*
X79853571Y-76030158D01*
X80029540Y-75854496D01*
X80124891Y-75624866D01*
X80125108Y-75376225D01*
X80030158Y-75146429D01*
X79854496Y-74970460D01*
X79624866Y-74875109D01*
X79376225Y-74874892D01*
X79146429Y-74969842D01*
X78970460Y-75145504D01*
X78875109Y-75375134D01*
X78874892Y-75623775D01*
X75375000Y-75623775D01*
X75375000Y-74123775D01*
X79624892Y-74123775D01*
X79719842Y-74353571D01*
X79895504Y-74529540D01*
X80125134Y-74624891D01*
X80373775Y-74625108D01*
X80603571Y-74530158D01*
X80779540Y-74354496D01*
X80874891Y-74124866D01*
X80875108Y-73876225D01*
X80780158Y-73646429D01*
X80604496Y-73470460D01*
X80374866Y-73375109D01*
X80126225Y-73374892D01*
X79896429Y-73469842D01*
X79720460Y-73645504D01*
X79625109Y-73875134D01*
X79624892Y-74123775D01*
X75375000Y-74123775D01*
X75375000Y-69623775D01*
X77874892Y-69623775D01*
X77969842Y-69853571D01*
X78145504Y-70029540D01*
X78375134Y-70124891D01*
X78491008Y-70124992D01*
X78470460Y-70145504D01*
X78375109Y-70375134D01*
X78374892Y-70623775D01*
X78469842Y-70853571D01*
X78645504Y-71029540D01*
X78875134Y-71124891D01*
X79123775Y-71125108D01*
X79353571Y-71030158D01*
X79529540Y-70854496D01*
X79624891Y-70624866D01*
X79625108Y-70376225D01*
X79530158Y-70146429D01*
X79354496Y-69970460D01*
X79124866Y-69875109D01*
X79008992Y-69875008D01*
X79029540Y-69854496D01*
X79124891Y-69624866D01*
X79125108Y-69376225D01*
X79030158Y-69146429D01*
X78854496Y-68970460D01*
X78624866Y-68875109D01*
X78376225Y-68874892D01*
X78146429Y-68969842D01*
X77970460Y-69145504D01*
X77875109Y-69375134D01*
X77874892Y-69623775D01*
X75375000Y-69623775D01*
X75375000Y-63831716D01*
X76824710Y-63831716D01*
X77079176Y-64447572D01*
X77549950Y-64919168D01*
X78165360Y-65174708D01*
X78831716Y-65175290D01*
X79297353Y-64982893D01*
X82294814Y-64982893D01*
X82458128Y-65378143D01*
X82760267Y-65680809D01*
X83155231Y-65844813D01*
X83582893Y-65845186D01*
X83978143Y-65681872D01*
X84280809Y-65379733D01*
X84444813Y-64984769D01*
X84445186Y-64557107D01*
X84281872Y-64161857D01*
X83979733Y-63859191D01*
X83584769Y-63695187D01*
X83157107Y-63694814D01*
X82761857Y-63858128D01*
X82459191Y-64160267D01*
X82295187Y-64555231D01*
X82294814Y-64982893D01*
X79297353Y-64982893D01*
X79447572Y-64920824D01*
X79919168Y-64450050D01*
X80174708Y-63834640D01*
X80175290Y-63168284D01*
X79920824Y-62552428D01*
X79811480Y-62442893D01*
X82294814Y-62442893D01*
X82458128Y-62838143D01*
X82760267Y-63140809D01*
X83155231Y-63304813D01*
X83582893Y-63305186D01*
X83978143Y-63141872D01*
X84280809Y-62839733D01*
X84444813Y-62444769D01*
X84444814Y-62442893D01*
X84834814Y-62442893D01*
X84998128Y-62838143D01*
X85300267Y-63140809D01*
X85695231Y-63304813D01*
X86122893Y-63305186D01*
X86518143Y-63141872D01*
X86629706Y-63030503D01*
X87826274Y-63030503D01*
X87911083Y-63184419D01*
X88317345Y-63318003D01*
X88743804Y-63285948D01*
X88988917Y-63184419D01*
X89073726Y-63030503D01*
X88450000Y-62406777D01*
X87826274Y-63030503D01*
X86629706Y-63030503D01*
X86820809Y-62839733D01*
X86984813Y-62444769D01*
X86985116Y-62097345D01*
X87361997Y-62097345D01*
X87394052Y-62523804D01*
X87495581Y-62768917D01*
X87649497Y-62853726D01*
X88273223Y-62230000D01*
X88626777Y-62230000D01*
X89250503Y-62853726D01*
X89404419Y-62768917D01*
X89511619Y-62442893D01*
X89914814Y-62442893D01*
X90078128Y-62838143D01*
X90380267Y-63140809D01*
X90775231Y-63304813D01*
X91202893Y-63305186D01*
X91598143Y-63141872D01*
X91900809Y-62839733D01*
X92064813Y-62444769D01*
X92065186Y-62017107D01*
X91901872Y-61621857D01*
X91599733Y-61319191D01*
X91204769Y-61155187D01*
X90777107Y-61154814D01*
X90381857Y-61318128D01*
X90079191Y-61620267D01*
X89915187Y-62015231D01*
X89914814Y-62442893D01*
X89511619Y-62442893D01*
X89538003Y-62362655D01*
X89505948Y-61936196D01*
X89404419Y-61691083D01*
X89250503Y-61606274D01*
X88626777Y-62230000D01*
X88273223Y-62230000D01*
X87649497Y-61606274D01*
X87495581Y-61691083D01*
X87361997Y-62097345D01*
X86985116Y-62097345D01*
X86985186Y-62017107D01*
X86821872Y-61621857D01*
X86629847Y-61429497D01*
X87826274Y-61429497D01*
X88450000Y-62053223D01*
X89073726Y-61429497D01*
X88988917Y-61275581D01*
X88582655Y-61141997D01*
X88156196Y-61174052D01*
X87911083Y-61275581D01*
X87826274Y-61429497D01*
X86629847Y-61429497D01*
X86519733Y-61319191D01*
X86124769Y-61155187D01*
X85697107Y-61154814D01*
X85301857Y-61318128D01*
X84999191Y-61620267D01*
X84835187Y-62015231D01*
X84834814Y-62442893D01*
X84444814Y-62442893D01*
X84445186Y-62017107D01*
X84281872Y-61621857D01*
X83979733Y-61319191D01*
X83584769Y-61155187D01*
X83157107Y-61154814D01*
X82761857Y-61318128D01*
X82459191Y-61620267D01*
X82295187Y-62015231D01*
X82294814Y-62442893D01*
X79811480Y-62442893D01*
X79450050Y-62080832D01*
X78834640Y-61825292D01*
X78168284Y-61824710D01*
X77552428Y-62079176D01*
X77080832Y-62549950D01*
X76825292Y-63165360D01*
X76824710Y-63831716D01*
X75375000Y-63831716D01*
X75375000Y-62036932D01*
X75505483Y-61380952D01*
X75856146Y-60856146D01*
X76380950Y-60505483D01*
X77036936Y-60375000D01*
X94875000Y-60375000D01*
X94875000Y-62943734D01*
M02*
