G04 #@! TF.FileFunction,Paste,Bot*
%FSLAX46Y46*%
G04 Gerber Fmt 4.6, Leading zero omitted, Abs format (unit mm)*
G04 Created by KiCad (PCBNEW 4.0.2+dfsg1-stable) date Sat 19 Aug 2017 09:03:07 PM PDT*
%MOMM*%
G01*
G04 APERTURE LIST*
%ADD10C,0.100000*%
%ADD11R,0.599440X0.899160*%
%ADD12R,0.497840X0.599440*%
%ADD13R,0.899160X2.499360*%
%ADD14R,0.450000X0.590000*%
%ADD15R,0.599440X0.497840*%
%ADD16R,0.899160X0.419100*%
%ADD17R,0.797560X0.899160*%
%ADD18R,0.899160X0.797560*%
G04 APERTURE END LIST*
D10*
D11*
X116249300Y-80500000D03*
X114750700Y-80500000D03*
D12*
X94548640Y-85000000D03*
X93451360Y-85000000D03*
D11*
X93749300Y-86500000D03*
X92250700Y-86500000D03*
D13*
X81991200Y-80264000D03*
X84886800Y-80264000D03*
X81991200Y-73152000D03*
X84886800Y-73152000D03*
X81991200Y-69596000D03*
X84886800Y-69596000D03*
X81991200Y-76708000D03*
X84886800Y-76708000D03*
X89947800Y-95000000D03*
X87052200Y-95000000D03*
D14*
X89000000Y-104945000D03*
X89000000Y-107055000D03*
D11*
X119249300Y-82000000D03*
X117750700Y-82000000D03*
X116249300Y-82000000D03*
X114750700Y-82000000D03*
D12*
X132451360Y-70000000D03*
X133548640Y-70000000D03*
X135951360Y-69500000D03*
X137048640Y-69500000D03*
X135951360Y-68000000D03*
X137048640Y-68000000D03*
X99451360Y-104500000D03*
X100548640Y-104500000D03*
D15*
X105500000Y-111951360D03*
X105500000Y-113048640D03*
X92075000Y-107782360D03*
X92075000Y-108879640D03*
X105500000Y-108951360D03*
X105500000Y-110048640D03*
X97500000Y-93048640D03*
X97500000Y-91951360D03*
D12*
X80951360Y-82700000D03*
X82048640Y-82700000D03*
X83451360Y-82700000D03*
X84548640Y-82700000D03*
D15*
X122618500Y-76667360D03*
X122618500Y-77764640D03*
X123952000Y-76667360D03*
X123952000Y-77764640D03*
X96774000Y-99354640D03*
X96774000Y-98257360D03*
X97500000Y-96548640D03*
X97500000Y-95451360D03*
X98000000Y-108548640D03*
X98000000Y-107451360D03*
D16*
X125643640Y-83170880D03*
X125643640Y-82370780D03*
X125643640Y-81573220D03*
X125643640Y-80773120D03*
X127340360Y-80773120D03*
X127340360Y-81573220D03*
X127340360Y-82370780D03*
X127340360Y-83170880D03*
D17*
X100050040Y-107001780D03*
X101949960Y-107001780D03*
X101000000Y-108998220D03*
D18*
X102998220Y-111550040D03*
X102998220Y-113449960D03*
X101001780Y-112500000D03*
M02*
